<?xml version="1.0" encoding="UTF-8" standalone="no"?>
<!DOCTYPE svg PUBLIC "-//W3C//DTD SVG 1.1//EN" "http://www.w3.org/Graphics/SVG/1.1/DTD/svg11.dtd">
<svg xmlns="http://www.w3.org/2000/svg" version="1.1" viewBox="0.00 0.00 500.00 500.00">
<g stroke-width="2.00" fill="none" stroke-linecap="butt">
<path stroke="#cdcbcd" vector-effect="non-scaling-stroke" d="
  M 130.90 312.78
  L 130.75 324.68
  Q 130.75 325.21 130.23 325.29
  Q 125.98 325.94 122.50 328.52
  A 1.12 1.12 0.0 0 0 122.54 330.34
  C 128.18 334.17 138.71 335.66 145.45 336.53
  C 191.78 342.56 238.34 343.54 284.99 342.08
  C 311.24 341.27 341.60 339.34 368.39 333.44
  C 370.88 332.90 373.33 331.82 375.41 330.64
  A 1.40 1.40 0.0 0 0 375.47 328.25
  Q 371.70 325.81 367.95 325.13"
/>
<path stroke="#808080" vector-effect="non-scaling-stroke" d="
  M 367.95 325.13
  L 367.99 314.51
  Q 368.01 310.93 364.42 310.95
  L 336.71 311.11
  Q 336.08 311.11 336.51 310.66
  C 344.25 302.28 336.55 292.49 329.30 287.67
  Q 328.85 287.37 328.92 286.84
  Q 330.59 273.25 330.73 267.25
  C 330.90 260.44 326.38 257.55 320.00 257.51
  Q 305.78 257.41 291.57 257.38
  Q 291.07 257.38 290.74 257.00
  Q 286.68 252.43 280.80 250.69
  A 0.52 0.52 0.0 0 1 280.81 249.69
  C 291.29 246.89 306.10 240.35 308.46 228.28
  A 0.62 0.62 0.0 0 1 309.10 227.78
  C 321.27 228.49 329.62 217.04 330.50 206.24
  C 330.95 200.65 328.09 191.28 321.84 189.19
  Q 321.35 189.02 321.50 188.53
  L 326.30 173.19
  Q 326.45 172.71 326.87 172.44
  Q 327.52 172.03 327.80 171.39
  C 337.48 148.94 333.04 124.98 312.82 110.29
  A 0.30 0.30 0.0 0 1 313.01 109.74
  L 318.43 110.07
  A 1.38 1.38 0.0 0 0 319.49 107.71
  C 310.33 98.68 296.74 93.12 284.37 89.99
  Q 283.74 89.83 284.14 89.32
  C 287.81 84.62 293.65 83.25 299.14 81.78
  Q 301.55 81.14 299.61 79.18
  A 3.43 3.40 77.9 0 0 298.43 78.41
  C 275.53 69.84 249.97 71.82 226.97 79.49
  Q 226.27 79.72 226.58 79.05
  Q 228.55 74.80 231.52 71.19
  A 1.72 1.72 0.0 0 0 229.88 68.41
  C 214.87 71.19 198.91 86.55 191.11 98.97
  Q 190.87 99.36 190.46 99.55
  C 183.84 102.64 180.60 90.99 179.46 85.76
  Q 179.10 84.13 178.27 83.41
  A 1.53 1.53 0.0 0 0 175.74 84.40
  C 174.51 95.54 175.01 104.97 178.97 115.60
  Q 179.20 116.22 178.54 116.21
  Q 176.98 116.17 175.48 115.53
  C 164.61 110.89 161.99 100.24 161.58 89.51
  Q 161.55 88.56 161.19 88.08
  Q 160.31 86.92 158.65 88.06
  A 2.12 2.11 83.7 0 0 157.86 89.05
  Q 148.24 113.65 156.64 138.83
  Q 157.89 142.60 161.55 146.97
  Q 162.15 147.69 161.25 147.43
  Q 157.54 146.36 154.22 144.46
  A 1.68 1.68 0.0 0 0 151.70 145.93
  C 151.74 150.44 157.33 158.65 160.15 162.11
  Q 161.84 164.19 162.57 166.40
  Q 166.19 177.35 169.83 188.23
  Q 169.98 188.70 169.58 188.98
  C 153.29 200.22 163.25 228.33 183.06 227.72
  Q 183.57 227.71 183.69 228.20
  C 186.66 240.79 202.54 246.96 213.71 249.69
  A 0.42 0.41 42.9 0 1 213.74 250.49
  Q 207.96 252.33 203.95 256.86
  Q 203.61 257.26 203.08 257.26
  Q 190.24 257.38 177.37 257.51
  C 168.67 257.60 167.41 263.61 168.17 271.19
  Q 168.92 278.82 169.52 286.50
  Q 169.56 287.00 169.12 287.26
  C 161.58 291.73 154.30 303.28 162.45 310.75
  Q 163.00 311.26 162.26 311.25
  Q 143.37 311.16 134.51 310.93
  Q 132.19 310.87 130.90 312.78"
/>
<path stroke="#4e4c4e" vector-effect="non-scaling-stroke" d="
  M 367.95 325.13
  C 368.56 328.66 368.06 330.51 364.10 330.51
  Q 248.46 330.47 132.88 330.50
  A 2.00 2.00 0.0 0 1 130.88 328.50
  L 130.90 312.78"
/>
<path stroke="#fff1e7" vector-effect="non-scaling-stroke" d="
  M 141.96 395.14
  C 150.54 412.95 171.92 416.21 187.30 405.24
  A 0.58 0.57 52.7 0 1 188.07 405.35
  C 194.33 412.96 205.54 411.80 213.53 407.70
  Q 214.00 407.45 214.00 406.92
  L 214.00 403.36
  A 0.95 0.95 0.0 0 1 214.90 402.41
  L 220.47 402.13
  A 0.51 0.50 78.2 0 1 220.97 402.46
  C 224.34 411.99 237.17 412.46 244.79 408.54
  Q 245.22 408.32 245.67 408.51
  C 257.85 413.61 273.97 412.76 282.46 401.55
  Q 282.85 401.04 283.16 401.60
  C 284.12 403.35 284.88 405.34 286.07 406.67
  C 291.66 412.92 303.69 410.66 310.60 408.28
  A 0.64 0.63 -9.7 0 0 311.03 407.68
  L 311.09 399.76
  A 0.24 0.24 0.0 0 1 311.56 399.72
  C 312.78 406.73 319.23 410.33 325.82 410.59
  C 332.03 410.84 346.65 412.17 351.62 408.56
  A 0.86 0.86 0.0 0 1 352.55 408.52
  C 358.11 411.82 366.35 410.86 372.32 409.23
  C 373.16 409.00 373.65 408.83 374.55 409.20
  C 384.94 413.59 396.69 408.47 397.57 396.41
  Q 397.61 395.93 397.34 395.54
  L 392.24 388.08
  Q 391.92 387.61 392.26 387.17
  C 398.40 379.18 396.42 367.44 390.45 361.04
  C 383.13 353.20 371.97 352.17 361.50 353.56
  Q 356.41 354.23 353.56 355.80
  A 0.67 0.66 58.9 0 1 352.68 355.58
  L 351.95 354.49
  Q 351.63 354.01 351.06 354.01
  Q 338.78 353.99 326.50 353.97
  Q 322.57 353.97 318.83 355.39
  Q 318.15 355.65 318.04 354.93
  Q 317.91 354.11 316.68 353.86
  Q 316.19 353.76 315.69 353.76
  Q 299.75 353.72 283.81 353.78
  Q 281.06 353.79 277.32 355.87
  Q 276.88 356.12 276.41 355.92
  C 265.96 351.61 252.94 351.84 243.70 359.06
  Q 243.30 359.37 242.96 359.00
  C 236.16 351.92 223.96 352.77 216.48 357.78
  Q 216.06 358.06 215.66 357.76
  C 207.81 351.90 195.98 352.36 189.49 360.31
  A 0.70 0.70 0.0 0 1 188.50 360.39
  C 177.94 351.36 162.74 350.48 151.11 358.06
  Q 150.66 358.35 150.39 357.90
  L 148.17 354.23
  Q 147.88 353.76 147.32 353.75
  Q 131.28 353.74 115.26 353.76
  C 100.01 353.79 99.65 370.83 107.23 379.88
  Q 107.54 380.25 108.02 380.25
  L 112.27 380.25
  A 0.99 0.98 89.7 0 1 113.25 381.23
  C 113.26 388.06 112.28 398.07 114.52 403.42
  C 118.68 413.36 132.40 411.21 140.91 408.35
  Q 141.51 408.15 141.50 407.53
  L 141.50 395.25
  Q 141.50 394.18 141.96 395.14"
/>
<path stroke="#161418" vector-effect="non-scaling-stroke" d="
  M 190.89 105.32
  Q 190.71 105.76 190.27 105.77
  Q 189.69 105.78 189.54 105.22
  L 189.24 103.98
  Q 189.09 103.40 188.49 103.36
  Q 184.86 103.12 182.25 100.21"
/>
<path stroke="#212327" vector-effect="non-scaling-stroke" d="
  M 182.25 100.21
  L 178.67 93.12
  Q 177.93 91.65 177.85 93.30
  C 177.44 102.85 178.95 112.07 185.60 119.21"
/>
<path stroke="#161418" vector-effect="non-scaling-stroke" d="
  M 185.60 119.21
  Q 185.60 119.61 184.77 120.00"
/>
<path stroke="#212327" vector-effect="non-scaling-stroke" d="
  M 184.77 120.00
  C 170.03 120.45 159.79 109.42 159.38 95.08
  A 0.42 0.42 0.0 0 0 158.56 94.99
  C 156.37 103.16 155.50 110.93 155.96 119.56
  C 156.65 132.50 158.92 142.90 169.89 150.88
  A 0.33 0.33 0.0 0 1 169.72 151.48
  Q 162.35 152.17 155.97 148.59
  Q 155.41 148.28 155.57 148.90
  Q 156.09 151.00 157.09 151.89"
/>
<path stroke="#100e11" vector-effect="non-scaling-stroke" d="
  M 157.09 151.89
  L 159.27 156.02"
/>
<path stroke="#212327" vector-effect="non-scaling-stroke" d="
  M 159.27 156.02
  C 161.77 159.81 164.96 162.64 166.16 167.50
  C 167.92 174.65 170.62 181.97 172.92 187.81
  Q 173.39 189.00 174.69 188.65"
/>
<path stroke="#100e11" vector-effect="non-scaling-stroke" d="
  M 174.69 188.65
  L 178.27 191.27
  Q 178.82 191.67 178.77 190.99
  C 178.46 186.10 178.15 181.06 179.14 176.37
  C 181.86 163.61 189.59 145.33 204.26 143.74
  Q 212.66 142.83 222.01 142.03
  A 0.53 0.53 0.0 0 0 222.18 141.01
  Q 213.75 137.41 210.47 128.74
  A 0.09 0.09 0.0 0 1 210.63 128.66
  C 216.90 138.00 225.14 139.52 236.00 139.90
  C 241.56 140.09 247.85 139.91 252.87 137.50
  Q 253.39 137.25 252.95 136.87
  Q 242.66 128.13 229.19 124.55"
/>
<path stroke="#161418" vector-effect="non-scaling-stroke" d="
  M 229.19 124.55
  Q 243.92 125.46 256.80 136.11"
/>
<path stroke="#100e11" vector-effect="non-scaling-stroke" d="
  M 256.80 136.11
  Q 267.10 145.55 274.64 158.07
  Q 275.12 158.85 275.10 157.93
  L 274.95 150.40"
/>
<path stroke="#212327" vector-effect="non-scaling-stroke" d="
  M 274.95 150.40
  Q 275.36 143.00 272.38 134.53"
/>
<path stroke="#100e11" vector-effect="non-scaling-stroke" d="
  M 272.38 134.53
  Q 274.17 136.44 274.86 139.47
  Q 274.99 140.01 275.49 140.25
  C 286.89 145.72 294.33 153.15 302.69 162.34"
/>
<path stroke="#161418" vector-effect="non-scaling-stroke" d="
  M 302.69 162.34
  Q 303.09 163.04 303.69 163.51
  A 0.29 0.29 0.0 0 0 304.14 163.37
  Q 308.54 149.11 305.15 134.30"
/>
<path stroke="#100e11" vector-effect="non-scaling-stroke" d="
  M 305.15 134.30
  Q 307.82 138.92 307.49 145.21
  Q 307.46 145.78 307.89 146.17
  Q 318.12 155.53 325.26 167.43
  A 0.60 0.59 -50.6 0 0 326.33 167.32
  Q 328.92 160.26 329.56 153.28"
/>
<path stroke="#212327" vector-effect="non-scaling-stroke" d="
  M 329.56 153.28
  C 331.94 132.24 320.55 116.46 301.78 107.89"
/>
<path stroke="#161418" vector-effect="non-scaling-stroke" d="
  M 301.78 107.89
  Q 304.88 106.43 309.78 106.38"
/>
<path stroke="#212327" vector-effect="non-scaling-stroke" d="
  M 309.78 106.38
  Q 311.31 106.75 312.48 106.77
  Q 314.47 106.80 312.81 105.71
  Q 297.00 95.31 279.29 91.77"
/>
<path stroke="#100e11" vector-effect="non-scaling-stroke" d="
  M 279.29 91.77
  Q 282.69 84.11 291.34 80.83"
/>
<path stroke="#212327" vector-effect="non-scaling-stroke" d="
  M 291.34 80.83
  Q 292.64 80.82 293.43 80.38
  Q 294.82 79.61 293.28 79.24
  Q 256.95 70.51 222.64 84.25"
/>
<path stroke="#161418" vector-effect="non-scaling-stroke" d="
  M 222.64 84.25
  Q 222.60 80.23 225.05 75.45"
/>
<path stroke="#212327" vector-effect="non-scaling-stroke" d="
  M 225.05 75.45
  L 226.97 72.76
  A 0.40 0.40 0.0 0 0 226.48 72.16
  Q 203.01 82.96 190.89 105.32"
/>
<path stroke="#35363e" vector-effect="non-scaling-stroke" d="
  M 225.05 75.45
  Q 223.66 75.43 222.74 75.98
  Q 207.06 85.36 198.17 100.68
  Q 197.29 102.20 193.89 103.37
  A 1.08 1.04 -84.1 0 0 193.31 103.86
  Q 191.96 106.34 190.89 105.32"
/>
<path stroke="#35363e" vector-effect="non-scaling-stroke" d="
  M 222.64 84.25
  L 214.24 88.93
  A 0.74 0.58 11.2 0 0 215.11 89.94
  Q 229.08 83.50 243.87 81.16
  C 253.09 79.70 263.64 80.26 273.51 80.51
  C 276.76 80.60 280.85 77.78 283.57 79.72"
/>
<path stroke="#252127" vector-effect="non-scaling-stroke" d="
  M 283.57 79.72
  C 272.59 85.12 264.24 88.10 254.71 89.78
  C 247.40 91.06 239.59 92.90 231.95 97.65
  Q 231.60 97.87 231.99 97.99
  Q 232.60 98.17 233.08 97.53"
/>
<path stroke="#35363e" vector-effect="non-scaling-stroke" d="
  M 233.08 97.53
  Q 235.01 97.46 237.08 96.70
  C 257.82 89.06 284.13 94.39 303.96 103.03
  Q 306.73 104.24 309.78 106.38"
/>
<path stroke="#35363e" vector-effect="non-scaling-stroke" d="
  M 301.78 107.89
  Q 301.15 109.10 299.75 107.89
  Q 299.38 107.57 298.92 107.38
  Q 298.36 107.16 297.87 107.29
  A 0.59 0.59 0.0 0 0 297.74 108.38
  Q 316.34 118.48 323.64 138.37"
/>
<path stroke="#252127" vector-effect="non-scaling-stroke" d="
  M 323.64 138.37
  Q 314.72 133.19 306.26 133.08
  A 0.72 0.72 0.0 0 1 305.61 132.64
  L 302.47 125.17
  A 0.21 0.21 0.0 0 0 302.07 125.32
  L 305.15 134.30"
/>
<path stroke="#252127" vector-effect="non-scaling-stroke" d="
  M 302.69 162.34
  Q 306.49 147.87 303.98 133.22
  Q 303.90 132.75 303.43 132.70
  L 271.99 129.70
  Q 271.57 129.66 271.37 129.29
  Q 270.42 127.49 268.98 126.63"
/>
<path stroke="#35363e" vector-effect="non-scaling-stroke" d="
  M 268.98 126.63
  Q 268.79 126.27 268.49 126.14
  Q 267.95 125.90 268.12 126.47
  L 268.82 128.69"
/>
<path stroke="#252127" vector-effect="non-scaling-stroke" d="
  M 268.82 128.69
  Q 255.19 128.26 242.14 125.56
  A 0.28 0.28 0.0 0 0 241.91 126.06
  C 243.70 127.48 246.20 128.06 247.77 128.92
  Q 252.98 131.75 256.80 136.11"
/>
<path stroke="#252127" vector-effect="non-scaling-stroke" d="
  M 229.19 124.55
  Q 215.77 120.88 201.57 122.66
  Q 200.09 122.85 199.55 123.28
  C 192.20 129.19 184.35 133.93 174.52 133.49
  Q 174.03 133.47 173.69 133.83
  L 165.38 142.76"
/>
<path stroke="#35363e" vector-effect="non-scaling-stroke" d="
  M 165.38 142.76
  Q 160.08 134.11 158.49 123.60
  C 157.72 118.49 157.95 112.62 158.09 107.06
  A 0.48 0.47 -50.9 0 1 159.03 106.96
  Q 163.37 126.15 182.92 124.58
  C 185.93 124.34 189.11 123.07 192.07 122.09
  Q 192.30 122.02 192.25 121.75
  A 0.27 0.27 0.0 0 0 191.93 121.52
  L 186.82 122.36
  A 0.78 0.78 0.0 0 1 185.95 121.85
  Q 185.47 120.50 184.77 120.00"
/>
<path stroke="#35363e" vector-effect="non-scaling-stroke" d="
  M 185.60 119.21
  Q 186.25 119.43 186.61 119.02
  A 0.74 0.74 0.0 0 0 186.68 118.11
  Q 181.87 110.90 180.89 102.28
  Q 180.84 101.78 181.29 101.58
  Q 182.23 101.16 182.25 100.21"
/>
<path stroke="#302f37" vector-effect="non-scaling-stroke" d="
  M 165.38 142.76
  Q 169.39 148.89 174.87 152.66
  A 0.34 0.34 0.0 0 1 174.59 153.26
  L 172.87 152.79
  Q 172.31 152.64 171.75 152.79
  Q 164.88 154.53 157.09 151.89"
/>
<path stroke="#302f37" vector-effect="non-scaling-stroke" d="
  M 268.82 128.69
  Q 270.85 133.41 272.02 138.50
  Q 273.25 143.88 274.28 151.90
  A 0.19 0.19 0.0 0 0 274.66 151.91
  L 274.95 150.40"
/>
<path stroke="#302f37" vector-effect="non-scaling-stroke" d="
  M 329.56 153.28
  L 327.70 153.15
  Q 327.21 153.12 327.09 152.63
  L 323.64 138.37"
/>
<path stroke="#302f37" vector-effect="non-scaling-stroke" d="
  M 279.29 91.77
  Q 255.21 87.16 233.08 97.53"
/>
<path stroke="#302f37" vector-effect="non-scaling-stroke" d="
  M 268.98 126.63
  L 272.38 134.53"
/>
<path stroke="#302f37" vector-effect="non-scaling-stroke" d="
  M 291.34 80.83
  Q 286.63 78.41 283.57 79.72"
/>
<path stroke="#302f37" vector-effect="non-scaling-stroke" d="
  M 174.69 188.65
  Q 170.27 176.30 165.69 164.02
  Q 164.75 161.50 160.63 156.37
  Q 160.30 155.96 159.77 155.99
  L 159.27 156.02"
/>
<path stroke="#7e6756" vector-effect="non-scaling-stroke" d="
  M 184.11 169.69
  Q 180.96 178.33 181.71 186.76"
/>
<path stroke="#807268" vector-effect="non-scaling-stroke" d="
  M 181.71 186.76
  Q 182.57 206.35 186.33 225.55
  C 188.57 236.94 198.12 241.54 208.79 244.93"
/>
<path stroke="#7e6756" vector-effect="non-scaling-stroke" d="
  M 208.79 244.93
  Q 226.91 251.48 247.00 251.86"
/>
<path stroke="#624b3f" vector-effect="non-scaling-stroke" d="
  M 247.00 251.86
  Q 260.90 252.78 274.32 248.46"
/>
<path stroke="#7e6756" vector-effect="non-scaling-stroke" d="
  M 274.32 248.46
  L 280.33 246.55"
/>
<path stroke="#807268" vector-effect="non-scaling-stroke" d="
  M 280.33 246.55
  Q 290.91 243.84 299.17 237.60
  C 305.53 232.79 306.12 226.44 307.27 218.50
  Q 309.58 202.62 309.99 193.45"
/>
<path stroke="#7e6756" vector-effect="non-scaling-stroke" d="
  M 309.99 193.45
  C 311.26 185.77 311.31 177.24 308.28 169.66"
/>
<path stroke="#624b3f" vector-effect="non-scaling-stroke" d="
  M 308.28 169.66
  L 307.13 165.96
  A 0.36 0.36 0.0 0 0 306.42 166.08
  Q 306.49 168.15 304.75 168.78
  Q 304.22 168.97 303.85 168.54
  C 295.90 159.02 288.86 151.44 278.68 145.28
  A 0.50 0.50 0.0 0 0 277.92 145.73
  Q 278.42 155.17 277.30 164.55
  A 1.51 1.51 0.0 0 1 274.42 164.98
  Q 268.11 150.60 256.54 139.99
  Q 256.13 139.62 255.61 139.79
  C 253.10 140.62 250.64 141.80 248.15 142.12
  C 241.93 142.93 234.35 141.75 228.61 143.46
  C 220.51 145.87 210.41 145.80 204.50 146.76
  C 193.12 148.61 187.70 159.94 184.11 169.69"
/>
<path stroke="#dfb194" vector-effect="non-scaling-stroke" d="
  M 308.28 169.66
  L 305.56 180.38
  Q 305.45 180.84 305.08 180.53
  L 279.92 159.32
  A 0.77 0.77 0.0 0 0 278.68 160.09
  L 280.83 169.19"
/>
<path stroke="#624b3f" vector-effect="non-scaling-stroke" d="
  M 280.83 169.19
  Q 275.79 170.89 272.22 175.25"
/>
<path stroke="#dfb194" vector-effect="non-scaling-stroke" d="
  M 272.22 175.25
  C 259.26 154.82 238.44 143.47 214.10 148.11
  C 198.57 151.06 189.08 160.67 185.58 175.99
  Q 185.52 176.25 185.26 176.25
  Q 185.11 176.25 184.98 176.25
  A 0.35 0.35 0.0 0 1 184.64 175.82
  Q 185.39 172.34 184.11 169.69"
/>
<path stroke="#7e6756" vector-effect="non-scaling-stroke" d="
  M 272.22 175.25
  C 270.74 177.29 269.70 184.53 273.92 183.45"
/>
<path stroke="#dfb194" vector-effect="non-scaling-stroke" d="
  M 273.92 183.45
  L 274.20 184.17
  Q 274.38 184.65 273.96 184.95
  L 272.18 186.23
  Q 271.84 186.47 272.14 186.76
  L 272.38 187.00
  Q 273.06 187.68 272.34 188.32
  C 267.80 192.39 266.88 200.32 267.79 206.01"
/>
<path stroke="#ad7e62" vector-effect="non-scaling-stroke" d="
  M 267.79 206.01
  Q 268.90 207.63 268.54 208.56"
/>
<path stroke="#fde6d5" vector-effect="non-scaling-stroke" d="
  M 268.54 208.56
  Q 267.65 210.24 268.07 212.38
  Q 268.16 212.85 268.52 213.16
  C 276.74 220.33 284.63 218.71 295.08 216.49
  Q 295.57 216.38 295.71 215.91
  L 297.62 209.63"
/>
<path stroke="#7e6756" vector-effect="non-scaling-stroke" d="
  M 297.62 209.63
  C 303.78 197.28 296.25 183.92 281.78 184.68"
/>
<path stroke="#dfb194" vector-effect="non-scaling-stroke" d="
  M 281.78 184.68
  L 288.84 178.71
  Q 289.21 178.40 289.68 178.33
  L 291.59 178.06"
/>
<path stroke="#7e6756" vector-effect="non-scaling-stroke" d="
  M 291.59 178.06
  L 296.23 180.82
  A 1.48 1.48 0.0 0 0 298.47 179.55
  C 298.50 175.14 290.24 170.11 286.69 168.90
  C 284.71 168.22 282.87 168.74 280.83 169.19"
/>
<path stroke="#fdd8bd" vector-effect="non-scaling-stroke" d="
  M 309.99 193.45
  L 303.41 223.06
  Q 303.27 223.73 302.75 223.28
  C 297.61 218.81 285.59 222.61 280.54 225.76
  A 1.64 1.64 0.0 0 0 280.04 228.06
  C 283.24 232.83 296.16 230.98 300.88 229.26
  A 0.34 0.33 4.9 0 1 301.29 229.74
  C 297.21 236.84 287.71 242.61 280.33 246.55"
/>
<path stroke="#dfb194" vector-effect="non-scaling-stroke" d="
  M 274.32 248.46
  L 247.00 251.86"
/>
<path stroke="#fdd8bd" vector-effect="non-scaling-stroke" d="
  M 208.79 244.93
  Q 201.79 240.58 196.02 235.61
  C 193.41 233.36 191.84 230.89 190.45 227.89
  A 0.25 0.25 0.0 0 1 190.81 227.57
  Q 200.03 233.15 210.77 230.77
  Q 212.61 230.36 212.96 228.72
  A 0.89 0.88 -64.0 0 0 212.67 227.86
  C 208.47 224.31 194.97 218.02 190.01 222.34
  A 0.65 0.64 61.8 0 1 188.96 222.02
  Q 184.29 204.67 182.84 186.80
  A 0.48 0.48 0.0 0 0 182.05 186.47
  L 181.71 186.76"
/>
<path stroke="#624b3f" vector-effect="non-scaling-stroke" d="
  M 291.59 178.06
  C 284.12 176.51 279.68 180.26 273.92 183.45"
/>
<path stroke="#808080" vector-effect="non-scaling-stroke" d="
  M 297.62 209.63
  L 297.50 201.84"
/>
<path stroke="#4e4c4e" vector-effect="non-scaling-stroke" d="
  M 297.50 201.84
  C 296.65 191.54 286.08 183.31 276.86 190.54
  Q 276.40 190.89 276.98 190.83
  Q 282.65 190.22 286.77 193.31"
/>
<path stroke="#808080" vector-effect="non-scaling-stroke" d="
  M 286.77 193.31
  Q 292.09 198.06 291.78 204.63"
/>
<path stroke="#30190d" vector-effect="non-scaling-stroke" d="
  M 291.78 204.63
  C 287.63 204.08 288.49 207.24 287.31 209.28
  Q 285.77 211.96 283.70 212.54
  Q 273.93 215.29 271.02 205.47
  Q 270.58 204.00 268.20 205.08"
/>
<path stroke="#af988c" vector-effect="non-scaling-stroke" d="
  M 268.54 208.56
  Q 275.49 220.64 285.76 214.72
  C 289.64 212.49 291.49 208.95 291.78 204.63"
/>
<path stroke="#624b3f" vector-effect="non-scaling-stroke" d="
  M 281.78 184.68
  Q 268.83 189.56 268.20 205.08"
/>
<path stroke="#91634b" vector-effect="non-scaling-stroke" d="
  M 268.20 205.08
  L 267.79 206.01"
/>
<path stroke="#cdcbcd" vector-effect="non-scaling-stroke" d="
  M 297.50 201.84
  C 294.74 197.34 292.16 193.07 286.77 193.31"
/>
<path stroke="#212327" vector-effect="non-scaling-stroke" d="
  M 316.66 188.96
  Q 318.25 189.25 318.78 187.80
  Q 321.25 180.97 323.96 170.44"
/>
<path stroke="#100e11" vector-effect="non-scaling-stroke" d="
  M 323.96 170.44
  Q 317.41 160.53 310.13 152.45
  A 0.43 0.43 0.0 0 0 309.39 152.67
  L 308.06 160.88
  A 1.41 1.38 -55.2 0 0 308.21 161.78
  Q 315.36 175.16 313.40 190.29
  Q 313.31 190.99 313.99 190.79
  Q 315.56 190.31 316.66 188.96"
/>
<path stroke="#302f37" vector-effect="non-scaling-stroke" d="
  M 323.96 170.44
  Q 322.15 170.79 321.67 173.63
  C 320.80 178.72 318.25 183.98 316.66 188.96"
/>
<path stroke="#7e6756" vector-effect="non-scaling-stroke" d="
  M 165.05 200.68
  Q 162.79 220.01 180.59 224.68"
/>
<path stroke="#624b3f" vector-effect="non-scaling-stroke" d="
  M 180.59 224.68
  Q 180.51 225.20 182.22 225.11
  Q 182.92 225.08 182.82 224.39
  L 182.43 221.51
  A 1.15 1.15 0.0 0 0 181.88 220.69
  Q 174.14 216.11 177.23 207.29
  A 0.75 0.75 0.0 0 0 176.90 206.40
  L 172.63 203.89
  A 0.47 0.46 -52.1 0 0 172.08 203.96
  L 170.48 205.51
  A 0.27 0.26 -44.2 0 1 170.11 205.51
  Q 170.01 205.40 169.92 205.24"
/>
<path stroke="#7e6756" vector-effect="non-scaling-stroke" d="
  M 169.92 205.24
  Q 170.44 204.04 170.18 203.03
  A 0.87 0.86 89.4 0 0 169.54 202.40
  Q 168.05 202.02 167.21 201.06"
/>
<path stroke="#807268" vector-effect="non-scaling-stroke" d="
  M 167.21 201.06
  Q 167.25 200.87 167.30 200.69"
/>
<path stroke="#7e6756" vector-effect="non-scaling-stroke" d="
  M 167.30 200.69
  Q 174.40 202.29 179.54 207.20
  A 0.58 0.58 0.0 0 0 180.51 206.64
  C 179.72 203.55 178.15 195.27 175.81 193.17
  Q 174.69 192.17 173.65 191.82"
/>
<path stroke="#807268" vector-effect="non-scaling-stroke" d="
  M 173.65 191.82
  Q 166.96 192.27 165.05 200.68"
/>
<path stroke="#fdd8bd" vector-effect="non-scaling-stroke" d="
  M 173.65 191.82
  Q 169.23 196.36 167.30 200.69"
/>
<path stroke="#fdd8bd" vector-effect="non-scaling-stroke" d="
  M 167.21 201.06
  L 165.05 200.68"
/>
<path stroke="#dfb194" vector-effect="non-scaling-stroke" d="
  M 169.92 205.24
  Q 169.56 205.62 168.95 205.83
  Q 168.46 205.99 168.41 206.51
  Q 167.25 219.02 180.59 224.68"
/>
<path stroke="#7e6756" vector-effect="non-scaling-stroke" d="
  M 318.41 192.03
  C 312.80 193.11 312.42 200.61 312.35 205.99
  Q 312.35 206.42 312.69 206.16
  Q 317.54 202.41 323.50 201.01
  A 0.70 0.67 56.7 0 1 324.07 201.14
  Q 324.92 201.78 324.24 202.08"
/>
<path stroke="#624b3f" vector-effect="non-scaling-stroke" d="
  M 324.24 202.08
  L 321.73 202.56
  Q 321.24 202.66 321.28 203.15
  L 321.56 206.88
  Q 321.62 207.66 321.13 207.05
  L 319.02 204.46
  Q 318.47 203.79 317.72 204.23
  L 314.55 206.06
  Q 314.07 206.34 314.21 206.88
  Q 315.25 210.77 314.45 214.68
  A 0.04 0.04 0.0 0 1 314.37 214.68
  L 313.24 208.27
  A 0.71 0.71 0.0 0 0 311.84 208.30
  L 310.43 219.35"
/>
<path stroke="#100e11" vector-effect="non-scaling-stroke" d="
  M 310.43 219.35
  Q 310.58 219.78 310.47 220.49"
/>
<path stroke="#624b3f" vector-effect="non-scaling-stroke" d="
  M 310.47 220.49
  L 309.69 224.26
  Q 309.58 224.77 310.08 224.90
  Q 312.15 225.48 312.61 224.25"
/>
<path stroke="#7e6756" vector-effect="non-scaling-stroke" d="
  M 312.61 224.25
  C 323.95 222.74 329.41 208.90 326.47 199.05"
/>
<path stroke="#807268" vector-effect="non-scaling-stroke" d="
  M 326.47 199.05
  C 325.02 195.65 322.61 191.08 318.41 192.03"
/>
<path stroke="#fdd8bd" vector-effect="non-scaling-stroke" d="
  M 326.47 199.05
  L 324.82 199.42
  A 0.77 0.75 -24.7 0 1 324.06 199.15
  L 318.41 192.03"
/>
<path stroke="#dfb194" vector-effect="non-scaling-stroke" d="
  M 312.61 224.25
  Q 320.18 221.12 322.58 215.32
  Q 325.28 208.83 324.24 202.08"
/>
<path stroke="#71584f" vector-effect="non-scaling-stroke" d="
  M 310.47 220.49
  Q 312.90 219.07 313.93 216.69
  Q 314.11 216.30 314.00 216.03
  Q 313.86 215.70 313.72 216.02
  Q 312.72 218.25 310.43 219.35"
/>
<path stroke="#624b3f" vector-effect="non-scaling-stroke" d="
  M 178.94 208.06
  Q 178.47 207.83 178.31 208.32
  C 176.84 212.67 176.15 217.33 181.52 219.34
  Q 182.11 219.56 182.03 218.94
  C 181.69 216.01 181.85 209.49 178.94 208.06"
/>
<path stroke="#2f3237" vector-effect="non-scaling-stroke" d="
  M 232.38 254.18
  C 228.78 253.42 218.67 250.33 215.79 252.40
  Q 215.21 252.82 215.78 253.27
  L 220.54 256.94
  A 1.49 1.48 -25.8 0 0 221.45 257.25
  L 232.06 257.25
  A 1.55 1.55 0.0 0 0 232.38 254.18"
/>
<path stroke="#2f3237" vector-effect="non-scaling-stroke" d="
  M 278.68 252.35
  C 276.20 250.72 268.09 253.26 264.98 253.75
  Q 264.50 253.82 264.50 254.30
  L 264.50 256.75
  Q 264.50 257.25 265.00 257.25
  L 273.23 257.25
  A 1.26 1.19 -63.0 0 0 273.99 256.98
  L 278.72 253.18
  A 0.52 0.51 -48.1 0 0 278.68 252.35"
/>
<path stroke="#212327" vector-effect="non-scaling-stroke" d="
  M 283.40 254.56
  C 280.54 252.60 278.90 255.17 276.99 256.85
  Q 276.08 257.64 277.29 257.59
  L 283.58 257.28
  A 1.26 1.08 70.2 0 0 284.30 255.39
  Q 284.06 255.01 283.40 254.56"
/>
<path stroke="#212327" vector-effect="non-scaling-stroke" d="
  M 217.25 256.63
  Q 215.74 255.30 214.62 254.51
  C 213.19 253.50 211.56 254.20 211.11 255.76
  A 1.16 1.16 0.0 0 0 212.23 257.24
  L 217.02 257.26
  Q 217.98 257.26 217.25 256.63"
/>
<path stroke="#624b3f" vector-effect="non-scaling-stroke" d="
  M 236.69 257.38
  L 261.09 257.42
  A 0.44 0.44 0.0 0 0 261.53 256.98
  L 261.53 255.74
  A 0.74 0.21 -89.9 0 0 261.32 255.00
  L 236.46 254.96
  A 0.74 0.21 -89.9 0 0 236.25 255.70
  L 236.25 256.94
  A 0.44 0.44 0.0 0 0 236.69 257.38"
/>
<path stroke="#2f3237" vector-effect="non-scaling-stroke" d="
  M 173.87 300.01
  Q 173.55 300.67 174.04 301.78"
/>
<path stroke="#212327" vector-effect="non-scaling-stroke" d="
  M 174.04 301.78
  Q 174.60 308.09 175.03 314.50
  C 175.33 318.98 177.93 320.50 182.30 320.50
  Q 247.09 320.49 311.89 320.51
  C 316.52 320.51 323.00 321.76 323.62 315.07
  Q 323.98 311.17 324.25 307.66"
/>
<path stroke="#2f3237" vector-effect="non-scaling-stroke" d="
  M 324.25 307.66
  Q 324.17 306.97 324.34 307.04"
/>
<path stroke="#808080" vector-effect="non-scaling-stroke" d="
  M 324.34 307.04
  C 325.21 299.73 325.47 291.52 326.10 285.08
  Q 326.96 276.17 327.75 267.25
  C 328.09 263.34 324.89 260.39 320.92 260.37
  C 274.16 260.08 227.40 260.65 180.63 260.29
  C 171.15 260.22 170.67 262.69 171.31 271.43
  Q 172.35 285.69 173.87 300.01"
/>
<path stroke="#aeb1b6" vector-effect="non-scaling-stroke" d="
  M 324.34 307.04
  Q 323.85 307.05 323.65 306.97
  Q 323.54 306.92 323.56 306.47
  Q 324.38 286.25 325.57 266.90
  A 4.15 4.15 0.0 0 0 321.43 262.50
  Q 250.69 262.50 179.19 262.50
  C 172.36 262.50 172.58 265.42 173.04 271.06
  Q 174.15 284.49 174.66 298.00
  Q 174.74 299.94 173.87 300.01"
/>
<path stroke="#4e545d" vector-effect="non-scaling-stroke" d="
  M 324.25 307.66
  Q 307.29 305.97 290.48 304.14
  C 286.67 303.72 282.19 303.90 278.42 304.20
  Q 228.46 308.13 177.79 312.57
  Q 176.63 312.67 176.50 311.50
  L 175.49 302.00
  Q 175.44 301.55 174.99 301.62
  L 174.04 301.78"
/>
<path stroke="#161616" vector-effect="non-scaling-stroke" d="
  M 169.10 291.00
  C 165.62 292.07 158.82 303.16 161.91 306.14
  Q 162.26 306.48 162.24 306.00
  Q 161.93 296.75 169.24 291.29
  Q 170.02 290.71 169.10 291.00"
/>
<path stroke="#100e11" vector-effect="non-scaling-stroke" d="
  M 330.05 291.36
  A 0.30 0.30 0.0 0 0 329.63 291.79
  C 330.74 293.21 332.29 294.21 333.26 295.59
  C 335.04 298.14 336.74 302.37 336.16 305.55
  Q 336.09 305.99 336.42 306.28
  Q 336.98 306.76 337.03 306.02
  Q 337.60 296.71 330.05 291.36"
/>
<path stroke="#624b3f" vector-effect="non-scaling-stroke" d="
  M 165.75 308.36
  Q 167.45 312.21 171.20 312.72
  Q 171.80 312.80 171.75 312.20
  L 171.40 307.72"
/>
<path stroke="#7e6756" vector-effect="non-scaling-stroke" d="
  M 171.40 307.72
  L 170.20 294.57
  Q 170.15 294.05 169.75 294.38
  Q 163.12 299.95 165.75 308.36"
/>
<path stroke="#dfb194" vector-effect="non-scaling-stroke" d="
  M 171.40 307.72
  Q 169.14 307.01 165.75 308.36"
/>
<path stroke="#624b3f" vector-effect="non-scaling-stroke" d="
  M 327.48 307.52
  L 327.07 312.43
  Q 327.03 312.95 327.54 312.86
  Q 330.83 312.31 332.61 309.01"
/>
<path stroke="#7e6756" vector-effect="non-scaling-stroke" d="
  M 332.61 309.01
  Q 335.67 300.68 328.91 294.76
  A 0.39 0.38 22.3 0 0 328.27 295.02
  L 327.48 307.52"
/>
<path stroke="#dfb194" vector-effect="non-scaling-stroke" d="
  M 332.61 309.01
  Q 330.50 306.96 327.48 307.52"
/>
<path stroke="#161418" vector-effect="non-scaling-stroke" d="
  M 133.77 316.54
  L 133.76 326.50
  Q 133.76 327.39 134.65 327.38
  L 151.38 327.25"
/>
<path stroke="#100e11" vector-effect="non-scaling-stroke" d="
  M 151.38 327.25
  L 338.75 327.25"
/>
<path stroke="#161418" vector-effect="non-scaling-stroke" d="
  M 338.75 327.25
  L 364.28 327.23
  Q 364.87 327.23 364.87 326.63
  L 364.84 317.41"
/>
<path stroke="#212327" vector-effect="non-scaling-stroke" d="
  M 364.84 317.41
  Q 365.26 316.06 364.93 314.79
  Q 364.79 314.27 364.25 314.27
  L 339.51 314.26"
/>
<path stroke="#100e11" vector-effect="non-scaling-stroke" d="
  M 339.51 314.26
  L 327.25 314.11
  Q 326.69 314.10 326.66 314.66
  C 326.25 321.90 321.79 323.73 315.03 323.73
  Q 249.15 323.74 183.27 323.75
  C 177.08 323.75 172.36 321.94 172.17 315.22
  A 1.17 1.17 0.0 0 0 170.98 314.08
  L 162.05 314.23"
/>
<path stroke="#212327" vector-effect="non-scaling-stroke" d="
  M 162.05 314.23
  L 134.33 314.27
  Q 133.77 314.27 133.77 314.84
  L 133.77 316.54"
/>
<path stroke="#302f37" vector-effect="non-scaling-stroke" d="
  M 162.05 314.23
  Q 158.64 315.76 154.34 315.82"
/>
<path stroke="#35363e" vector-effect="non-scaling-stroke" d="
  M 154.34 315.82
  L 133.77 316.54"
/>
<path stroke="#302f37" vector-effect="non-scaling-stroke" d="
  M 339.51 314.26
  Q 338.91 314.79 339.90 315.48"
/>
<path stroke="#252127" vector-effect="non-scaling-stroke" d="
  M 339.90 315.48
  L 338.75 327.25"
/>
<path stroke="#252127" vector-effect="non-scaling-stroke" d="
  M 151.38 327.25
  L 154.34 315.82"
/>
<path stroke="#35363e" vector-effect="non-scaling-stroke" d="
  M 364.84 317.41
  L 339.90 315.48"
/>
<path stroke="#dfb194" vector-effect="non-scaling-stroke" d="
  M 201.03 177.95
  Q 205.91 179.78 211.03 184.80"
/>
<path stroke="#7e6756" vector-effect="non-scaling-stroke" d="
  M 211.03 184.80
  C 196.66 183.35 188.95 197.27 195.07 209.44"
/>
<path stroke="#fde6d5" vector-effect="non-scaling-stroke" d="
  M 195.07 209.44
  L 196.99 215.73
  Q 197.15 216.25 197.68 216.36
  C 207.11 218.21 214.74 220.70 223.15 214.08
  C 225.27 212.41 225.51 210.03 224.44 207.75"
/>
<path stroke="#ad7e62" vector-effect="non-scaling-stroke" d="
  M 224.44 207.75
  L 224.82 204.82"
/>
<path stroke="#dfb194" vector-effect="non-scaling-stroke" d="
  M 224.82 204.82
  C 225.86 198.38 225.18 192.62 219.99 188.12
  Q 219.59 187.78 219.78 187.29
  Q 220.44 185.53 218.36 184.75
  Q 217.88 184.57 218.07 184.09
  Q 218.18 183.83 218.49 183.60"
/>
<path stroke="#7e6756" vector-effect="non-scaling-stroke" d="
  M 218.49 183.60
  Q 220.50 183.42 221.02 181.26
  C 222.56 174.95 215.37 170.54 210.52 169.07
  C 204.50 167.25 197.85 172.20 194.54 176.85
  Q 193.28 178.62 193.88 180.12
  A 1.33 1.33 0.0 0 0 195.75 180.79
  L 201.03 177.95"
/>
<path stroke="#624b3f" vector-effect="non-scaling-stroke" d="
  M 218.49 183.60
  C 212.67 180.46 208.19 176.56 201.03 177.95"
/>
<path stroke="#91634b" vector-effect="non-scaling-stroke" d="
  M 224.82 204.82
  Q 225.00 201.89 224.28 201.30"
/>
<path stroke="#624b3f" vector-effect="non-scaling-stroke" d="
  M 224.28 201.30
  Q 221.70 188.43 211.03 184.80"
/>
<path stroke="#30190d" vector-effect="non-scaling-stroke" d="
  M 224.28 201.30
  L 224.50 203.82
  Q 224.55 204.31 224.07 204.43
  L 222.66 204.78
  Q 222.12 204.92 221.99 205.45
  C 220.06 213.32 211.81 216.01 205.80 210.16"
/>
<path stroke="#808080" vector-effect="non-scaling-stroke" d="
  M 205.80 210.16
  L 206.28 209.45
  Q 206.55 209.05 206.26 208.65
  Q 205.97 208.24 205.36 207.96"
/>
<path stroke="#624b3f" vector-effect="non-scaling-stroke" d="
  M 205.36 207.96
  Q 205.22 203.62 201.12 204.95"
/>
<path stroke="#808080" vector-effect="non-scaling-stroke" d="
  M 201.12 204.95
  Q 200.09 198.44 204.72 193.59"
/>
<path stroke="#4e4c4e" vector-effect="non-scaling-stroke" d="
  M 204.72 193.59
  Q 209.31 190.09 215.47 190.66
  Q 215.97 190.71 215.58 190.39
  C 205.97 182.74 195.52 192.66 195.16 202.98"
/>
<path stroke="#808080" vector-effect="non-scaling-stroke" d="
  M 195.16 202.98
  L 195.07 209.44"
/>
<path stroke="#e1cabe" vector-effect="non-scaling-stroke" d="
  M 201.12 204.95
  Q 200.48 207.31 202.20 209.86
  Q 202.63 210.49 203.06 209.86
  L 203.92 208.59
  Q 204.13 208.28 204.48 208.14
  Q 204.93 207.96 205.36 207.96"
/>
<path stroke="#af988c" vector-effect="non-scaling-stroke" d="
  M 205.80 210.16
  L 204.10 211.53
  Q 203.69 211.87 204.04 212.26
  C 210.74 219.79 221.26 216.99 224.44 207.75"
/>
<path stroke="#cdcbcd" vector-effect="non-scaling-stroke" d="
  M 204.72 193.59
  Q 197.89 193.98 195.16 202.98"
/>
<path stroke="#dfb194" vector-effect="non-scaling-stroke" d="
  M 245.23 219.81
  A 0.45 0.45 0.0 0 0 244.99 220.62
  L 246.89 222.01
  A 0.41 0.41 0.0 0 0 247.54 221.61
  Q 247.21 219.67 245.23 219.81"
/>
<path stroke="#7e6756" vector-effect="non-scaling-stroke" d="
  M 261.52 229.50
  C 253.68 235.03 242.67 235.42 234.43 230.27
  A 1.04 1.04 0.0 0 0 232.85 231.05
  Q 232.74 232.09 234.11 232.84
  C 242.44 237.41 255.82 238.76 262.94 231.13
  A 1.09 1.09 0.0 0 0 261.52 229.50"
/>
<path stroke="#808080" vector-effect="non-scaling-stroke" d="
  M 217.97 197.56
  A 2.16 2.16 0.0 0 0 215.81 195.40
  A 2.16 2.16 0.0 0 0 213.65 197.56
  A 2.16 2.16 0.0 0 0 215.81 199.72
  A 2.16 2.16 0.0 0 0 217.97 197.56"
/>
<path stroke="#808080" vector-effect="non-scaling-stroke" d="
  M 284.51 197.61
  A 2.09 2.09 0.0 0 0 282.42 195.52
  A 2.09 2.09 0.0 0 0 280.33 197.61
  A 2.09 2.09 0.0 0 0 282.42 199.70
  A 2.09 2.09 0.0 0 0 284.51 197.61"
/>
<path stroke="#aeb1b6" vector-effect="non-scaling-stroke" d="
  M 249.1775 283.6033
  A 3.33 1.50 132.8 0 0 252.5406 282.1792
  A 3.33 1.50 132.8 0 0 253.7025 278.7167
  A 3.33 1.50 132.8 0 0 250.3394 280.1408
  A 3.33 1.50 132.8 0 0 249.1775 283.6033"
/>
<path stroke="#aeb1b6" vector-effect="non-scaling-stroke" d="
  M 258.77 296.79
  Q 254.11 292.31 258.74 287.59
  Q 259.08 287.24 258.74 286.88
  Q 255.26 283.23 250.43 285.62
  A 3.00 2.98 -41.7 0 1 247.49 285.46
  C 245.69 284.31 243.20 284.67 241.41 285.82
  C 235.94 289.31 237.93 296.25 241.74 300.21
  C 244.00 302.56 246.63 302.08 249.34 300.94
  A 1.21 1.19 -44.0 0 1 250.29 300.95
  Q 256.41 303.65 258.97 297.80
  Q 259.22 297.22 258.77 296.79"
/>
<path stroke="#95877d" vector-effect="non-scaling-stroke" d="
  M 188.7748 380.0180
  A 18.52 18.52 0.0 0 0 170.1260 361.6277
  L 166.4661 361.6533
  A 18.52 18.52 0.0 0 0 148.0758 380.3021
  L 148.1052 384.5020
  A 18.52 18.52 0.0 0 0 166.7540 402.8923
  L 170.4139 402.8667
  A 18.52 18.52 0.0 0 0 188.8042 384.2179
  L 188.7748 380.0180"
/>
<path stroke="#95877d" vector-effect="non-scaling-stroke" d="
  M 249.98 382.15
  C 253.20 384.81 258.59 386.24 262.56 387.68
  C 264.10 388.24 265.57 388.96 265.26 390.88
  C 264.35 396.41 253.16 392.88 250.68 391.00
  A 2.35 2.34 -57.8 0 0 247.18 391.80
  C 240.06 405.54 273.69 407.69 276.77 393.30
  C 279.30 381.51 267.29 378.39 259.08 375.68
  A 2.12 2.12 0.0 0 1 257.94 372.55
  C 260.08 369.11 268.98 371.35 271.88 372.68
  A 0.86 0.85 -51.0 0 0 272.75 372.58
  C 275.22 370.62 275.77 367.33 273.66 364.86
  C 270.14 360.74 260.45 361.21 255.77 362.32
  C 246.47 364.54 241.78 375.37 249.98 382.15"
/>
<path stroke="#95877d" vector-effect="non-scaling-stroke" d="
  M 367.00 389.25
  L 369.53 389.25
  A 0.94 0.93 -15.0 0 1 370.34 389.71
  C 372.56 393.37 376.07 400.56 379.82 402.05
  C 382.83 403.26 387.64 401.92 388.44 398.04
  A 1.28 1.26 -57.9 0 0 388.21 397.01
  L 380.79 387.18
  Q 380.47 386.75 380.91 386.47
  Q 387.86 381.99 387.38 374.35
  C 386.50 360.21 368.43 360.09 358.62 362.90
  C 357.12 363.33 355.27 364.44 355.27 366.00
  Q 355.21 380.90 355.28 395.80
  C 355.31 403.38 360.29 402.90 366.04 401.79
  Q 366.50 401.70 366.50 401.24
  L 366.50 389.75
  Q 366.50 389.25 367.00 389.25"
/>
<path stroke="#95877d" vector-effect="non-scaling-stroke" d="
  M 133.44 371.81
  C 138.96 371.38 147.69 372.79 143.43 362.98
  Q 143.23 362.51 142.71 362.51
  Q 128.96 362.48 115.22 362.51
  C 109.92 362.52 110.08 367.60 111.64 371.12
  Q 111.84 371.57 112.33 371.58
  L 121.28 371.81
  Q 121.75 371.82 121.75 372.29
  Q 121.75 385.36 121.77 398.44
  C 121.78 403.21 129.81 402.44 132.58 401.77
  Q 133.00 401.67 133.00 401.23
  L 133.00 372.29
  Q 133.00 371.84 133.44 371.81"
/>
<path stroke="#95877d" vector-effect="non-scaling-stroke" d="
  M 206.33 376.50
  A 0.33 0.33 0.0 0 1 206.97 376.41
  Q 208.75 382.44 210.76 388.45
  C 211.80 391.54 211.64 392.75 214.72 393.43
  Q 219.05 394.38 222.27 392.62
  Q 222.69 392.39 222.83 391.93
  L 227.44 376.79
  A 0.30 0.30 0.0 0 1 228.02 376.87
  Q 228.24 387.60 228.83 398.16
  C 229.14 403.57 236.18 402.84 239.46 401.66
  A 0.87 0.86 79.6 0 0 240.03 400.83
  C 239.77 389.85 238.38 378.47 237.17 367.54
  C 236.46 361.17 228.20 361.83 223.85 363.44
  Q 223.32 363.63 223.15 364.17
  L 217.56 382.18
  A 0.33 0.33 0.0 0 1 216.92 382.18
  Q 214.78 375.00 212.43 367.71
  C 210.34 361.23 201.54 361.21 197.04 364.44
  Q 196.60 364.76 196.57 365.30
  Q 195.63 381.40 194.49 397.48
  C 194.08 403.30 201.42 402.93 205.10 401.83
  Q 205.68 401.66 205.69 401.06
  L 206.33 376.50"
/>
<path stroke="#95877d" vector-effect="non-scaling-stroke" d="
  M 303.03 371.53
  C 309.65 372.23 316.93 371.69 312.91 362.97
  Q 312.70 362.51 312.20 362.51
  Q 298.34 362.48 284.50 362.51
  C 279.37 362.52 279.53 367.95 281.27 371.24
  A 0.96 0.93 75.6 0 0 282.10 371.75
  L 290.73 371.75
  Q 291.26 371.75 291.26 372.28
  Q 291.31 384.39 291.00 396.49
  C 290.83 403.34 297.49 402.63 302.03 401.81
  Q 302.50 401.72 302.50 401.24
  L 302.50 372.01
  Q 302.50 371.47 303.03 371.53"
/>
<path stroke="#95877d" vector-effect="non-scaling-stroke" d="
  M 330.50 392.75
  L 330.50 386.81
  Q 330.50 386.26 331.05 386.26
  Q 336.77 386.24 342.49 386.25
  C 347.08 386.26 346.89 380.70 345.25 377.92
  A 0.86 0.86 0.0 0 0 344.51 377.50
  L 331.00 377.50
  Q 330.50 377.50 330.50 377.00
  L 330.50 372.01
  Q 330.50 371.51 331.01 371.51
  C 336.57 371.51 352.02 374.65 347.31 363.10
  A 0.80 0.78 -9.8 0 0 346.61 362.62
  Q 330.16 362.20 325.42 362.58
  Q 319.49 363.06 319.48 369.00
  Q 319.45 382.84 319.55 396.69
  C 319.57 399.81 321.87 401.87 325.08 402.00
  Q 335.03 402.38 345.00 401.89
  C 349.32 401.67 348.70 396.33 347.47 393.71
  A 0.79 0.78 77.6 0 0 346.76 393.25
  L 331.00 393.25
  Q 330.50 393.25 330.50 392.75"
/>
<path stroke="#95877d" vector-effect="non-scaling-stroke" d="
  M 160.21 387.50
  C 161.89 394.55 170.92 396.05 174.86 390.77
  C 178.80 385.49 178.18 372.01 170.26 370.75
  C 159.98 369.12 158.46 380.15 160.21 387.50"
/>
<path stroke="#95877d" vector-effect="non-scaling-stroke" d="
  M 366.48 371.33
  L 366.46 379.93
  A 0.59 0.59 0.0 0 0 367.05 380.52
  L 370.83 380.53
  A 5.15 4.71 0.1 0 0 375.99 375.83
  L 375.99 375.47
  A 5.15 4.71 0.1 0 0 370.85 370.75
  L 367.07 370.74
  A 0.59 0.59 0.0 0 0 366.48 371.33"
/>
</g>
<path fill="#ffffff" d="
  M 486.94 278.93
  C 473.12 387.94 389.23 471.93 280.60 486.72
  Q 271.44 487.97 260.67 488.18
  C 246.26 488.46 231.34 488.54 217.32 486.52
  C 105.70 470.50 22.10 381.29 12.06 269.94
  Q 11.30 261.47 11.73 241.75
  C 14.24 127.13 101.50 31.83 213.58 14.06
  C 232.97 10.99 256.08 10.84 274.25 12.49
  Q 319.00 16.55 361.44 39.06
  C 433.65 77.35 480.74 148.40 487.91 230.32
  C 489.03 243.01 488.85 263.90 486.94 278.93
  Z
  M 130.90 312.78
  L 130.75 324.68
  Q 130.75 325.21 130.23 325.29
  Q 125.98 325.94 122.50 328.52
  A 1.12 1.12 0.0 0 0 122.54 330.34
  C 128.18 334.17 138.71 335.66 145.45 336.53
  C 191.78 342.56 238.34 343.54 284.99 342.08
  C 311.24 341.27 341.60 339.34 368.39 333.44
  C 370.88 332.90 373.33 331.82 375.41 330.64
  A 1.40 1.40 0.0 0 0 375.47 328.25
  Q 371.70 325.81 367.95 325.13
  L 367.99 314.51
  Q 368.01 310.93 364.42 310.95
  L 336.71 311.11
  Q 336.08 311.11 336.51 310.66
  C 344.25 302.28 336.55 292.49 329.30 287.67
  Q 328.85 287.37 328.92 286.84
  Q 330.59 273.25 330.73 267.25
  C 330.90 260.44 326.38 257.55 320.00 257.51
  Q 305.78 257.41 291.57 257.38
  Q 291.07 257.38 290.74 257.00
  Q 286.68 252.43 280.80 250.69
  A 0.52 0.52 0.0 0 1 280.81 249.69
  C 291.29 246.89 306.10 240.35 308.46 228.28
  A 0.62 0.62 0.0 0 1 309.10 227.78
  C 321.27 228.49 329.62 217.04 330.50 206.24
  C 330.95 200.65 328.09 191.28 321.84 189.19
  Q 321.35 189.02 321.50 188.53
  L 326.30 173.19
  Q 326.45 172.71 326.87 172.44
  Q 327.52 172.03 327.80 171.39
  C 337.48 148.94 333.04 124.98 312.82 110.29
  A 0.30 0.30 0.0 0 1 313.01 109.74
  L 318.43 110.07
  A 1.38 1.38 0.0 0 0 319.49 107.71
  C 310.33 98.68 296.74 93.12 284.37 89.99
  Q 283.74 89.83 284.14 89.32
  C 287.81 84.62 293.65 83.25 299.14 81.78
  Q 301.55 81.14 299.61 79.18
  A 3.43 3.40 77.9 0 0 298.43 78.41
  C 275.53 69.84 249.97 71.82 226.97 79.49
  Q 226.27 79.72 226.58 79.05
  Q 228.55 74.80 231.52 71.19
  A 1.72 1.72 0.0 0 0 229.88 68.41
  C 214.87 71.19 198.91 86.55 191.11 98.97
  Q 190.87 99.36 190.46 99.55
  C 183.84 102.64 180.60 90.99 179.46 85.76
  Q 179.10 84.13 178.27 83.41
  A 1.53 1.53 0.0 0 0 175.74 84.40
  C 174.51 95.54 175.01 104.97 178.97 115.60
  Q 179.20 116.22 178.54 116.21
  Q 176.98 116.17 175.48 115.53
  C 164.61 110.89 161.99 100.24 161.58 89.51
  Q 161.55 88.56 161.19 88.08
  Q 160.31 86.92 158.65 88.06
  A 2.12 2.11 83.7 0 0 157.86 89.05
  Q 148.24 113.65 156.64 138.83
  Q 157.89 142.60 161.55 146.97
  Q 162.15 147.69 161.25 147.43
  Q 157.54 146.36 154.22 144.46
  A 1.68 1.68 0.0 0 0 151.70 145.93
  C 151.74 150.44 157.33 158.65 160.15 162.11
  Q 161.84 164.19 162.57 166.40
  Q 166.19 177.35 169.83 188.23
  Q 169.98 188.70 169.58 188.98
  C 153.29 200.22 163.25 228.33 183.06 227.72
  Q 183.57 227.71 183.69 228.20
  C 186.66 240.79 202.54 246.96 213.71 249.69
  A 0.42 0.41 42.9 0 1 213.74 250.49
  Q 207.96 252.33 203.95 256.86
  Q 203.61 257.26 203.08 257.26
  Q 190.24 257.38 177.37 257.51
  C 168.67 257.60 167.41 263.61 168.17 271.19
  Q 168.92 278.82 169.52 286.50
  Q 169.56 287.00 169.12 287.26
  C 161.58 291.73 154.30 303.28 162.45 310.75
  Q 163.00 311.26 162.26 311.25
  Q 143.37 311.16 134.51 310.93
  Q 132.19 310.87 130.90 312.78
  Z
  M 141.96 395.14
  C 150.54 412.95 171.92 416.21 187.30 405.24
  A 0.58 0.57 52.7 0 1 188.07 405.35
  C 194.33 412.96 205.54 411.80 213.53 407.70
  Q 214.00 407.45 214.00 406.92
  L 214.00 403.36
  A 0.95 0.95 0.0 0 1 214.90 402.41
  L 220.47 402.13
  A 0.51 0.50 78.2 0 1 220.97 402.46
  C 224.34 411.99 237.17 412.46 244.79 408.54
  Q 245.22 408.32 245.67 408.51
  C 257.85 413.61 273.97 412.76 282.46 401.55
  Q 282.85 401.04 283.16 401.60
  C 284.12 403.35 284.88 405.34 286.07 406.67
  C 291.66 412.92 303.69 410.66 310.60 408.28
  A 0.64 0.63 -9.7 0 0 311.03 407.68
  L 311.09 399.76
  A 0.24 0.24 0.0 0 1 311.56 399.72
  C 312.78 406.73 319.23 410.33 325.82 410.59
  C 332.03 410.84 346.65 412.17 351.62 408.56
  A 0.86 0.86 0.0 0 1 352.55 408.52
  C 358.11 411.82 366.35 410.86 372.32 409.23
  C 373.16 409.00 373.65 408.83 374.55 409.20
  C 384.94 413.59 396.69 408.47 397.57 396.41
  Q 397.61 395.93 397.34 395.54
  L 392.24 388.08
  Q 391.92 387.61 392.26 387.17
  C 398.40 379.18 396.42 367.44 390.45 361.04
  C 383.13 353.20 371.97 352.17 361.50 353.56
  Q 356.41 354.23 353.56 355.80
  A 0.67 0.66 58.9 0 1 352.68 355.58
  L 351.95 354.49
  Q 351.63 354.01 351.06 354.01
  Q 338.78 353.99 326.50 353.97
  Q 322.57 353.97 318.83 355.39
  Q 318.15 355.65 318.04 354.93
  Q 317.91 354.11 316.68 353.86
  Q 316.19 353.76 315.69 353.76
  Q 299.75 353.72 283.81 353.78
  Q 281.06 353.79 277.32 355.87
  Q 276.88 356.12 276.41 355.92
  C 265.96 351.61 252.94 351.84 243.70 359.06
  Q 243.30 359.37 242.96 359.00
  C 236.16 351.92 223.96 352.77 216.48 357.78
  Q 216.06 358.06 215.66 357.76
  C 207.81 351.90 195.98 352.36 189.49 360.31
  A 0.70 0.70 0.0 0 1 188.50 360.39
  C 177.94 351.36 162.74 350.48 151.11 358.06
  Q 150.66 358.35 150.39 357.90
  L 148.17 354.23
  Q 147.88 353.76 147.32 353.75
  Q 131.28 353.74 115.26 353.76
  C 100.01 353.79 99.65 370.83 107.23 379.88
  Q 107.54 380.25 108.02 380.25
  L 112.27 380.25
  A 0.99 0.98 89.7 0 1 113.25 381.23
  C 113.26 388.06 112.28 398.07 114.52 403.42
  C 118.68 413.36 132.40 411.21 140.91 408.35
  Q 141.51 408.15 141.50 407.53
  L 141.50 395.25
  Q 141.50 394.18 141.96 395.14
  Z"
/>
<path fill="#010101" d="
  M 367.95 325.13
  C 368.56 328.66 368.06 330.51 364.10 330.51
  Q 248.46 330.47 132.88 330.50
  A 2.00 2.00 0.0 0 1 130.88 328.50
  L 130.90 312.78
  Q 132.19 310.87 134.51 310.93
  Q 143.37 311.16 162.26 311.25
  Q 163.00 311.26 162.45 310.75
  C 154.30 303.28 161.58 291.73 169.12 287.26
  Q 169.56 287.00 169.52 286.50
  Q 168.92 278.82 168.17 271.19
  C 167.41 263.61 168.67 257.60 177.37 257.51
  Q 190.24 257.38 203.08 257.26
  Q 203.61 257.26 203.95 256.86
  Q 207.96 252.33 213.74 250.49
  A 0.42 0.41 42.9 0 0 213.71 249.69
  C 202.54 246.96 186.66 240.79 183.69 228.20
  Q 183.57 227.71 183.06 227.72
  C 163.25 228.33 153.29 200.22 169.58 188.98
  Q 169.98 188.70 169.83 188.23
  Q 166.19 177.35 162.57 166.40
  Q 161.84 164.19 160.15 162.11
  C 157.33 158.65 151.74 150.44 151.70 145.93
  A 1.68 1.68 0.0 0 1 154.22 144.46
  Q 157.54 146.36 161.25 147.43
  Q 162.15 147.69 161.55 146.97
  Q 157.89 142.60 156.64 138.83
  Q 148.24 113.65 157.86 89.05
  A 2.12 2.11 83.7 0 1 158.65 88.06
  Q 160.31 86.92 161.19 88.08
  Q 161.55 88.56 161.58 89.51
  C 161.99 100.24 164.61 110.89 175.48 115.53
  Q 176.98 116.17 178.54 116.21
  Q 179.20 116.22 178.97 115.60
  C 175.01 104.97 174.51 95.54 175.74 84.40
  A 1.53 1.53 0.0 0 1 178.27 83.41
  Q 179.10 84.13 179.46 85.76
  C 180.60 90.99 183.84 102.64 190.46 99.55
  Q 190.87 99.36 191.11 98.97
  C 198.91 86.55 214.87 71.19 229.88 68.41
  A 1.72 1.72 0.0 0 1 231.52 71.19
  Q 228.55 74.80 226.58 79.05
  Q 226.27 79.72 226.97 79.49
  C 249.97 71.82 275.53 69.84 298.43 78.41
  A 3.43 3.40 77.9 0 1 299.61 79.18
  Q 301.55 81.14 299.14 81.78
  C 293.65 83.25 287.81 84.62 284.14 89.32
  Q 283.74 89.83 284.37 89.99
  C 296.74 93.12 310.33 98.68 319.49 107.71
  A 1.38 1.38 0.0 0 1 318.43 110.07
  L 313.01 109.74
  A 0.30 0.30 0.0 0 0 312.82 110.29
  C 333.04 124.98 337.48 148.94 327.80 171.39
  Q 327.52 172.03 326.87 172.44
  Q 326.45 172.71 326.30 173.19
  L 321.50 188.53
  Q 321.35 189.02 321.84 189.19
  C 328.09 191.28 330.95 200.65 330.50 206.24
  C 329.62 217.04 321.27 228.49 309.10 227.78
  A 0.62 0.62 0.0 0 0 308.46 228.28
  C 306.10 240.35 291.29 246.89 280.81 249.69
  A 0.52 0.52 0.0 0 0 280.80 250.69
  Q 286.68 252.43 290.74 257.00
  Q 291.07 257.38 291.57 257.38
  Q 305.78 257.41 320.00 257.51
  C 326.38 257.55 330.90 260.44 330.73 267.25
  Q 330.59 273.25 328.92 286.84
  Q 328.85 287.37 329.30 287.67
  C 336.55 292.49 344.25 302.28 336.51 310.66
  Q 336.08 311.11 336.71 311.11
  L 364.42 310.95
  Q 368.01 310.93 367.99 314.51
  L 367.95 325.13
  Z
  M 190.89 105.32
  Q 190.71 105.76 190.27 105.77
  Q 189.69 105.78 189.54 105.22
  L 189.24 103.98
  Q 189.09 103.40 188.49 103.36
  Q 184.86 103.12 182.25 100.21
  L 178.67 93.12
  Q 177.93 91.65 177.85 93.30
  C 177.44 102.85 178.95 112.07 185.60 119.21
  Q 185.60 119.61 184.77 120.00
  C 170.03 120.45 159.79 109.42 159.38 95.08
  A 0.42 0.42 0.0 0 0 158.56 94.99
  C 156.37 103.16 155.50 110.93 155.96 119.56
  C 156.65 132.50 158.92 142.90 169.89 150.88
  A 0.33 0.33 0.0 0 1 169.72 151.48
  Q 162.35 152.17 155.97 148.59
  Q 155.41 148.28 155.57 148.90
  Q 156.09 151.00 157.09 151.89
  L 159.27 156.02
  C 161.77 159.81 164.96 162.64 166.16 167.50
  C 167.92 174.65 170.62 181.97 172.92 187.81
  Q 173.39 189.00 174.69 188.65
  L 178.27 191.27
  Q 178.82 191.67 178.77 190.99
  C 178.46 186.10 178.15 181.06 179.14 176.37
  C 181.86 163.61 189.59 145.33 204.26 143.74
  Q 212.66 142.83 222.01 142.03
  A 0.53 0.53 0.0 0 0 222.18 141.01
  Q 213.75 137.41 210.47 128.74
  A 0.09 0.09 0.0 0 1 210.63 128.66
  C 216.90 138.00 225.14 139.52 236.00 139.90
  C 241.56 140.09 247.85 139.91 252.87 137.50
  Q 253.39 137.25 252.95 136.87
  Q 242.66 128.13 229.19 124.55
  Q 243.92 125.46 256.80 136.11
  Q 267.10 145.55 274.64 158.07
  Q 275.12 158.85 275.10 157.93
  L 274.95 150.40
  Q 275.36 143.00 272.38 134.53
  Q 274.17 136.44 274.86 139.47
  Q 274.99 140.01 275.49 140.25
  C 286.89 145.72 294.33 153.15 302.69 162.34
  Q 303.09 163.04 303.69 163.51
  A 0.29 0.29 0.0 0 0 304.14 163.37
  Q 308.54 149.11 305.15 134.30
  Q 307.82 138.92 307.49 145.21
  Q 307.46 145.78 307.89 146.17
  Q 318.12 155.53 325.26 167.43
  A 0.60 0.59 -50.6 0 0 326.33 167.32
  Q 328.92 160.26 329.56 153.28
  C 331.94 132.24 320.55 116.46 301.78 107.89
  Q 304.88 106.43 309.78 106.38
  Q 311.31 106.75 312.48 106.77
  Q 314.47 106.80 312.81 105.71
  Q 297.00 95.31 279.29 91.77
  Q 282.69 84.11 291.34 80.83
  Q 292.64 80.82 293.43 80.38
  Q 294.82 79.61 293.28 79.24
  Q 256.95 70.51 222.64 84.25
  Q 222.60 80.23 225.05 75.45
  L 226.97 72.76
  A 0.40 0.40 0.0 0 0 226.48 72.16
  Q 203.01 82.96 190.89 105.32
  Z
  M 184.11 169.69
  Q 180.96 178.33 181.71 186.76
  Q 182.57 206.35 186.33 225.55
  C 188.57 236.94 198.12 241.54 208.79 244.93
  Q 226.91 251.48 247.00 251.86
  Q 260.90 252.78 274.32 248.46
  L 280.33 246.55
  Q 290.91 243.84 299.17 237.60
  C 305.53 232.79 306.12 226.44 307.27 218.50
  Q 309.58 202.62 309.99 193.45
  C 311.26 185.77 311.31 177.24 308.28 169.66
  L 307.13 165.96
  A 0.36 0.36 0.0 0 0 306.42 166.08
  Q 306.49 168.15 304.75 168.78
  Q 304.22 168.97 303.85 168.54
  C 295.90 159.02 288.86 151.44 278.68 145.28
  A 0.50 0.50 0.0 0 0 277.92 145.73
  Q 278.42 155.17 277.30 164.55
  A 1.51 1.51 0.0 0 1 274.42 164.98
  Q 268.11 150.60 256.54 139.99
  Q 256.13 139.62 255.61 139.79
  C 253.10 140.62 250.64 141.80 248.15 142.12
  C 241.93 142.93 234.35 141.75 228.61 143.46
  C 220.51 145.87 210.41 145.80 204.50 146.76
  C 193.12 148.61 187.70 159.94 184.11 169.69
  Z
  M 316.66 188.96
  Q 318.25 189.25 318.78 187.80
  Q 321.25 180.97 323.96 170.44
  Q 317.41 160.53 310.13 152.45
  A 0.43 0.43 0.0 0 0 309.39 152.67
  L 308.06 160.88
  A 1.41 1.38 -55.2 0 0 308.21 161.78
  Q 315.36 175.16 313.40 190.29
  Q 313.31 190.99 313.99 190.79
  Q 315.56 190.31 316.66 188.96
  Z
  M 165.05 200.68
  Q 162.79 220.01 180.59 224.68
  Q 180.51 225.20 182.22 225.11
  Q 182.92 225.08 182.82 224.39
  L 182.43 221.51
  A 1.15 1.15 0.0 0 0 181.88 220.69
  Q 174.14 216.11 177.23 207.29
  A 0.75 0.75 0.0 0 0 176.90 206.40
  L 172.63 203.89
  A 0.47 0.46 -52.1 0 0 172.08 203.96
  L 170.48 205.51
  A 0.27 0.26 -44.2 0 1 170.11 205.51
  Q 170.01 205.40 169.92 205.24
  Q 170.44 204.04 170.18 203.03
  A 0.87 0.86 89.4 0 0 169.54 202.40
  Q 168.05 202.02 167.21 201.06
  Q 167.25 200.87 167.30 200.69
  Q 174.40 202.29 179.54 207.20
  A 0.58 0.58 0.0 0 0 180.51 206.64
  C 179.72 203.55 178.15 195.27 175.81 193.17
  Q 174.69 192.17 173.65 191.82
  Q 166.96 192.27 165.05 200.68
  Z
  M 318.41 192.03
  C 312.80 193.11 312.42 200.61 312.35 205.99
  Q 312.35 206.42 312.69 206.16
  Q 317.54 202.41 323.50 201.01
  A 0.70 0.67 56.7 0 1 324.07 201.14
  Q 324.92 201.78 324.24 202.08
  L 321.73 202.56
  Q 321.24 202.66 321.28 203.15
  L 321.56 206.88
  Q 321.62 207.66 321.13 207.05
  L 319.02 204.46
  Q 318.47 203.79 317.72 204.23
  L 314.55 206.06
  Q 314.07 206.34 314.21 206.88
  Q 315.25 210.77 314.45 214.68
  A 0.04 0.04 0.0 0 1 314.37 214.68
  L 313.24 208.27
  A 0.71 0.71 0.0 0 0 311.84 208.30
  L 310.43 219.35
  Q 310.58 219.78 310.47 220.49
  L 309.69 224.26
  Q 309.58 224.77 310.08 224.90
  Q 312.15 225.48 312.61 224.25
  C 323.95 222.74 329.41 208.90 326.47 199.05
  C 325.02 195.65 322.61 191.08 318.41 192.03
  Z
  M 178.94 208.06
  Q 178.47 207.83 178.31 208.32
  C 176.84 212.67 176.15 217.33 181.52 219.34
  Q 182.11 219.56 182.03 218.94
  C 181.69 216.01 181.85 209.49 178.94 208.06
  Z
  M 232.38 254.18
  C 228.78 253.42 218.67 250.33 215.79 252.40
  Q 215.21 252.82 215.78 253.27
  L 220.54 256.94
  A 1.49 1.48 -25.8 0 0 221.45 257.25
  L 232.06 257.25
  A 1.55 1.55 0.0 0 0 232.38 254.18
  Z
  M 278.68 252.35
  C 276.20 250.72 268.09 253.26 264.98 253.75
  Q 264.50 253.82 264.50 254.30
  L 264.50 256.75
  Q 264.50 257.25 265.00 257.25
  L 273.23 257.25
  A 1.26 1.19 -63.0 0 0 273.99 256.98
  L 278.72 253.18
  A 0.52 0.51 -48.1 0 0 278.68 252.35
  Z
  M 283.40 254.56
  C 280.54 252.60 278.90 255.17 276.99 256.85
  Q 276.08 257.64 277.29 257.59
  L 283.58 257.28
  A 1.26 1.08 70.2 0 0 284.30 255.39
  Q 284.06 255.01 283.40 254.56
  Z
  M 217.25 256.63
  Q 215.74 255.30 214.62 254.51
  C 213.19 253.50 211.56 254.20 211.11 255.76
  A 1.16 1.16 0.0 0 0 212.23 257.24
  L 217.02 257.26
  Q 217.98 257.26 217.25 256.63
  Z
  M 236.69 257.38
  L 261.09 257.42
  A 0.44 0.44 0.0 0 0 261.53 256.98
  L 261.53 255.74
  A 0.74 0.21 -89.9 0 0 261.32 255.00
  L 236.46 254.96
  A 0.74 0.21 -89.9 0 0 236.25 255.70
  L 236.25 256.94
  A 0.44 0.44 0.0 0 0 236.69 257.38
  Z
  M 173.87 300.01
  Q 173.55 300.67 174.04 301.78
  Q 174.60 308.09 175.03 314.50
  C 175.33 318.98 177.93 320.50 182.30 320.50
  Q 247.09 320.49 311.89 320.51
  C 316.52 320.51 323.00 321.76 323.62 315.07
  Q 323.98 311.17 324.25 307.66
  Q 324.17 306.97 324.34 307.04
  C 325.21 299.73 325.47 291.52 326.10 285.08
  Q 326.96 276.17 327.75 267.25
  C 328.09 263.34 324.89 260.39 320.92 260.37
  C 274.16 260.08 227.40 260.65 180.63 260.29
  C 171.15 260.22 170.67 262.69 171.31 271.43
  Q 172.35 285.69 173.87 300.01
  Z
  M 169.10 291.00
  C 165.62 292.07 158.82 303.16 161.91 306.14
  Q 162.26 306.48 162.24 306.00
  Q 161.93 296.75 169.24 291.29
  Q 170.02 290.71 169.10 291.00
  Z
  M 330.05 291.36
  A 0.30 0.30 0.0 0 0 329.63 291.79
  C 330.74 293.21 332.29 294.21 333.26 295.59
  C 335.04 298.14 336.74 302.37 336.16 305.55
  Q 336.09 305.99 336.42 306.28
  Q 336.98 306.76 337.03 306.02
  Q 337.60 296.71 330.05 291.36
  Z
  M 165.75 308.36
  Q 167.45 312.21 171.20 312.72
  Q 171.80 312.80 171.75 312.20
  L 171.40 307.72
  L 170.20 294.57
  Q 170.15 294.05 169.75 294.38
  Q 163.12 299.95 165.75 308.36
  Z
  M 327.48 307.52
  L 327.07 312.43
  Q 327.03 312.95 327.54 312.86
  Q 330.83 312.31 332.61 309.01
  Q 335.67 300.68 328.91 294.76
  A 0.39 0.38 22.3 0 0 328.27 295.02
  L 327.48 307.52
  Z
  M 133.77 316.54
  L 133.76 326.50
  Q 133.76 327.39 134.65 327.38
  L 151.38 327.25
  L 338.75 327.25
  L 364.28 327.23
  Q 364.87 327.23 364.87 326.63
  L 364.84 317.41
  Q 365.26 316.06 364.93 314.79
  Q 364.79 314.27 364.25 314.27
  L 339.51 314.26
  L 327.25 314.11
  Q 326.69 314.10 326.66 314.66
  C 326.25 321.90 321.79 323.73 315.03 323.73
  Q 249.15 323.74 183.27 323.75
  C 177.08 323.75 172.36 321.94 172.17 315.22
  A 1.17 1.17 0.0 0 0 170.98 314.08
  L 162.05 314.23
  L 134.33 314.27
  Q 133.77 314.27 133.77 314.84
  L 133.77 316.54
  Z"
/>
<path fill="#40444d" d="
  M 225.05 75.45
  Q 223.66 75.43 222.74 75.98
  Q 207.06 85.36 198.17 100.68
  Q 197.29 102.20 193.89 103.37
  A 1.08 1.04 -84.1 0 0 193.31 103.86
  Q 191.96 106.34 190.89 105.32
  Q 203.01 82.96 226.48 72.16
  A 0.40 0.40 0.0 0 1 226.97 72.76
  L 225.05 75.45
  Z"
/>
<path fill="#2a272e" d="
  M 225.05 75.45
  Q 222.60 80.23 222.64 84.25
  L 214.24 88.93
  A 0.74 0.58 11.2 0 0 215.11 89.94
  Q 229.08 83.50 243.87 81.16
  C 253.09 79.70 263.64 80.26 273.51 80.51
  C 276.76 80.60 280.85 77.78 283.57 79.72
  C 272.59 85.12 264.24 88.10 254.71 89.78
  C 247.40 91.06 239.59 92.90 231.95 97.65
  Q 231.60 97.87 231.99 97.99
  Q 232.60 98.17 233.08 97.53
  Q 235.01 97.46 237.08 96.70
  C 257.82 89.06 284.13 94.39 303.96 103.03
  Q 306.73 104.24 309.78 106.38
  Q 304.88 106.43 301.78 107.89
  Q 301.15 109.10 299.75 107.89
  Q 299.38 107.57 298.92 107.38
  Q 298.36 107.16 297.87 107.29
  A 0.59 0.59 0.0 0 0 297.74 108.38
  Q 316.34 118.48 323.64 138.37
  Q 314.72 133.19 306.26 133.08
  A 0.72 0.72 0.0 0 1 305.61 132.64
  L 302.47 125.17
  A 0.21 0.21 0.0 0 0 302.07 125.32
  L 305.15 134.30
  Q 308.54 149.11 304.14 163.37
  A 0.29 0.29 0.0 0 1 303.69 163.51
  Q 303.09 163.04 302.69 162.34
  Q 306.49 147.87 303.98 133.22
  Q 303.90 132.75 303.43 132.70
  L 271.99 129.70
  Q 271.57 129.66 271.37 129.29
  Q 270.42 127.49 268.98 126.63
  Q 268.79 126.27 268.49 126.14
  Q 267.95 125.90 268.12 126.47
  L 268.82 128.69
  Q 255.19 128.26 242.14 125.56
  A 0.28 0.28 0.0 0 0 241.91 126.06
  C 243.70 127.48 246.20 128.06 247.77 128.92
  Q 252.98 131.75 256.80 136.11
  Q 243.92 125.46 229.19 124.55
  Q 215.77 120.88 201.57 122.66
  Q 200.09 122.85 199.55 123.28
  C 192.20 129.19 184.35 133.93 174.52 133.49
  Q 174.03 133.47 173.69 133.83
  L 165.38 142.76
  Q 160.08 134.11 158.49 123.60
  C 157.72 118.49 157.95 112.62 158.09 107.06
  A 0.48 0.47 -50.9 0 1 159.03 106.96
  Q 163.37 126.15 182.92 124.58
  C 185.93 124.34 189.11 123.07 192.07 122.09
  Q 192.30 122.02 192.25 121.75
  A 0.27 0.27 0.0 0 0 191.93 121.52
  L 186.82 122.36
  A 0.78 0.78 0.0 0 1 185.95 121.85
  Q 185.47 120.50 184.77 120.00
  Q 185.60 119.61 185.60 119.21
  Q 186.25 119.43 186.61 119.02
  A 0.74 0.74 0.0 0 0 186.68 118.11
  Q 181.87 110.90 180.89 102.28
  Q 180.84 101.78 181.29 101.58
  Q 182.23 101.16 182.25 100.21
  Q 184.86 103.12 188.49 103.36
  Q 189.09 103.40 189.24 103.98
  L 189.54 105.22
  Q 189.69 105.78 190.27 105.77
  Q 190.71 105.76 190.89 105.32
  Q 191.96 106.34 193.31 103.86
  A 1.08 1.04 -84.1 0 1 193.89 103.37
  Q 197.29 102.20 198.17 100.68
  Q 207.06 85.36 222.74 75.98
  Q 223.66 75.43 225.05 75.45
  Z"
/>
<path fill="#40444d" d="
  M 291.34 80.83
  Q 286.63 78.41 283.57 79.72
  C 280.85 77.78 276.76 80.60 273.51 80.51
  C 263.64 80.26 253.09 79.70 243.87 81.16
  Q 229.08 83.50 215.11 89.94
  A 0.74 0.58 11.2 0 1 214.24 88.93
  L 222.64 84.25
  Q 256.95 70.51 293.28 79.24
  Q 294.82 79.61 293.43 80.38
  Q 292.64 80.82 291.34 80.83
  Z"
/>
<path fill="#1f1a20" d="
  M 291.34 80.83
  Q 282.69 84.11 279.29 91.77
  Q 255.21 87.16 233.08 97.53
  Q 232.60 98.17 231.99 97.99
  Q 231.60 97.87 231.95 97.65
  C 239.59 92.90 247.40 91.06 254.71 89.78
  C 264.24 88.10 272.59 85.12 283.57 79.72
  Q 286.63 78.41 291.34 80.83
  Z"
/>
<path fill="#40444d" d="
  M 279.29 91.77
  Q 297.00 95.31 312.81 105.71
  Q 314.47 106.80 312.48 106.77
  Q 311.31 106.75 309.78 106.38
  Q 306.73 104.24 303.96 103.03
  C 284.13 94.39 257.82 89.06 237.08 96.70
  Q 235.01 97.46 233.08 97.53
  Q 255.21 87.16 279.29 91.77
  Z"
/>
<path fill="#40444d" d="
  M 182.25 100.21
  Q 182.23 101.16 181.29 101.58
  Q 180.84 101.78 180.89 102.28
  Q 181.87 110.90 186.68 118.11
  A 0.74 0.74 0.0 0 1 186.61 119.02
  Q 186.25 119.43 185.60 119.21
  C 178.95 112.07 177.44 102.85 177.85 93.30
  Q 177.93 91.65 178.67 93.12
  L 182.25 100.21
  Z"
/>
<path fill="#40444d" d="
  M 184.77 120.00
  Q 185.47 120.50 185.95 121.85
  A 0.78 0.78 0.0 0 0 186.82 122.36
  L 191.93 121.52
  A 0.27 0.27 0.0 0 1 192.25 121.75
  Q 192.30 122.02 192.07 122.09
  C 189.11 123.07 185.93 124.34 182.92 124.58
  Q 163.37 126.15 159.03 106.96
  A 0.48 0.47 -50.9 0 0 158.09 107.06
  C 157.95 112.62 157.72 118.49 158.49 123.60
  Q 160.08 134.11 165.38 142.76
  Q 169.39 148.89 174.87 152.66
  A 0.34 0.34 0.0 0 1 174.59 153.26
  L 172.87 152.79
  Q 172.31 152.64 171.75 152.79
  Q 164.88 154.53 157.09 151.89
  Q 156.09 151.00 155.57 148.90
  Q 155.41 148.28 155.97 148.59
  Q 162.35 152.17 169.72 151.48
  A 0.33 0.33 0.0 0 0 169.89 150.88
  C 158.92 142.90 156.65 132.50 155.96 119.56
  C 155.50 110.93 156.37 103.16 158.56 94.99
  A 0.42 0.42 0.0 0 1 159.38 95.08
  C 159.79 109.42 170.03 120.45 184.77 120.00
  Z"
/>
<path fill="#40444d" d="
  M 301.78 107.89
  C 320.55 116.46 331.94 132.24 329.56 153.28
  L 327.70 153.15
  Q 327.21 153.12 327.09 152.63
  L 323.64 138.37
  Q 316.34 118.48 297.74 108.38
  A 0.59 0.59 0.0 0 1 297.87 107.29
  Q 298.36 107.16 298.92 107.38
  Q 299.38 107.57 299.75 107.89
  Q 301.15 109.10 301.78 107.89
  Z"
/>
<path fill="#1f1a20" d="
  M 229.19 124.55
  Q 242.66 128.13 252.95 136.87
  Q 253.39 137.25 252.87 137.50
  C 247.85 139.91 241.56 140.09 236.00 139.90
  C 225.14 139.52 216.90 138.00 210.63 128.66
  A 0.09 0.09 0.0 0 0 210.47 128.74
  Q 213.75 137.41 222.18 141.01
  A 0.53 0.53 0.0 0 1 222.01 142.03
  Q 212.66 142.83 204.26 143.74
  C 189.59 145.33 181.86 163.61 179.14 176.37
  C 178.15 181.06 178.46 186.10 178.77 190.99
  Q 178.82 191.67 178.27 191.27
  L 174.69 188.65
  Q 170.27 176.30 165.69 164.02
  Q 164.75 161.50 160.63 156.37
  Q 160.30 155.96 159.77 155.99
  L 159.27 156.02
  L 157.09 151.89
  Q 164.88 154.53 171.75 152.79
  Q 172.31 152.64 172.87 152.79
  L 174.59 153.26
  A 0.34 0.34 0.0 0 0 174.87 152.66
  Q 169.39 148.89 165.38 142.76
  L 173.69 133.83
  Q 174.03 133.47 174.52 133.49
  C 184.35 133.93 192.20 129.19 199.55 123.28
  Q 200.09 122.85 201.57 122.66
  Q 215.77 120.88 229.19 124.55
  Z"
/>
<path fill="#1f1a20" d="
  M 323.64 138.37
  L 327.09 152.63
  Q 327.21 153.12 327.70 153.15
  L 329.56 153.28
  Q 328.92 160.26 326.33 167.32
  A 0.60 0.59 -50.6 0 1 325.26 167.43
  Q 318.12 155.53 307.89 146.17
  Q 307.46 145.78 307.49 145.21
  Q 307.82 138.92 305.15 134.30
  L 302.07 125.32
  A 0.21 0.21 0.0 0 1 302.47 125.17
  L 305.61 132.64
  A 0.72 0.72 0.0 0 0 306.26 133.08
  Q 314.72 133.19 323.64 138.37
  Z"
/>
<path fill="#1f1a20" d="
  M 268.82 128.69
  Q 270.85 133.41 272.02 138.50
  Q 273.25 143.88 274.28 151.90
  A 0.19 0.19 0.0 0 0 274.66 151.91
  L 274.95 150.40
  L 275.10 157.93
  Q 275.12 158.85 274.64 158.07
  Q 267.10 145.55 256.80 136.11
  Q 252.98 131.75 247.77 128.92
  C 246.20 128.06 243.70 127.48 241.91 126.06
  A 0.28 0.28 0.0 0 1 242.14 125.56
  Q 255.19 128.26 268.82 128.69
  Z"
/>
<path fill="#40444d" d="
  M 268.98 126.63
  L 272.38 134.53
  Q 275.36 143.00 274.95 150.40
  L 274.66 151.91
  A 0.19 0.19 0.0 0 1 274.28 151.90
  Q 273.25 143.88 272.02 138.50
  Q 270.85 133.41 268.82 128.69
  L 268.12 126.47
  Q 267.95 125.90 268.49 126.14
  Q 268.79 126.27 268.98 126.63
  Z"
/>
<path fill="#1f1a20" d="
  M 268.98 126.63
  Q 270.42 127.49 271.37 129.29
  Q 271.57 129.66 271.99 129.70
  L 303.43 132.70
  Q 303.90 132.75 303.98 133.22
  Q 306.49 147.87 302.69 162.34
  C 294.33 153.15 286.89 145.72 275.49 140.25
  Q 274.99 140.01 274.86 139.47
  Q 274.17 136.44 272.38 134.53
  L 268.98 126.63
  Z"
/>
<path fill="#c3957d" d="
  M 308.28 169.66
  L 305.56 180.38
  Q 305.45 180.84 305.08 180.53
  L 279.92 159.32
  A 0.77 0.77 0.0 0 0 278.68 160.09
  L 280.83 169.19
  Q 275.79 170.89 272.22 175.25
  C 259.26 154.82 238.44 143.47 214.10 148.11
  C 198.57 151.06 189.08 160.67 185.58 175.99
  Q 185.52 176.25 185.26 176.25
  Q 185.11 176.25 184.98 176.25
  A 0.35 0.35 0.0 0 1 184.64 175.82
  Q 185.39 172.34 184.11 169.69
  C 187.70 159.94 193.12 148.61 204.50 146.76
  C 210.41 145.80 220.51 145.87 228.61 143.46
  C 234.35 141.75 241.93 142.93 248.15 142.12
  C 250.64 141.80 253.10 140.62 255.61 139.79
  Q 256.13 139.62 256.54 139.99
  Q 268.11 150.60 274.42 164.98
  A 1.51 1.51 0.0 0 0 277.30 164.55
  Q 278.42 155.17 277.92 145.73
  A 0.50 0.50 0.0 0 1 278.68 145.28
  C 288.86 151.44 295.90 159.02 303.85 168.54
  Q 304.22 168.97 304.75 168.78
  Q 306.49 168.15 306.42 166.08
  A 0.36 0.36 0.0 0 1 307.13 165.96
  L 308.28 169.66
  Z"
/>
<path fill="#fbccaa" d="
  M 272.22 175.25
  C 270.74 177.29 269.70 184.53 273.92 183.45
  L 274.20 184.17
  Q 274.38 184.65 273.96 184.95
  L 272.18 186.23
  Q 271.84 186.47 272.14 186.76
  L 272.38 187.00
  Q 273.06 187.68 272.34 188.32
  C 267.80 192.39 266.88 200.32 267.79 206.01
  Q 268.90 207.63 268.54 208.56
  Q 267.65 210.24 268.07 212.38
  Q 268.16 212.85 268.52 213.16
  C 276.74 220.33 284.63 218.71 295.08 216.49
  Q 295.57 216.38 295.71 215.91
  L 297.62 209.63
  C 303.78 197.28 296.25 183.92 281.78 184.68
  L 288.84 178.71
  Q 289.21 178.40 289.68 178.33
  L 291.59 178.06
  L 296.23 180.82
  A 1.48 1.48 0.0 0 0 298.47 179.55
  C 298.50 175.14 290.24 170.11 286.69 168.90
  C 284.71 168.22 282.87 168.74 280.83 169.19
  L 278.68 160.09
  A 0.77 0.77 0.0 0 1 279.92 159.32
  L 305.08 180.53
  Q 305.45 180.84 305.56 180.38
  L 308.28 169.66
  C 311.31 177.24 311.26 185.77 309.99 193.45
  L 303.41 223.06
  Q 303.27 223.73 302.75 223.28
  C 297.61 218.81 285.59 222.61 280.54 225.76
  A 1.64 1.64 0.0 0 0 280.04 228.06
  C 283.24 232.83 296.16 230.98 300.88 229.26
  A 0.34 0.33 4.9 0 1 301.29 229.74
  C 297.21 236.84 287.71 242.61 280.33 246.55
  L 274.32 248.46
  L 247.00 251.86
  Q 226.91 251.48 208.79 244.93
  Q 201.79 240.58 196.02 235.61
  C 193.41 233.36 191.84 230.89 190.45 227.89
  A 0.25 0.25 0.0 0 1 190.81 227.57
  Q 200.03 233.15 210.77 230.77
  Q 212.61 230.36 212.96 228.72
  A 0.89 0.88 -64.0 0 0 212.67 227.86
  C 208.47 224.31 194.97 218.02 190.01 222.34
  A 0.65 0.64 61.8 0 1 188.96 222.02
  Q 184.29 204.67 182.84 186.80
  A 0.48 0.48 0.0 0 0 182.05 186.47
  L 181.71 186.76
  Q 180.96 178.33 184.11 169.69
  Q 185.39 172.34 184.64 175.82
  A 0.35 0.35 0.0 0 0 184.98 176.25
  Q 185.11 176.25 185.26 176.25
  Q 185.52 176.25 185.58 175.99
  C 189.08 160.67 198.57 151.06 214.10 148.11
  C 238.44 143.47 259.26 154.82 272.22 175.25
  Z
  M 201.03 177.95
  Q 205.91 179.78 211.03 184.80
  C 196.66 183.35 188.95 197.27 195.07 209.44
  L 196.99 215.73
  Q 197.15 216.25 197.68 216.36
  C 207.11 218.21 214.74 220.70 223.15 214.08
  C 225.27 212.41 225.51 210.03 224.44 207.75
  L 224.82 204.82
  C 225.86 198.38 225.18 192.62 219.99 188.12
  Q 219.59 187.78 219.78 187.29
  Q 220.44 185.53 218.36 184.75
  Q 217.88 184.57 218.07 184.09
  Q 218.18 183.83 218.49 183.60
  Q 220.50 183.42 221.02 181.26
  C 222.56 174.95 215.37 170.54 210.52 169.07
  C 204.50 167.25 197.85 172.20 194.54 176.85
  Q 193.28 178.62 193.88 180.12
  A 1.33 1.33 0.0 0 0 195.75 180.79
  L 201.03 177.95
  Z
  M 245.23 219.81
  A 0.45 0.45 0.0 0 0 244.99 220.62
  L 246.89 222.01
  A 0.41 0.41 0.0 0 0 247.54 221.61
  Q 247.21 219.67 245.23 219.81
  Z
  M 261.52 229.50
  C 253.68 235.03 242.67 235.42 234.43 230.27
  A 1.04 1.04 0.0 0 0 232.85 231.05
  Q 232.74 232.09 234.11 232.84
  C 242.44 237.41 255.82 238.76 262.94 231.13
  A 1.09 1.09 0.0 0 0 261.52 229.50
  Z"
/>
<path fill="#1f1a20" d="
  M 323.96 170.44
  Q 322.15 170.79 321.67 173.63
  C 320.80 178.72 318.25 183.98 316.66 188.96
  Q 315.56 190.31 313.99 190.79
  Q 313.31 190.99 313.40 190.29
  Q 315.36 175.16 308.21 161.78
  A 1.41 1.38 -55.2 0 1 308.06 160.88
  L 309.39 152.67
  A 0.43 0.43 0.0 0 1 310.13 152.45
  Q 317.41 160.53 323.96 170.44
  Z"
/>
<path fill="#40444d" d="
  M 159.27 156.02
  L 159.77 155.99
  Q 160.30 155.96 160.63 156.37
  Q 164.75 161.50 165.69 164.02
  Q 170.27 176.30 174.69 188.65
  Q 173.39 189.00 172.92 187.81
  C 170.62 181.97 167.92 174.65 166.16 167.50
  C 164.96 162.64 161.77 159.81 159.27 156.02
  Z"
/>
<path fill="#010101" d="
  M 218.49 183.60
  C 212.67 180.46 208.19 176.56 201.03 177.95
  L 195.75 180.79
  A 1.33 1.33 0.0 0 1 193.88 180.12
  Q 193.28 178.62 194.54 176.85
  C 197.85 172.20 204.50 167.25 210.52 169.07
  C 215.37 170.54 222.56 174.95 221.02 181.26
  Q 220.50 183.42 218.49 183.60
  Z"
/>
<path fill="#010101" d="
  M 291.59 178.06
  C 284.12 176.51 279.68 180.26 273.92 183.45
  C 269.70 184.53 270.74 177.29 272.22 175.25
  Q 275.79 170.89 280.83 169.19
  C 282.87 168.74 284.71 168.22 286.69 168.90
  C 290.24 170.11 298.50 175.14 298.47 179.55
  A 1.48 1.48 0.0 0 1 296.23 180.82
  L 291.59 178.06
  Z"
/>
<path fill="#40444d" d="
  M 323.96 170.44
  Q 321.25 180.97 318.78 187.80
  Q 318.25 189.25 316.66 188.96
  C 318.25 183.98 320.80 178.72 321.67 173.63
  Q 322.15 170.79 323.96 170.44
  Z"
/>
<path fill="#c3957d" d="
  M 218.49 183.60
  Q 218.18 183.83 218.07 184.09
  Q 217.88 184.57 218.36 184.75
  Q 220.44 185.53 219.78 187.29
  Q 219.59 187.78 219.99 188.12
  C 225.18 192.62 225.86 198.38 224.82 204.82
  Q 225.00 201.89 224.28 201.30
  Q 221.70 188.43 211.03 184.80
  Q 205.91 179.78 201.03 177.95
  C 208.19 176.56 212.67 180.46 218.49 183.60
  Z"
/>
<path fill="#c3957d" d="
  M 291.59 178.06
  L 289.68 178.33
  Q 289.21 178.40 288.84 178.71
  L 281.78 184.68
  Q 268.83 189.56 268.20 205.08
  L 267.79 206.01
  C 266.88 200.32 267.80 192.39 272.34 188.32
  Q 273.06 187.68 272.38 187.00
  L 272.14 186.76
  Q 271.84 186.47 272.18 186.23
  L 273.96 184.95
  Q 274.38 184.65 274.20 184.17
  L 273.92 183.45
  C 279.68 180.26 284.12 176.51 291.59 178.06
  Z"
/>
<path fill="#010101" d="
  M 211.03 184.80
  Q 221.70 188.43 224.28 201.30
  L 224.50 203.82
  Q 224.55 204.31 224.07 204.43
  L 222.66 204.78
  Q 222.12 204.92 221.99 205.45
  C 220.06 213.32 211.81 216.01 205.80 210.16
  L 206.28 209.45
  Q 206.55 209.05 206.26 208.65
  Q 205.97 208.24 205.36 207.96
  Q 205.22 203.62 201.12 204.95
  Q 200.09 198.44 204.72 193.59
  Q 209.31 190.09 215.47 190.66
  Q 215.97 190.71 215.58 190.39
  C 205.97 182.74 195.52 192.66 195.16 202.98
  L 195.07 209.44
  C 188.95 197.27 196.66 183.35 211.03 184.80
  Z
  M 217.97 197.56
  A 2.16 2.16 0.0 0 0 215.81 195.40
  A 2.16 2.16 0.0 0 0 213.65 197.56
  A 2.16 2.16 0.0 0 0 215.81 199.72
  A 2.16 2.16 0.0 0 0 217.97 197.56
  Z"
/>
<path fill="#010101" d="
  M 281.78 184.68
  C 296.25 183.92 303.78 197.28 297.62 209.63
  L 297.50 201.84
  C 296.65 191.54 286.08 183.31 276.86 190.54
  Q 276.40 190.89 276.98 190.83
  Q 282.65 190.22 286.77 193.31
  Q 292.09 198.06 291.78 204.63
  C 287.63 204.08 288.49 207.24 287.31 209.28
  Q 285.77 211.96 283.70 212.54
  Q 273.93 215.29 271.02 205.47
  Q 270.58 204.00 268.20 205.08
  Q 268.83 189.56 281.78 184.68
  Z
  M 284.51 197.61
  A 2.09 2.09 0.0 0 0 282.42 195.52
  A 2.09 2.09 0.0 0 0 280.33 197.61
  A 2.09 2.09 0.0 0 0 282.42 199.70
  A 2.09 2.09 0.0 0 0 284.51 197.61
  Z"
/>
<path fill="#ffe3cf" d="
  M 208.79 244.93
  C 198.12 241.54 188.57 236.94 186.33 225.55
  Q 182.57 206.35 181.71 186.76
  L 182.05 186.47
  A 0.48 0.48 0.0 0 1 182.84 186.80
  Q 184.29 204.67 188.96 222.02
  A 0.65 0.64 61.8 0 0 190.01 222.34
  C 194.97 218.02 208.47 224.31 212.67 227.86
  A 0.89 0.88 -64.0 0 1 212.96 228.72
  Q 212.61 230.36 210.77 230.77
  Q 200.03 233.15 190.81 227.57
  A 0.25 0.25 0.0 0 0 190.45 227.89
  C 191.84 230.89 193.41 233.36 196.02 235.61
  Q 201.79 240.58 208.79 244.93
  Z"
/>
<path fill="#9b969a" d="
  M 204.72 193.59
  Q 197.89 193.98 195.16 202.98
  C 195.52 192.66 205.97 182.74 215.58 190.39
  Q 215.97 190.71 215.47 190.66
  Q 209.31 190.09 204.72 193.59
  Z"
/>
<path fill="#9b969a" d="
  M 297.50 201.84
  C 294.74 197.34 292.16 193.07 286.77 193.31
  Q 282.65 190.22 276.98 190.83
  Q 276.40 190.89 276.86 190.54
  C 286.08 183.31 296.65 191.54 297.50 201.84
  Z"
/>
<path fill="#ffe3cf" d="
  M 173.65 191.82
  Q 169.23 196.36 167.30 200.69
  Q 167.25 200.87 167.21 201.06
  L 165.05 200.68
  Q 166.96 192.27 173.65 191.82
  Z"
/>
<path fill="#fbccaa" d="
  M 173.65 191.82
  Q 174.69 192.17 175.81 193.17
  C 178.15 195.27 179.72 203.55 180.51 206.64
  A 0.58 0.58 0.0 0 1 179.54 207.20
  Q 174.40 202.29 167.30 200.69
  Q 169.23 196.36 173.65 191.82
  Z"
/>
<path fill="#ffe3cf" d="
  M 326.47 199.05
  L 324.82 199.42
  A 0.77 0.75 -24.7 0 1 324.06 199.15
  L 318.41 192.03
  C 322.61 191.08 325.02 195.65 326.47 199.05
  Z"
/>
<path fill="#fbccaa" d="
  M 318.41 192.03
  L 324.06 199.15
  A 0.77 0.75 -24.7 0 0 324.82 199.42
  L 326.47 199.05
  C 329.41 208.90 323.95 222.74 312.61 224.25
  Q 320.18 221.12 322.58 215.32
  Q 325.28 208.83 324.24 202.08
  Q 324.92 201.78 324.07 201.14
  A 0.70 0.67 56.7 0 0 323.50 201.01
  Q 317.54 202.41 312.69 206.16
  Q 312.35 206.42 312.35 205.99
  C 312.42 200.61 312.80 193.11 318.41 192.03
  Z"
/>
<path fill="#ffffff" d="
  M 297.50 201.84
  L 297.62 209.63
  L 295.71 215.91
  Q 295.57 216.38 295.08 216.49
  C 284.63 218.71 276.74 220.33 268.52 213.16
  Q 268.16 212.85 268.07 212.38
  Q 267.65 210.24 268.54 208.56
  Q 275.49 220.64 285.76 214.72
  C 289.64 212.49 291.49 208.95 291.78 204.63
  Q 292.09 198.06 286.77 193.31
  C 292.16 193.07 294.74 197.34 297.50 201.84
  Z"
/>
<path fill="#ffffff" d="
  M 204.72 193.59
  Q 200.09 198.44 201.12 204.95
  Q 200.48 207.31 202.20 209.86
  Q 202.63 210.49 203.06 209.86
  L 203.92 208.59
  Q 204.13 208.28 204.48 208.14
  Q 204.93 207.96 205.36 207.96
  Q 205.97 208.24 206.26 208.65
  Q 206.55 209.05 206.28 209.45
  L 205.80 210.16
  L 204.10 211.53
  Q 203.69 211.87 204.04 212.26
  C 210.74 219.79 221.26 216.99 224.44 207.75
  C 225.51 210.03 225.27 212.41 223.15 214.08
  C 214.74 220.70 207.11 218.21 197.68 216.36
  Q 197.15 216.25 196.99 215.73
  L 195.07 209.44
  L 195.16 202.98
  Q 197.89 193.98 204.72 193.59
  Z"
/>
<path fill="#ffe3cf" d="
  M 309.99 193.45
  Q 309.58 202.62 307.27 218.50
  C 306.12 226.44 305.53 232.79 299.17 237.60
  Q 290.91 243.84 280.33 246.55
  C 287.71 242.61 297.21 236.84 301.29 229.74
  A 0.34 0.33 4.9 0 0 300.88 229.26
  C 296.16 230.98 283.24 232.83 280.04 228.06
  A 1.64 1.64 0.0 0 1 280.54 225.76
  C 285.59 222.61 297.61 218.81 302.75 223.28
  Q 303.27 223.73 303.41 223.06
  L 309.99 193.45
  Z"
/>
<circle fill="#ffffff" cx="215.81" cy="197.56" r="2.16"/>
<circle fill="#ffffff" cx="282.42" cy="197.61" r="2.09"/>
<path fill="#fbccaa" d="
  M 165.05 200.68
  L 167.21 201.06
  Q 168.05 202.02 169.54 202.40
  A 0.87 0.86 89.4 0 1 170.18 203.03
  Q 170.44 204.04 169.92 205.24
  Q 169.56 205.62 168.95 205.83
  Q 168.46 205.99 168.41 206.51
  Q 167.25 219.02 180.59 224.68
  Q 162.79 220.01 165.05 200.68
  Z"
/>
<path fill="#5f3019" d="
  M 224.28 201.30
  Q 225.00 201.89 224.82 204.82
  L 224.44 207.75
  C 221.26 216.99 210.74 219.79 204.04 212.26
  Q 203.69 211.87 204.10 211.53
  L 205.80 210.16
  C 211.81 216.01 220.06 213.32 221.99 205.45
  Q 222.12 204.92 222.66 204.78
  L 224.07 204.43
  Q 224.55 204.31 224.50 203.82
  L 224.28 201.30
  Z"
/>
<path fill="#c3957d" d="
  M 324.24 202.08
  Q 325.28 208.83 322.58 215.32
  Q 320.18 221.12 312.61 224.25
  Q 312.15 225.48 310.08 224.90
  Q 309.58 224.77 309.69 224.26
  L 310.47 220.49
  Q 312.90 219.07 313.93 216.69
  Q 314.11 216.30 314.00 216.03
  Q 313.86 215.70 313.72 216.02
  Q 312.72 218.25 310.43 219.35
  L 311.84 208.30
  A 0.71 0.71 0.0 0 1 313.24 208.27
  L 314.37 214.68
  A 0.04 0.04 0.0 0 0 314.45 214.68
  Q 315.25 210.77 314.21 206.88
  Q 314.07 206.34 314.55 206.06
  L 317.72 204.23
  Q 318.47 203.79 319.02 204.46
  L 321.13 207.05
  Q 321.62 207.66 321.56 206.88
  L 321.28 203.15
  Q 321.24 202.66 321.73 202.56
  L 324.24 202.08
  Z"
/>
<path fill="#c3957d" d="
  M 180.59 224.68
  Q 167.25 219.02 168.41 206.51
  Q 168.46 205.99 168.95 205.83
  Q 169.56 205.62 169.92 205.24
  Q 170.01 205.40 170.11 205.51
  A 0.27 0.26 -44.2 0 0 170.48 205.51
  L 172.08 203.96
  A 0.47 0.46 -52.1 0 1 172.63 203.89
  L 176.90 206.40
  A 0.75 0.75 0.0 0 1 177.23 207.29
  Q 174.14 216.11 181.88 220.69
  A 1.15 1.15 0.0 0 1 182.43 221.51
  L 182.82 224.39
  Q 182.92 225.08 182.22 225.11
  Q 180.51 225.20 180.59 224.68
  Z"
/>
<path fill="#5f3019" d="
  M 291.78 204.63
  C 291.49 208.95 289.64 212.49 285.76 214.72
  Q 275.49 220.64 268.54 208.56
  Q 268.90 207.63 267.79 206.01
  L 268.20 205.08
  Q 270.58 204.00 271.02 205.47
  Q 273.93 215.29 283.70 212.54
  Q 285.77 211.96 287.31 209.28
  C 288.49 207.24 287.63 204.08 291.78 204.63
  Z"
/>
<path fill="#c3957d" d="
  M 201.12 204.95
  Q 205.22 203.62 205.36 207.96
  Q 204.93 207.96 204.48 208.14
  Q 204.13 208.28 203.92 208.59
  L 203.06 209.86
  Q 202.63 210.49 202.20 209.86
  Q 200.48 207.31 201.12 204.95
  Z"
/>
<path fill="#c3957d" d="
  M 178.94 208.06
  C 181.85 209.49 181.69 216.01 182.03 218.94
  Q 182.11 219.56 181.52 219.34
  C 176.15 217.33 176.84 212.67 178.31 208.32
  Q 178.47 207.83 178.94 208.06
  Z"
/>
<path fill="#1f1a20" d="
  M 310.47 220.49
  Q 310.58 219.78 310.43 219.35
  Q 312.72 218.25 313.72 216.02
  Q 313.86 215.70 314.00 216.03
  Q 314.11 216.30 313.93 216.69
  Q 312.90 219.07 310.47 220.49
  Z"
/>
<path fill="#c3957d" d="
  M 245.23 219.81
  Q 247.21 219.67 247.54 221.61
  A 0.41 0.41 0.0 0 1 246.89 222.01
  L 244.99 220.62
  A 0.45 0.45 0.0 0 1 245.23 219.81
  Z"
/>
<path fill="#010101" d="
  M 234.43 230.27
  C 242.67 235.42 253.68 235.03 261.52 229.50
  A 1.09 1.09 0.0 0 1 262.94 231.13
  C 255.82 238.76 242.44 237.41 234.11 232.84
  Q 232.74 232.09 232.85 231.05
  A 1.04 1.04 0.0 0 1 234.43 230.27
  Z"
/>
<path fill="#c3957d" d="
  M 274.32 248.46
  Q 260.90 252.78 247.00 251.86
  L 274.32 248.46
  Z"
/>
<path fill="#5c636d" d="
  M 232.38 254.18
  A 1.55 1.55 0.0 0 1 232.06 257.25
  L 221.45 257.25
  A 1.49 1.48 -25.8 0 1 220.54 256.94
  L 215.78 253.27
  Q 215.21 252.82 215.79 252.40
  C 218.67 250.33 228.78 253.42 232.38 254.18
  Z"
/>
<path fill="#5c636d" d="
  M 278.68 252.35
  A 0.52 0.51 -48.1 0 1 278.72 253.18
  L 273.99 256.98
  A 1.26 1.19 -63.0 0 1 273.23 257.25
  L 265.00 257.25
  Q 264.50 257.25 264.50 256.75
  L 264.50 254.30
  Q 264.50 253.82 264.98 253.75
  C 268.09 253.26 276.20 250.72 278.68 252.35
  Z"
/>
<path fill="#40444d" d="
  M 283.40 254.56
  Q 284.06 255.01 284.30 255.39
  A 1.26 1.08 70.2 0 1 283.58 257.28
  L 277.29 257.59
  Q 276.08 257.64 276.99 256.85
  C 278.90 255.17 280.54 252.60 283.40 254.56
  Z"
/>
<path fill="#40444d" d="
  M 217.25 256.63
  Q 217.98 257.26 217.02 257.26
  L 212.23 257.24
  A 1.16 1.16 0.0 0 1 211.11 255.76
  C 211.56 254.20 213.19 253.50 214.62 254.51
  Q 215.74 255.30 217.25 256.63
  Z"
/>
<path fill="#c3957d" d="
  M 236.69 257.38
  A 0.44 0.44 0.0 0 1 236.25 256.94
  L 236.25 255.70
  A 0.74 0.21 -89.9 0 1 236.46 254.96
  L 261.32 255.00
  A 0.74 0.21 -89.9 0 1 261.53 255.74
  L 261.53 256.98
  A 0.44 0.44 0.0 0 1 261.09 257.42
  L 236.69 257.38
  Z"
/>
<path fill="#ffffff" d="
  M 324.34 307.04
  Q 323.85 307.05 323.65 306.97
  Q 323.54 306.92 323.56 306.47
  Q 324.38 286.25 325.57 266.90
  A 4.15 4.15 0.0 0 0 321.43 262.50
  Q 250.69 262.50 179.19 262.50
  C 172.36 262.50 172.58 265.42 173.04 271.06
  Q 174.15 284.49 174.66 298.00
  Q 174.74 299.94 173.87 300.01
  Q 172.35 285.69 171.31 271.43
  C 170.67 262.69 171.15 260.22 180.63 260.29
  C 227.40 260.65 274.16 260.08 320.92 260.37
  C 324.89 260.39 328.09 263.34 327.75 267.25
  Q 326.96 276.17 326.10 285.08
  C 325.47 291.52 325.21 299.73 324.34 307.04
  Z"
/>
<path fill="#5c636d" d="
  M 324.34 307.04
  Q 324.17 306.97 324.25 307.66
  Q 307.29 305.97 290.48 304.14
  C 286.67 303.72 282.19 303.90 278.42 304.20
  Q 228.46 308.13 177.79 312.57
  Q 176.63 312.67 176.50 311.50
  L 175.49 302.00
  Q 175.44 301.55 174.99 301.62
  L 174.04 301.78
  Q 173.55 300.67 173.87 300.01
  Q 174.74 299.94 174.66 298.00
  Q 174.15 284.49 173.04 271.06
  C 172.58 265.42 172.36 262.50 179.19 262.50
  Q 250.69 262.50 321.43 262.50
  A 4.15 4.15 0.0 0 1 325.57 266.90
  Q 324.38 286.25 323.56 306.47
  Q 323.54 306.92 323.65 306.97
  Q 323.85 307.05 324.34 307.04
  Z
  M 249.1775 283.6033
  A 3.33 1.50 132.8 0 0 252.5406 282.1792
  A 3.33 1.50 132.8 0 0 253.7025 278.7167
  A 3.33 1.50 132.8 0 0 250.3394 280.1408
  A 3.33 1.50 132.8 0 0 249.1775 283.6033
  Z
  M 258.77 296.79
  Q 254.11 292.31 258.74 287.59
  Q 259.08 287.24 258.74 286.88
  Q 255.26 283.23 250.43 285.62
  A 3.00 2.98 -41.7 0 1 247.49 285.46
  C 245.69 284.31 243.20 284.67 241.41 285.82
  C 235.94 289.31 237.93 296.25 241.74 300.21
  C 244.00 302.56 246.63 302.08 249.34 300.94
  A 1.21 1.19 -44.0 0 1 250.29 300.95
  Q 256.41 303.65 258.97 297.80
  Q 259.22 297.22 258.77 296.79
  Z"
/>
<ellipse fill="#ffffff" cx="0.00" cy="0.00" transform="translate(251.44,281.16) rotate(132.8)" rx="3.33" ry="1.50"/>
<path fill="#ffffff" d="
  M 258.77 296.79
  Q 259.22 297.22 258.97 297.80
  Q 256.41 303.65 250.29 300.95
  A 1.21 1.19 -44.0 0 0 249.34 300.94
  C 246.63 302.08 244.00 302.56 241.74 300.21
  C 237.93 296.25 235.94 289.31 241.41 285.82
  C 243.20 284.67 245.69 284.31 247.49 285.46
  A 3.00 2.98 -41.7 0 0 250.43 285.62
  Q 255.26 283.23 258.74 286.88
  Q 259.08 287.24 258.74 287.59
  Q 254.11 292.31 258.77 296.79
  Z"
/>
<path fill="#2b2a2b" d="
  M 161.91 306.14
  C 158.82 303.16 165.62 292.07 169.10 291.00
  Q 170.02 290.71 169.24 291.29
  Q 161.93 296.75 162.24 306.00
  Q 162.26 306.48 161.91 306.14
  Z"
/>
<path fill="#1f1a20" d="
  M 330.05 291.36
  Q 337.60 296.71 337.03 306.02
  Q 336.98 306.76 336.42 306.28
  Q 336.09 305.99 336.16 305.55
  C 336.74 302.37 335.04 298.14 333.26 295.59
  C 332.29 294.21 330.74 293.21 329.63 291.79
  A 0.30 0.30 0.0 0 1 330.05 291.36
  Z"
/>
<path fill="#fbccaa" d="
  M 171.40 307.72
  Q 169.14 307.01 165.75 308.36
  Q 163.12 299.95 169.75 294.38
  Q 170.15 294.05 170.20 294.57
  L 171.40 307.72
  Z"
/>
<path fill="#fbccaa" d="
  M 332.61 309.01
  Q 330.50 306.96 327.48 307.52
  L 328.27 295.02
  A 0.39 0.38 22.3 0 1 328.91 294.76
  Q 335.67 300.68 332.61 309.01
  Z"
/>
<path fill="#40444d" d="
  M 324.25 307.66
  Q 323.98 311.17 323.62 315.07
  C 323.00 321.76 316.52 320.51 311.89 320.51
  Q 247.09 320.49 182.30 320.50
  C 177.93 320.50 175.33 318.98 175.03 314.50
  Q 174.60 308.09 174.04 301.78
  L 174.99 301.62
  Q 175.44 301.55 175.49 302.00
  L 176.50 311.50
  Q 176.63 312.67 177.79 312.57
  Q 228.46 308.13 278.42 304.20
  C 282.19 303.90 286.67 303.72 290.48 304.14
  Q 307.29 305.97 324.25 307.66
  Z"
/>
<path fill="#c3957d" d="
  M 171.40 307.72
  L 171.75 312.20
  Q 171.80 312.80 171.20 312.72
  Q 167.45 312.21 165.75 308.36
  Q 169.14 307.01 171.40 307.72
  Z"
/>
<path fill="#c3957d" d="
  M 332.61 309.01
  Q 330.83 312.31 327.54 312.86
  Q 327.03 312.95 327.07 312.43
  L 327.48 307.52
  Q 330.50 306.96 332.61 309.01
  Z"
/>
<path fill="#9b969a" d="
  M 130.90 312.78
  L 130.88 328.50
  A 2.00 2.00 0.0 0 0 132.88 330.50
  Q 248.46 330.47 364.10 330.51
  C 368.06 330.51 368.56 328.66 367.95 325.13
  Q 371.70 325.81 375.47 328.25
  A 1.40 1.40 0.0 0 1 375.41 330.64
  C 373.33 331.82 370.88 332.90 368.39 333.44
  C 341.60 339.34 311.24 341.27 284.99 342.08
  C 238.34 343.54 191.78 342.56 145.45 336.53
  C 138.71 335.66 128.18 334.17 122.54 330.34
  A 1.12 1.12 0.0 0 1 122.50 328.52
  Q 125.98 325.94 130.23 325.29
  Q 130.75 325.21 130.75 324.68
  L 130.90 312.78
  Z"
/>
<path fill="#40444d" d="
  M 162.05 314.23
  Q 158.64 315.76 154.34 315.82
  L 133.77 316.54
  L 133.77 314.84
  Q 133.77 314.27 134.33 314.27
  L 162.05 314.23
  Z"
/>
<path fill="#1f1a20" d="
  M 162.05 314.23
  L 170.98 314.08
  A 1.17 1.17 0.0 0 1 172.17 315.22
  C 172.36 321.94 177.08 323.75 183.27 323.75
  Q 249.15 323.74 315.03 323.73
  C 321.79 323.73 326.25 321.90 326.66 314.66
  Q 326.69 314.10 327.25 314.11
  L 339.51 314.26
  Q 338.91 314.79 339.90 315.48
  L 338.75 327.25
  L 151.38 327.25
  L 154.34 315.82
  Q 158.64 315.76 162.05 314.23
  Z"
/>
<path fill="#40444d" d="
  M 339.51 314.26
  L 364.25 314.27
  Q 364.79 314.27 364.93 314.79
  Q 365.26 316.06 364.84 317.41
  L 339.90 315.48
  Q 338.91 314.79 339.51 314.26
  Z"
/>
<path fill="#2a272e" d="
  M 339.90 315.48
  L 364.84 317.41
  L 364.87 326.63
  Q 364.87 327.23 364.28 327.23
  L 338.75 327.25
  L 339.90 315.48
  Z"
/>
<path fill="#2a272e" d="
  M 154.34 315.82
  L 151.38 327.25
  L 134.65 327.38
  Q 133.76 327.39 133.76 326.50
  L 133.77 316.54
  L 154.34 315.82
  Z"
/>
<path fill="#ffe3cf" d="
  M 141.50 395.25
  L 141.50 407.53
  Q 141.51 408.15 140.91 408.35
  C 132.40 411.21 118.68 413.36 114.52 403.42
  C 112.28 398.07 113.26 388.06 113.25 381.23
  A 0.99 0.98 89.7 0 0 112.27 380.25
  L 108.02 380.25
  Q 107.54 380.25 107.23 379.88
  C 99.65 370.83 100.01 353.79 115.26 353.76
  Q 131.28 353.74 147.32 353.75
  Q 147.88 353.76 148.17 354.23
  L 150.39 357.90
  Q 150.66 358.35 151.11 358.06
  C 162.74 350.48 177.94 351.36 188.50 360.39
  A 0.70 0.70 0.0 0 0 189.49 360.31
  C 195.98 352.36 207.81 351.90 215.66 357.76
  Q 216.06 358.06 216.48 357.78
  C 223.96 352.77 236.16 351.92 242.96 359.00
  Q 243.30 359.37 243.70 359.06
  C 252.94 351.84 265.96 351.61 276.41 355.92
  Q 276.88 356.12 277.32 355.87
  Q 281.06 353.79 283.81 353.78
  Q 299.75 353.72 315.69 353.76
  Q 316.19 353.76 316.68 353.86
  Q 317.91 354.11 318.04 354.93
  Q 318.15 355.65 318.83 355.39
  Q 322.57 353.97 326.50 353.97
  Q 338.78 353.99 351.06 354.01
  Q 351.63 354.01 351.95 354.49
  L 352.68 355.58
  A 0.67 0.66 58.9 0 0 353.56 355.80
  Q 356.41 354.23 361.50 353.56
  C 371.97 352.17 383.13 353.20 390.45 361.04
  C 396.42 367.44 398.40 379.18 392.26 387.17
  Q 391.92 387.61 392.24 388.08
  L 397.34 395.54
  Q 397.61 395.93 397.57 396.41
  C 396.69 408.47 384.94 413.59 374.55 409.20
  C 373.65 408.83 373.16 409.00 372.32 409.23
  C 366.35 410.86 358.11 411.82 352.55 408.52
  A 0.86 0.86 0.0 0 0 351.62 408.56
  C 346.65 412.17 332.03 410.84 325.82 410.59
  C 319.23 410.33 312.78 406.73 311.56 399.72
  A 0.24 0.24 0.0 0 0 311.09 399.76
  L 311.03 407.68
  A 0.64 0.63 -9.7 0 1 310.60 408.28
  C 303.69 410.66 291.66 412.92 286.07 406.67
  C 284.88 405.34 284.12 403.35 283.16 401.60
  Q 282.85 401.04 282.46 401.55
  C 273.97 412.76 257.85 413.61 245.67 408.51
  Q 245.22 408.32 244.79 408.54
  C 237.17 412.46 224.34 411.99 220.97 402.46
  A 0.51 0.50 78.2 0 0 220.47 402.13
  L 214.90 402.41
  A 0.95 0.95 0.0 0 0 214.00 403.36
  L 214.00 406.92
  Q 214.00 407.45 213.53 407.70
  C 205.54 411.80 194.33 412.96 188.07 405.35
  A 0.58 0.57 52.7 0 0 187.30 405.24
  C 171.92 416.21 150.54 412.95 141.96 395.14
  Q 141.50 394.18 141.50 395.25
  Z
  M 188.7748 380.0180
  A 18.52 18.52 0.0 0 0 170.1260 361.6277
  L 166.4661 361.6533
  A 18.52 18.52 0.0 0 0 148.0758 380.3021
  L 148.1052 384.5020
  A 18.52 18.52 0.0 0 0 166.7540 402.8923
  L 170.4139 402.8667
  A 18.52 18.52 0.0 0 0 188.8042 384.2179
  L 188.7748 380.0180
  Z
  M 249.98 382.15
  C 253.20 384.81 258.59 386.24 262.56 387.68
  C 264.10 388.24 265.57 388.96 265.26 390.88
  C 264.35 396.41 253.16 392.88 250.68 391.00
  A 2.35 2.34 -57.8 0 0 247.18 391.80
  C 240.06 405.54 273.69 407.69 276.77 393.30
  C 279.30 381.51 267.29 378.39 259.08 375.68
  A 2.12 2.12 0.0 0 1 257.94 372.55
  C 260.08 369.11 268.98 371.35 271.88 372.68
  A 0.86 0.85 -51.0 0 0 272.75 372.58
  C 275.22 370.62 275.77 367.33 273.66 364.86
  C 270.14 360.74 260.45 361.21 255.77 362.32
  C 246.47 364.54 241.78 375.37 249.98 382.15
  Z
  M 367.00 389.25
  L 369.53 389.25
  A 0.94 0.93 -15.0 0 1 370.34 389.71
  C 372.56 393.37 376.07 400.56 379.82 402.05
  C 382.83 403.26 387.64 401.92 388.44 398.04
  A 1.28 1.26 -57.9 0 0 388.21 397.01
  L 380.79 387.18
  Q 380.47 386.75 380.91 386.47
  Q 387.86 381.99 387.38 374.35
  C 386.50 360.21 368.43 360.09 358.62 362.90
  C 357.12 363.33 355.27 364.44 355.27 366.00
  Q 355.21 380.90 355.28 395.80
  C 355.31 403.38 360.29 402.90 366.04 401.79
  Q 366.50 401.70 366.50 401.24
  L 366.50 389.75
  Q 366.50 389.25 367.00 389.25
  Z
  M 133.44 371.81
  C 138.96 371.38 147.69 372.79 143.43 362.98
  Q 143.23 362.51 142.71 362.51
  Q 128.96 362.48 115.22 362.51
  C 109.92 362.52 110.08 367.60 111.64 371.12
  Q 111.84 371.57 112.33 371.58
  L 121.28 371.81
  Q 121.75 371.82 121.75 372.29
  Q 121.75 385.36 121.77 398.44
  C 121.78 403.21 129.81 402.44 132.58 401.77
  Q 133.00 401.67 133.00 401.23
  L 133.00 372.29
  Q 133.00 371.84 133.44 371.81
  Z
  M 206.33 376.50
  A 0.33 0.33 0.0 0 1 206.97 376.41
  Q 208.75 382.44 210.76 388.45
  C 211.80 391.54 211.64 392.75 214.72 393.43
  Q 219.05 394.38 222.27 392.62
  Q 222.69 392.39 222.83 391.93
  L 227.44 376.79
  A 0.30 0.30 0.0 0 1 228.02 376.87
  Q 228.24 387.60 228.83 398.16
  C 229.14 403.57 236.18 402.84 239.46 401.66
  A 0.87 0.86 79.6 0 0 240.03 400.83
  C 239.77 389.85 238.38 378.47 237.17 367.54
  C 236.46 361.17 228.20 361.83 223.85 363.44
  Q 223.32 363.63 223.15 364.17
  L 217.56 382.18
  A 0.33 0.33 0.0 0 1 216.92 382.18
  Q 214.78 375.00 212.43 367.71
  C 210.34 361.23 201.54 361.21 197.04 364.44
  Q 196.60 364.76 196.57 365.30
  Q 195.63 381.40 194.49 397.48
  C 194.08 403.30 201.42 402.93 205.10 401.83
  Q 205.68 401.66 205.69 401.06
  L 206.33 376.50
  Z
  M 303.03 371.53
  C 309.65 372.23 316.93 371.69 312.91 362.97
  Q 312.70 362.51 312.20 362.51
  Q 298.34 362.48 284.50 362.51
  C 279.37 362.52 279.53 367.95 281.27 371.24
  A 0.96 0.93 75.6 0 0 282.10 371.75
  L 290.73 371.75
  Q 291.26 371.75 291.26 372.28
  Q 291.31 384.39 291.00 396.49
  C 290.83 403.34 297.49 402.63 302.03 401.81
  Q 302.50 401.72 302.50 401.24
  L 302.50 372.01
  Q 302.50 371.47 303.03 371.53
  Z
  M 330.50 392.75
  L 330.50 386.81
  Q 330.50 386.26 331.05 386.26
  Q 336.77 386.24 342.49 386.25
  C 347.08 386.26 346.89 380.70 345.25 377.92
  A 0.86 0.86 0.0 0 0 344.51 377.50
  L 331.00 377.50
  Q 330.50 377.50 330.50 377.00
  L 330.50 372.01
  Q 330.50 371.51 331.01 371.51
  C 336.57 371.51 352.02 374.65 347.31 363.10
  A 0.80 0.78 -9.8 0 0 346.61 362.62
  Q 330.16 362.20 325.42 362.58
  Q 319.49 363.06 319.48 369.00
  Q 319.45 382.84 319.55 396.69
  C 319.57 399.81 321.87 401.87 325.08 402.00
  Q 335.03 402.38 345.00 401.89
  C 349.32 401.67 348.70 396.33 347.47 393.71
  A 0.79 0.78 77.6 0 0 346.76 393.25
  L 331.00 393.25
  Q 330.50 393.25 330.50 392.75
  Z"
/>
<path fill="#2b2a2b" d="
  M 188.8042 384.2179
  A 18.52 18.52 0.0 0 1 170.4139 402.8667
  L 166.7540 402.8923
  A 18.52 18.52 0.0 0 1 148.1052 384.5020
  L 148.0758 380.3021
  A 18.52 18.52 0.0 0 1 166.4661 361.6533
  L 170.1260 361.6277
  A 18.52 18.52 0.0 0 1 188.7748 380.0180
  L 188.8042 384.2179
  Z
  M 160.21 387.50
  C 161.89 394.55 170.92 396.05 174.86 390.77
  C 178.80 385.49 178.18 372.01 170.26 370.75
  C 159.98 369.12 158.46 380.15 160.21 387.50
  Z"
/>
<path fill="#2b2a2b" d="
  M 262.56 387.68
  C 258.59 386.24 253.20 384.81 249.98 382.15
  C 241.78 375.37 246.47 364.54 255.77 362.32
  C 260.45 361.21 270.14 360.74 273.66 364.86
  C 275.77 367.33 275.22 370.62 272.75 372.58
  A 0.86 0.85 -51.0 0 1 271.88 372.68
  C 268.98 371.35 260.08 369.11 257.94 372.55
  A 2.12 2.12 0.0 0 0 259.08 375.68
  C 267.29 378.39 279.30 381.51 276.77 393.30
  C 273.69 407.69 240.06 405.54 247.18 391.80
  A 2.35 2.34 -57.8 0 1 250.68 391.00
  C 253.16 392.88 264.35 396.41 265.26 390.88
  C 265.57 388.96 264.10 388.24 262.56 387.68
  Z"
/>
<path fill="#2b2a2b" d="
  M 366.50 389.75
  L 366.50 401.24
  Q 366.50 401.70 366.04 401.79
  C 360.29 402.90 355.31 403.38 355.28 395.80
  Q 355.21 380.90 355.27 366.00
  C 355.27 364.44 357.12 363.33 358.62 362.90
  C 368.43 360.09 386.50 360.21 387.38 374.35
  Q 387.86 381.99 380.91 386.47
  Q 380.47 386.75 380.79 387.18
  L 388.21 397.01
  A 1.28 1.26 -57.9 0 1 388.44 398.04
  C 387.64 401.92 382.83 403.26 379.82 402.05
  C 376.07 400.56 372.56 393.37 370.34 389.71
  A 0.94 0.93 -15.0 0 0 369.53 389.25
  L 367.00 389.25
  Q 366.50 389.25 366.50 389.75
  Z
  M 366.48 371.33
  L 366.46 379.93
  A 0.59 0.59 0.0 0 0 367.05 380.52
  L 370.83 380.53
  A 5.15 4.71 0.1 0 0 375.99 375.83
  L 375.99 375.47
  A 5.15 4.71 0.1 0 0 370.85 370.75
  L 367.07 370.74
  A 0.59 0.59 0.0 0 0 366.48 371.33
  Z"
/>
<path fill="#2b2a2b" d="
  M 133.00 372.29
  L 133.00 401.23
  Q 133.00 401.67 132.58 401.77
  C 129.81 402.44 121.78 403.21 121.77 398.44
  Q 121.75 385.36 121.75 372.29
  Q 121.75 371.82 121.28 371.81
  L 112.33 371.58
  Q 111.84 371.57 111.64 371.12
  C 110.08 367.60 109.92 362.52 115.22 362.51
  Q 128.96 362.48 142.71 362.51
  Q 143.23 362.51 143.43 362.98
  C 147.69 372.79 138.96 371.38 133.44 371.81
  Q 133.00 371.84 133.00 372.29
  Z"
/>
<path fill="#2b2a2b" d="
  M 206.33 376.50
  L 205.69 401.06
  Q 205.68 401.66 205.10 401.83
  C 201.42 402.93 194.08 403.30 194.49 397.48
  Q 195.63 381.40 196.57 365.30
  Q 196.60 364.76 197.04 364.44
  C 201.54 361.21 210.34 361.23 212.43 367.71
  Q 214.78 375.00 216.92 382.18
  A 0.33 0.33 0.0 0 0 217.56 382.18
  L 223.15 364.17
  Q 223.32 363.63 223.85 363.44
  C 228.20 361.83 236.46 361.17 237.17 367.54
  C 238.38 378.47 239.77 389.85 240.03 400.83
  A 0.87 0.86 79.6 0 1 239.46 401.66
  C 236.18 402.84 229.14 403.57 228.83 398.16
  Q 228.24 387.60 228.02 376.87
  A 0.30 0.30 0.0 0 0 227.44 376.79
  L 222.83 391.93
  Q 222.69 392.39 222.27 392.62
  Q 219.05 394.38 214.72 393.43
  C 211.64 392.75 211.80 391.54 210.76 388.45
  Q 208.75 382.44 206.97 376.41
  A 0.33 0.33 0.0 0 0 206.33 376.50
  Z"
/>
<path fill="#2b2a2b" d="
  M 302.50 372.01
  L 302.50 401.24
  Q 302.50 401.72 302.03 401.81
  C 297.49 402.63 290.83 403.34 291.00 396.49
  Q 291.31 384.39 291.26 372.28
  Q 291.26 371.75 290.73 371.75
  L 282.10 371.75
  A 0.96 0.93 75.6 0 1 281.27 371.24
  C 279.53 367.95 279.37 362.52 284.50 362.51
  Q 298.34 362.48 312.20 362.51
  Q 312.70 362.51 312.91 362.97
  C 316.93 371.69 309.65 372.23 303.03 371.53
  Q 302.50 371.47 302.50 372.01
  Z"
/>
<path fill="#2b2a2b" d="
  M 331.00 393.25
  L 346.76 393.25
  A 0.79 0.78 77.6 0 1 347.47 393.71
  C 348.70 396.33 349.32 401.67 345.00 401.89
  Q 335.03 402.38 325.08 402.00
  C 321.87 401.87 319.57 399.81 319.55 396.69
  Q 319.45 382.84 319.48 369.00
  Q 319.49 363.06 325.42 362.58
  Q 330.16 362.20 346.61 362.62
  A 0.80 0.78 -9.8 0 1 347.31 363.10
  C 352.02 374.65 336.57 371.51 331.01 371.51
  Q 330.50 371.51 330.50 372.01
  L 330.50 377.00
  Q 330.50 377.50 331.00 377.50
  L 344.51 377.50
  A 0.86 0.86 0.0 0 1 345.25 377.92
  C 346.89 380.70 347.08 386.26 342.49 386.25
  Q 336.77 386.24 331.05 386.26
  Q 330.50 386.26 330.50 386.81
  L 330.50 392.75
  Q 330.50 393.25 331.00 393.25
  Z"
/>
<path fill="#ffe3cf" d="
  M 174.86 390.77
  C 170.92 396.05 161.89 394.55 160.21 387.50
  C 158.46 380.15 159.98 369.12 170.26 370.75
  C 178.18 372.01 178.80 385.49 174.86 390.77
  Z"
/>
<path fill="#ffe3cf" d="
  M 366.48 371.33
  A 0.59 0.59 0.0 0 1 367.07 370.74
  L 370.85 370.75
  A 5.15 4.71 0.1 0 1 375.99 375.47
  L 375.99 375.83
  A 5.15 4.71 0.1 0 1 370.83 380.53
  L 367.05 380.52
  A 0.59 0.59 0.0 0 1 366.46 379.93
  L 366.48 371.33
  Z"
/>
</svg>
