<?xml version="1.0" encoding="UTF-8" standalone="no"?>
<!DOCTYPE svg PUBLIC "-//W3C//DTD SVG 1.1//EN" "http://www.w3.org/Graphics/SVG/1.1/DTD/svg11.dtd">
<svg xmlns="http://www.w3.org/2000/svg" version="1.1" viewBox="0.00 0.00 500.00 500.00">
<g stroke-width="2.00" fill="none" stroke-linecap="butt">
<path stroke="#9c9a9b" vector-effect="non-scaling-stroke" d="
  M 76.82 131.54
  C 23.01 208.55 29.74 314.79 90.56 385.78
  C 134.75 437.35 198.57 463.12 266.05 458.38
  C 348.00 452.63 419.91 397.14 447.38 319.96
  C 473.19 247.43 456.64 165.12 404.45 108.44
  Q 356.49 56.34 286.39 43.50
  C 271.44 40.76 255.96 40.35 240.68 40.74
  C 174.62 42.45 114.25 77.99 76.82 131.54"
/>
<path stroke="#9c9a9b" vector-effect="non-scaling-stroke" d="
  M 131.22 49.16
  C 56.79 93.73 12.62 173.92 17.10 261.43
  C 21.12 339.93 63.80 410.17 130.80 450.10
  Q 132.65 451.20 130.91 449.93
  C -2.05 353.38 -2.61 145.61 131.32 49.30
  Q 133.02 48.08 131.22 49.16"
/>
<path stroke="#9c9a9b" vector-effect="non-scaling-stroke" d="
  M 467.99 332.22
  C 507.88 226.94 465.99 106.21 368.10 48.91
  Q 367.46 48.54 368.06 48.97
  C 502.10 144.81 502.15 353.53 368.11 450.28
  Q 368.06 450.32 368.07 450.36
  Q 368.07 450.39 368.08 450.42
  Q 368.09 450.51 368.17 450.46
  C 413.86 423.02 449.11 382.04 467.99 332.22"
/>
<path stroke="#9c9a9b" vector-effect="non-scaling-stroke" d="
  M 441.50 245.79
  A 191.70 191.70 0.0 0 0 249.80 54.09
  A 191.70 191.70 0.0 0 0 58.10 245.79
  A 191.70 191.70 0.0 0 0 249.80 437.49
  A 191.70 191.70 0.0 0 0 441.50 245.79"
/>
<path stroke="#cdcbcd" vector-effect="non-scaling-stroke" d="
  M 158.05 311.69
  Q 153.82 311.48 151.23 314.36
  A 0.66 0.65 -54.2 0 0 151.39 315.37
  C 157.36 318.76 167.66 320.11 174.18 320.83
  Q 246.40 328.81 318.60 321.47
  C 323.89 320.93 343.70 318.77 346.54 315.56
  Q 347.58 314.37 346.28 313.48
  Q 343.52 311.57 340.99 311.66"
/>
<path stroke="#808080" vector-effect="non-scaling-stroke" d="
  M 340.99 311.66
  L 340.98 302.55
  A 2.07 2.06 -0.1 0 0 338.90 300.49
  L 316.95 300.69
  A 0.33 0.33 0.0 0 1 316.70 300.15
  C 321.95 293.92 317.48 286.32 311.37 282.82
  A 0.81 0.80 -73.1 0 1 310.97 282.06
  Q 311.48 275.15 311.97 268.25
  C 312.46 261.14 309.23 259.02 302.53 259.01
  Q 292.39 258.99 282.20 259.00
  A 1.40 1.37 67.5 0 1 281.21 258.58
  Q 278.10 255.37 273.90 253.85
  Q 272.87 253.48 273.92 253.16
  C 282.63 250.45 292.60 245.97 295.08 236.86
  Q 295.21 236.37 295.72 236.34
  C 310.62 235.53 318.66 214.50 305.43 206.15
  Q 305.02 205.88 305.18 205.42
  Q 307.07 199.87 308.77 194.25
  Q 308.98 193.56 309.56 193.15
  Q 309.95 192.88 310.12 192.43
  C 317.12 174.76 314.12 157.09 298.32 145.50
  A 0.31 0.31 0.0 0 1 298.56 144.94
  L 302.25 145.54
  A 1.28 1.28 0.0 0 0 303.31 143.32
  C 295.52 136.33 286.73 132.74 276.61 129.88
  A 0.55 0.55 0.0 0 1 276.38 128.95
  Q 280.74 124.74 286.86 124.01
  Q 287.67 123.91 288.07 123.67
  Q 289.48 122.84 288.03 121.35
  A 1.73 1.62 76.1 0 0 287.38 120.93
  C 269.51 114.60 249.92 115.79 232.18 121.74
  Q 231.24 122.05 231.77 121.21
  L 235.53 115.15
  A 1.27 1.27 0.0 0 0 234.26 113.23
  C 222.94 114.97 209.99 127.86 204.26 137.16
  Q 204.00 137.59 203.50 137.69
  C 197.42 138.93 196.51 128.20 194.57 124.65
  A 0.75 0.75 0.0 0 0 193.28 124.62
  C 190.39 129.29 192.66 143.79 194.79 148.73
  Q 195.75 150.96 193.49 150.07
  C 184.03 146.35 182.03 138.41 181.68 129.25
  A 1.41 1.41 0.0 0 0 178.97 128.76
  C 173.52 141.83 172.55 161.35 181.21 173.55
  Q 181.46 173.91 181.02 173.89
  Q 178.33 173.77 177.44 172.79
  Q 176.13 171.33 175.44 171.60
  A 2.28 2.28 0.0 0 0 174.18 174.68
  Q 177.01 180.87 180.72 185.84
  Q 182.25 187.90 182.90 190.15
  Q 185.15 197.92 188.13 205.50
  Q 188.32 205.99 187.89 206.28
  C 175.08 214.96 183.03 236.23 198.22 236.25
  A 0.66 0.65 -6.7 0 1 198.86 236.75
  C 201.07 246.15 212.72 250.65 221.76 253.14
  A 0.36 0.35 -45.9 0 1 221.77 253.82
  Q 217.33 255.22 214.29 258.72
  A 0.88 0.87 20.3 0 1 213.63 259.02
  C 208.57 258.98 193.19 257.75 189.43 260.21
  C 184.69 263.32 186.80 273.59 188.03 280.81
  Q 188.12 281.34 187.71 281.69
  C 183.17 285.53 179.38 288.63 179.67 295.20
  C 179.75 296.85 180.41 298.58 181.69 299.54
  A 0.59 0.59 0.0 0 1 181.34 300.61
  L 159.37 300.54
  A 1.34 1.34 0.0 0 0 158.03 301.88
  L 158.05 311.69"
/>
<path stroke="#4e4b4d" vector-effect="non-scaling-stroke" d="
  M 340.99 311.66
  Q 341.29 313.69 340.33 314.94
  Q 340.10 315.25 339.71 315.25
  L 159.22 315.25
  A 0.97 0.96 75.0 0 1 158.38 314.76
  Q 157.67 313.53 158.05 311.69"
/>
<path stroke="#fff1e7" vector-effect="non-scaling-stroke" d="
  M 166.68 366.15
  C 173.37 379.49 189.98 381.74 201.50 373.51
  Q 201.94 373.20 202.29 373.61
  C 207.29 379.52 215.37 378.64 221.82 375.50
  Q 222.25 375.28 222.25 374.80
  L 222.25 372.00
  Q 222.25 371.25 223.00 371.25
  L 227.24 371.25
  A 0.69 0.69 0.0 0 1 227.87 371.66
  C 231.01 379.01 239.62 378.96 245.94 376.25
  Q 246.39 376.05 246.85 376.25
  C 256.15 380.23 268.77 378.67 275.35 370.39
  Q 275.69 369.96 275.85 370.48
  C 278.80 379.69 289.62 378.85 296.88 375.57
  Q 297.24 375.40 297.24 375.00
  L 297.19 370.50
  Q 297.18 368.84 297.72 370.41
  C 300.13 377.37 306.11 377.51 312.31 377.75
  C 317.23 377.95 323.44 378.23 327.97 376.23
  Q 328.43 376.03 328.88 376.24
  C 333.89 378.55 340.02 377.96 345.07 376.23
  A 1.14 1.13 -38.5 0 1 346.00 376.33
  C 353.95 380.99 362.15 375.19 363.95 367.29
  Q 364.07 366.74 363.77 366.27
  L 359.98 360.44
  Q 359.74 360.06 359.94 359.66
  Q 366.51 346.67 357.06 337.98
  C 350.35 331.80 338.88 332.31 330.81 335.04
  Q 330.06 335.29 329.58 335.15
  Q 329.02 334.98 328.66 334.42
  Q 328.39 334.00 327.88 334.00
  C 320.57 334.00 310.77 332.96 303.80 334.83
  Q 303.30 334.96 302.87 334.67
  L 301.91 334.03
  Q 301.52 333.77 301.04 333.77
  Q 288.67 333.70 276.31 333.80
  Q 274.15 333.81 271.29 335.52
  Q 270.85 335.78 270.38 335.58
  Q 257.17 329.75 245.32 337.45
  Q 244.73 337.83 244.16 337.42
  Q 234.68 330.46 224.46 336.80
  Q 224.01 337.08 223.57 336.80
  Q 212.60 330.01 203.27 338.63
  Q 202.85 339.02 202.38 338.67
  Q 188.75 328.36 173.80 336.91
  Q 173.33 337.17 173.01 336.74
  L 171.16 334.19
  Q 170.85 333.75 170.31 333.75
  Q 163.55 333.71 146.71 333.86
  C 134.47 333.98 133.43 346.32 139.70 353.88
  A 1.05 1.03 -19.6 0 0 140.50 354.25
  L 143.73 354.25
  Q 144.24 354.25 144.24 354.76
  C 144.26 364.63 142.04 377.22 155.06 377.69
  Q 160.58 377.89 165.86 375.77
  Q 166.25 375.62 166.25 375.20
  L 166.25 366.26
  Q 166.25 365.29 166.68 366.15"
/>
<path stroke="#151417" vector-effect="non-scaling-stroke" d="
  M 206.18 138.29
  L 204.05 141.87
  A 0.55 0.55 0.0 0 1 203.03 141.62
  L 202.99 140.72
  Q 202.95 140.09 202.33 140.09
  C 199.19 140.07 196.07 136.65 195.47 134.26
  Q 194.06 128.65 194.06 134.43
  Q 194.06 139.42 195.93 145.22
  C 196.82 147.99 198.74 150.26 200.24 152.93"
/>
<path stroke="#202227" vector-effect="non-scaling-stroke" d="
  M 200.24 152.93
  C 188.37 153.54 180.50 145.19 179.94 134.09
  A 0.36 0.36 0.0 0 0 179.23 134.03
  Q 176.01 147.09 178.30 160.50"
/>
<path stroke="#1d1b1b" vector-effect="non-scaling-stroke" d="
  M 178.30 160.50
  Q 179.67 170.85 187.92 176.72
  A 0.32 0.32 0.0 0 1 187.75 177.30
  Q 182.50 177.65 177.79 175.39
  Q 177.16 175.09 177.28 175.77
  Q 177.52 177.17 178.36 178.01"
/>
<path stroke="#151417" vector-effect="non-scaling-stroke" d="
  M 178.36 178.01
  Q 180.66 182.73 184.25 186.23"
/>
<path stroke="#202227" vector-effect="non-scaling-stroke" d="
  M 184.25 186.23
  Q 186.62 196.53 191.24 206.01"
/>
<path stroke="#151417" vector-effect="non-scaling-stroke" d="
  M 191.24 206.01
  L 194.25 207.47
  Q 194.72 207.70 194.69 207.18
  Q 193.81 190.07 204.65 176.86
  C 210.09 170.24 220.56 170.59 228.35 169.93
  A 0.38 0.37 -36.4 0 0 228.46 169.21
  Q 222.39 166.75 220.23 161.53
  Q 218.53 157.39 220.88 161.20
  C 226.22 169.84 242.61 169.16 251.27 167.07
  Q 252.92 166.67 251.61 165.59
  Q 244.10 159.38 234.69 156.91
  Q 234.53 156.87 234.63 156.74
  Q 234.71 156.63 234.83 156.56
  Q 234.96 156.49 235.20 156.51
  C 249.84 158.28 261.91 170.13 268.92 182.33
  A 0.21 0.20 -58.9 0 0 269.30 182.23
  Q 269.94 171.13 265.91 160.78
  Q 265.86 160.63 266.01 160.58
  Q 266.14 160.54 266.28 160.49
  Q 266.63 160.38 266.74 160.74
  L 268.72 167.73
  A 1.33 1.31 5.4 0 0 269.41 168.55
  C 278.99 173.17 283.80 178.70 291.32 186.51
  Q 291.92 187.12 292.04 186.28
  L 294.02 173.22
  Q 294.10 172.70 294.49 173.06
  Q 302.35 180.34 307.94 189.50
  Q 308.26 190.03 308.52 189.47
  Q 311.51 183.11 311.47 175.94"
/>
<path stroke="#202227" vector-effect="non-scaling-stroke" d="
  M 311.47 175.94
  C 312.24 160.84 302.93 149.14 289.33 143.54"
/>
<path stroke="#151417" vector-effect="non-scaling-stroke" d="
  M 289.33 143.54
  L 295.31 142.52"
/>
<path stroke="#202227" vector-effect="non-scaling-stroke" d="
  M 295.31 142.52
  L 298.49 142.74
  A 0.29 0.28 -26.0 0 0 298.67 142.22
  Q 287.51 134.51 272.88 131.34"
/>
<path stroke="#151417" vector-effect="non-scaling-stroke" d="
  M 272.88 131.34
  Q 275.14 124.52 283.44 122.58
  Q 284.16 122.41 283.56 121.98
  Q 282.21 121.01 280.22 120.97"
/>
<path stroke="#202227" vector-effect="non-scaling-stroke" d="
  M 280.22 120.97
  C 262.65 117.08 245.72 118.96 228.79 125.36"
/>
<path stroke="#151417" vector-effect="non-scaling-stroke" d="
  M 228.79 125.36
  Q 228.82 121.10 231.31 117.65"
/>
<path stroke="#202227" vector-effect="non-scaling-stroke" d="
  M 231.31 117.65
  L 231.84 116.76
  Q 232.32 115.94 231.45 116.33
  Q 215.58 123.42 206.18 138.29"
/>
<path stroke="#35363e" vector-effect="non-scaling-stroke" d="
  M 231.31 117.65
  Q 217.42 125.19 209.46 138.71
  A 1.88 1.88 0.0 0 1 206.84 139.35
  Q 206.52 139.15 206.18 138.29"
/>
<path stroke="#35363e" vector-effect="non-scaling-stroke" d="
  M 228.79 125.36
  Q 225.39 127.14 221.68 129.41
  Q 221.53 129.50 221.51 129.64
  Q 221.45 129.99 221.78 129.88
  L 231.79 126.39
  Q 232.27 126.22 232.74 126.44
  Q 234.48 127.23 236.35 126.87
  A 0.39 0.39 0.0 0 0 236.33 126.11
  L 235.25 125.96
  A 0.41 0.41 0.0 0 1 235.19 125.16
  Q 250.72 120.88 266.75 122.81
  Q 268.46 123.01 273.51 121.17
  Q 273.99 120.99 274.50 121.08
  L 279.74 121.99
  Q 280.31 122.09 280.26 121.51
  L 280.22 120.97"
/>
<path stroke="#35363e" vector-effect="non-scaling-stroke" d="
  M 272.88 131.34
  Q 261.02 129.38 249.18 131.44
  Q 245.48 132.08 239.79 134.40
  Q 239.72 134.42 239.75 134.50
  Q 239.76 134.54 239.78 134.58
  Q 239.83 134.72 239.98 134.68
  Q 249.91 132.32 253.50 132.24
  Q 274.40 131.82 293.20 140.80
  Q 294.16 141.25 295.31 142.52"
/>
<path stroke="#35363e" vector-effect="non-scaling-stroke" d="
  M 289.33 143.54
  L 285.73 142.78
  A 0.25 0.25 0.0 0 0 285.54 143.24
  Q 287.97 144.85 290.37 146.41
  C 302.16 154.08 306.52 163.90 309.22 177.23
  Q 309.32 177.73 309.83 177.75
  Q 311.26 177.83 311.47 175.94"
/>
<path stroke="#35363e" vector-effect="non-scaling-stroke" d="
  M 191.24 206.01
  L 184.25 186.23"
/>
<path stroke="#322e32" vector-effect="non-scaling-stroke" d="
  M 178.36 178.01
  Q 184.76 179.23 190.52 178.09
  Q 191.08 177.98 190.71 177.55
  L 184.06 169.82"
/>
<path stroke="#35363e" vector-effect="non-scaling-stroke" d="
  M 184.06 169.82
  Q 177.68 157.90 178.80 143.53
  A 0.59 0.59 0.0 0 1 179.96 143.46
  C 182.52 156.46 193.63 158.53 204.56 154.80
  Q 204.71 154.75 204.80 154.59
  Q 205.03 154.22 204.60 154.30
  L 202.08 154.80
  Q 201.36 154.94 201.28 154.21
  Q 201.13 152.69 200.24 152.93"
/>
<path stroke="#3d3d42" vector-effect="non-scaling-stroke" d="
  M 184.06 169.82
  Q 181.68 168.33 180.92 165.20
  Q 180.79 164.67 180.27 164.50
  Q 179.08 164.13 179.54 162.67
  Q 179.70 162.17 179.36 161.76
  L 178.30 160.50"
/>
<path stroke="#7e6655" vector-effect="non-scaling-stroke" d="
  M 199.28 190.50
  Q 195.91 199.76 197.82 208.99"
/>
<path stroke="#807268" vector-effect="non-scaling-stroke" d="
  M 197.82 208.99
  Q 197.97 222.59 200.86 235.53
  C 202.51 242.88 209.88 246.76 217.16 249.00"
/>
<path stroke="#7e6655" vector-effect="non-scaling-stroke" d="
  M 217.16 249.00
  Q 228.63 253.54 241.89 254.43"
/>
<path stroke="#624b3f" vector-effect="non-scaling-stroke" d="
  M 241.89 254.43
  Q 252.61 255.99 262.75 253.60"
/>
<path stroke="#7e6655" vector-effect="non-scaling-stroke" d="
  M 262.75 253.60
  L 274.62 250.21"
/>
<path stroke="#807268" vector-effect="non-scaling-stroke" d="
  M 274.62 250.21
  C 280.24 248.70 290.74 243.95 292.52 237.51
  Q 295.42 227.01 295.99 210.58"
/>
<path stroke="#7e6655" vector-effect="non-scaling-stroke" d="
  M 295.99 210.58
  Q 298.16 201.67 295.19 192.03"
/>
<path stroke="#624b3f" vector-effect="non-scaling-stroke" d="
  M 295.19 192.03
  Q 295.14 190.59 293.78 188.77
  A 0.30 0.30 0.0 0 0 293.24 189.01
  Q 293.45 190.16 292.44 190.69
  A 0.71 0.71 0.0 0 1 291.56 190.52
  C 285.69 183.74 279.99 177.14 272.07 172.64
  Q 271.45 172.29 271.53 173.00
  Q 272.33 180.27 270.82 187.41
  A 1.00 0.98 78.5 0 1 270.44 188.00
  Q 269.47 188.72 268.95 187.61
  Q 263.86 176.72 255.00 168.47
  A 0.86 0.85 -33.6 0 0 254.13 168.30
  Q 246.15 171.36 241.25 170.80
  C 234.23 169.99 227.27 172.71 220.15 173.23
  Q 213.78 173.69 211.50 174.66
  C 204.92 177.45 201.80 184.77 199.28 190.50"
/>
<path stroke="#dfb194" vector-effect="non-scaling-stroke" d="
  M 295.19 192.03
  L 292.85 199.31
  Q 292.66 199.91 292.18 199.51
  L 272.89 183.44
  A 0.69 0.69 0.0 0 0 271.78 184.13
  L 273.44 190.84"
/>
<path stroke="#624b3f" vector-effect="non-scaling-stroke" d="
  M 273.44 190.84
  L 267.05 195.45"
/>
<path stroke="#dfb194" vector-effect="non-scaling-stroke" d="
  M 267.05 195.45
  C 256.31 179.54 240.89 171.00 221.63 174.85
  C 208.94 177.39 204.03 184.53 199.97 196.05
  Q 199.59 197.10 199.53 195.98
  Q 199.41 193.86 199.99 191.50
  Q 200.24 190.48 199.28 190.50"
/>
<path stroke="#624b3f" vector-effect="non-scaling-stroke" d="
  M 280.74 197.72
  C 276.28 197.05 272.54 199.26 269.11 201.65"
/>
<path stroke="#7e6655" vector-effect="non-scaling-stroke" d="
  M 267.05 195.45
  Q 265.50 197.79 266.00 200.25
  Q 266.53 202.83 269.11 201.65"
/>
<path stroke="#dfb194" vector-effect="non-scaling-stroke" d="
  M 269.11 201.65
  Q 269.26 202.72 267.73 203.61
  Q 267.33 203.85 267.33 204.32
  Q 267.36 205.41 266.27 206.58
  Q 263.01 210.08 263.87 215.80"
/>
<path stroke="#7e6655" vector-effect="non-scaling-stroke" d="
  M 263.87 215.80
  L 263.78 217.74"
/>
<path stroke="#9a8170" vector-effect="non-scaling-stroke" d="
  M 263.78 217.74
  Q 263.64 219.80 264.43 221.68"
/>
<path stroke="#fde6d5" vector-effect="non-scaling-stroke" d="
  M 264.43 221.68
  C 263.26 222.85 263.62 224.31 264.82 225.36
  C 270.76 230.55 276.78 229.02 284.59 227.57
  A 0.83 0.83 0.0 0 0 285.25 226.97
  L 286.61 221.86"
/>
<path stroke="#7e6655" vector-effect="non-scaling-stroke" d="
  M 286.61 221.86
  C 292.46 212.79 284.72 202.78 274.54 202.92"
/>
<path stroke="#dfb194" vector-effect="non-scaling-stroke" d="
  M 274.54 202.92
  L 280.74 197.72"
/>
<path stroke="#7e6655" vector-effect="non-scaling-stroke" d="
  M 280.74 197.72
  Q 283.33 198.00 285.75 200.17
  A 0.68 0.68 0.0 0 0 286.65 200.17
  Q 287.66 199.25 287.07 197.94
  A 2.51 0.62 76.2 0 0 286.73 197.29
  Q 281.39 189.48 273.44 190.84"
/>
<path stroke="#fdd8bd" vector-effect="non-scaling-stroke" d="
  M 295.99 210.58
  L 291.25 232.07
  A 0.76 0.76 0.0 0 1 289.89 232.35
  C 287.47 229.02 276.58 232.65 273.83 234.44
  A 1.78 1.78 0.0 0 0 274.20 237.62
  Q 281.65 240.23 289.07 237.26
  Q 289.65 237.03 289.44 237.61
  Q 288.83 239.31 287.55 240.54
  Q 282.01 245.86 274.62 250.21"
/>
<path stroke="#dfb194" vector-effect="non-scaling-stroke" d="
  M 262.75 253.60
  Q 260.48 253.25 258.25 253.31
  Q 250.11 253.52 241.89 254.43"
/>
<path stroke="#fdd8bd" vector-effect="non-scaling-stroke" d="
  M 217.16 249.00
  Q 208.82 243.94 204.18 237.22
  A 0.50 0.49 -3.6 0 1 204.82 236.50
  Q 212.16 240.28 220.24 238.37
  A 1.49 1.49 0.0 0 0 220.76 235.71
  C 217.48 233.36 207.67 228.92 204.08 231.75
  A 1.08 1.08 0.0 0 1 202.36 231.12
  L 197.82 208.99"
/>
<path stroke="#624b3f" vector-effect="non-scaling-stroke" d="
  M 274.54 202.92
  C 268.29 204.90 265.68 209.64 263.87 215.80"
/>
<path stroke="#9c9a9b" vector-effect="non-scaling-stroke" d="
  M 264.43 221.68
  C 269.35 230.63 281.43 228.77 281.97 218.81"
/>
<path stroke="#808080" vector-effect="non-scaling-stroke" d="
  M 286.61 221.86
  Q 287.10 217.65 286.23 215.18"
/>
<path stroke="#4e4b4d" vector-effect="non-scaling-stroke" d="
  M 286.23 215.18
  C 285.20 207.46 277.38 202.40 270.68 207.42
  Q 270.29 207.71 270.77 207.67
  Q 275.29 207.29 278.60 209.77"
/>
<path stroke="#808080" vector-effect="non-scaling-stroke" d="
  M 278.60 209.77
  Q 282.61 213.78 281.97 218.81"
/>
<path stroke="#1d1b1b" vector-effect="non-scaling-stroke" d="
  M 281.97 218.81
  L 280.59 218.50
  A 0.59 0.58 13.4 0 0 279.90 218.92
  C 277.91 226.56 268.73 227.21 266.22 219.89
  C 265.77 218.58 265.06 217.95 263.78 217.74"
/>
<path stroke="#cdcbcd" vector-effect="non-scaling-stroke" d="
  M 286.23 215.18
  Q 282.33 209.50 278.60 209.77"
/>
<path stroke="#202227" vector-effect="non-scaling-stroke" d="
  M 302.07 206.15
  Q 305.27 199.80 306.72 191.93"
/>
<path stroke="#151417" vector-effect="non-scaling-stroke" d="
  M 306.72 191.93
  Q 302.52 184.81 296.38 178.30
  Q 295.85 177.74 295.73 178.50
  L 294.78 184.51
  A 1.68 1.63 -54.9 0 0 294.94 185.51
  Q 300.06 195.63 299.17 206.97
  Q 299.12 207.61 299.69 207.32
  L 302.07 206.15"
/>
<path stroke="#35363e" vector-effect="non-scaling-stroke" d="
  M 306.72 191.93
  Q 303.41 198.99 302.07 206.15"
/>
<path stroke="#807268" vector-effect="non-scaling-stroke" d="
  M 190.23 208.31
  Q 186.71 209.16 185.41 212.59"
/>
<path stroke="#7e6655" vector-effect="non-scaling-stroke" d="
  M 185.41 212.59
  Q 184.02 214.77 183.96 216.26
  Q 183.32 230.73 197.30 234.35
  A 0.73 0.73 0.0 0 0 198.06 233.19
  L 197.69 232.71"
/>
<path stroke="#624b3f" vector-effect="non-scaling-stroke" d="
  M 197.69 232.71
  Q 198.00 231.53 197.18 230.46"
/>
<path stroke="#1d1b1b" vector-effect="non-scaling-stroke" d="
  M 197.18 230.46
  Q 197.54 229.80 197.43 229.57"
/>
<path stroke="#624b3f" vector-effect="non-scaling-stroke" d="
  M 197.43 229.57
  L 196.12 221.59
  A 0.77 0.77 0.0 0 0 194.67 221.38
  Q 193.74 223.31 193.72 225.49"
/>
<path stroke="#1d1b1b" vector-effect="non-scaling-stroke" d="
  M 193.72 225.49
  Q 193.62 225.49 193.53 225.48"
/>
<path stroke="#624b3f" vector-effect="non-scaling-stroke" d="
  M 193.53 225.48
  Q 192.82 223.03 193.63 220.47
  A 0.79 0.78 -66.7 0 0 193.27 219.55
  L 190.13 217.72
  A 0.57 0.57 0.0 0 0 189.34 217.94
  Q 188.77 219.01 187.65 219.39"
/>
<path stroke="#7e6655" vector-effect="non-scaling-stroke" d="
  M 187.65 219.39
  Q 189.21 216.90 186.41 216.01
  Q 186.25 215.96 186.25 215.79
  Q 186.25 215.65 186.24 215.50
  Q 186.23 215.24 186.48 215.32
  Q 191.52 216.82 195.53 220.22
  A 0.39 0.39 0.0 0 0 196.17 219.88
  C 195.84 216.68 193.83 208.33 190.23 208.31"
/>
<path stroke="#dfb194" vector-effect="non-scaling-stroke" d="
  M 187.65 219.39
  C 185.93 225.41 189.98 233.87 197.69 232.71"
/>
<path stroke="#fdd8bd" vector-effect="non-scaling-stroke" d="
  M 185.41 212.59
  Q 188.47 212.57 190.23 208.31"
/>
<path stroke="#7e655a" vector-effect="non-scaling-stroke" d="
  M 193.53 225.48
  Q 193.75 229.59 197.18 230.46"
/>
<path stroke="#7e655a" vector-effect="non-scaling-stroke" d="
  M 197.43 229.57
  Q 194.43 228.76 193.72 225.49"
/>
<path stroke="#624b3f" vector-effect="non-scaling-stroke" d="
  M 307.10 216.75
  Q 305.73 216.60 305.15 217.04
  Q 304.83 217.28 304.82 218.21
  Q 304.82 218.83 304.73 219.45
  Q 304.62 220.15 304.19 219.59
  L 303.13 218.21
  A 0.76 0.75 54.7 0 0 302.11 218.03
  L 299.96 219.43
  A 0.85 0.83 -19.3 0 0 299.57 220.22
  Q 299.97 224.39 298.91 228.48
  A 0.72 0.70 81.6 0 1 298.60 228.91
  Q 296.06 230.43 295.86 233.36
  Q 295.81 234.00 296.45 234.00
  Q 299.63 234.03 302.11 231.99"
/>
<path stroke="#7e6655" vector-effect="non-scaling-stroke" d="
  M 302.11 231.99
  Q 309.47 227.36 309.66 218.47
  C 309.93 206.01 296.67 204.89 298.14 219.05
  Q 298.19 219.51 298.57 219.24
  Q 302.01 216.75 306.17 215.83
  Q 306.33 215.79 306.45 215.67
  L 306.85 215.27
  Q 307.42 214.70 307.47 215.51
  Q 307.49 215.95 307.10 216.75"
/>
<path stroke="#dfb194" vector-effect="non-scaling-stroke" d="
  M 302.11 231.99
  Q 308.55 225.46 307.10 216.75"
/>
<path stroke="#624b3f" vector-effect="non-scaling-stroke" d="
  M 297.60 220.87
  L 296.36 229.55
  A 0.02 0.02 0.0 0 0 296.38 229.57
  L 296.44 229.58
  A 4.19 2.06 -81.9 0 0 299.07 225.72
  L 299.13 225.30
  A 4.19 2.06 -81.9 0 0 297.68 220.86
  L 297.62 220.86
  A 0.02 0.02 0.0 0 0 297.60 220.87"
/>
<path stroke="#202227" vector-effect="non-scaling-stroke" d="
  M 236.36 256.47
  L 225.00 254.26
  A 1.17 1.16 72.6 0 0 223.97 256.24
  C 227.53 259.70 231.64 259.14 236.16 258.97
  A 1.26 1.26 0.0 0 0 236.36 256.47"
/>
<path stroke="#202227" vector-effect="non-scaling-stroke" d="
  M 270.78 254.46
  L 261.88 256.26
  A 1.34 1.34 0.0 0 0 261.84 258.88
  Q 267.76 260.26 271.68 256.06
  A 0.96 0.96 0.0 0 0 270.78 254.46"
/>
<path stroke="#1d1b1b" vector-effect="non-scaling-stroke" d="
  M 219.17 257.81
  L 217.84 258.36
  A 0.23 0.23 0.0 0 0 218.01 258.79
  L 218.90 258.47
  Q 219.33 258.31 219.77 258.46
  Q 221.98 259.24 224.28 258.89
  Q 224.91 258.79 224.55 258.27
  C 223.48 256.75 221.44 255.30 219.87 257.29
  Q 219.59 257.64 219.17 257.81"
/>
<path stroke="#1d1b1b" vector-effect="non-scaling-stroke" d="
  M 275.31 256.94
  Q 274.76 256.31 273.94 256.23
  A 1.06 1.04 24.9 0 0 273.12 256.52
  L 271.25 258.34
  Q 270.47 259.10 271.56 259.05
  L 275.58 258.87
  A 0.80 0.80 0.0 0 0 276.26 257.71
  Q 275.95 257.11 275.31 256.94"
/>
<path stroke="#624b3f" vector-effect="non-scaling-stroke" d="
  M 258.9005 257.7573
  A 0.51 0.51 0.0 0 0 258.3913 257.2464
  L 239.6114 257.2136
  A 0.51 0.51 0.0 0 0 239.1005 257.7227
  L 239.0995 258.2627
  A 0.51 0.51 0.0 0 0 239.6087 258.7736
  L 258.3886 258.8064
  A 0.51 0.51 0.0 0 0 258.8995 258.2973
  L 258.9005 257.7573"
/>
<path stroke="#2e3237" vector-effect="non-scaling-stroke" d="
  M 191.38 291.64
  L 192.17 300.66"
/>
<path stroke="#202227" vector-effect="non-scaling-stroke" d="
  M 192.17 300.66
  C 191.39 305.07 192.99 307.74 197.65 307.74
  Q 249.60 307.76 301.55 307.75
  C 307.88 307.75 306.77 301.85 307.16 297.56"
/>
<path stroke="#808080" vector-effect="non-scaling-stroke" d="
  M 307.16 297.56
  Q 308.50 282.79 309.71 268.03
  C 309.99 264.61 308.78 261.25 305.00 261.25
  Q 249.50 261.25 194.00 261.47
  Q 188.59 261.50 188.91 267.01
  Q 189.62 279.17 191.38 291.64"
/>
<path stroke="#a0a2a6" vector-effect="non-scaling-stroke" d="
  M 307.16 297.56
  Q 306.18 297.44 306.65 297.45"
/>
<path stroke="#aeb1b6" vector-effect="non-scaling-stroke" d="
  M 306.65 297.45
  L 308.16 266.58
  A 3.41 3.40 -88.6 0 0 304.76 263.00
  L 193.53 263.00
  A 3.17 3.16 88.9 0 0 190.37 266.29
  L 191.38 291.64"
/>
<path stroke="#4e545d" vector-effect="non-scaling-stroke" d="
  M 306.65 297.45
  C 306.03 297.62 305.74 297.78 305.10 297.70
  C 294.33 296.47 282.23 294.31 271.44 295.18
  Q 232.21 298.31 193.00 301.75
  Q 192.11 301.83 192.17 300.66"
/>
<path stroke="#1d1b1b" vector-effect="non-scaling-stroke" d="
  M 182.08 294.88
  Q 182.41 289.80 186.11 286.36
  Q 186.40 286.09 186.01 286.05
  Q 185.74 286.03 185.58 286.26
  C 183.34 289.62 181.71 290.73 181.46 295.20
  Q 181.44 295.55 181.79 295.51
  L 182.17 295.45
  A 0.13 0.12 -19.4 0 0 182.27 295.26
  L 182.10 294.98
  A 0.29 0.24 39.3 0 1 182.08 294.88"
/>
<path stroke="#624b3f" vector-effect="non-scaling-stroke" d="
  M 185.30 298.79
  Q 186.35 301.43 188.95 301.73
  Q 189.51 301.79 189.47 301.23
  L 189.21 298.06"
/>
<path stroke="#7e6655" vector-effect="non-scaling-stroke" d="
  M 189.21 298.06
  L 188.41 288.26
  A 0.55 0.55 0.0 0 0 187.47 287.91
  C 184.75 290.67 182.75 295.09 185.30 298.79"
/>
<path stroke="#dfb194" vector-effect="non-scaling-stroke" d="
  M 189.21 298.06
  Q 186.81 297.60 185.30 298.79"
/>
<path stroke="#161516" vector-effect="non-scaling-stroke" d="
  M 313.92 288.06
  L 315.52 290.83
  Q 315.78 291.27 315.86 291.78
  L 316.25 294.24
  A 0.27 0.27 0.0 0 0 316.79 294.20
  Q 316.83 290.48 314.23 287.83
  A 0.20 0.19 8.0 0 0 313.92 288.06"
/>
<path stroke="#624b3f" vector-effect="non-scaling-stroke" d="
  M 309.72 297.78
  L 309.27 301.47
  Q 309.20 302.08 309.80 301.95
  Q 312.21 301.45 313.56 299.08"
/>
<path stroke="#7e6655" vector-effect="non-scaling-stroke" d="
  M 313.56 299.08
  Q 316.05 292.79 311.04 288.08
  A 0.44 0.43 -67.2 0 0 310.31 288.38
  L 309.72 297.78"
/>
<path stroke="#dfb194" vector-effect="non-scaling-stroke" d="
  M 313.56 299.08
  Q 311.89 297.35 309.72 297.78"
/>
<path stroke="#202227" vector-effect="non-scaling-stroke" d="
  M 177.41 303.39
  Q 168.51 302.67 160.17 303.72"
/>
<path stroke="#151417" vector-effect="non-scaling-stroke" d="
  M 160.17 303.72
  L 160.33 312.41
  Q 160.34 312.93 160.87 312.93
  L 338.10 312.82
  Q 338.70 312.82 338.69 312.22
  L 338.62 304.85"
/>
<path stroke="#202227" vector-effect="non-scaling-stroke" d="
  M 338.62 304.85
  Q 338.94 304.09 338.64 303.53
  Q 338.39 303.07 337.87 303.08
  L 318.63 303.41"
/>
<path stroke="#151417" vector-effect="non-scaling-stroke" d="
  M 318.63 303.41
  Q 315.10 303.23 311.31 302.83
  Q 308.59 302.54 308.78 305.19
  Q 308.82 305.66 308.61 306.08
  C 307.26 308.88 305.30 310.25 302.02 310.25
  Q 250.06 310.25 198.09 310.25
  C 193.24 310.25 190.26 308.76 189.70 303.78
  Q 189.64 303.27 189.13 303.22
  Q 183.03 302.56 177.41 303.39"
/>
<path stroke="#35363e" vector-effect="non-scaling-stroke" d="
  M 318.63 303.41
  L 338.62 304.85"
/>
<path stroke="#35363e" vector-effect="non-scaling-stroke" d="
  M 160.17 303.72
  Q 168.62 304.86 177.41 303.39"
/>
<path stroke="#dfb194" vector-effect="non-scaling-stroke" d="
  M 213.43 197.71
  L 218.81 202.59"
/>
<path stroke="#7e6655" vector-effect="non-scaling-stroke" d="
  M 218.81 202.59
  Q 201.64 205.37 207.45 222.31"
/>
<path stroke="#fde6d5" vector-effect="non-scaling-stroke" d="
  M 207.45 222.31
  L 208.96 226.66
  Q 209.12 227.13 209.60 227.26
  Q 217.94 229.53 220.99 229.05
  C 223.92 228.59 232.85 225.52 230.00 221.58"
/>
<path stroke="#9a8170" vector-effect="non-scaling-stroke" d="
  M 230.00 221.58
  L 230.59 217.36"
/>
<path stroke="#dfb194" vector-effect="non-scaling-stroke" d="
  M 230.59 217.36
  Q 231.70 211.22 227.32 205.98
  Q 226.97 205.55 226.91 204.99
  Q 226.76 203.39 225.18 202.86
  Q 224.74 202.70 225.04 202.35
  L 225.43 201.90"
/>
<path stroke="#7e6655" vector-effect="non-scaling-stroke" d="
  M 225.43 201.90
  Q 226.19 201.99 226.81 201.69
  Q 227.27 201.46 227.38 200.95
  C 228.45 195.99 225.40 193.77 221.65 191.70
  C 218.15 189.76 214.93 190.35 211.64 192.63
  C 209.75 193.95 206.40 196.65 206.48 199.26
  A 0.99 0.99 0.0 0 0 208.12 199.98
  Q 210.55 197.87 213.43 197.71"
/>
<path stroke="#624b3f" vector-effect="non-scaling-stroke" d="
  M 225.43 201.90
  C 221.65 200.04 217.99 196.88 213.43 197.71"
/>
<path stroke="#7e655a" vector-effect="non-scaling-stroke" d="
  M 230.59 217.36
  Q 230.46 217.56 230.34 217.76"
/>
<path stroke="#624b3f" vector-effect="non-scaling-stroke" d="
  M 230.34 217.76
  C 229.64 210.66 226.04 204.79 218.81 202.59"
/>
<path stroke="#1d1b1b" vector-effect="non-scaling-stroke" d="
  M 230.34 217.76
  Q 228.09 218.35 227.71 220.90
  A 1.76 1.71 69.8 0 1 227.32 221.78
  Q 222.18 228.02 215.89 222.57"
/>
<path stroke="#808080" vector-effect="non-scaling-stroke" d="
  M 215.89 222.57
  Q 215.95 221.00 215.03 219.08
  Q 214.64 218.28 214.14 218.28
  Q 213.53 218.28 212.97 219.26"
/>
<path stroke="#2e3237" vector-effect="non-scaling-stroke" d="
  M 212.97 219.26
  L 212.49 219.52"
/>
<path stroke="#808080" vector-effect="non-scaling-stroke" d="
  M 212.49 219.52
  Q 210.86 214.19 215.09 209.72"
/>
<path stroke="#4e4b4d" vector-effect="non-scaling-stroke" d="
  M 215.09 209.72
  Q 218.46 207.24 223.06 207.58
  Q 223.82 207.64 223.19 207.20
  C 216.90 202.83 209.05 207.17 208.12 214.49"
/>
<path stroke="#808080" vector-effect="non-scaling-stroke" d="
  M 208.12 214.49
  L 207.45 222.31"
/>
<path stroke="#aeb1b6" vector-effect="non-scaling-stroke" d="
  M 212.49 219.52
  Q 212.32 221.12 213.02 221.58
  Q 213.52 221.90 213.31 221.35
  Q 212.93 220.33 212.97 219.26"
/>
<path stroke="#9c9a9b" vector-effect="non-scaling-stroke" d="
  M 215.89 222.57
  Q 214.68 222.97 214.50 223.90
  Q 214.41 224.41 214.79 224.76
  C 220.14 229.67 226.72 227.83 230.00 221.58"
/>
<path stroke="#cdcbcd" vector-effect="non-scaling-stroke" d="
  M 215.09 209.72
  Q 211.63 209.59 208.12 214.49"
/>
<path stroke="#dfb194" vector-effect="non-scaling-stroke" d="
  M 247.54 230.52
  L 246.78 230.15
  Q 245.86 229.72 246.31 230.63
  Q 246.85 231.74 247.60 231.21
  A 0.40 0.40 0.0 0 0 247.54 230.52"
/>
<path stroke="#7e6655" vector-effect="non-scaling-stroke" d="
  M 258.89 237.50
  C 252.40 242.00 244.43 242.00 237.70 238.05
  A 0.58 0.58 0.0 0 0 236.83 238.49
  L 236.76 239.20
  Q 236.72 239.65 237.11 239.88
  Q 247.46 245.92 258.21 240.25
  Q 259.57 239.53 260.02 238.38
  A 0.75 0.75 0.0 0 0 258.89 237.50"
/>
<path stroke="#808080" vector-effect="non-scaling-stroke" d="
  M 225.13 212.84
  A 1.66 1.66 0.0 0 0 223.47 211.18
  A 1.66 1.66 0.0 0 0 221.81 212.84
  A 1.66 1.66 0.0 0 0 223.47 214.50
  A 1.66 1.66 0.0 0 0 225.13 212.84"
/>
<path stroke="#808080" vector-effect="non-scaling-stroke" d="
  M 276.51 212.90
  A 1.64 1.64 0.0 0 0 274.87 211.26
  A 1.64 1.64 0.0 0 0 273.23 212.90
  A 1.64 1.64 0.0 0 0 274.87 214.54
  A 1.64 1.64 0.0 0 0 276.51 212.90"
/>
<path stroke="#aeb1b6" vector-effect="non-scaling-stroke" d="
  M 249.17 278.01
  A 0.94 0.94 0.0 0 0 250.41 279.30
  Q 252.77 278.17 253.02 275.56
  A 0.44 0.44 0.0 0 0 252.42 275.12
  Q 250.22 276.04 249.17 278.01"
/>
<path stroke="#aeb1b6" vector-effect="non-scaling-stroke" d="
  M 244.67 293.15
  A 2.18 2.16 -38.1 0 0 246.97 293.42
  Q 249.96 291.97 252.97 293.66
  A 0.75 0.75 0.0 0 0 253.85 293.55
  L 257.00 290.52
  Q 257.51 290.03 256.97 289.58
  Q 252.80 286.14 256.65 282.46
  A 0.54 0.54 0.0 0 0 256.62 281.65
  Q 253.47 279.06 249.78 281.03
  A 1.01 1.01 0.0 0 1 248.87 281.05
  C 244.36 278.91 240.60 281.47 240.86 286.25
  Q 241.08 290.22 244.67 293.15"
/>
<path stroke="#95877d" vector-effect="non-scaling-stroke" d="
  M 202.61 354.19
  A 14.29 14.29 0.0 0 0 188.32 339.90
  L 185.48 339.90
  A 14.29 14.29 0.0 0 0 171.19 354.19
  L 171.19 357.33
  A 14.29 14.29 0.0 0 0 185.48 371.62
  L 188.32 371.62
  A 14.29 14.29 0.0 0 0 202.61 357.33
  L 202.61 354.19"
/>
<path stroke="#95877d" vector-effect="non-scaling-stroke" d="
  M 256.23 349.99
  C 254.26 345.01 264.84 347.46 266.81 348.37
  Q 267.28 348.58 267.65 348.22
  C 276.34 339.69 248.51 334.40 247.00 348.03
  C 246.07 356.44 254.25 357.92 260.10 360.18
  C 261.54 360.73 262.34 362.03 261.34 363.37
  C 259.25 366.17 252.50 363.97 250.16 362.42
  Q 249.77 362.17 249.34 362.33
  Q 247.38 363.06 247.05 364.60
  C 245.39 372.50 258.69 372.20 263.28 371.07
  C 270.26 369.34 273.67 361.27 268.26 355.96
  C 265.64 353.39 260.71 351.94 256.89 350.62
  A 1.11 1.08 87.9 0 1 256.23 349.99"
/>
<path stroke="#95877d" vector-effect="non-scaling-stroke" d="
  M 340.00 362.45
  A 1.63 1.63 0.0 0 1 343.04 361.63
  Q 345.08 365.11 347.33 368.63
  C 349.59 372.17 355.26 372.43 356.84 368.09
  Q 357.04 367.53 356.69 367.06
  L 351.07 359.68
  A 0.56 0.55 55.4 0 1 351.21 358.87
  Q 355.27 356.28 355.94 352.02
  C 357.87 339.74 343.10 338.62 335.01 340.54
  C 332.02 341.25 331.27 341.78 331.25 345.08
  Q 331.20 356.14 331.20 367.19
  C 331.20 371.88 336.02 371.44 339.46 370.86
  Q 340.00 370.77 340.00 370.22
  L 340.00 362.45"
/>
<path stroke="#95877d" vector-effect="non-scaling-stroke" d="
  M 160.25 347.50
  L 166.21 347.49
  A 1.37 1.36 16.1 0 0 167.36 346.86
  Q 169.16 344.05 167.63 340.91
  Q 167.43 340.49 166.95 340.49
  L 144.49 340.52
  A 1.34 1.32 -74.3 0 0 143.35 341.17
  Q 141.61 344.12 143.21 347.29
  Q 143.31 347.50 143.54 347.50
  L 150.31 347.50
  Q 150.99 347.50 150.99 348.18
  Q 151.01 357.62 151.00 367.06
  C 150.99 372.04 155.97 371.57 159.27 370.83
  A 0.62 0.61 -6.5 0 0 159.75 370.23
  L 159.75 348.00
  Q 159.75 347.51 160.25 347.50"
/>
<path stroke="#95877d" vector-effect="non-scaling-stroke" d="
  M 232.56 351.67
  A 0.34 0.34 0.0 0 1 233.23 351.77
  Q 233.22 359.47 233.69 367.35
  C 233.97 372.06 238.39 371.77 241.64 370.88
  A 0.82 0.80 -6.7 0 0 242.23 370.15
  Q 242.35 368.18 242.09 365.19
  Q 240.72 349.08 240.18 344.06
  C 239.69 339.53 232.66 340.12 229.92 341.25
  Q 229.50 341.43 229.36 341.87
  L 225.05 355.56
  A 0.30 0.30 0.0 0 1 224.48 355.55
  Q 222.95 349.95 221.00 344.29
  C 219.35 339.50 212.47 339.58 209.26 342.12
  Q 208.84 342.45 208.81 342.98
  Q 208.19 354.19 207.57 365.40
  C 207.41 368.34 206.83 370.51 210.07 371.06
  Q 212.81 371.54 214.93 370.98
  Q 215.86 370.74 215.88 369.78
  L 216.41 351.46
  A 0.24 0.24 0.0 0 1 216.88 351.40
  Q 218.37 356.17 219.92 360.92
  C 221.32 365.22 223.58 364.84 227.42 364.32
  Q 228.73 364.14 229.20 362.73
  Q 231.03 357.19 232.56 351.67"
/>
<path stroke="#95877d" vector-effect="non-scaling-stroke" d="
  M 291.25 347.50
  L 297.21 347.49
  A 1.24 1.24 0.0 0 0 298.21 346.98
  Q 300.25 344.14 298.62 340.87
  Q 298.44 340.50 298.02 340.50
  L 275.56 340.50
  A 1.41 1.40 15.6 0 0 274.36 341.17
  Q 272.59 344.05 274.21 347.20
  Q 274.37 347.50 274.70 347.50
  L 281.37 347.50
  Q 282.00 347.50 282.00 348.12
  L 282.00 368.53
  A 2.57 2.57 0.0 0 0 284.60 371.10
  L 290.11 371.04
  A 0.65 0.65 0.0 0 0 290.75 370.39
  L 290.75 348.00
  Q 290.75 347.51 291.25 347.50"
/>
<path stroke="#95877d" vector-effect="non-scaling-stroke" d="
  M 312.53 347.48
  C 316.23 347.52 329.15 349.58 324.96 341.03
  Q 324.73 340.55 324.20 340.54
  Q 316.43 340.36 308.67 340.69
  C 305.39 340.83 303.52 342.15 303.50 345.51
  Q 303.43 356.11 303.55 366.86
  A 4.18 4.18 0.0 0 0 307.73 371.00
  L 323.94 371.00
  A 1.13 1.13 0.0 0 0 324.91 370.45
  Q 326.58 367.66 325.13 364.64
  Q 324.95 364.25 324.52 364.25
  L 312.75 364.25
  Q 312.00 364.25 312.00 363.50
  L 312.00 359.66
  A 0.61 0.60 -1.0 0 1 312.59 359.06
  L 322.18 358.86
  A 1.32 1.30 -73.3 0 0 323.22 358.29
  Q 325.05 355.63 323.55 352.73
  Q 323.31 352.25 322.77 352.25
  L 312.75 352.25
  Q 312.00 352.25 312.00 351.50
  L 312.00 348.01
  Q 312.00 347.48 312.53 347.48"
/>
<path stroke="#95877d" vector-effect="non-scaling-stroke" d="
  M 186.8880 364.9399
  A 9.18 6.92 90.2 0 0 193.8400 355.7842
  A 9.18 6.92 90.2 0 0 186.9520 346.5801
  A 9.18 6.92 90.2 0 0 180.0000 355.7358
  A 9.18 6.92 90.2 0 0 186.8880 364.9399"
/>
<path stroke="#95877d" vector-effect="non-scaling-stroke" d="
  M 340.00 347.44
  L 339.98 353.80
  A 0.68 0.68 0.0 0 0 340.66 354.48
  L 342.69 354.49
  A 4.55 3.59 0.2 0 0 347.25 350.91
  L 347.25 350.37
  A 4.55 3.59 0.2 0 0 342.71 346.77
  L 340.68 346.76
  A 0.68 0.68 0.0 0 0 340.00 347.44"
/>
</g>
<path fill="#ffffff" d="
  M 16.30 177.72
  C 49.44 69.38 152.69 -2.27 266.64 6.42
  C 342.55 12.20 411.29 53.21 452.38 117.49
  C 520.66 224.30 495.19 367.18 392.84 442.89
  Q 350.35 474.32 296.99 485.68
  Q 278.79 489.56 263.81 490.02
  C 235.79 490.88 214.84 490.05 188.75 483.24
  Q 104.90 461.35 54.00 393.50
  C 7.91 332.06 -6.15 251.13 16.30 177.72
  Z
  M 76.82 131.54
  C 23.01 208.55 29.74 314.79 90.56 385.78
  C 134.75 437.35 198.57 463.12 266.05 458.38
  C 348.00 452.63 419.91 397.14 447.38 319.96
  C 473.19 247.43 456.64 165.12 404.45 108.44
  Q 356.49 56.34 286.39 43.50
  C 271.44 40.76 255.96 40.35 240.68 40.74
  C 174.62 42.45 114.25 77.99 76.82 131.54
  Z
  M 131.22 49.16
  C 56.79 93.73 12.62 173.92 17.10 261.43
  C 21.12 339.93 63.80 410.17 130.80 450.10
  Q 132.65 451.20 130.91 449.93
  C -2.05 353.38 -2.61 145.61 131.32 49.30
  Q 133.02 48.08 131.22 49.16
  Z
  M 467.99 332.22
  C 507.88 226.94 465.99 106.21 368.10 48.91
  Q 367.46 48.54 368.06 48.97
  C 502.10 144.81 502.15 353.53 368.11 450.28
  Q 368.06 450.32 368.07 450.36
  Q 368.07 450.39 368.08 450.42
  Q 368.09 450.51 368.17 450.46
  C 413.86 423.02 449.11 382.04 467.99 332.22
  Z"
/>
<path fill="#393536" d="
  M 90.56 385.78
  C 29.74 314.79 23.01 208.55 76.82 131.54
  C 114.25 77.99 174.62 42.45 240.68 40.74
  C 255.96 40.35 271.44 40.76 286.39 43.50
  Q 356.49 56.34 404.45 108.44
  C 456.64 165.12 473.19 247.43 447.38 319.96
  C 419.91 397.14 348.00 452.63 266.05 458.38
  C 198.57 463.12 134.75 437.35 90.56 385.78
  Z
  M 441.50 245.79
  A 191.70 191.70 0.0 0 0 249.80 54.09
  A 191.70 191.70 0.0 0 0 58.10 245.79
  A 191.70 191.70 0.0 0 0 249.80 437.49
  A 191.70 191.70 0.0 0 0 441.50 245.79
  Z"
/>
<path fill="#393536" d="
  M 17.10 261.43
  C 12.62 173.92 56.79 93.73 131.22 49.16
  Q 133.02 48.08 131.32 49.30
  C -2.61 145.61 -2.05 353.38 130.91 449.93
  Q 132.65 451.20 130.80 450.10
  C 63.80 410.17 21.12 339.93 17.10 261.43
  Z"
/>
<path fill="#393536" d="
  M 368.10 48.91
  C 465.99 106.21 507.88 226.94 467.99 332.22
  C 449.11 382.04 413.86 423.02 368.17 450.46
  Q 368.09 450.51 368.08 450.42
  Q 368.07 450.39 368.07 450.36
  Q 368.06 450.32 368.11 450.28
  C 502.15 353.53 502.10 144.81 368.06 48.97
  Q 367.46 48.54 368.10 48.91
  Z"
/>
<path fill="#ffffff" d="
  M 441.50 245.79
  A 191.70 191.70 0.0 0 1 249.80 437.49
  A 191.70 191.70 0.0 0 1 58.10 245.79
  A 191.70 191.70 0.0 0 1 249.80 54.09
  A 191.70 191.70 0.0 0 1 441.50 245.79
  Z
  M 158.05 311.69
  Q 153.82 311.48 151.23 314.36
  A 0.66 0.65 -54.2 0 0 151.39 315.37
  C 157.36 318.76 167.66 320.11 174.18 320.83
  Q 246.40 328.81 318.60 321.47
  C 323.89 320.93 343.70 318.77 346.54 315.56
  Q 347.58 314.37 346.28 313.48
  Q 343.52 311.57 340.99 311.66
  L 340.98 302.55
  A 2.07 2.06 -0.1 0 0 338.90 300.49
  L 316.95 300.69
  A 0.33 0.33 0.0 0 1 316.70 300.15
  C 321.95 293.92 317.48 286.32 311.37 282.82
  A 0.81 0.80 -73.1 0 1 310.97 282.06
  Q 311.48 275.15 311.97 268.25
  C 312.46 261.14 309.23 259.02 302.53 259.01
  Q 292.39 258.99 282.20 259.00
  A 1.40 1.37 67.5 0 1 281.21 258.58
  Q 278.10 255.37 273.90 253.85
  Q 272.87 253.48 273.92 253.16
  C 282.63 250.45 292.60 245.97 295.08 236.86
  Q 295.21 236.37 295.72 236.34
  C 310.62 235.53 318.66 214.50 305.43 206.15
  Q 305.02 205.88 305.18 205.42
  Q 307.07 199.87 308.77 194.25
  Q 308.98 193.56 309.56 193.15
  Q 309.95 192.88 310.12 192.43
  C 317.12 174.76 314.12 157.09 298.32 145.50
  A 0.31 0.31 0.0 0 1 298.56 144.94
  L 302.25 145.54
  A 1.28 1.28 0.0 0 0 303.31 143.32
  C 295.52 136.33 286.73 132.74 276.61 129.88
  A 0.55 0.55 0.0 0 1 276.38 128.95
  Q 280.74 124.74 286.86 124.01
  Q 287.67 123.91 288.07 123.67
  Q 289.48 122.84 288.03 121.35
  A 1.73 1.62 76.1 0 0 287.38 120.93
  C 269.51 114.60 249.92 115.79 232.18 121.74
  Q 231.24 122.05 231.77 121.21
  L 235.53 115.15
  A 1.27 1.27 0.0 0 0 234.26 113.23
  C 222.94 114.97 209.99 127.86 204.26 137.16
  Q 204.00 137.59 203.50 137.69
  C 197.42 138.93 196.51 128.20 194.57 124.65
  A 0.75 0.75 0.0 0 0 193.28 124.62
  C 190.39 129.29 192.66 143.79 194.79 148.73
  Q 195.75 150.96 193.49 150.07
  C 184.03 146.35 182.03 138.41 181.68 129.25
  A 1.41 1.41 0.0 0 0 178.97 128.76
  C 173.52 141.83 172.55 161.35 181.21 173.55
  Q 181.46 173.91 181.02 173.89
  Q 178.33 173.77 177.44 172.79
  Q 176.13 171.33 175.44 171.60
  A 2.28 2.28 0.0 0 0 174.18 174.68
  Q 177.01 180.87 180.72 185.84
  Q 182.25 187.90 182.90 190.15
  Q 185.15 197.92 188.13 205.50
  Q 188.32 205.99 187.89 206.28
  C 175.08 214.96 183.03 236.23 198.22 236.25
  A 0.66 0.65 -6.7 0 1 198.86 236.75
  C 201.07 246.15 212.72 250.65 221.76 253.14
  A 0.36 0.35 -45.9 0 1 221.77 253.82
  Q 217.33 255.22 214.29 258.72
  A 0.88 0.87 20.3 0 1 213.63 259.02
  C 208.57 258.98 193.19 257.75 189.43 260.21
  C 184.69 263.32 186.80 273.59 188.03 280.81
  Q 188.12 281.34 187.71 281.69
  C 183.17 285.53 179.38 288.63 179.67 295.20
  C 179.75 296.85 180.41 298.58 181.69 299.54
  A 0.59 0.59 0.0 0 1 181.34 300.61
  L 159.37 300.54
  A 1.34 1.34 0.0 0 0 158.03 301.88
  L 158.05 311.69
  Z
  M 166.68 366.15
  C 173.37 379.49 189.98 381.74 201.50 373.51
  Q 201.94 373.20 202.29 373.61
  C 207.29 379.52 215.37 378.64 221.82 375.50
  Q 222.25 375.28 222.25 374.80
  L 222.25 372.00
  Q 222.25 371.25 223.00 371.25
  L 227.24 371.25
  A 0.69 0.69 0.0 0 1 227.87 371.66
  C 231.01 379.01 239.62 378.96 245.94 376.25
  Q 246.39 376.05 246.85 376.25
  C 256.15 380.23 268.77 378.67 275.35 370.39
  Q 275.69 369.96 275.85 370.48
  C 278.80 379.69 289.62 378.85 296.88 375.57
  Q 297.24 375.40 297.24 375.00
  L 297.19 370.50
  Q 297.18 368.84 297.72 370.41
  C 300.13 377.37 306.11 377.51 312.31 377.75
  C 317.23 377.95 323.44 378.23 327.97 376.23
  Q 328.43 376.03 328.88 376.24
  C 333.89 378.55 340.02 377.96 345.07 376.23
  A 1.14 1.13 -38.5 0 1 346.00 376.33
  C 353.95 380.99 362.15 375.19 363.95 367.29
  Q 364.07 366.74 363.77 366.27
  L 359.98 360.44
  Q 359.74 360.06 359.94 359.66
  Q 366.51 346.67 357.06 337.98
  C 350.35 331.80 338.88 332.31 330.81 335.04
  Q 330.06 335.29 329.58 335.15
  Q 329.02 334.98 328.66 334.42
  Q 328.39 334.00 327.88 334.00
  C 320.57 334.00 310.77 332.96 303.80 334.83
  Q 303.30 334.96 302.87 334.67
  L 301.91 334.03
  Q 301.52 333.77 301.04 333.77
  Q 288.67 333.70 276.31 333.80
  Q 274.15 333.81 271.29 335.52
  Q 270.85 335.78 270.38 335.58
  Q 257.17 329.75 245.32 337.45
  Q 244.73 337.83 244.16 337.42
  Q 234.68 330.46 224.46 336.80
  Q 224.01 337.08 223.57 336.80
  Q 212.60 330.01 203.27 338.63
  Q 202.85 339.02 202.38 338.67
  Q 188.75 328.36 173.80 336.91
  Q 173.33 337.17 173.01 336.74
  L 171.16 334.19
  Q 170.85 333.75 170.31 333.75
  Q 163.55 333.71 146.71 333.86
  C 134.47 333.98 133.43 346.32 139.70 353.88
  A 1.05 1.03 -19.6 0 0 140.50 354.25
  L 143.73 354.25
  Q 144.24 354.25 144.24 354.76
  C 144.26 364.63 142.04 377.22 155.06 377.69
  Q 160.58 377.89 165.86 375.77
  Q 166.25 375.62 166.25 375.20
  L 166.25 366.26
  Q 166.25 365.29 166.68 366.15
  Z"
/>
<path fill="#000000" d="
  M 340.99 311.66
  Q 341.29 313.69 340.33 314.94
  Q 340.10 315.25 339.71 315.25
  L 159.22 315.25
  A 0.97 0.96 75.0 0 1 158.38 314.76
  Q 157.67 313.53 158.05 311.69
  L 158.03 301.88
  A 1.34 1.34 0.0 0 1 159.37 300.54
  L 181.34 300.61
  A 0.59 0.59 0.0 0 0 181.69 299.54
  C 180.41 298.58 179.75 296.85 179.67 295.20
  C 179.38 288.63 183.17 285.53 187.71 281.69
  Q 188.12 281.34 188.03 280.81
  C 186.80 273.59 184.69 263.32 189.43 260.21
  C 193.19 257.75 208.57 258.98 213.63 259.02
  A 0.88 0.87 20.3 0 0 214.29 258.72
  Q 217.33 255.22 221.77 253.82
  A 0.36 0.35 -45.9 0 0 221.76 253.14
  C 212.72 250.65 201.07 246.15 198.86 236.75
  A 0.66 0.65 -6.7 0 0 198.22 236.25
  C 183.03 236.23 175.08 214.96 187.89 206.28
  Q 188.32 205.99 188.13 205.50
  Q 185.15 197.92 182.90 190.15
  Q 182.25 187.90 180.72 185.84
  Q 177.01 180.87 174.18 174.68
  A 2.28 2.28 0.0 0 1 175.44 171.60
  Q 176.13 171.33 177.44 172.79
  Q 178.33 173.77 181.02 173.89
  Q 181.46 173.91 181.21 173.55
  C 172.55 161.35 173.52 141.83 178.97 128.76
  A 1.41 1.41 0.0 0 1 181.68 129.25
  C 182.03 138.41 184.03 146.35 193.49 150.07
  Q 195.75 150.96 194.79 148.73
  C 192.66 143.79 190.39 129.29 193.28 124.62
  A 0.75 0.75 0.0 0 1 194.57 124.65
  C 196.51 128.20 197.42 138.93 203.50 137.69
  Q 204.00 137.59 204.26 137.16
  C 209.99 127.86 222.94 114.97 234.26 113.23
  A 1.27 1.27 0.0 0 1 235.53 115.15
  L 231.77 121.21
  Q 231.24 122.05 232.18 121.74
  C 249.92 115.79 269.51 114.60 287.38 120.93
  A 1.73 1.62 76.1 0 1 288.03 121.35
  Q 289.48 122.84 288.07 123.67
  Q 287.67 123.91 286.86 124.01
  Q 280.74 124.74 276.38 128.95
  A 0.55 0.55 0.0 0 0 276.61 129.88
  C 286.73 132.74 295.52 136.33 303.31 143.32
  A 1.28 1.28 0.0 0 1 302.25 145.54
  L 298.56 144.94
  A 0.31 0.31 0.0 0 0 298.32 145.50
  C 314.12 157.09 317.12 174.76 310.12 192.43
  Q 309.95 192.88 309.56 193.15
  Q 308.98 193.56 308.77 194.25
  Q 307.07 199.87 305.18 205.42
  Q 305.02 205.88 305.43 206.15
  C 318.66 214.50 310.62 235.53 295.72 236.34
  Q 295.21 236.37 295.08 236.86
  C 292.60 245.97 282.63 250.45 273.92 253.16
  Q 272.87 253.48 273.90 253.85
  Q 278.10 255.37 281.21 258.58
  A 1.40 1.37 67.5 0 0 282.20 259.00
  Q 292.39 258.99 302.53 259.01
  C 309.23 259.02 312.46 261.14 311.97 268.25
  Q 311.48 275.15 310.97 282.06
  A 0.81 0.80 -73.1 0 0 311.37 282.82
  C 317.48 286.32 321.95 293.92 316.70 300.15
  A 0.33 0.33 0.0 0 0 316.95 300.69
  L 338.90 300.49
  A 2.07 2.06 -0.1 0 1 340.98 302.55
  L 340.99 311.66
  Z
  M 206.18 138.29
  L 204.05 141.87
  A 0.55 0.55 0.0 0 1 203.03 141.62
  L 202.99 140.72
  Q 202.95 140.09 202.33 140.09
  C 199.19 140.07 196.07 136.65 195.47 134.26
  Q 194.06 128.65 194.06 134.43
  Q 194.06 139.42 195.93 145.22
  C 196.82 147.99 198.74 150.26 200.24 152.93
  C 188.37 153.54 180.50 145.19 179.94 134.09
  A 0.36 0.36 0.0 0 0 179.23 134.03
  Q 176.01 147.09 178.30 160.50
  Q 179.67 170.85 187.92 176.72
  A 0.32 0.32 0.0 0 1 187.75 177.30
  Q 182.50 177.65 177.79 175.39
  Q 177.16 175.09 177.28 175.77
  Q 177.52 177.17 178.36 178.01
  Q 180.66 182.73 184.25 186.23
  Q 186.62 196.53 191.24 206.01
  L 194.25 207.47
  Q 194.72 207.70 194.69 207.18
  Q 193.81 190.07 204.65 176.86
  C 210.09 170.24 220.56 170.59 228.35 169.93
  A 0.38 0.37 -36.4 0 0 228.46 169.21
  Q 222.39 166.75 220.23 161.53
  Q 218.53 157.39 220.88 161.20
  C 226.22 169.84 242.61 169.16 251.27 167.07
  Q 252.92 166.67 251.61 165.59
  Q 244.10 159.38 234.69 156.91
  Q 234.53 156.87 234.63 156.74
  Q 234.71 156.63 234.83 156.56
  Q 234.96 156.49 235.20 156.51
  C 249.84 158.28 261.91 170.13 268.92 182.33
  A 0.21 0.20 -58.9 0 0 269.30 182.23
  Q 269.94 171.13 265.91 160.78
  Q 265.86 160.63 266.01 160.58
  Q 266.14 160.54 266.28 160.49
  Q 266.63 160.38 266.74 160.74
  L 268.72 167.73
  A 1.33 1.31 5.4 0 0 269.41 168.55
  C 278.99 173.17 283.80 178.70 291.32 186.51
  Q 291.92 187.12 292.04 186.28
  L 294.02 173.22
  Q 294.10 172.70 294.49 173.06
  Q 302.35 180.34 307.94 189.50
  Q 308.26 190.03 308.52 189.47
  Q 311.51 183.11 311.47 175.94
  C 312.24 160.84 302.93 149.14 289.33 143.54
  L 295.31 142.52
  L 298.49 142.74
  A 0.29 0.28 -26.0 0 0 298.67 142.22
  Q 287.51 134.51 272.88 131.34
  Q 275.14 124.52 283.44 122.58
  Q 284.16 122.41 283.56 121.98
  Q 282.21 121.01 280.22 120.97
  C 262.65 117.08 245.72 118.96 228.79 125.36
  Q 228.82 121.10 231.31 117.65
  L 231.84 116.76
  Q 232.32 115.94 231.45 116.33
  Q 215.58 123.42 206.18 138.29
  Z
  M 199.28 190.50
  Q 195.91 199.76 197.82 208.99
  Q 197.97 222.59 200.86 235.53
  C 202.51 242.88 209.88 246.76 217.16 249.00
  Q 228.63 253.54 241.89 254.43
  Q 252.61 255.99 262.75 253.60
  L 274.62 250.21
  C 280.24 248.70 290.74 243.95 292.52 237.51
  Q 295.42 227.01 295.99 210.58
  Q 298.16 201.67 295.19 192.03
  Q 295.14 190.59 293.78 188.77
  A 0.30 0.30 0.0 0 0 293.24 189.01
  Q 293.45 190.16 292.44 190.69
  A 0.71 0.71 0.0 0 1 291.56 190.52
  C 285.69 183.74 279.99 177.14 272.07 172.64
  Q 271.45 172.29 271.53 173.00
  Q 272.33 180.27 270.82 187.41
  A 1.00 0.98 78.5 0 1 270.44 188.00
  Q 269.47 188.72 268.95 187.61
  Q 263.86 176.72 255.00 168.47
  A 0.86 0.85 -33.6 0 0 254.13 168.30
  Q 246.15 171.36 241.25 170.80
  C 234.23 169.99 227.27 172.71 220.15 173.23
  Q 213.78 173.69 211.50 174.66
  C 204.92 177.45 201.80 184.77 199.28 190.50
  Z
  M 302.07 206.15
  Q 305.27 199.80 306.72 191.93
  Q 302.52 184.81 296.38 178.30
  Q 295.85 177.74 295.73 178.50
  L 294.78 184.51
  A 1.68 1.63 -54.9 0 0 294.94 185.51
  Q 300.06 195.63 299.17 206.97
  Q 299.12 207.61 299.69 207.32
  L 302.07 206.15
  Z
  M 190.23 208.31
  Q 186.71 209.16 185.41 212.59
  Q 184.02 214.77 183.96 216.26
  Q 183.32 230.73 197.30 234.35
  A 0.73 0.73 0.0 0 0 198.06 233.19
  L 197.69 232.71
  Q 198.00 231.53 197.18 230.46
  Q 197.54 229.80 197.43 229.57
  L 196.12 221.59
  A 0.77 0.77 0.0 0 0 194.67 221.38
  Q 193.74 223.31 193.72 225.49
  Q 193.62 225.49 193.53 225.48
  Q 192.82 223.03 193.63 220.47
  A 0.79 0.78 -66.7 0 0 193.27 219.55
  L 190.13 217.72
  A 0.57 0.57 0.0 0 0 189.34 217.94
  Q 188.77 219.01 187.65 219.39
  Q 189.21 216.90 186.41 216.01
  Q 186.25 215.96 186.25 215.79
  Q 186.25 215.65 186.24 215.50
  Q 186.23 215.24 186.48 215.32
  Q 191.52 216.82 195.53 220.22
  A 0.39 0.39 0.0 0 0 196.17 219.88
  C 195.84 216.68 193.83 208.33 190.23 208.31
  Z
  M 307.10 216.75
  Q 305.73 216.60 305.15 217.04
  Q 304.83 217.28 304.82 218.21
  Q 304.82 218.83 304.73 219.45
  Q 304.62 220.15 304.19 219.59
  L 303.13 218.21
  A 0.76 0.75 54.7 0 0 302.11 218.03
  L 299.96 219.43
  A 0.85 0.83 -19.3 0 0 299.57 220.22
  Q 299.97 224.39 298.91 228.48
  A 0.72 0.70 81.6 0 1 298.60 228.91
  Q 296.06 230.43 295.86 233.36
  Q 295.81 234.00 296.45 234.00
  Q 299.63 234.03 302.11 231.99
  Q 309.47 227.36 309.66 218.47
  C 309.93 206.01 296.67 204.89 298.14 219.05
  Q 298.19 219.51 298.57 219.24
  Q 302.01 216.75 306.17 215.83
  Q 306.33 215.79 306.45 215.67
  L 306.85 215.27
  Q 307.42 214.70 307.47 215.51
  Q 307.49 215.95 307.10 216.75
  Z
  M 297.60 220.87
  L 296.36 229.55
  A 0.02 0.02 0.0 0 0 296.38 229.57
  L 296.44 229.58
  A 4.19 2.06 -81.9 0 0 299.07 225.72
  L 299.13 225.30
  A 4.19 2.06 -81.9 0 0 297.68 220.86
  L 297.62 220.86
  A 0.02 0.02 0.0 0 0 297.60 220.87
  Z
  M 236.36 256.47
  L 225.00 254.26
  A 1.17 1.16 72.6 0 0 223.97 256.24
  C 227.53 259.70 231.64 259.14 236.16 258.97
  A 1.26 1.26 0.0 0 0 236.36 256.47
  Z
  M 270.78 254.46
  L 261.88 256.26
  A 1.34 1.34 0.0 0 0 261.84 258.88
  Q 267.76 260.26 271.68 256.06
  A 0.96 0.96 0.0 0 0 270.78 254.46
  Z
  M 219.17 257.81
  L 217.84 258.36
  A 0.23 0.23 0.0 0 0 218.01 258.79
  L 218.90 258.47
  Q 219.33 258.31 219.77 258.46
  Q 221.98 259.24 224.28 258.89
  Q 224.91 258.79 224.55 258.27
  C 223.48 256.75 221.44 255.30 219.87 257.29
  Q 219.59 257.64 219.17 257.81
  Z
  M 275.31 256.94
  Q 274.76 256.31 273.94 256.23
  A 1.06 1.04 24.9 0 0 273.12 256.52
  L 271.25 258.34
  Q 270.47 259.10 271.56 259.05
  L 275.58 258.87
  A 0.80 0.80 0.0 0 0 276.26 257.71
  Q 275.95 257.11 275.31 256.94
  Z
  M 258.9005 257.7573
  A 0.51 0.51 0.0 0 0 258.3913 257.2464
  L 239.6114 257.2136
  A 0.51 0.51 0.0 0 0 239.1005 257.7227
  L 239.0995 258.2627
  A 0.51 0.51 0.0 0 0 239.6087 258.7736
  L 258.3886 258.8064
  A 0.51 0.51 0.0 0 0 258.8995 258.2973
  L 258.9005 257.7573
  Z
  M 191.38 291.64
  L 192.17 300.66
  C 191.39 305.07 192.99 307.74 197.65 307.74
  Q 249.60 307.76 301.55 307.75
  C 307.88 307.75 306.77 301.85 307.16 297.56
  Q 308.50 282.79 309.71 268.03
  C 309.99 264.61 308.78 261.25 305.00 261.25
  Q 249.50 261.25 194.00 261.47
  Q 188.59 261.50 188.91 267.01
  Q 189.62 279.17 191.38 291.64
  Z
  M 182.08 294.88
  Q 182.41 289.80 186.11 286.36
  Q 186.40 286.09 186.01 286.05
  Q 185.74 286.03 185.58 286.26
  C 183.34 289.62 181.71 290.73 181.46 295.20
  Q 181.44 295.55 181.79 295.51
  L 182.17 295.45
  A 0.13 0.12 -19.4 0 0 182.27 295.26
  L 182.10 294.98
  A 0.29 0.24 39.3 0 1 182.08 294.88
  Z
  M 185.30 298.79
  Q 186.35 301.43 188.95 301.73
  Q 189.51 301.79 189.47 301.23
  L 189.21 298.06
  L 188.41 288.26
  A 0.55 0.55 0.0 0 0 187.47 287.91
  C 184.75 290.67 182.75 295.09 185.30 298.79
  Z
  M 313.92 288.06
  L 315.52 290.83
  Q 315.78 291.27 315.86 291.78
  L 316.25 294.24
  A 0.27 0.27 0.0 0 0 316.79 294.20
  Q 316.83 290.48 314.23 287.83
  A 0.20 0.19 8.0 0 0 313.92 288.06
  Z
  M 309.72 297.78
  L 309.27 301.47
  Q 309.20 302.08 309.80 301.95
  Q 312.21 301.45 313.56 299.08
  Q 316.05 292.79 311.04 288.08
  A 0.44 0.43 -67.2 0 0 310.31 288.38
  L 309.72 297.78
  Z
  M 177.41 303.39
  Q 168.51 302.67 160.17 303.72
  L 160.33 312.41
  Q 160.34 312.93 160.87 312.93
  L 338.10 312.82
  Q 338.70 312.82 338.69 312.22
  L 338.62 304.85
  Q 338.94 304.09 338.64 303.53
  Q 338.39 303.07 337.87 303.08
  L 318.63 303.41
  Q 315.10 303.23 311.31 302.83
  Q 308.59 302.54 308.78 305.19
  Q 308.82 305.66 308.61 306.08
  C 307.26 308.88 305.30 310.25 302.02 310.25
  Q 250.06 310.25 198.09 310.25
  C 193.24 310.25 190.26 308.76 189.70 303.78
  Q 189.64 303.27 189.13 303.22
  Q 183.03 302.56 177.41 303.39
  Z"
/>
<path fill="#40444d" d="
  M 231.31 117.65
  Q 217.42 125.19 209.46 138.71
  A 1.88 1.88 0.0 0 1 206.84 139.35
  Q 206.52 139.15 206.18 138.29
  Q 215.58 123.42 231.45 116.33
  Q 232.32 115.94 231.84 116.76
  L 231.31 117.65
  Z"
/>
<path fill="#2a272e" d="
  M 231.31 117.65
  Q 228.82 121.10 228.79 125.36
  Q 225.39 127.14 221.68 129.41
  Q 221.53 129.50 221.51 129.64
  Q 221.45 129.99 221.78 129.88
  L 231.79 126.39
  Q 232.27 126.22 232.74 126.44
  Q 234.48 127.23 236.35 126.87
  A 0.39 0.39 0.0 0 0 236.33 126.11
  L 235.25 125.96
  A 0.41 0.41 0.0 0 1 235.19 125.16
  Q 250.72 120.88 266.75 122.81
  Q 268.46 123.01 273.51 121.17
  Q 273.99 120.99 274.50 121.08
  L 279.74 121.99
  Q 280.31 122.09 280.26 121.51
  L 280.22 120.97
  Q 282.21 121.01 283.56 121.98
  Q 284.16 122.41 283.44 122.58
  Q 275.14 124.52 272.88 131.34
  Q 261.02 129.38 249.18 131.44
  Q 245.48 132.08 239.79 134.40
  Q 239.72 134.42 239.75 134.50
  Q 239.76 134.54 239.78 134.58
  Q 239.83 134.72 239.98 134.68
  Q 249.91 132.32 253.50 132.24
  Q 274.40 131.82 293.20 140.80
  Q 294.16 141.25 295.31 142.52
  L 289.33 143.54
  L 285.73 142.78
  A 0.25 0.25 0.0 0 0 285.54 143.24
  Q 287.97 144.85 290.37 146.41
  C 302.16 154.08 306.52 163.90 309.22 177.23
  Q 309.32 177.73 309.83 177.75
  Q 311.26 177.83 311.47 175.94
  Q 311.51 183.11 308.52 189.47
  Q 308.26 190.03 307.94 189.50
  Q 302.35 180.34 294.49 173.06
  Q 294.10 172.70 294.02 173.22
  L 292.04 186.28
  Q 291.92 187.12 291.32 186.51
  C 283.80 178.70 278.99 173.17 269.41 168.55
  A 1.33 1.31 5.4 0 1 268.72 167.73
  L 266.74 160.74
  Q 266.63 160.38 266.28 160.49
  Q 266.14 160.54 266.01 160.58
  Q 265.86 160.63 265.91 160.78
  Q 269.94 171.13 269.30 182.23
  A 0.21 0.20 -58.9 0 1 268.92 182.33
  C 261.91 170.13 249.84 158.28 235.20 156.51
  Q 234.96 156.49 234.83 156.56
  Q 234.71 156.63 234.63 156.74
  Q 234.53 156.87 234.69 156.91
  Q 244.10 159.38 251.61 165.59
  Q 252.92 166.67 251.27 167.07
  C 242.61 169.16 226.22 169.84 220.88 161.20
  Q 218.53 157.39 220.23 161.53
  Q 222.39 166.75 228.46 169.21
  A 0.38 0.37 -36.4 0 1 228.35 169.93
  C 220.56 170.59 210.09 170.24 204.65 176.86
  Q 193.81 190.07 194.69 207.18
  Q 194.72 207.70 194.25 207.47
  L 191.24 206.01
  L 184.25 186.23
  Q 180.66 182.73 178.36 178.01
  Q 184.76 179.23 190.52 178.09
  Q 191.08 177.98 190.71 177.55
  L 184.06 169.82
  Q 177.68 157.90 178.80 143.53
  A 0.59 0.59 0.0 0 1 179.96 143.46
  C 182.52 156.46 193.63 158.53 204.56 154.80
  Q 204.71 154.75 204.80 154.59
  Q 205.03 154.22 204.60 154.30
  L 202.08 154.80
  Q 201.36 154.94 201.28 154.21
  Q 201.13 152.69 200.24 152.93
  C 198.74 150.26 196.82 147.99 195.93 145.22
  Q 194.06 139.42 194.06 134.43
  Q 194.06 128.65 195.47 134.26
  C 196.07 136.65 199.19 140.07 202.33 140.09
  Q 202.95 140.09 202.99 140.72
  L 203.03 141.62
  A 0.55 0.55 0.0 0 0 204.05 141.87
  L 206.18 138.29
  Q 206.52 139.15 206.84 139.35
  A 1.88 1.88 0.0 0 0 209.46 138.71
  Q 217.42 125.19 231.31 117.65
  Z"
/>
<path fill="#40444d" d="
  M 280.22 120.97
  L 280.26 121.51
  Q 280.31 122.09 279.74 121.99
  L 274.50 121.08
  Q 273.99 120.99 273.51 121.17
  Q 268.46 123.01 266.75 122.81
  Q 250.72 120.88 235.19 125.16
  A 0.41 0.41 0.0 0 0 235.25 125.96
  L 236.33 126.11
  A 0.39 0.39 0.0 0 1 236.35 126.87
  Q 234.48 127.23 232.74 126.44
  Q 232.27 126.22 231.79 126.39
  L 221.78 129.88
  Q 221.45 129.99 221.51 129.64
  Q 221.53 129.50 221.68 129.41
  Q 225.39 127.14 228.79 125.36
  C 245.72 118.96 262.65 117.08 280.22 120.97
  Z"
/>
<path fill="#40444d" d="
  M 272.88 131.34
  Q 287.51 134.51 298.67 142.22
  A 0.29 0.28 -26.0 0 1 298.49 142.74
  L 295.31 142.52
  Q 294.16 141.25 293.20 140.80
  Q 274.40 131.82 253.50 132.24
  Q 249.91 132.32 239.98 134.68
  Q 239.83 134.72 239.78 134.58
  Q 239.76 134.54 239.75 134.50
  Q 239.72 134.42 239.79 134.40
  Q 245.48 132.08 249.18 131.44
  Q 261.02 129.38 272.88 131.34
  Z"
/>
<path fill="#40444d" d="
  M 200.24 152.93
  Q 201.13 152.69 201.28 154.21
  Q 201.36 154.94 202.08 154.80
  L 204.60 154.30
  Q 205.03 154.22 204.80 154.59
  Q 204.71 154.75 204.56 154.80
  C 193.63 158.53 182.52 156.46 179.96 143.46
  A 0.59 0.59 0.0 0 0 178.80 143.53
  Q 177.68 157.90 184.06 169.82
  Q 181.68 168.33 180.92 165.20
  Q 180.79 164.67 180.27 164.50
  Q 179.08 164.13 179.54 162.67
  Q 179.70 162.17 179.36 161.76
  L 178.30 160.50
  Q 176.01 147.09 179.23 134.03
  A 0.36 0.36 0.0 0 1 179.94 134.09
  C 180.50 145.19 188.37 153.54 200.24 152.93
  Z"
/>
<path fill="#40444d" d="
  M 289.33 143.54
  C 302.93 149.14 312.24 160.84 311.47 175.94
  Q 311.26 177.83 309.83 177.75
  Q 309.32 177.73 309.22 177.23
  C 306.52 163.90 302.16 154.08 290.37 146.41
  Q 287.97 144.85 285.54 143.24
  A 0.25 0.25 0.0 0 1 285.73 142.78
  L 289.33 143.54
  Z"
/>
<path fill="#393536" d="
  M 178.30 160.50
  L 179.36 161.76
  Q 179.70 162.17 179.54 162.67
  Q 179.08 164.13 180.27 164.50
  Q 180.79 164.67 180.92 165.20
  Q 181.68 168.33 184.06 169.82
  L 190.71 177.55
  Q 191.08 177.98 190.52 178.09
  Q 184.76 179.23 178.36 178.01
  Q 177.52 177.17 177.28 175.77
  Q 177.16 175.09 177.79 175.39
  Q 182.50 177.65 187.75 177.30
  A 0.32 0.32 0.0 0 0 187.92 176.72
  Q 179.67 170.85 178.30 160.50
  Z"
/>
<path fill="#c3957d" d="
  M 295.19 192.03
  L 292.85 199.31
  Q 292.66 199.91 292.18 199.51
  L 272.89 183.44
  A 0.69 0.69 0.0 0 0 271.78 184.13
  L 273.44 190.84
  L 267.05 195.45
  C 256.31 179.54 240.89 171.00 221.63 174.85
  C 208.94 177.39 204.03 184.53 199.97 196.05
  Q 199.59 197.10 199.53 195.98
  Q 199.41 193.86 199.99 191.50
  Q 200.24 190.48 199.28 190.50
  C 201.80 184.77 204.92 177.45 211.50 174.66
  Q 213.78 173.69 220.15 173.23
  C 227.27 172.71 234.23 169.99 241.25 170.80
  Q 246.15 171.36 254.13 168.30
  A 0.86 0.85 -33.6 0 1 255.00 168.47
  Q 263.86 176.72 268.95 187.61
  Q 269.47 188.72 270.44 188.00
  A 1.00 0.98 78.5 0 0 270.82 187.41
  Q 272.33 180.27 271.53 173.00
  Q 271.45 172.29 272.07 172.64
  C 279.99 177.14 285.69 183.74 291.56 190.52
  A 0.71 0.71 0.0 0 0 292.44 190.69
  Q 293.45 190.16 293.24 189.01
  A 0.30 0.30 0.0 0 1 293.78 188.77
  Q 295.14 190.59 295.19 192.03
  Z"
/>
<path fill="#fbccaa" d="
  M 267.05 195.45
  Q 265.50 197.79 266.00 200.25
  Q 266.53 202.83 269.11 201.65
  Q 269.26 202.72 267.73 203.61
  Q 267.33 203.85 267.33 204.32
  Q 267.36 205.41 266.27 206.58
  Q 263.01 210.08 263.87 215.80
  L 263.78 217.74
  Q 263.64 219.80 264.43 221.68
  C 263.26 222.85 263.62 224.31 264.82 225.36
  C 270.76 230.55 276.78 229.02 284.59 227.57
  A 0.83 0.83 0.0 0 0 285.25 226.97
  L 286.61 221.86
  C 292.46 212.79 284.72 202.78 274.54 202.92
  L 280.74 197.72
  Q 283.33 198.00 285.75 200.17
  A 0.68 0.68 0.0 0 0 286.65 200.17
  Q 287.66 199.25 287.07 197.94
  A 2.51 0.62 76.2 0 0 286.73 197.29
  Q 281.39 189.48 273.44 190.84
  L 271.78 184.13
  A 0.69 0.69 0.0 0 1 272.89 183.44
  L 292.18 199.51
  Q 292.66 199.91 292.85 199.31
  L 295.19 192.03
  Q 298.16 201.67 295.99 210.58
  L 291.25 232.07
  A 0.76 0.76 0.0 0 1 289.89 232.35
  C 287.47 229.02 276.58 232.65 273.83 234.44
  A 1.78 1.78 0.0 0 0 274.20 237.62
  Q 281.65 240.23 289.07 237.26
  Q 289.65 237.03 289.44 237.61
  Q 288.83 239.31 287.55 240.54
  Q 282.01 245.86 274.62 250.21
  L 262.75 253.60
  Q 260.48 253.25 258.25 253.31
  Q 250.11 253.52 241.89 254.43
  Q 228.63 253.54 217.16 249.00
  Q 208.82 243.94 204.18 237.22
  A 0.50 0.49 -3.6 0 1 204.82 236.50
  Q 212.16 240.28 220.24 238.37
  A 1.49 1.49 0.0 0 0 220.76 235.71
  C 217.48 233.36 207.67 228.92 204.08 231.75
  A 1.08 1.08 0.0 0 1 202.36 231.12
  L 197.82 208.99
  Q 195.91 199.76 199.28 190.50
  Q 200.24 190.48 199.99 191.50
  Q 199.41 193.86 199.53 195.98
  Q 199.59 197.10 199.97 196.05
  C 204.03 184.53 208.94 177.39 221.63 174.85
  C 240.89 171.00 256.31 179.54 267.05 195.45
  Z
  M 213.43 197.71
  L 218.81 202.59
  Q 201.64 205.37 207.45 222.31
  L 208.96 226.66
  Q 209.12 227.13 209.60 227.26
  Q 217.94 229.53 220.99 229.05
  C 223.92 228.59 232.85 225.52 230.00 221.58
  L 230.59 217.36
  Q 231.70 211.22 227.32 205.98
  Q 226.97 205.55 226.91 204.99
  Q 226.76 203.39 225.18 202.86
  Q 224.74 202.70 225.04 202.35
  L 225.43 201.90
  Q 226.19 201.99 226.81 201.69
  Q 227.27 201.46 227.38 200.95
  C 228.45 195.99 225.40 193.77 221.65 191.70
  C 218.15 189.76 214.93 190.35 211.64 192.63
  C 209.75 193.95 206.40 196.65 206.48 199.26
  A 0.99 0.99 0.0 0 0 208.12 199.98
  Q 210.55 197.87 213.43 197.71
  Z
  M 247.54 230.52
  L 246.78 230.15
  Q 245.86 229.72 246.31 230.63
  Q 246.85 231.74 247.60 231.21
  A 0.40 0.40 0.0 0 0 247.54 230.52
  Z
  M 258.89 237.50
  C 252.40 242.00 244.43 242.00 237.70 238.05
  A 0.58 0.58 0.0 0 0 236.83 238.49
  L 236.76 239.20
  Q 236.72 239.65 237.11 239.88
  Q 247.46 245.92 258.21 240.25
  Q 259.57 239.53 260.02 238.38
  A 0.75 0.75 0.0 0 0 258.89 237.50
  Z"
/>
<path fill="#2a272e" d="
  M 306.72 191.93
  Q 303.41 198.99 302.07 206.15
  L 299.69 207.32
  Q 299.12 207.61 299.17 206.97
  Q 300.06 195.63 294.94 185.51
  A 1.68 1.63 -54.9 0 1 294.78 184.51
  L 295.73 178.50
  Q 295.85 177.74 296.38 178.30
  Q 302.52 184.81 306.72 191.93
  Z"
/>
<path fill="#40444d" d="
  M 184.25 186.23
  L 191.24 206.01
  Q 186.62 196.53 184.25 186.23
  Z"
/>
<path fill="#000000" d="
  M 225.43 201.90
  C 221.65 200.04 217.99 196.88 213.43 197.71
  Q 210.55 197.87 208.12 199.98
  A 0.99 0.99 0.0 0 1 206.48 199.26
  C 206.40 196.65 209.75 193.95 211.64 192.63
  C 214.93 190.35 218.15 189.76 221.65 191.70
  C 225.40 193.77 228.45 195.99 227.38 200.95
  Q 227.27 201.46 226.81 201.69
  Q 226.19 201.99 225.43 201.90
  Z"
/>
<path fill="#000000" d="
  M 280.74 197.72
  C 276.28 197.05 272.54 199.26 269.11 201.65
  Q 266.53 202.83 266.00 200.25
  Q 265.50 197.79 267.05 195.45
  L 273.44 190.84
  Q 281.39 189.48 286.73 197.29
  A 2.51 0.62 76.2 0 1 287.07 197.94
  Q 287.66 199.25 286.65 200.17
  A 0.68 0.68 0.0 0 1 285.75 200.17
  Q 283.33 198.00 280.74 197.72
  Z"
/>
<path fill="#40444d" d="
  M 306.72 191.93
  Q 305.27 199.80 302.07 206.15
  Q 303.41 198.99 306.72 191.93
  Z"
/>
<path fill="#c3957d" d="
  M 225.43 201.90
  L 225.04 202.35
  Q 224.74 202.70 225.18 202.86
  Q 226.76 203.39 226.91 204.99
  Q 226.97 205.55 227.32 205.98
  Q 231.70 211.22 230.59 217.36
  Q 230.46 217.56 230.34 217.76
  C 229.64 210.66 226.04 204.79 218.81 202.59
  L 213.43 197.71
  C 217.99 196.88 221.65 200.04 225.43 201.90
  Z"
/>
<path fill="#c3957d" d="
  M 280.74 197.72
  L 274.54 202.92
  C 268.29 204.90 265.68 209.64 263.87 215.80
  Q 263.01 210.08 266.27 206.58
  Q 267.36 205.41 267.33 204.32
  Q 267.33 203.85 267.73 203.61
  Q 269.26 202.72 269.11 201.65
  C 272.54 199.26 276.28 197.05 280.74 197.72
  Z"
/>
<path fill="#000000" d="
  M 218.81 202.59
  C 226.04 204.79 229.64 210.66 230.34 217.76
  Q 228.09 218.35 227.71 220.90
  A 1.76 1.71 69.8 0 1 227.32 221.78
  Q 222.18 228.02 215.89 222.57
  Q 215.95 221.00 215.03 219.08
  Q 214.64 218.28 214.14 218.28
  Q 213.53 218.28 212.97 219.26
  L 212.49 219.52
  Q 210.86 214.19 215.09 209.72
  Q 218.46 207.24 223.06 207.58
  Q 223.82 207.64 223.19 207.20
  C 216.90 202.83 209.05 207.17 208.12 214.49
  L 207.45 222.31
  Q 201.64 205.37 218.81 202.59
  Z
  M 225.13 212.84
  A 1.66 1.66 0.0 0 0 223.47 211.18
  A 1.66 1.66 0.0 0 0 221.81 212.84
  A 1.66 1.66 0.0 0 0 223.47 214.50
  A 1.66 1.66 0.0 0 0 225.13 212.84
  Z"
/>
<path fill="#000000" d="
  M 274.54 202.92
  C 284.72 202.78 292.46 212.79 286.61 221.86
  Q 287.10 217.65 286.23 215.18
  C 285.20 207.46 277.38 202.40 270.68 207.42
  Q 270.29 207.71 270.77 207.67
  Q 275.29 207.29 278.60 209.77
  Q 282.61 213.78 281.97 218.81
  L 280.59 218.50
  A 0.59 0.58 13.4 0 0 279.90 218.92
  C 277.91 226.56 268.73 227.21 266.22 219.89
  C 265.77 218.58 265.06 217.95 263.78 217.74
  L 263.87 215.80
  C 265.68 209.64 268.29 204.90 274.54 202.92
  Z
  M 276.51 212.90
  A 1.64 1.64 0.0 0 0 274.87 211.26
  A 1.64 1.64 0.0 0 0 273.23 212.90
  A 1.64 1.64 0.0 0 0 274.87 214.54
  A 1.64 1.64 0.0 0 0 276.51 212.90
  Z"
/>
<path fill="#9b969a" d="
  M 215.09 209.72
  Q 211.63 209.59 208.12 214.49
  C 209.05 207.17 216.90 202.83 223.19 207.20
  Q 223.82 207.64 223.06 207.58
  Q 218.46 207.24 215.09 209.72
  Z"
/>
<path fill="#9b969a" d="
  M 286.23 215.18
  Q 282.33 209.50 278.60 209.77
  Q 275.29 207.29 270.77 207.67
  Q 270.29 207.71 270.68 207.42
  C 277.38 202.40 285.20 207.46 286.23 215.18
  Z"
/>
<path fill="#fbccaa" d="
  M 187.65 219.39
  C 185.93 225.41 189.98 233.87 197.69 232.71
  L 198.06 233.19
  A 0.73 0.73 0.0 0 1 197.30 234.35
  Q 183.32 230.73 183.96 216.26
  Q 184.02 214.77 185.41 212.59
  Q 188.47 212.57 190.23 208.31
  C 193.83 208.33 195.84 216.68 196.17 219.88
  A 0.39 0.39 0.0 0 1 195.53 220.22
  Q 191.52 216.82 186.48 215.32
  Q 186.23 215.24 186.24 215.50
  Q 186.25 215.65 186.25 215.79
  Q 186.25 215.96 186.41 216.01
  Q 189.21 216.90 187.65 219.39
  Z"
/>
<path fill="#ffe3cf" d="
  M 190.23 208.31
  Q 188.47 212.57 185.41 212.59
  Q 186.71 209.16 190.23 208.31
  Z"
/>
<path fill="#fbccaa" d="
  M 302.11 231.99
  Q 308.55 225.46 307.10 216.75
  Q 307.49 215.95 307.47 215.51
  Q 307.42 214.70 306.85 215.27
  L 306.45 215.67
  Q 306.33 215.79 306.17 215.83
  Q 302.01 216.75 298.57 219.24
  Q 298.19 219.51 298.14 219.05
  C 296.67 204.89 309.93 206.01 309.66 218.47
  Q 309.47 227.36 302.11 231.99
  Z"
/>
<path fill="#ffe3cf" d="
  M 197.82 208.99
  L 202.36 231.12
  A 1.08 1.08 0.0 0 0 204.08 231.75
  C 207.67 228.92 217.48 233.36 220.76 235.71
  A 1.49 1.49 0.0 0 1 220.24 238.37
  Q 212.16 240.28 204.82 236.50
  A 0.50 0.49 -3.6 0 0 204.18 237.22
  Q 208.82 243.94 217.16 249.00
  C 209.88 246.76 202.51 242.88 200.86 235.53
  Q 197.97 222.59 197.82 208.99
  Z"
/>
<path fill="#ffffff" d="
  M 215.09 209.72
  Q 210.86 214.19 212.49 219.52
  Q 212.32 221.12 213.02 221.58
  Q 213.52 221.90 213.31 221.35
  Q 212.93 220.33 212.97 219.26
  Q 213.53 218.28 214.14 218.28
  Q 214.64 218.28 215.03 219.08
  Q 215.95 221.00 215.89 222.57
  Q 214.68 222.97 214.50 223.90
  Q 214.41 224.41 214.79 224.76
  C 220.14 229.67 226.72 227.83 230.00 221.58
  C 232.85 225.52 223.92 228.59 220.99 229.05
  Q 217.94 229.53 209.60 227.26
  Q 209.12 227.13 208.96 226.66
  L 207.45 222.31
  L 208.12 214.49
  Q 211.63 209.59 215.09 209.72
  Z"
/>
<path fill="#ffffff" d="
  M 286.23 215.18
  Q 287.10 217.65 286.61 221.86
  L 285.25 226.97
  A 0.83 0.83 0.0 0 1 284.59 227.57
  C 276.78 229.02 270.76 230.55 264.82 225.36
  C 263.62 224.31 263.26 222.85 264.43 221.68
  C 269.35 230.63 281.43 228.77 281.97 218.81
  Q 282.61 213.78 278.60 209.77
  Q 282.33 209.50 286.23 215.18
  Z"
/>
<path fill="#ffe3cf" d="
  M 295.99 210.58
  Q 295.42 227.01 292.52 237.51
  C 290.74 243.95 280.24 248.70 274.62 250.21
  Q 282.01 245.86 287.55 240.54
  Q 288.83 239.31 289.44 237.61
  Q 289.65 237.03 289.07 237.26
  Q 281.65 240.23 274.20 237.62
  A 1.78 1.78 0.0 0 1 273.83 234.44
  C 276.58 232.65 287.47 229.02 289.89 232.35
  A 0.76 0.76 0.0 0 0 291.25 232.07
  L 295.99 210.58
  Z"
/>
<circle fill="#ffffff" cx="223.47" cy="212.84" r="1.66"/>
<circle fill="#ffffff" cx="274.87" cy="212.90" r="1.64"/>
<path fill="#c3957d" d="
  M 307.10 216.75
  Q 308.55 225.46 302.11 231.99
  Q 299.63 234.03 296.45 234.00
  Q 295.81 234.00 295.86 233.36
  Q 296.06 230.43 298.60 228.91
  A 0.72 0.70 81.6 0 0 298.91 228.48
  Q 299.97 224.39 299.57 220.22
  A 0.85 0.83 -19.3 0 1 299.96 219.43
  L 302.11 218.03
  A 0.76 0.75 54.7 0 1 303.13 218.21
  L 304.19 219.59
  Q 304.62 220.15 304.73 219.45
  Q 304.82 218.83 304.82 218.21
  Q 304.83 217.28 305.15 217.04
  Q 305.73 216.60 307.10 216.75
  Z"
/>
<path fill="#393536" d="
  M 230.34 217.76
  Q 230.46 217.56 230.59 217.36
  L 230.00 221.58
  C 226.72 227.83 220.14 229.67 214.79 224.76
  Q 214.41 224.41 214.50 223.90
  Q 214.68 222.97 215.89 222.57
  Q 222.18 228.02 227.32 221.78
  A 1.76 1.71 69.8 0 0 227.71 220.90
  Q 228.09 218.35 230.34 217.76
  Z"
/>
<path fill="#c3957d" d="
  M 193.53 225.48
  Q 193.75 229.59 197.18 230.46
  Q 198.00 231.53 197.69 232.71
  C 189.98 233.87 185.93 225.41 187.65 219.39
  Q 188.77 219.01 189.34 217.94
  A 0.57 0.57 0.0 0 1 190.13 217.72
  L 193.27 219.55
  A 0.79 0.78 -66.7 0 1 193.63 220.47
  Q 192.82 223.03 193.53 225.48
  Z"
/>
<path fill="#393536" d="
  M 263.78 217.74
  C 265.06 217.95 265.77 218.58 266.22 219.89
  C 268.73 227.21 277.91 226.56 279.90 218.92
  A 0.59 0.58 13.4 0 1 280.59 218.50
  L 281.97 218.81
  C 281.43 228.77 269.35 230.63 264.43 221.68
  Q 263.64 219.80 263.78 217.74
  Z"
/>
<path fill="#5c636d" d="
  M 212.97 219.26
  Q 212.93 220.33 213.31 221.35
  Q 213.52 221.90 213.02 221.58
  Q 212.32 221.12 212.49 219.52
  L 212.97 219.26
  Z"
/>
<path fill="#c3957d" d="
  M 197.43 229.57
  Q 194.43 228.76 193.72 225.49
  Q 193.74 223.31 194.67 221.38
  A 0.77 0.77 0.0 0 1 196.12 221.59
  L 197.43 229.57
  Z"
/>
<path fill="#c3957d" d="
  M 297.60 220.87
  A 0.02 0.02 0.0 0 1 297.62 220.86
  L 297.68 220.86
  A 4.19 2.06 -81.9 0 1 299.13 225.30
  L 299.07 225.72
  A 4.19 2.06 -81.9 0 1 296.44 229.58
  L 296.38 229.57
  A 0.02 0.02 0.0 0 1 296.36 229.55
  L 297.60 220.87
  Z"
/>
<path fill="#393536" d="
  M 193.53 225.48
  Q 193.62 225.49 193.72 225.49
  Q 194.43 228.76 197.43 229.57
  Q 197.54 229.80 197.18 230.46
  Q 193.75 229.59 193.53 225.48
  Z"
/>
<path fill="#c3957d" d="
  M 247.54 230.52
  A 0.40 0.40 0.0 0 1 247.60 231.21
  Q 246.85 231.74 246.31 230.63
  Q 245.86 229.72 246.78 230.15
  L 247.54 230.52
  Z"
/>
<path fill="#000000" d="
  M 237.70 238.05
  C 244.43 242.00 252.40 242.00 258.89 237.50
  A 0.75 0.75 0.0 0 1 260.02 238.38
  Q 259.57 239.53 258.21 240.25
  Q 247.46 245.92 237.11 239.88
  Q 236.72 239.65 236.76 239.20
  L 236.83 238.49
  A 0.58 0.58 0.0 0 1 237.70 238.05
  Z"
/>
<path fill="#c3957d" d="
  M 262.75 253.60
  Q 252.61 255.99 241.89 254.43
  Q 250.11 253.52 258.25 253.31
  Q 260.48 253.25 262.75 253.60
  Z"
/>
<path fill="#40444d" d="
  M 225.00 254.26
  L 236.36 256.47
  A 1.26 1.26 0.0 0 1 236.16 258.97
  C 231.64 259.14 227.53 259.70 223.97 256.24
  A 1.17 1.16 72.6 0 1 225.00 254.26
  Z"
/>
<path fill="#40444d" d="
  M 270.78 254.46
  A 0.96 0.96 0.0 0 1 271.68 256.06
  Q 267.76 260.26 261.84 258.88
  A 1.34 1.34 0.0 0 1 261.88 256.26
  L 270.78 254.46
  Z"
/>
<path fill="#393536" d="
  M 219.87 257.29
  C 221.44 255.30 223.48 256.75 224.55 258.27
  Q 224.91 258.79 224.28 258.89
  Q 221.98 259.24 219.77 258.46
  Q 219.33 258.31 218.90 258.47
  L 218.01 258.79
  A 0.23 0.23 0.0 0 1 217.84 258.36
  L 219.17 257.81
  Q 219.59 257.64 219.87 257.29
  Z"
/>
<path fill="#393536" d="
  M 275.31 256.94
  Q 275.95 257.11 276.26 257.71
  A 0.80 0.80 0.0 0 1 275.58 258.87
  L 271.56 259.05
  Q 270.47 259.10 271.25 258.34
  L 273.12 256.52
  A 1.06 1.04 24.9 0 1 273.94 256.23
  Q 274.76 256.31 275.31 256.94
  Z"
/>
<rect fill="#c3957d" x="-9.90" y="-0.78" transform="translate(249.00,258.01) rotate(0.1)" width="19.80" height="1.56" rx="0.51"/>
<path fill="#ffffff" d="
  M 307.16 297.56
  Q 306.18 297.44 306.65 297.45
  L 308.16 266.58
  A 3.41 3.40 -88.6 0 0 304.76 263.00
  L 193.53 263.00
  A 3.17 3.16 88.9 0 0 190.37 266.29
  L 191.38 291.64
  Q 189.62 279.17 188.91 267.01
  Q 188.59 261.50 194.00 261.47
  Q 249.50 261.25 305.00 261.25
  C 308.78 261.25 309.99 264.61 309.71 268.03
  Q 308.50 282.79 307.16 297.56
  Z"
/>
<path fill="#5c636d" d="
  M 306.65 297.45
  C 306.03 297.62 305.74 297.78 305.10 297.70
  C 294.33 296.47 282.23 294.31 271.44 295.18
  Q 232.21 298.31 193.00 301.75
  Q 192.11 301.83 192.17 300.66
  L 191.38 291.64
  L 190.37 266.29
  A 3.17 3.16 88.9 0 1 193.53 263.00
  L 304.76 263.00
  A 3.41 3.40 -88.6 0 1 308.16 266.58
  L 306.65 297.45
  Z
  M 249.17 278.01
  A 0.94 0.94 0.0 0 0 250.41 279.30
  Q 252.77 278.17 253.02 275.56
  A 0.44 0.44 0.0 0 0 252.42 275.12
  Q 250.22 276.04 249.17 278.01
  Z
  M 244.67 293.15
  A 2.18 2.16 -38.1 0 0 246.97 293.42
  Q 249.96 291.97 252.97 293.66
  A 0.75 0.75 0.0 0 0 253.85 293.55
  L 257.00 290.52
  Q 257.51 290.03 256.97 289.58
  Q 252.80 286.14 256.65 282.46
  A 0.54 0.54 0.0 0 0 256.62 281.65
  Q 253.47 279.06 249.78 281.03
  A 1.01 1.01 0.0 0 1 248.87 281.05
  C 244.36 278.91 240.60 281.47 240.86 286.25
  Q 241.08 290.22 244.67 293.15
  Z"
/>
<path fill="#ffffff" d="
  M 249.17 278.01
  Q 250.22 276.04 252.42 275.12
  A 0.44 0.44 0.0 0 1 253.02 275.56
  Q 252.77 278.17 250.41 279.30
  A 0.94 0.94 0.0 0 1 249.17 278.01
  Z"
/>
<path fill="#ffffff" d="
  M 244.67 293.15
  Q 241.08 290.22 240.86 286.25
  C 240.60 281.47 244.36 278.91 248.87 281.05
  A 1.01 1.01 0.0 0 0 249.78 281.03
  Q 253.47 279.06 256.62 281.65
  A 0.54 0.54 0.0 0 1 256.65 282.46
  Q 252.80 286.14 256.97 289.58
  Q 257.51 290.03 257.00 290.52
  L 253.85 293.55
  A 0.75 0.75 0.0 0 1 252.97 293.66
  Q 249.96 291.97 246.97 293.42
  A 2.18 2.16 -38.1 0 1 244.67 293.15
  Z"
/>
<path fill="#393536" d="
  M 182.10 294.98
  L 182.27 295.26
  A 0.13 0.12 -19.4 0 1 182.17 295.45
  L 181.79 295.51
  Q 181.44 295.55 181.46 295.20
  C 181.71 290.73 183.34 289.62 185.58 286.26
  Q 185.74 286.03 186.01 286.05
  Q 186.40 286.09 186.11 286.36
  Q 182.41 289.80 182.08 294.88
  A 0.29 0.24 39.3 0 0 182.10 294.98
  Z"
/>
<path fill="#fbccaa" d="
  M 189.21 298.06
  Q 186.81 297.60 185.30 298.79
  C 182.75 295.09 184.75 290.67 187.47 287.91
  A 0.55 0.55 0.0 0 1 188.41 288.26
  L 189.21 298.06
  Z"
/>
<path fill="#2b2a2b" d="
  M 314.23 287.83
  Q 316.83 290.48 316.79 294.20
  A 0.27 0.27 0.0 0 1 316.25 294.24
  L 315.86 291.78
  Q 315.78 291.27 315.52 290.83
  L 313.92 288.06
  A 0.20 0.19 8.0 0 1 314.23 287.83
  Z"
/>
<path fill="#fbccaa" d="
  M 313.56 299.08
  Q 311.89 297.35 309.72 297.78
  L 310.31 288.38
  A 0.44 0.43 -67.2 0 1 311.04 288.08
  Q 316.05 292.79 313.56 299.08
  Z"
/>
<path fill="#40444d" d="
  M 306.65 297.45
  Q 306.18 297.44 307.16 297.56
  C 306.77 301.85 307.88 307.75 301.55 307.75
  Q 249.60 307.76 197.65 307.74
  C 192.99 307.74 191.39 305.07 192.17 300.66
  Q 192.11 301.83 193.00 301.75
  Q 232.21 298.31 271.44 295.18
  C 282.23 294.31 294.33 296.47 305.10 297.70
  C 305.74 297.78 306.03 297.62 306.65 297.45
  Z"
/>
<path fill="#c3957d" d="
  M 309.72 297.78
  Q 311.89 297.35 313.56 299.08
  Q 312.21 301.45 309.80 301.95
  Q 309.20 302.08 309.27 301.47
  L 309.72 297.78
  Z"
/>
<path fill="#c3957d" d="
  M 189.21 298.06
  L 189.47 301.23
  Q 189.51 301.79 188.95 301.73
  Q 186.35 301.43 185.30 298.79
  Q 186.81 297.60 189.21 298.06
  Z"
/>
<path fill="#2a272e" d="
  M 318.63 303.41
  L 338.62 304.85
  L 338.69 312.22
  Q 338.70 312.82 338.10 312.82
  L 160.87 312.93
  Q 160.34 312.93 160.33 312.41
  L 160.17 303.72
  Q 168.62 304.86 177.41 303.39
  Q 183.03 302.56 189.13 303.22
  Q 189.64 303.27 189.70 303.78
  C 190.26 308.76 193.24 310.25 198.09 310.25
  Q 250.06 310.25 302.02 310.25
  C 305.30 310.25 307.26 308.88 308.61 306.08
  Q 308.82 305.66 308.78 305.19
  Q 308.59 302.54 311.31 302.83
  Q 315.10 303.23 318.63 303.41
  Z"
/>
<path fill="#40444d" d="
  M 177.41 303.39
  Q 168.62 304.86 160.17 303.72
  Q 168.51 302.67 177.41 303.39
  Z"
/>
<path fill="#40444d" d="
  M 338.62 304.85
  L 318.63 303.41
  L 337.87 303.08
  Q 338.39 303.07 338.64 303.53
  Q 338.94 304.09 338.62 304.85
  Z"
/>
<path fill="#9b969a" d="
  M 158.05 311.69
  Q 157.67 313.53 158.38 314.76
  A 0.97 0.96 75.0 0 0 159.22 315.25
  L 339.71 315.25
  Q 340.10 315.25 340.33 314.94
  Q 341.29 313.69 340.99 311.66
  Q 343.52 311.57 346.28 313.48
  Q 347.58 314.37 346.54 315.56
  C 343.70 318.77 323.89 320.93 318.60 321.47
  Q 246.40 328.81 174.18 320.83
  C 167.66 320.11 157.36 318.76 151.39 315.37
  A 0.66 0.65 -54.2 0 1 151.23 314.36
  Q 153.82 311.48 158.05 311.69
  Z"
/>
<path fill="#ffe3cf" d="
  M 166.25 366.26
  L 166.25 375.20
  Q 166.25 375.62 165.86 375.77
  Q 160.58 377.89 155.06 377.69
  C 142.04 377.22 144.26 364.63 144.24 354.76
  Q 144.24 354.25 143.73 354.25
  L 140.50 354.25
  A 1.05 1.03 -19.6 0 1 139.70 353.88
  C 133.43 346.32 134.47 333.98 146.71 333.86
  Q 163.55 333.71 170.31 333.75
  Q 170.85 333.75 171.16 334.19
  L 173.01 336.74
  Q 173.33 337.17 173.80 336.91
  Q 188.75 328.36 202.38 338.67
  Q 202.85 339.02 203.27 338.63
  Q 212.60 330.01 223.57 336.80
  Q 224.01 337.08 224.46 336.80
  Q 234.68 330.46 244.16 337.42
  Q 244.73 337.83 245.32 337.45
  Q 257.17 329.75 270.38 335.58
  Q 270.85 335.78 271.29 335.52
  Q 274.15 333.81 276.31 333.80
  Q 288.67 333.70 301.04 333.77
  Q 301.52 333.77 301.91 334.03
  L 302.87 334.67
  Q 303.30 334.96 303.80 334.83
  C 310.77 332.96 320.57 334.00 327.88 334.00
  Q 328.39 334.00 328.66 334.42
  Q 329.02 334.98 329.58 335.15
  Q 330.06 335.29 330.81 335.04
  C 338.88 332.31 350.35 331.80 357.06 337.98
  Q 366.51 346.67 359.94 359.66
  Q 359.74 360.06 359.98 360.44
  L 363.77 366.27
  Q 364.07 366.74 363.95 367.29
  C 362.15 375.19 353.95 380.99 346.00 376.33
  A 1.14 1.13 -38.5 0 0 345.07 376.23
  C 340.02 377.96 333.89 378.55 328.88 376.24
  Q 328.43 376.03 327.97 376.23
  C 323.44 378.23 317.23 377.95 312.31 377.75
  C 306.11 377.51 300.13 377.37 297.72 370.41
  Q 297.18 368.84 297.19 370.50
  L 297.24 375.00
  Q 297.24 375.40 296.88 375.57
  C 289.62 378.85 278.80 379.69 275.85 370.48
  Q 275.69 369.96 275.35 370.39
  C 268.77 378.67 256.15 380.23 246.85 376.25
  Q 246.39 376.05 245.94 376.25
  C 239.62 378.96 231.01 379.01 227.87 371.66
  A 0.69 0.69 0.0 0 0 227.24 371.25
  L 223.00 371.25
  Q 222.25 371.25 222.25 372.00
  L 222.25 374.80
  Q 222.25 375.28 221.82 375.50
  C 215.37 378.64 207.29 379.52 202.29 373.61
  Q 201.94 373.20 201.50 373.51
  C 189.98 381.74 173.37 379.49 166.68 366.15
  Q 166.25 365.29 166.25 366.26
  Z
  M 202.61 354.19
  A 14.29 14.29 0.0 0 0 188.32 339.90
  L 185.48 339.90
  A 14.29 14.29 0.0 0 0 171.19 354.19
  L 171.19 357.33
  A 14.29 14.29 0.0 0 0 185.48 371.62
  L 188.32 371.62
  A 14.29 14.29 0.0 0 0 202.61 357.33
  L 202.61 354.19
  Z
  M 256.23 349.99
  C 254.26 345.01 264.84 347.46 266.81 348.37
  Q 267.28 348.58 267.65 348.22
  C 276.34 339.69 248.51 334.40 247.00 348.03
  C 246.07 356.44 254.25 357.92 260.10 360.18
  C 261.54 360.73 262.34 362.03 261.34 363.37
  C 259.25 366.17 252.50 363.97 250.16 362.42
  Q 249.77 362.17 249.34 362.33
  Q 247.38 363.06 247.05 364.60
  C 245.39 372.50 258.69 372.20 263.28 371.07
  C 270.26 369.34 273.67 361.27 268.26 355.96
  C 265.64 353.39 260.71 351.94 256.89 350.62
  A 1.11 1.08 87.9 0 1 256.23 349.99
  Z
  M 340.00 362.45
  A 1.63 1.63 0.0 0 1 343.04 361.63
  Q 345.08 365.11 347.33 368.63
  C 349.59 372.17 355.26 372.43 356.84 368.09
  Q 357.04 367.53 356.69 367.06
  L 351.07 359.68
  A 0.56 0.55 55.4 0 1 351.21 358.87
  Q 355.27 356.28 355.94 352.02
  C 357.87 339.74 343.10 338.62 335.01 340.54
  C 332.02 341.25 331.27 341.78 331.25 345.08
  Q 331.20 356.14 331.20 367.19
  C 331.20 371.88 336.02 371.44 339.46 370.86
  Q 340.00 370.77 340.00 370.22
  L 340.00 362.45
  Z
  M 160.25 347.50
  L 166.21 347.49
  A 1.37 1.36 16.1 0 0 167.36 346.86
  Q 169.16 344.05 167.63 340.91
  Q 167.43 340.49 166.95 340.49
  L 144.49 340.52
  A 1.34 1.32 -74.3 0 0 143.35 341.17
  Q 141.61 344.12 143.21 347.29
  Q 143.31 347.50 143.54 347.50
  L 150.31 347.50
  Q 150.99 347.50 150.99 348.18
  Q 151.01 357.62 151.00 367.06
  C 150.99 372.04 155.97 371.57 159.27 370.83
  A 0.62 0.61 -6.5 0 0 159.75 370.23
  L 159.75 348.00
  Q 159.75 347.51 160.25 347.50
  Z
  M 232.56 351.67
  A 0.34 0.34 0.0 0 1 233.23 351.77
  Q 233.22 359.47 233.69 367.35
  C 233.97 372.06 238.39 371.77 241.64 370.88
  A 0.82 0.80 -6.7 0 0 242.23 370.15
  Q 242.35 368.18 242.09 365.19
  Q 240.72 349.08 240.18 344.06
  C 239.69 339.53 232.66 340.12 229.92 341.25
  Q 229.50 341.43 229.36 341.87
  L 225.05 355.56
  A 0.30 0.30 0.0 0 1 224.48 355.55
  Q 222.95 349.95 221.00 344.29
  C 219.35 339.50 212.47 339.58 209.26 342.12
  Q 208.84 342.45 208.81 342.98
  Q 208.19 354.19 207.57 365.40
  C 207.41 368.34 206.83 370.51 210.07 371.06
  Q 212.81 371.54 214.93 370.98
  Q 215.86 370.74 215.88 369.78
  L 216.41 351.46
  A 0.24 0.24 0.0 0 1 216.88 351.40
  Q 218.37 356.17 219.92 360.92
  C 221.32 365.22 223.58 364.84 227.42 364.32
  Q 228.73 364.14 229.20 362.73
  Q 231.03 357.19 232.56 351.67
  Z
  M 291.25 347.50
  L 297.21 347.49
  A 1.24 1.24 0.0 0 0 298.21 346.98
  Q 300.25 344.14 298.62 340.87
  Q 298.44 340.50 298.02 340.50
  L 275.56 340.50
  A 1.41 1.40 15.6 0 0 274.36 341.17
  Q 272.59 344.05 274.21 347.20
  Q 274.37 347.50 274.70 347.50
  L 281.37 347.50
  Q 282.00 347.50 282.00 348.12
  L 282.00 368.53
  A 2.57 2.57 0.0 0 0 284.60 371.10
  L 290.11 371.04
  A 0.65 0.65 0.0 0 0 290.75 370.39
  L 290.75 348.00
  Q 290.75 347.51 291.25 347.50
  Z
  M 312.53 347.48
  C 316.23 347.52 329.15 349.58 324.96 341.03
  Q 324.73 340.55 324.20 340.54
  Q 316.43 340.36 308.67 340.69
  C 305.39 340.83 303.52 342.15 303.50 345.51
  Q 303.43 356.11 303.55 366.86
  A 4.18 4.18 0.0 0 0 307.73 371.00
  L 323.94 371.00
  A 1.13 1.13 0.0 0 0 324.91 370.45
  Q 326.58 367.66 325.13 364.64
  Q 324.95 364.25 324.52 364.25
  L 312.75 364.25
  Q 312.00 364.25 312.00 363.50
  L 312.00 359.66
  A 0.61 0.60 -1.0 0 1 312.59 359.06
  L 322.18 358.86
  A 1.32 1.30 -73.3 0 0 323.22 358.29
  Q 325.05 355.63 323.55 352.73
  Q 323.31 352.25 322.77 352.25
  L 312.75 352.25
  Q 312.00 352.25 312.00 351.50
  L 312.00 348.01
  Q 312.00 347.48 312.53 347.48
  Z"
/>
<path fill="#2b2a2b" d="
  M 202.61 357.33
  A 14.29 14.29 0.0 0 1 188.32 371.62
  L 185.48 371.62
  A 14.29 14.29 0.0 0 1 171.19 357.33
  L 171.19 354.19
  A 14.29 14.29 0.0 0 1 185.48 339.90
  L 188.32 339.90
  A 14.29 14.29 0.0 0 1 202.61 354.19
  L 202.61 357.33
  Z
  M 186.8880 364.9399
  A 9.18 6.92 90.2 0 0 193.8400 355.7842
  A 9.18 6.92 90.2 0 0 186.9520 346.5801
  A 9.18 6.92 90.2 0 0 180.0000 355.7358
  A 9.18 6.92 90.2 0 0 186.8880 364.9399
  Z"
/>
<path fill="#2b2a2b" d="
  M 256.89 350.62
  C 260.71 351.94 265.64 353.39 268.26 355.96
  C 273.67 361.27 270.26 369.34 263.28 371.07
  C 258.69 372.20 245.39 372.50 247.05 364.60
  Q 247.38 363.06 249.34 362.33
  Q 249.77 362.17 250.16 362.42
  C 252.50 363.97 259.25 366.17 261.34 363.37
  C 262.34 362.03 261.54 360.73 260.10 360.18
  C 254.25 357.92 246.07 356.44 247.00 348.03
  C 248.51 334.40 276.34 339.69 267.65 348.22
  Q 267.28 348.58 266.81 348.37
  C 264.84 347.46 254.26 345.01 256.23 349.99
  A 1.11 1.08 87.9 0 0 256.89 350.62
  Z"
/>
<path fill="#2b2a2b" d="
  M 340.00 362.45
  L 340.00 370.22
  Q 340.00 370.77 339.46 370.86
  C 336.02 371.44 331.20 371.88 331.20 367.19
  Q 331.20 356.14 331.25 345.08
  C 331.27 341.78 332.02 341.25 335.01 340.54
  C 343.10 338.62 357.87 339.74 355.94 352.02
  Q 355.27 356.28 351.21 358.87
  A 0.56 0.55 55.4 0 0 351.07 359.68
  L 356.69 367.06
  Q 357.04 367.53 356.84 368.09
  C 355.26 372.43 349.59 372.17 347.33 368.63
  Q 345.08 365.11 343.04 361.63
  A 1.63 1.63 0.0 0 0 340.00 362.45
  Z
  M 340.00 347.44
  L 339.98 353.80
  A 0.68 0.68 0.0 0 0 340.66 354.48
  L 342.69 354.49
  A 4.55 3.59 0.2 0 0 347.25 350.91
  L 347.25 350.37
  A 4.55 3.59 0.2 0 0 342.71 346.77
  L 340.68 346.76
  A 0.68 0.68 0.0 0 0 340.00 347.44
  Z"
/>
<path fill="#2b2a2b" d="
  M 159.75 348.00
  L 159.75 370.23
  A 0.62 0.61 -6.5 0 1 159.27 370.83
  C 155.97 371.57 150.99 372.04 151.00 367.06
  Q 151.01 357.62 150.99 348.18
  Q 150.99 347.50 150.31 347.50
  L 143.54 347.50
  Q 143.31 347.50 143.21 347.29
  Q 141.61 344.12 143.35 341.17
  A 1.34 1.32 -74.3 0 1 144.49 340.52
  L 166.95 340.49
  Q 167.43 340.49 167.63 340.91
  Q 169.16 344.05 167.36 346.86
  A 1.37 1.36 16.1 0 1 166.21 347.49
  L 160.25 347.50
  Q 159.75 347.51 159.75 348.00
  Z"
/>
<path fill="#2b2a2b" d="
  M 232.56 351.67
  Q 231.03 357.19 229.20 362.73
  Q 228.73 364.14 227.42 364.32
  C 223.58 364.84 221.32 365.22 219.92 360.92
  Q 218.37 356.17 216.88 351.40
  A 0.24 0.24 0.0 0 0 216.41 351.46
  L 215.88 369.78
  Q 215.86 370.74 214.93 370.98
  Q 212.81 371.54 210.07 371.06
  C 206.83 370.51 207.41 368.34 207.57 365.40
  Q 208.19 354.19 208.81 342.98
  Q 208.84 342.45 209.26 342.12
  C 212.47 339.58 219.35 339.50 221.00 344.29
  Q 222.95 349.95 224.48 355.55
  A 0.30 0.30 0.0 0 0 225.05 355.56
  L 229.36 341.87
  Q 229.50 341.43 229.92 341.25
  C 232.66 340.12 239.69 339.53 240.18 344.06
  Q 240.72 349.08 242.09 365.19
  Q 242.35 368.18 242.23 370.15
  A 0.82 0.80 -6.7 0 1 241.64 370.88
  C 238.39 371.77 233.97 372.06 233.69 367.35
  Q 233.22 359.47 233.23 351.77
  A 0.34 0.34 0.0 0 0 232.56 351.67
  Z"
/>
<path fill="#2b2a2b" d="
  M 290.75 348.00
  L 290.75 370.39
  A 0.65 0.65 0.0 0 1 290.11 371.04
  L 284.60 371.10
  A 2.57 2.57 0.0 0 1 282.00 368.53
  L 282.00 348.12
  Q 282.00 347.50 281.37 347.50
  L 274.70 347.50
  Q 274.37 347.50 274.21 347.20
  Q 272.59 344.05 274.36 341.17
  A 1.41 1.40 15.6 0 1 275.56 340.50
  L 298.02 340.50
  Q 298.44 340.50 298.62 340.87
  Q 300.25 344.14 298.21 346.98
  A 1.24 1.24 0.0 0 1 297.21 347.49
  L 291.25 347.50
  Q 290.75 347.51 290.75 348.00
  Z"
/>
<path fill="#2b2a2b" d="
  M 312.00 348.01
  L 312.00 351.50
  Q 312.00 352.25 312.75 352.25
  L 322.77 352.25
  Q 323.31 352.25 323.55 352.73
  Q 325.05 355.63 323.22 358.29
  A 1.32 1.30 -73.3 0 1 322.18 358.86
  L 312.59 359.06
  A 0.61 0.60 -1.0 0 0 312.00 359.66
  L 312.00 363.50
  Q 312.00 364.25 312.75 364.25
  L 324.52 364.25
  Q 324.95 364.25 325.13 364.64
  Q 326.58 367.66 324.91 370.45
  A 1.13 1.13 0.0 0 1 323.94 371.00
  L 307.73 371.00
  A 4.18 4.18 0.0 0 1 303.55 366.86
  Q 303.43 356.11 303.50 345.51
  C 303.52 342.15 305.39 340.83 308.67 340.69
  Q 316.43 340.36 324.20 340.54
  Q 324.73 340.55 324.96 341.03
  C 329.15 349.58 316.23 347.52 312.53 347.48
  Q 312.00 347.48 312.00 348.01
  Z"
/>
<ellipse fill="#ffe3cf" cx="0.00" cy="0.00" transform="translate(186.92,355.76) rotate(90.2)" rx="9.18" ry="6.92"/>
<path fill="#ffe3cf" d="
  M 340.00 347.44
  A 0.68 0.68 0.0 0 1 340.68 346.76
  L 342.71 346.77
  A 4.55 3.59 0.2 0 1 347.25 350.37
  L 347.25 350.91
  A 4.55 3.59 0.2 0 1 342.69 354.49
  L 340.66 354.48
  A 0.68 0.68 0.0 0 1 339.98 353.80
  L 340.00 347.44
  Z"
/>
</svg>
