<svg xmlns="http://www.w3.org/2000/svg" xmlns:xlink="http://www.w3.org/1999/xlink" width="500" zoomAndPan="magnify" viewBox="0 0 375 374.999991" height="500" preserveAspectRatio="xMidYMid meet" version="1.0"><defs><g/></defs><rect x="-37.5" width="450" fill="#ffffff" y="-37.499999" height="449.999989" fill-opacity="1"/><rect x="-37.5" width="450" fill="#000000" y="-37.499999" height="449.999989" fill-opacity="1"/><g fill="#ffffff" fill-opacity="1"><g transform="translate(142.42314, 129.532241)"><g><path d="M 0.296875 -23.921875 L 0.296875 -29.890625 L 21.3125 -29.890625 L 21.3125 -23.921875 L 14.203125 -23.921875 L 14.203125 0 L 7.390625 0 L 7.390625 -23.921875 Z M 0.296875 -23.921875 "/></g></g></g><g fill="#ffffff" fill-opacity="1"><g transform="translate(165.827631, 129.532241)"><g><path d="M 8.984375 -12 L 8.984375 0 L 2.171875 0 L 2.171875 -29.890625 L 8.984375 -29.890625 L 8.984375 -17.96875 L 18.625 -17.96875 L 18.625 -29.890625 L 25.4375 -29.890625 L 25.4375 0 L 18.625 0 L 18.625 -12 Z M 8.984375 -12 "/></g></g></g><g fill="#ffffff" fill-opacity="1"><g transform="translate(195.246283, 129.532241)"><g><path d="M 8.984375 -29.890625 L 8.984375 0 L 2.171875 0 L 2.171875 -29.890625 Z M 8.984375 -29.890625 "/></g></g></g><g fill="#ffffff" fill-opacity="1"><g transform="translate(208.216577, 129.532241)"><g><path d="M 13.1875 -30.4375 C 14.800781 -30.4375 16.378906 -30.203125 17.921875 -29.734375 C 19.472656 -29.265625 20.625 -28.796875 21.375 -28.328125 L 22.46875 -27.609375 L 19.71875 -22.171875 C 19.5 -22.316406 19.191406 -22.503906 18.796875 -22.734375 C 18.410156 -22.960938 17.6875 -23.269531 16.625 -23.65625 C 15.5625 -24.039062 14.570312 -24.234375 13.65625 -24.234375 C 12.519531 -24.234375 11.644531 -23.992188 11.03125 -23.515625 C 10.414062 -23.035156 10.109375 -22.382812 10.109375 -21.5625 C 10.109375 -21.144531 10.253906 -20.757812 10.546875 -20.40625 C 10.835938 -20.0625 11.332031 -19.691406 12.03125 -19.296875 C 12.726562 -18.898438 13.34375 -18.578125 13.875 -18.328125 C 14.40625 -18.085938 15.226562 -17.726562 16.34375 -17.25 C 18.269531 -16.425781 19.914062 -15.304688 21.28125 -13.890625 C 22.644531 -12.484375 23.328125 -10.882812 23.328125 -9.09375 C 23.328125 -7.375 23.019531 -5.875 22.40625 -4.59375 C 21.789062 -3.320312 20.945312 -2.320312 19.875 -1.59375 C 18.800781 -0.863281 17.609375 -0.328125 16.296875 0.015625 C 14.992188 0.367188 13.582031 0.546875 12.0625 0.546875 C 10.757812 0.546875 9.476562 0.410156 8.21875 0.140625 C 6.96875 -0.117188 5.914062 -0.445312 5.0625 -0.84375 C 4.21875 -1.25 3.457031 -1.644531 2.78125 -2.03125 C 2.113281 -2.414062 1.617188 -2.738281 1.296875 -3 L 0.828125 -3.40625 L 4.234375 -9.125 C 4.523438 -8.882812 4.925781 -8.578125 5.4375 -8.203125 C 5.945312 -7.828125 6.847656 -7.328125 8.140625 -6.703125 C 9.429688 -6.078125 10.570312 -5.765625 11.5625 -5.765625 C 14.4375 -5.765625 15.875 -6.742188 15.875 -8.703125 C 15.875 -9.109375 15.769531 -9.484375 15.5625 -9.828125 C 15.351562 -10.179688 14.988281 -10.53125 14.46875 -10.875 C 13.957031 -11.226562 13.5 -11.507812 13.09375 -11.71875 C 12.695312 -11.925781 12.046875 -12.238281 11.140625 -12.65625 C 10.234375 -13.082031 9.5625 -13.40625 9.125 -13.625 C 7.3125 -14.519531 5.910156 -15.632812 4.921875 -16.96875 C 3.929688 -18.3125 3.4375 -19.757812 3.4375 -21.3125 C 3.4375 -23.988281 4.425781 -26.175781 6.40625 -27.875 C 8.394531 -29.582031 10.65625 -30.4375 13.1875 -30.4375 Z M 13.1875 -30.4375 "/></g></g></g><g fill="#ffffff" fill-opacity="1"><g transform="translate(74.258197, 174.457247)"><g><path d="M 18.078125 -6.15625 C 19.117188 -6.15625 20.128906 -6.3125 21.109375 -6.625 C 22.085938 -6.945312 22.804688 -7.25 23.265625 -7.53125 L 23.953125 -8 L 26.84375 -2.203125 C 26.75 -2.140625 26.617188 -2.046875 26.453125 -1.921875 C 26.285156 -1.796875 25.890625 -1.570312 25.265625 -1.25 C 24.648438 -0.925781 23.992188 -0.640625 23.296875 -0.390625 C 22.597656 -0.148438 21.679688 0.0625 20.546875 0.25 C 19.410156 0.445312 18.238281 0.546875 17.03125 0.546875 C 14.25 0.546875 11.613281 -0.132812 9.125 -1.5 C 6.644531 -2.863281 4.640625 -4.738281 3.109375 -7.125 C 1.585938 -9.519531 0.828125 -12.109375 0.828125 -14.890625 C 0.828125 -16.992188 1.273438 -19.007812 2.171875 -20.9375 C 3.066406 -22.875 4.253906 -24.53125 5.734375 -25.90625 C 7.222656 -27.28125 8.957031 -28.378906 10.9375 -29.203125 C 12.914062 -30.023438 14.945312 -30.4375 17.03125 -30.4375 C 18.957031 -30.4375 20.738281 -30.207031 22.375 -29.75 C 24.007812 -29.289062 25.160156 -28.832031 25.828125 -28.375 L 26.84375 -27.6875 L 23.953125 -21.890625 C 23.785156 -22.035156 23.53125 -22.207031 23.1875 -22.40625 C 22.851562 -22.613281 22.175781 -22.882812 21.15625 -23.21875 C 20.144531 -23.5625 19.117188 -23.734375 18.078125 -23.734375 C 16.429688 -23.734375 14.957031 -23.46875 13.65625 -22.9375 C 12.351562 -22.40625 11.320312 -21.703125 10.5625 -20.828125 C 9.800781 -19.960938 9.21875 -19.023438 8.8125 -18.015625 C 8.414062 -17.015625 8.21875 -16 8.21875 -14.96875 C 8.21875 -12.695312 9.066406 -10.660156 10.765625 -8.859375 C 12.472656 -7.054688 14.910156 -6.15625 18.078125 -6.15625 Z M 18.078125 -6.15625 "/></g></g></g><g fill="#ffffff" fill-opacity="1"><g transform="translate(103.350779, 174.457247)"><g><path d="M 0.828125 -14.96875 C 0.828125 -19.289062 2.300781 -22.945312 5.25 -25.9375 C 8.195312 -28.9375 11.75 -30.4375 15.90625 -30.4375 C 20.082031 -30.4375 23.628906 -28.941406 26.546875 -25.953125 C 29.472656 -22.972656 30.9375 -19.3125 30.9375 -14.96875 C 30.9375 -10.59375 29.5 -6.910156 26.625 -3.921875 C 23.757812 -0.941406 20.1875 0.546875 15.90625 0.546875 C 11.53125 0.546875 7.921875 -0.929688 5.078125 -3.890625 C 2.242188 -6.847656 0.828125 -10.539062 0.828125 -14.96875 Z M 8.1875 -14.96875 C 8.1875 -13.394531 8.425781 -11.960938 8.90625 -10.671875 C 9.394531 -9.378906 10.242188 -8.285156 11.453125 -7.390625 C 12.660156 -6.492188 14.144531 -6.046875 15.90625 -6.046875 C 18.445312 -6.046875 20.363281 -6.914062 21.65625 -8.65625 C 22.945312 -10.394531 23.59375 -12.5 23.59375 -14.96875 C 23.59375 -17.40625 22.929688 -19.5 21.609375 -21.25 C 20.296875 -23 18.394531 -23.875 15.90625 -23.875 C 13.445312 -23.875 11.546875 -23 10.203125 -21.25 C 8.859375 -19.5 8.1875 -17.40625 8.1875 -14.96875 Z M 8.1875 -14.96875 "/></g></g></g><g fill="#ffffff" fill-opacity="1"><g transform="translate(136.935863, 174.457247)"><g><path d="M 8.984375 -18.546875 L 8.984375 0 L 2.171875 0 L 2.171875 -29.890625 L 8.984375 -29.890625 L 20.875 -11.34375 L 20.9375 -11.34375 L 20.9375 -29.890625 L 27.75 -29.890625 L 27.75 0 L 20.9375 0 L 9.0625 -18.546875 Z M 8.984375 -18.546875 "/></g></g></g><g fill="#ffffff" fill-opacity="1"><g transform="translate(168.673226, 174.457247)"><g><path d="M 0.296875 -23.921875 L 0.296875 -29.890625 L 21.3125 -29.890625 L 21.3125 -23.921875 L 14.203125 -23.921875 L 14.203125 0 L 7.390625 0 L 7.390625 -23.921875 Z M 0.296875 -23.921875 "/></g></g></g><g fill="#ffffff" fill-opacity="1"><g transform="translate(192.077718, 174.457247)"><g><path d="M 2.171875 -29.890625 L 12.859375 -29.890625 C 15.734375 -29.890625 18.078125 -29.125 19.890625 -27.59375 C 21.703125 -26.0625 22.609375 -23.867188 22.609375 -21.015625 C 22.609375 -18.816406 22.054688 -16.972656 20.953125 -15.484375 C 19.859375 -14.003906 18.367188 -12.960938 16.484375 -12.359375 L 26.78125 0 L 18.125 0 L 8.984375 -11.8125 L 8.984375 0 L 2.171875 0 Z M 8.984375 -16.625 L 9.78125 -16.625 C 10.40625 -16.625 10.9375 -16.632812 11.375 -16.65625 C 11.8125 -16.6875 12.304688 -16.773438 12.859375 -16.921875 C 13.421875 -17.066406 13.867188 -17.269531 14.203125 -17.53125 C 14.546875 -17.800781 14.835938 -18.1875 15.078125 -18.6875 C 15.316406 -19.195312 15.4375 -19.8125 15.4375 -20.53125 C 15.4375 -21.257812 15.316406 -21.878906 15.078125 -22.390625 C 14.835938 -22.898438 14.546875 -23.285156 14.203125 -23.546875 C 13.867188 -23.816406 13.421875 -24.023438 12.859375 -24.171875 C 12.304688 -24.316406 11.8125 -24.398438 11.375 -24.421875 C 10.9375 -24.441406 10.40625 -24.453125 9.78125 -24.453125 L 8.984375 -24.453125 Z M 8.984375 -16.625 "/></g></g></g><g fill="#ffffff" fill-opacity="1"><g transform="translate(219.829784, 174.457247)"><g><path d="M 17.359375 -29.890625 L 29.421875 0 L 22.109375 0 L 19.890625 -5.984375 L 8.515625 -5.984375 L 6.3125 0 L -1.015625 0 L 11.046875 -29.890625 Z M 17.578125 -11.953125 L 14.234375 -20.65625 L 14.171875 -20.65625 L 10.828125 -11.953125 Z M 17.578125 -11.953125 "/></g></g></g><g fill="#ffffff" fill-opacity="1"><g transform="translate(250.045497, 174.457247)"><g><path d="M 18.078125 -6.15625 C 19.117188 -6.15625 20.128906 -6.3125 21.109375 -6.625 C 22.085938 -6.945312 22.804688 -7.25 23.265625 -7.53125 L 23.953125 -8 L 26.84375 -2.203125 C 26.75 -2.140625 26.617188 -2.046875 26.453125 -1.921875 C 26.285156 -1.796875 25.890625 -1.570312 25.265625 -1.25 C 24.648438 -0.925781 23.992188 -0.640625 23.296875 -0.390625 C 22.597656 -0.148438 21.679688 0.0625 20.546875 0.25 C 19.410156 0.445312 18.238281 0.546875 17.03125 0.546875 C 14.25 0.546875 11.613281 -0.132812 9.125 -1.5 C 6.644531 -2.863281 4.640625 -4.738281 3.109375 -7.125 C 1.585938 -9.519531 0.828125 -12.109375 0.828125 -14.890625 C 0.828125 -16.992188 1.273438 -19.007812 2.171875 -20.9375 C 3.066406 -22.875 4.253906 -24.53125 5.734375 -25.90625 C 7.222656 -27.28125 8.957031 -28.378906 10.9375 -29.203125 C 12.914062 -30.023438 14.945312 -30.4375 17.03125 -30.4375 C 18.957031 -30.4375 20.738281 -30.207031 22.375 -29.75 C 24.007812 -29.289062 25.160156 -28.832031 25.828125 -28.375 L 26.84375 -27.6875 L 23.953125 -21.890625 C 23.785156 -22.035156 23.53125 -22.207031 23.1875 -22.40625 C 22.851562 -22.613281 22.175781 -22.882812 21.15625 -23.21875 C 20.144531 -23.5625 19.117188 -23.734375 18.078125 -23.734375 C 16.429688 -23.734375 14.957031 -23.46875 13.65625 -22.9375 C 12.351562 -22.40625 11.320312 -21.703125 10.5625 -20.828125 C 9.800781 -19.960938 9.21875 -19.023438 8.8125 -18.015625 C 8.414062 -17.015625 8.21875 -16 8.21875 -14.96875 C 8.21875 -12.695312 9.066406 -10.660156 10.765625 -8.859375 C 12.472656 -7.054688 14.910156 -6.15625 18.078125 -6.15625 Z M 18.078125 -6.15625 "/></g></g></g><g fill="#ffffff" fill-opacity="1"><g transform="translate(279.138079, 174.457247)"><g><path d="M 0.296875 -23.921875 L 0.296875 -29.890625 L 21.3125 -29.890625 L 21.3125 -23.921875 L 14.203125 -23.921875 L 14.203125 0 L 7.390625 0 L 7.390625 -23.921875 Z M 0.296875 -23.921875 "/></g></g></g><g fill="#ffffff" fill-opacity="1"><g transform="translate(106.99337, 219.382252)"><g><path d="M 8.984375 -12 L 8.984375 0 L 2.171875 0 L 2.171875 -29.890625 L 8.984375 -29.890625 L 8.984375 -17.96875 L 18.625 -17.96875 L 18.625 -29.890625 L 25.4375 -29.890625 L 25.4375 0 L 18.625 0 L 18.625 -12 Z M 8.984375 -12 "/></g></g></g><g fill="#ffffff" fill-opacity="1"><g transform="translate(136.412022, 219.382252)"><g><path d="M 17.359375 -29.890625 L 29.421875 0 L 22.109375 0 L 19.890625 -5.984375 L 8.515625 -5.984375 L 6.3125 0 L -1.015625 0 L 11.046875 -29.890625 Z M 17.578125 -11.953125 L 14.234375 -20.65625 L 14.171875 -20.65625 L 10.828125 -11.953125 Z M 17.578125 -11.953125 "/></g></g></g><g fill="#ffffff" fill-opacity="1"><g transform="translate(166.627727, 219.382252)"><g><path d="M 13.1875 -30.4375 C 14.800781 -30.4375 16.378906 -30.203125 17.921875 -29.734375 C 19.472656 -29.265625 20.625 -28.796875 21.375 -28.328125 L 22.46875 -27.609375 L 19.71875 -22.171875 C 19.5 -22.316406 19.191406 -22.503906 18.796875 -22.734375 C 18.410156 -22.960938 17.6875 -23.269531 16.625 -23.65625 C 15.5625 -24.039062 14.570312 -24.234375 13.65625 -24.234375 C 12.519531 -24.234375 11.644531 -23.992188 11.03125 -23.515625 C 10.414062 -23.035156 10.109375 -22.382812 10.109375 -21.5625 C 10.109375 -21.144531 10.253906 -20.757812 10.546875 -20.40625 C 10.835938 -20.0625 11.332031 -19.691406 12.03125 -19.296875 C 12.726562 -18.898438 13.34375 -18.578125 13.875 -18.328125 C 14.40625 -18.085938 15.226562 -17.726562 16.34375 -17.25 C 18.269531 -16.425781 19.914062 -15.304688 21.28125 -13.890625 C 22.644531 -12.484375 23.328125 -10.882812 23.328125 -9.09375 C 23.328125 -7.375 23.019531 -5.875 22.40625 -4.59375 C 21.789062 -3.320312 20.945312 -2.320312 19.875 -1.59375 C 18.800781 -0.863281 17.609375 -0.328125 16.296875 0.015625 C 14.992188 0.367188 13.582031 0.546875 12.0625 0.546875 C 10.757812 0.546875 9.476562 0.410156 8.21875 0.140625 C 6.96875 -0.117188 5.914062 -0.445312 5.0625 -0.84375 C 4.21875 -1.25 3.457031 -1.644531 2.78125 -2.03125 C 2.113281 -2.414062 1.617188 -2.738281 1.296875 -3 L 0.828125 -3.40625 L 4.234375 -9.125 C 4.523438 -8.882812 4.925781 -8.578125 5.4375 -8.203125 C 5.945312 -7.828125 6.847656 -7.328125 8.140625 -6.703125 C 9.429688 -6.078125 10.570312 -5.765625 11.5625 -5.765625 C 14.4375 -5.765625 15.875 -6.742188 15.875 -8.703125 C 15.875 -9.109375 15.769531 -9.484375 15.5625 -9.828125 C 15.351562 -10.179688 14.988281 -10.53125 14.46875 -10.875 C 13.957031 -11.226562 13.5 -11.507812 13.09375 -11.71875 C 12.695312 -11.925781 12.046875 -12.238281 11.140625 -12.65625 C 10.234375 -13.082031 9.5625 -13.40625 9.125 -13.625 C 7.3125 -14.519531 5.910156 -15.632812 4.921875 -16.96875 C 3.929688 -18.3125 3.4375 -19.757812 3.4375 -21.3125 C 3.4375 -23.988281 4.425781 -26.175781 6.40625 -27.875 C 8.394531 -29.582031 10.65625 -30.4375 13.1875 -30.4375 Z M 13.1875 -30.4375 "/></g></g></g><g fill="#ffffff" fill-opacity="1"><g transform="translate(192.785694, 219.382252)"><g/></g></g><g fill="#ffffff" fill-opacity="1"><g transform="translate(204.487936, 219.382252)"><g><path d="M 8.984375 -18.546875 L 8.984375 0 L 2.171875 0 L 2.171875 -29.890625 L 8.984375 -29.890625 L 20.875 -11.34375 L 20.9375 -11.34375 L 20.9375 -29.890625 L 27.75 -29.890625 L 27.75 0 L 20.9375 0 L 9.0625 -18.546875 Z M 8.984375 -18.546875 "/></g></g></g><g fill="#ffffff" fill-opacity="1"><g transform="translate(236.225292, 219.382252)"><g><path d="M 0.828125 -14.96875 C 0.828125 -19.289062 2.300781 -22.945312 5.25 -25.9375 C 8.195312 -28.9375 11.75 -30.4375 15.90625 -30.4375 C 20.082031 -30.4375 23.628906 -28.941406 26.546875 -25.953125 C 29.472656 -22.972656 30.9375 -19.3125 30.9375 -14.96875 C 30.9375 -10.59375 29.5 -6.910156 26.625 -3.921875 C 23.757812 -0.941406 20.1875 0.546875 15.90625 0.546875 C 11.53125 0.546875 7.921875 -0.929688 5.078125 -3.890625 C 2.242188 -6.847656 0.828125 -10.539062 0.828125 -14.96875 Z M 8.1875 -14.96875 C 8.1875 -13.394531 8.425781 -11.960938 8.90625 -10.671875 C 9.394531 -9.378906 10.242188 -8.285156 11.453125 -7.390625 C 12.660156 -6.492188 14.144531 -6.046875 15.90625 -6.046875 C 18.445312 -6.046875 20.363281 -6.914062 21.65625 -8.65625 C 22.945312 -10.394531 23.59375 -12.5 23.59375 -14.96875 C 23.59375 -17.40625 22.929688 -19.5 21.609375 -21.25 C 20.296875 -23 18.394531 -23.875 15.90625 -23.875 C 13.445312 -23.875 11.546875 -23 10.203125 -21.25 C 8.859375 -19.5 8.1875 -17.40625 8.1875 -14.96875 Z M 8.1875 -14.96875 "/></g></g></g><g fill="#ffffff" fill-opacity="1"><g transform="translate(121.432472, 264.307258)"><g><path d="M 8.984375 -29.890625 L 8.984375 0 L 2.171875 0 L 2.171875 -29.890625 Z M 8.984375 -29.890625 "/></g></g></g><g fill="#ffffff" fill-opacity="1"><g transform="translate(134.402766, 264.307258)"><g><path d="M 26.890625 0 L 25.46875 -17.71875 L 25.296875 -17.71875 L 19.171875 -0.1875 L 15.109375 -0.1875 L 8.984375 -17.71875 L 8.8125 -17.71875 L 7.390625 0 L 0.578125 0 L 3.265625 -29.890625 L 10.515625 -29.890625 L 17.140625 -12.640625 L 23.765625 -29.890625 L 31.015625 -29.890625 L 33.703125 0 Z M 26.890625 0 "/></g></g></g><g fill="#ffffff" fill-opacity="1"><g transform="translate(170.487711, 264.307258)"><g><path d="M 17.359375 -29.890625 L 29.421875 0 L 22.109375 0 L 19.890625 -5.984375 L 8.515625 -5.984375 L 6.3125 0 L -1.015625 0 L 11.046875 -29.890625 Z M 17.578125 -11.953125 L 14.234375 -20.65625 L 14.171875 -20.65625 L 10.828125 -11.953125 Z M 17.578125 -11.953125 "/></g></g></g><g fill="#ffffff" fill-opacity="1"><g transform="translate(200.703416, 264.307258)"><g><path d="M 29.203125 -16.734375 L 29.203125 -10.25 C 28.429688 -6.695312 26.738281 -4.007812 24.125 -2.1875 C 21.519531 -0.363281 18.613281 0.546875 15.40625 0.546875 C 11.363281 0.546875 7.921875 -0.960938 5.078125 -3.984375 C 2.242188 -7.003906 0.828125 -10.648438 0.828125 -14.921875 C 0.828125 -19.273438 2.21875 -22.945312 5 -25.9375 C 7.78125 -28.9375 11.25 -30.4375 15.40625 -30.4375 C 20.257812 -30.4375 24.097656 -28.734375 26.921875 -25.328125 L 22.46875 -20.4375 C 20.875 -23 18.648438 -24.28125 15.796875 -24.28125 C 13.691406 -24.28125 11.894531 -23.367188 10.40625 -21.546875 C 8.925781 -19.722656 8.1875 -17.515625 8.1875 -14.921875 C 8.1875 -12.390625 8.925781 -10.222656 10.40625 -8.421875 C 11.894531 -6.617188 13.691406 -5.71875 15.796875 -5.71875 C 17.535156 -5.71875 19.050781 -6.242188 20.34375 -7.296875 C 21.632812 -8.347656 22.28125 -9.742188 22.28125 -11.484375 L 15.40625 -11.484375 L 15.40625 -16.734375 Z M 29.203125 -16.734375 "/></g></g></g><g fill="#ffffff" fill-opacity="1"><g transform="translate(232.549465, 264.307258)"><g><path d="M 19.28125 -29.890625 L 19.28125 -23.921875 L 8.984375 -23.921875 L 8.984375 -17.96875 L 18.84375 -17.96875 L 18.84375 -12 L 8.984375 -12 L 8.984375 -5.984375 L 19.28125 -5.984375 L 19.28125 0 L 2.171875 0 L 2.171875 -29.890625 Z M 19.28125 -29.890625 "/></g></g></g></svg>