<svg viewBox="0 0 1447 1448" xmlns="http://www.w3.org/2000/svg"><g fill="none" stroke-width="2"><path d="m1312.55 1418.5q-17.33-93.66-37.51-186.76c-9.98-46.05-22.85-96.48-39.87-141.55" stroke="#161616"/><path d="m1235.17 1090.19q-6.24-16.65-14.24-32.5-5.64-11.2-6.82-12.96c-4.66-6.96-12.39-12.12-19.78-15.94q-81.94-42.37-163.82-84.44a.3.3 0 0 0 -.41.4q37.13 78.06 74.43 156.23c2.16 4.53 5.85 11.07 1.18 15.87a1.35 1.32 20.5 0 1 -.91.4l-15.76.49" stroke="#202020"/><path d="m1089.04 1117.74q-56.44-2.68-71.29-3.24c-8.09-.31-12.46-2.37-18.84-7.98-10.82-9.53-20.44-18.38-33.6-25.84-14.38-8.14-25.59-2.75-36.27 7.62q-9.04 8.78-18.02 20.78" stroke="#161616"/><path d="m911.02 1109.08q-1.2 2.07-2.91 3.23a.46.46 0 0 1 -.66-.6c7.21-13.39 17.36-28.98 30.13-37.4 24.94-16.45 54.51 14.03 71.01 29.48a6.32 6.29 67.8 0 0 4.05 1.71l85.81 3.97a.29.29 0 0 0 .28-.41l-78.39-165.08a.19.19 0 0 0 -.32-.04l-8.3 10.04a.66.66 0 0 0 -.07.73c23.71 43.73 44.65 89.03 66.15 133.88 2.17 4.53-1.06 6.81-5.33 6.89q-22.42.43-44.84.54c-7.5.04-11.66.93-17.98-4.29-13-10.71-26.22-21.59-41.57-29.04-17.65-8.56-29.86-2.08-45.41 7.24a.1.1 0 0 1 -.12-.16c12.16-11.81 27.48-18.87 44.36-11.83 17.62 7.35 30.27 18.69 47.36 32.33 1.31 1.05 4.17 1.81 5.82 1.79q27.29-.29 54.35-.31a.38.38 0 0 0 .34-.55q-22.94-47.38-45.7-94.69c-6.73-14-12.45-27.19-18.15-41.07a.4.4 0 0 0 -.65-.14c-24.82 23.48-58.08 35.07-89.15 47.47q-.46.19-.59.68c-18.55 73.91-34.44 149.42-44.16 224.48-9.41 72.72-10.17 146.75-4.73 220.07" stroke="#202020"/><path d="m867.71 1448q-5.54-72.37-2.6-136.19c4.74-103.23 25.88-206.02 50.76-306.09a.55.55 0 0 0 -.74-.65l-21.83 8.65q-.5.2-.61.73c-16.33 78.32-30.73 157.12-40.06 236.6-7.65 65.15-9.16 131.46-5.6 196.95" stroke="#202020"/><path d="m838.36 1448c-2.8-57.85-2.06-115.3 3.34-172.98 5.42-57.83 14.65-114.83 24.63-172.01" stroke="#515155"/><path d="m866.33 1103.01q1.08-2.42 1.01-5.18" stroke="#31251f"/><path d="m867.34 1097.83q1.51-4.34 1.33-8.84" stroke="#202020"/><path d="m868.67 1088.99q1.74-3.71 1.27-7.75" stroke="#202020"/><path d="m869.94 1081.24 13.24-62.92a.29.29 0 0 0 -.39-.33q-13.6 5.28-26.85 11.51-1.81.85-2.98 2.52-17.39 24.85-38.55 46.67" stroke="#515155"/><path d="m814.41 1078.69q-24.09 24.13-50.87 45.47-.07.06-.15.03-.03-.02-.06-.04-.15-.07-.03-.19 27.47-29.91 43.69-48.22c34.61-39.06 62.41-83.29 91.53-126.77q1.3-1.94 2.48-5.08c.73-1.94 2.34-6.46 4.76-6.69q.47-.04.75-.43l10.31-14.29a.25.24-14.1 0 1 .42.25l-11.69 23.67" stroke="#5a5a5c"/><path d="m905.55 946.4c-13.35 23.35-25.21 45.61-41.26 69.36q-.38.57.25.31 37-15.03 74.16-29.62c25.74-10.11 61.81-25.65 76.5-51.37 14.66-25.67 3.06-54.53-9.53-78.39q-13.66-25.9-30.25-51.37" stroke="#515155"/><path d="m975.42 805.32q-3.8-12.07-8.12-25.33-8.01-24.55-22.94-45.58-.33-.46-.65.01-23.39 34.39-56.69 59.34a.68.67 62.5 0 0 -.23.76q8.33 23.1 11.19 46.22c5.27 42.59-18.59 74.15-49.08 99.87-23.29 19.63-47.63 38.46-73.59 58.65-20.83 16.21-40.64 34.17-60.66 51.39q-2.69 2.32-7.09.67-.41-.15-.67-.5-43.88-59.5-102.36-131.35-15-18.41-27.83-41.92c-13.77-25.21-17.3-51.38-14.87-79.81q.04-.54-.34-.91-30.94-30.1-55.02-65.92-.4-.6-.68.07-1.13 2.75-1.83 5.76-6.19 26.38-11.49 52.3" stroke="#5a5a5c"/><path d="m492.47 789.04q-18.34 18.74-25.92 27.51c-19.64 22.76-31.9 52.81-25.97 83.2 3.75 19.23 16.59 34.95 33.26 45.96q20.97 13.85 29.16 17.85c30.03 14.67 60.16 29.18 89.77 44.66a.15.15 0 0 0 .19-.22q-26.53-35.83-47.65-75.37" stroke="#515155"/><path d="m545.31 932.63c29.89 37.16 57.42 76.01 88.21 112.44 21.74 25.71 43.73 51.28 64.7 77.63a.22.22 0 0 1 -.33.3l-21.35-19.85" stroke="#5a5a5c"/><path d="m676.54 1103.15q-39.42-37.94-72.96-81.2-1.1-1.41-1.78-1.74-7.42-3.59-25.28-11.25-.54-.23-.36.32 34.96 110.49 47.68 225.71c7.73 70.11 12.11 140.69 14.84 213.01" stroke="#515155"/><path d="m630.04 1448q-3.15-87.44-10.99-174.56c-8.27-91.85-24.98-181.38-53.43-269.16q-.16-.49-.62-.71l-12.94-6.13q-.58-.28-.41.34c20.52 75.37 38.38 151.32 48.42 228.88 9.51 73.4 14.36 147.41 17.39 221.34" stroke="#202020"/><path d="m613.58 1448q-2.02-44.98-4.94-89.94c-4.67-71.98-12.45-143.64-26.21-214.5q-13.88-71.53-35.76-148.41-.13-.49-.59-.71-42.71-20.77-63.4-32.61c-15.67-8.98-30.64-20.79-40.88-35.85q-.56-.82-.97.08l-70.88 156.88q-.4.87.55.85l66.81-1.5a6.09 6.06-65.9 0 0 3.82-1.47c11.55-9.96 22.02-19.31 35.81-28.13 37.87-24.23 57.42 8.73 73.72 36.7q.09.16.05.26-.04.1-.16.19-.29.23-.54-.04l-5.57-6.05" stroke="#202020"/><path d="m544.44 1083.75c-7.48-10.32-15.08-19.71-25.59-27.07-9.81-6.87-18.38-6.07-28.67-1.52-14.42 6.37-28.83 19.07-40.5 29.62-5.09 4.6-9.26 6.7-15.73 6.69q-18.75-.04-38.05.7" stroke="#161616"/><path d="m395.9 1092.17q-11.58-.21-23.82.11-4.39.12-6.49-.97c-3.05-1.58-5.97-5.6-4.32-9.27q37.29-82.88 74.64-165.65a.13.13 0 0 0 -.18-.16q-75.59 42.68-151.1 85.52c-17.04 9.67-27.69 14.95-34.81 30.8q-3.34 7.42-11.49 29.22" stroke="#202020"/><path d="m238.33 1061.77q-14.28 37.78-22.34 70.98-13.54 55.79-28.52 130.39-17.77 88.53-34.88 177.18-.5 2.57-.61 4.19-.06.75.6.38 1.1-.63 1.55-.1" stroke="#161616"/><path d="m154.13 1444.79-2.48 3.21" stroke="#202020"/><path d="m509.22 256.9 4.55.49q.86.09.17-.44l-3.46-2.68" stroke="#75594a"/><path d="m585.18 198.08c-36.17 22.99-64.31 59.53-79.14 99.66" stroke="#75594a"/><path d="m506.04 297.74-5.81 13.98" stroke="#4c3026"/><path d="m500.23 311.72-2.48 6.9" stroke="#674b3d"/><path d="m497.75 318.62q-1.01-.37-.99.6c-10.68 19.41-22.35 40.46-25.23 62.28-2.48 18.77-4.37 40.12-2.66 60.28" stroke="#31251f"/><path d="m468.87 441.78q1.35 66.59.07 125.66-.63 29.07 3 55.77" stroke="#5c3f33"/><path d="m471.94 623.21c5.47 46.47 24.81 88.03 53.31 125.1" stroke="#75594a"/><path d="m525.25 748.31c36.92 48.55 87.39 95.85 149.82 106.62 88.63 15.29 169.99-26.04 233.04-85.16 23.39-21.92 40.59-47.85 51.12-78.25" stroke="#4c3026"/><path d="m959.23 691.52c13.84-40.53 21.99-86.99 27.85-128" stroke="#674b3d"/><path d="m987.08 563.52.31-1.31" stroke="#7c6253"/><path d="m987.39 562.21-.75 19.59" stroke="#4c3026"/><path d="m986.64 581.8-.79 10.18" stroke="#674b3d"/><path d="m985.85 591.98-4.2 30.67q-.06.48.19.89 3.41 5.46 8.39 9.47c20.68 16.67 33.34-14.87 37.61-28.72q10.92-35.42 10.97-72.39c.01-7.42-.95-14.38-2.56-21.39-3.5-15.29-18.2-39.75-37.8-30.29q-5.46 2.64-11.22 5.38" stroke="#7c6253"/><path d="m987.23 485.6q-2.95-.72-2.92-2.41.12-5.08.06-10.66" stroke="#674b3d"/><path d="m984.37 472.53c1.64-21.11-.54-43.16-2.22-64.35" stroke="#4c3026"/><path d="m982.15 408.18c-1.6-26.81-4.02-56.57-17.08-79.74q-7.21-12.8-17.79-29.61" stroke="#31251f"/><path d="m947.28 298.83q-1.26-2.66-1.97-3.89c-9.04-15.59-17.88-32.51-28.95-46.55q-10.65-13.49-22.59-25.89" stroke="#75594a"/><path d="m893.77 222.5c-36.04-37.54-81.11-61.91-134.01-63.49-58.67-1.75-123.95 6.97-174.58 39.07" stroke="#7c6253"/><path d="m893.77 222.5q-.28 3.41.28 7.69 4.54 34.79-4.77 69.07-7.45 27.45-23.26 61.59-.24.5-.69.19-11.38-7.88-24.04-9.21" stroke="#f1bb9d"/><path d="m841.29 351.83c-20.97-3.13-41.38-.4-61.6 5.32-14.25 4.04-29.1 8.67-38.18 21.15q-1.35 1.85-.47-.27l3.01-7.23q.24-.58-.27-.21-11.2 7.96-15.03 20.71" stroke="#7c6253"/><path d="m728.75 391.3q-9.67 7.39-12.64 19.29-4.08 16.32-1.23 32.37" stroke="#e3ad90"/><path d="m714.88 442.96q0 8.83 1.67 17.73" stroke="#d8a186"/><path d="m716.55 460.69q-.61 4.11-.31 6.82 3.23 29.82 9.01 68.56.08.54.63.52c17.6-.57 33.78.92 45.43 14.12 2.79 3.15 5.66 7.63 4.94 11.93q-.08.5-.53.76-1.55.88-3 .47c-11.62-3.31-31.68-8.88-42.93-3.61q-15.56 7.29-23.3 10.49c-16.03 6.61-33.43 3.15-49.83.12-13.27-2.45-23.19-3.35-33.96 6.02q-.52.45-.83-.17-1.83-3.75-2.57-9.04" stroke="#f1bb9d"/><path d="m619.3 567.68c2.77-8.1 9.41-14.47 15.44-20.5" stroke="#7c6253"/><path d="m634.74 547.18q1.09.28 1.97-.26 9.73-5.96 21.78-7.56.52-.07.59-.6c3.68-30.81 6.73-61.63 6-93.06-.54-23.6-5.97-49.27-33.15-55.25" stroke="#f1bb9d"/><path d="m631.93 390.45q-2.15-1.29-3.91-.97" stroke="#d8a186"/><path d="m628.02 389.48q-10.76-6.67-22.9-10.35a.02.02 0 0 0 -.02.04l11.73 7.52a.23.23 0 0 1 -.21.4c-20.89-8.18-41.14-8.29-65.39-9.8q-16.51-1.03-28.12 9.56" stroke="#7c6253"/><path d="m523.11 386.85-.63-.11q-.49-.09-.49-.6 0-.19.03-.38.03-.19.17-.38 11.05-14.47 22.47-28.72a1.65 1.63 66.8 0 0 .35-.89c4.09-52.67 14.14-109.72 40.79-155.87a.85.84-46.7 0 0 -.02-.88l-.6-.94" stroke="#f1bb9d"/><path d="m803.29 380.08-2.12-.33a1.29 1.28 33 0 0 -.87.18c-13.91 8.83-23.47 22.47-30.88 36.56a.49.49 0 0 0 .6.69q10.3-3.62 20.11-3.81" stroke="#c38a70"/><path d="m790.13 413.37q-6.12 2-11.68 4.1c-16.67 6.31-25.71 19.22-30.28 35.91q-.18.65.48.56l3.73-.49" stroke="#a86f59"/><path d="m752.38 453.45q14.54-1.82 28.81-3.81c3.46-.48 7.49-.18 11.33-.53" stroke="#5c3f33"/><path d="m780.73 459.25q.15.69 1 .91.41.1.72.38 1.36 1.18.43 2.26a.92.91 54.5 0 0 -.15.91l.79 2.06" stroke="#c38a70"/><path d="m783.52 465.77-21.43-3.47a.18.18 0 0 0 -.11.34q14.96 6.75 31.11 11.13" stroke="#a86f59"/><path d="m793.09 473.77c-9.17-.32-22.86-5.27-29.26-7.44" stroke="#d8a186"/><path d="m714.88 442.96c.76-19.47.42-32.85 10.51-46.73q.29-.4.75-.6l1.57-.65" stroke="#c38a70"/><path d="m628.02 389.48q10.02 7.83 15.54 19.31.26.54-.33.5l-12.02-.86q-.48-.04-.82-.38l-9.87-10.02a.16.16 0 0 0 -.25.2l5.65 9.56q.41.7-.4.68l-8.27-.27" stroke="#5c3f33"/><path d="m617.25 408.2-29.78-.96" stroke="#674b3d"/><path d="m567.01 400.23q-1-1-1.69-.93-.53.05-.09.35l1.4.95" stroke="#31251f"/><path d="m835.13 377.63q-15.9-.13-31.84 2.45" stroke="#674b3d"/><path d="m803.29 380.08 14.01-10.46q.3-.22-.03-.38-.19-.1-.46.07c-7.24 4.39-15.34 10.24-23.47 12.59q-24.32 7.04-48.83 14.07a.31.31 0 0 1 -.32-.49q5.17-6 10.13-12.18 1.42-1.77-.26-.24c-4.36 3.96-9.26 9.77-14.65 12.4q-6.13 2.98-12.5 5.66-.6.25-.46-.38l1.26-5.76" stroke="#5c3f33"/><path d="m727.71 394.98 1.04-3.68" stroke="#674b3d"/><path d="m947.28 298.83q4.23 14.49 5.72 22.42 5.04 26.89 13.47 79.27" stroke="#a67e69"/><path d="m966.47 400.52q7.71 44.5 13.08 89.14" stroke="#c18970"/><path d="m979.55 489.66-1.04 7.35q-.11.78-.84.51l-.69-.26q-.57-.21-.97.25c-2.7 3.02-4.22 5.45-8.25 7.5q-3.33 1.69-7.66 7.82-1.16 1.63-1.17 2.67c-.18 22.32-2.44 44.42-8.45 66.24q-36.47 132.42-142.18 217.26c-28.93 23.22-67.14 35.4-104.07 37.23q-10.41.52-28.3.05" stroke="#dca487"/><path d="m675.93 836.28c-15.46-1.47-36.39-5.48-49.37-14.49q-31.76-22.03-63.49-44.11-19.48-13.54-37.82-29.37" stroke="#c18970"/><path d="m471.94 623.21c.2-6.9-.46-14.94-.49-20.62q-.35-64.35 10.37-127.83c3.04-17.98 6.51-33.11 12.99-48.91" stroke="#d1987d"/><path d="m494.81 425.85c18.95-7.49 38.11-14.37 58.44-17.09q5-.66 21.5-2.07.71-.06.12-.47l-8.24-5.62" stroke="#75594a"/><path d="m566.63 400.6q.23-.44.38-.37" stroke="#a67e69"/><path d="m567.01 400.23c3.96 2.03 10.22 6.4 14.56 6.65q3.34.19 5.9.36" stroke="#75594a"/><path d="m587.47 407.24q12.72 10.42 23.09 21.6" stroke="#dca487"/><path d="m610.56 428.84 8.66 9.74q.79.89-.33.48c-7.95-2.93-20.38-7.17-27.37-3.88" stroke="#d1987d"/><path d="m591.52 435.18c-32.18-2.97-59.83 15.92-77.13 41.71q-1.05 1.57.6.65l26.4-14.63q.89-.49.24.29-12.37 15.02-27.82 26.84-.53.41.12.54 7.98 1.57 15.6-1.95" stroke="#c18970"/><path d="m529.53 488.63 2.4.51q.49.1.94-.1 10.34-4.46 18.85-11.84.71-.04.64-2.03" stroke="#dca487"/><path d="m552.36 475.17q5.11.05 8.34-1.82" stroke="#c18970"/><path d="m560.7 473.35 5.24-.51q.49-.05.92.17c.88.46 1.41.79 2.47.66q17.23-2.03 34.47-3.88c7.56-.81 13.98.59 21.22 2.48" stroke="#75594a"/><path d="m625.02 472.27-33.38 14.08" stroke="#d1987d"/><path d="m591.64 486.35q-20.23 7.77-41.98 8.79a.11.11 0 0 0 -.02.22q12.35 2.66 24.18.66" stroke="#dca487"/><path d="m573.82 496.02c15.29-2.31 28.85-6.26 43.26-11.95" stroke="#c18970"/><path d="m617.08 484.07q9.7-2.49 19.22-7.07a.67.66 72.8 0 1 .94.5l3.86 24.44q.09.62.5.14l19.14-22.68q.4-.47.48-1.08 3.19-23.11-1.25-48.81c-2.53-14.66-8.77-25.58-20.72-33.76q-3.7-2.53-7.32-5.3" stroke="#d1987d"/><path d="m634.74 547.18.78-.88" stroke="#75594a"/><path d="m635.52 546.3.73-.64q.42-.37.44-.93l.54-14.44q.03-.92-.58-.24l-38.76 43.39" stroke="#d1987d"/><path d="m597.89 573.44c-14.51 17.12-27.69 34.95-50.65 41.3q-4.97 1.38-17.36 3.72-.69.13-.22.65c8.49 9.41 19.59 10.41 31.52 11.19a1.49 1.49 0 0 1 1.38 1.28q.8 5.5 2.22 11.41.09.39.34.46.33.11.24-.23c-1.34-5.03 5.41-15.7 8.71-19.42q10.33-11.65 21.51-22.73" stroke="#dca487"/><path d="m595.58 601.07q10.61-10.15 20.29-22.27" stroke="#d1987d"/><path d="m615.87 578.8q.94 15.38 14.61 22.11" stroke="#75594a"/><path d="m630.48 600.91q5.82 5.02 14.28 3.32 9.26-1.86 18.53-3.68c16.07-3.17 27.53 9.43 43.8-.44q8.78-5.32 17.47-10.75c9.72-6.06 15.62.49 25.49 1.41 10.09.94 27.1-2 30.98-13.25q1.55-4.46 4.26-6.96.39-.35.8-.03c20.97 16.65 38.82 31.51 55.38 48.29 1.08 1.09 1.41 2.31 2.48 3.36 6.61 6.47 12.64 14.52 18.43 21.78a.15.15 0 0 0 .26-.13c-4.82-18.98-11.19-35.9-23.03-51.72-23.33-31.15-53.46-54.97-86.78-74.52q-.79-.47-.64.44l2.66 15.78q.08.49.5.78l8.46 5.76" stroke="#d1987d"/><path d="m763.81 540.35q7.42 7.63 11.9 14.2c4.36 6.38 6.2 16.82 1.69 23.92" stroke="#75594a"/><path d="m777.4 578.47q-2.8 1.11-5.36 2.32c-2.6 1.22-4.51.76-6.24-1.34-4.7-5.71-9.44-11.66-17.06-13.19q-13.19-2.64-24.1 3.98c-12.41 7.53-19.92 23.24-37.33 17.97-16.29-4.93-30.2-14.88-48.01-9.89q-14.81 4.15-21.5 5.2" stroke="#d1987d"/><path d="m617.8 583.52q-1.2-8.71 1.5-15.84" stroke="#75594a"/><path d="m716.55 460.69 1.27 6.9a1.35 1.3-78.8 0 0 .56.87l22.18 15.05q.48.33.57-.25l3.34-23.82q.07-.48.53-.31l18.83 7.2" stroke="#d1987d"/><path d="m763.83 466.33q-6.49-.96-12.18-3.41a.5.5 0 0 0 -.69.57l8.61 38a1.61 1.56 13.9 0 0 .55.88q35.61 28.6 69.48 59.26.38.34.88.37.63.05.98.25 19.2 11.2 42.46 21.09c14.91 6.34 38.5 12.1 49.57-3.81q2.9-4.17 4.96-13.16c8.48-36.91 7.95-74.3 1.38-111.49a.48.47 74.8 0 0 -.63-.37c-31.75 11.79-67.5 24.91-101.19 25.01-2.31.01-4.47-.53-6.75-.97-2.23-.43-4.69.35-7.17-1.06q-.42-.24-.91-.23-8.47.06-16.8-2.56" stroke="#f1bb9d"/><path d="m796.38 474.7 15.84 1.41" stroke="#c18970"/><path d="m812.22 476.11c16.63 1.6 31.49-2.85 46.18-10.32a.23.23 0 0 0 -.14-.44c-26.58 4.44-49.9.34-77.53-6.1" stroke="#dca487"/><path d="m780.73 459.25-9.82-2.28q-.94-.22-.03-.53l21.64-7.33" stroke="#d1987d"/><path d="m792.52 449.11q14.69-.56 30.05-1.1 3.16-.11 8.61-1.56 2.12-.56 8.91-1.41" stroke="#75594a"/><path d="m840.09 445.04c19.71 8.14 38.05 12.13 59.3 8.35q.95-.17.06-.54-32.11-13.39-63.65-28.1a.1.09 63.7 0 1 .06-.18q27.2 6.73 53.39 16.7a.07.07 0 0 0 .08-.12q-25.86-22.6-60.05-27.23-8.78-1.19-17.08-2.51" stroke="#c18970"/><path d="m812.2 411.41q-11.88-2.19-24.08-1.88-.83.02-.32-.64c12.25-16.14 26.83-26.99 47.33-31.26" stroke="#dca487"/><path d="m835.13 377.63c17.46-.27 35.79 2.62 53.15 4.76q.87.11.24-.5c-13.23-12.73-28.99-24.9-47.23-30.06" stroke="#75594a"/><path d="m523.11 386.85-9.84 9.98" stroke="#75594a"/><path d="m513.27 396.83q-1.22-.07-1.47-1.39c-4.94-26.55-9-53.26-10.87-80.23-.11-1.6.18-2.98.42-4.56" stroke="#dca487"/><path d="m501.35 310.65q2.78-5.88 5.38-11.94.27-.63-.69-.97" stroke="#c18970"/><path d="m617.08 484.07-26.38 6.99" stroke="#a86f59"/><path d="m590.7 491.06q1.47-2.2.94-4.71" stroke="#c38a70"/><path d="m625.02 472.27q4.62.64 11.24 1.93 1.58.3 3.21-.22a.53.52 65.5 0 0 .29-.78l-1.87-2.98" stroke="#5c3f33"/><path d="m637.89 470.22q-8.2-11.99-22.98-18.6-12.56-5.6-25.56-9.75a.24.23 56.5 0 1 .09-.46l22.11 2.31" stroke="#a86f59"/><path d="m611.55 443.72 4.78 1.47" stroke="#5c3f33"/><path d="m616.33 445.19 8.2 2.96q.81.29.11-.22-14.63-10.66-33.12-12.75" stroke="#a86f59"/><path d="m610.56 428.84 1.87-9.37q.1-.49.45-.83c1.24-1.24 1.23-3.15 1.74-4.27q1.22-2.73 2.93-5.26.06-.09-.05-.1l-.31-.04a.1.1 0 0 1 0-.2l.49-.07a.04.04 0 0 0 .01-.07q-.39-.17-.44-.43" stroke="#c38a70"/><path d="m812.2 411.41-22.07 1.96" stroke="#b37b63"/><path d="m812.22 476.11 18.64-2.1a.37.36 46.1 0 0 .01-.72l-47.35-7.52" stroke="#b37b63"/><path d="m840.09 445.04 10.21-2.49a1.34 1.32 51.8 0 1 .94.12c12.62 6.76 23.28 10.5 38.04 9.43q2.29-.17.12-.92c-19.91-6.95-39.17-16.59-59.7-22.52-.62-.18-1-.79-1.68-.92-17.8-3.38-38.99-2.59-54.46 7.05q-10.87 6.77-21.18 18.66" stroke="#4c3026"/><path d="m793.09 473.77 3.29.93" stroke="#c89279"/><path d="m513.27 396.83q-9.31 11.69-17.24 25.9" stroke="#674b3d"/><path d="m496.03 422.73q-1.45-7.25-4.03-13.16c-.92-2.09-1.06-4.5-1.87-6.74-1.8-5.04-3.17-10.31-5.33-15.2-1.1-2.5-.72-5.06-1.92-7.32q-1.77-3.35-3.96-6.87" stroke="#c38a70"/><path d="m478.92 373.44q7.25-27.82 18.83-54.82" stroke="#98705c"/><path d="m496.03 422.73q-1.17 1.52-1.22 3.12" stroke="#5c3f33"/><path d="m616.33 445.19c-33.14-19.3-68.14-2.66-92.69 21.47q-.21.2-.05.31a.3.3 0 0 0 .38-.01q13.11-10.6 21.34-16.13c18.8-12.62 44.87-16.77 66.24-7.11" stroke="#4c3026"/><path d="m637.89 470.22c-20.03-18.73-53.85-30.76-78.36-14.7q-14.4 9.44-28.05 23.97-2.42 2.57-9.32 6.94-.71.44.12.5c9.07.59 18.33-8.69 24.5-14.33q.37-.33.87-.3l13.05 1.05" stroke="#4c3026"/><path d="m552.36 475.17q-.72.64-1.56 1.19-10.36 6.79-21.27 12.27" stroke="#b37b63"/><path d="m987.23 485.6q.5 27.22.11 55.21-.15 10.91-1.23 21.76-.05.51.39.79.3.18.58.16" stroke="#e3ad90"/><path d="m959.23 691.52q-.93.21-1.16.55c-39.7 56.56-89.61 102.5-152.67 131.9a.21.2 6.4 0 1 -.25-.31l21.56-26.92a.2.2 0 0 0 -.27-.29c-26.3 18.94-55.02 36.82-86.93 41.51q-30.92 4.55-63.58-1.68" stroke="#b37b63"/><path d="m635.52 546.3q-.27-.06-.51-.06-.22.01-.44.19-5.7 4.66-9.82 9.33-8.78 9.96-8.88 23.04" stroke="#5c3f33"/><path d="m595.58 601.07q-.88.2-1.25.71a.76.76 0 0 1 -1.36-.59q1.94-10.12 4.82-19.94.65-2.22-.59-5.98-.15-.48.31-.68.81-.35.38-1.15" stroke="#c38a70"/><path d="m982.15 408.18c-3.95-1.34-5.65-5.1-9.52-5.75a1.33 1.27-13 0 1 -.79-.47q-2.06-2.59-5.37-1.44" stroke="#7d5545"/><path d="m630.48 600.91q8.47 2.53 16.73-.11.05-.02.05-.08-.02-.14-.14-.21-.09-.05-.26-.02-22.46 3.81-29.06-16.97" stroke="#5c3f33"/><path d="m777.4 578.47q-5.45 6.67-15.25 7.65-.31.04-.56.18-.38.22.05.2 4.4-.18 8.62-1.5c14.23-4.47 13.27-22.14 5.82-32.08q-6.25-8.34-12.27-12.57" stroke="#5c3f33"/><path d="m984.37 472.53-3.51 20.09a.56.56 0 0 1 -.78.42q-.99-.43-.53-3.38" stroke="#b37b63"/><path d="m573.82 496.02 16.88-4.96" stroke="#b37b63"/><path d="m501.35 310.65q-.55.78-1.12 1.07" stroke="#b37b63"/><path d="m478.92 373.44c-5.48 22.96-7.54 45.21-10.05 68.34" stroke="#8d6452"/><path d="m985.85 591.98q6.59 6.89 13.61 4.25 10.36-3.9 11.12-15.74.68-10.69 3.58-20.94c2.11-7.45 2.89-12.68-1.84-18.35-5.55-6.65-13.69-6.75-21.73-5.78a.89.88 9.3 0 0 -.69.49l-.16.34" stroke="#e3ad90"/><path d="m989.74 536.25q-.18-.03-.31.01-.24.08-.26.33l-1.78 25.62" stroke="#c89279"/><path d="m986.64 581.8c14.14-3.72.72-16.38 5.87-22.52 2.33-2.78 8.31-3.94 6.96-9.27q-2.16-8.56-9.73-13.76" stroke="#b37b63"/><path d="m464.47 605.67-.46-6.52" stroke="#75594a"/><path d="m464.01 599.15-.43-62.45" stroke="#5c3f33"/><path d="m463.58 536.7-.42-59.55q0-.52-.52-.6c-7.4-1.08-13.07 1.55-17.89 6.95q-3 3.35-4.06 5.78c-19.31 44.23-4.58 98.67 14.15 140.08 3.2 7.08 8.5 17.01 15.68 20.69q.58.3.43-.34-4.89-21.71-6.48-44.04" stroke="#7c6253"/><path d="m463.58 536.7q-10.66 12.25-14.08 25.67" stroke="#d8a186"/><path d="m449.5 562.37q-1.88 13 2.42 23.76c2.6 6.52 8.72 13.03 12.55 19.54" stroke="#f1bb9d"/><path d="m464.01 599.15-6.47-10.41a1.14 1.14 0 0 1 -.13-.94c2.03-6.57 6.26-18.05-1.13-20.83q-3.95-1.49-6.78-4.6" stroke="#d1987d"/><path d="m587.44 835.35q-.45 19.01-3.63 36.31-.09.48.15.92 12.78 23.72 26.77 40.94 44.89 55.26 70.22 88.49" stroke="#75594a"/><path d="m680.95 1002.01 29.27 40.05q.33.44.74.08 54.69-47.99 112.36-92.35" stroke="#7c6253"/><path d="m823.32 949.79 21.87-17.58" stroke="#75594a"/><path d="m845.19 932.21q12.03-10.73 22.03-21.69.35-.38.26-.89c-5.84-31.15-7.46-63.13-8.38-94.7a.46.46 0 0 0 -.71-.37c-27.52 18.28-57.84 32.88-89.93 41.16-60.66 15.67-131.13 4.78-179.92-35.76q-1.4-1.16-1.37.66l.27 14.73" stroke="#674b3d"/><path d="m845.19 932.21-2.77-82.09a.46.45 71.7 0 0 -.71-.36c-26.57 18.4-56.23 35.89-87.18 45.56-52.52 16.4-108.16-13.7-147.98-44.89q-9.18-7.2-19.11-15.08" stroke="#dca487"/><path d="m823.32 949.79c-.32-.95-.67-1.49-.67-2.51q.11-35.12.51-70.12a.61.6-18 0 0 -.97-.49q-18.37 13.8-39.28 24.12-35.62 17.59-74.89 9.95c-33.61-6.55-66.63-18.87-98.15-32a.22.22 0 0 0 -.27.32c25.07 39.46 49.47 79.4 71.28 120.8q.23.42.18.9l-.11 1.25" stroke="#f1bb9d"/><path d="m504.01 574.57c17.15 18.87 40.06 19.82 61.03 6.7 22.39-14 42.73-33.97 60.38-53.51q.36-.39.38-.92l1.97-43.15q.03-.64-.58-.44c-2.46.78-4.36 2.55-6.16 3.73-24.87 16.23-49.86 19.84-79.39 18.71-1.74-.07-7.15-.79-8.85-.13-18.66 7.21-36.13 17.54-36.86 39.87-.26 8.09 2.35 18.48 5.87 25.85q.87 1.81 2.21 3.29" stroke="#f1bb9d"/><path d="m607.6 671.02-2.2 1.14" stroke="#b57367"/><path d="m605.4 672.16c-9.94-4.57-19.08-10.3-28.68-15.55a.31.3-88.1 0 0 -.42.4c1.82 4.02 4.4 7.84 4.7 12.34.19 2.89-.97 6.47-1.43 9.5a3.8 3.8 0 0 0 3.4 4.37l22.44 2.18" stroke="#d1987d"/><path d="m605.41 685.4c-22.38 16.33-52.02 36.22-39.19 68.17 10.45 26.02 33.67 47.57 56.37 63.13q.43.3.83-.05l.55-.47q.36-.31.82-.18 28.11 7.76 57.26 6.82c38.96-1.25 83.47-9.03 114.29-35.23 17.23-14.65 31.23-36.49 35.7-58.58 1.86-9.15 1.04-21.92-5.2-29.42-7.38-8.87-23.07-13.5-34.27-15.98" stroke="#f1bb9d"/><path d="m792.57 683.61 5.28-4.25" stroke="#de9b8d"/><path d="m797.85 679.36 10.25-5.97" stroke="#c18970"/><path d="m808.1 673.39c8.01-1.05 13.72-1.45 17.68-8.63q3.46-6.28 7.44-13.16a.91.91 0 0 0 -.94-1.35c-8.92 1.46-16.77 7.98-26.44 7.45" stroke="#dca487"/><path d="m805.84 657.7q7.79-13.25 8.54-28.2.59-11.85-.69-18.2c-2.13-10.55-13-20.14-21.3-26.12q-.46-.33-.84.08c-8.54 9.23-14.71 13-27.5 12.58-9.54-.32-21.65-.89-30.25 2.71q-6.79 2.85-24.59 12.44c-6.08 3.28-12.52 2.43-19.69.29-8.98-2.68-18.02-5.62-27.27-5.54q-6.8.06-25.75 1.03c-10.85.55-19.9-3.95-21.2-15.61a.39.39 0 0 0 -.69-.2q-10.7 12.74-17.88 27.92c-4.49 9.49-5.11 18.81-1.17 28.87q4.39 11.23 12.04 21.27" stroke="#f1bb9d"/><path d="m805.84 657.7-4.72.44" stroke="#e3ad90"/><path d="m801.12 658.14-3.49-2.32" stroke="#bb7c70"/><path d="m797.63 655.82-11.79-6.9" stroke="#c89279"/><path d="m785.84 648.92q-22.05-11.06-46.34-14.69c-14.41-2.16-25.37-1.56-38.4 4.7q-.46.22-.97.15c-12.07-1.75-26.59-2.98-38.42.56" stroke="#e4a496"/><path d="m661.71 639.64q-8.05 1.85-14.92 5.83" stroke="#c89279"/><path d="m646.79 645.47c-13.8 6.29-26.89 17.02-39.19 25.55" stroke="#bb7c70"/><path d="m801.12 658.14q8.02 4.58 16.9 6.99.72.19.11.62l-4.77 3.4" stroke="#a7645a"/><path d="m813.36 669.15q-6.84 2.94-11.03-.17c-6.96-5.16-11.69-8.57-18.83-9.17-13.48-1.14-26.78-1.8-40.29-.76q-2.41.18-18.35 2.44-11.79 1.67-26.8 2.6-36.74 2.28-79.55 9.94-7.95 1.42-19.09 1.31" stroke="#401a1d"/><path d="m599.42 675.34 5.98-3.18" stroke="#9c5950"/><path d="m785.84 648.92q-10.92-2.1-21.15-4.36c-18.08-4-40.16-.45-60.31 4.18-1.71.39-3.01.26-4.58-.25q-18.38-5.87-38.09-8.85" stroke="#b57269"/><path d="m808.1 673.39q.35-.11.05-1" stroke="#b37b63"/><path d="m808.15 672.39 5.21-3.24" stroke="#674b3d"/><path d="m797.63 655.82q-.74.35-1.38.14c-31-10.22-62.47-5.72-93.79-.13-5.41.96-9.75.32-14.97-.47q-13.96-2.13-27.93-.93c-8.88.76-18.69 3.29-27.83 5.65q-.95.25-.23-.41l15.29-14.2" stroke="#8c4a43"/><path d="m808.15 672.39q-12.15 6.57-25.42 8.21" stroke="#4c3026"/><path d="m782.73 680.6c-35.23 3.56-70.6 9.93-105.29 7.2q-21.55-1.69-43.07-3.8-3.71-.36-11.26-.38-12.18-.03-23.89-3.62" stroke="#401a1d"/><path d="m599.42 675.34-10.74-.13q-1.35-.01-.1.49l10.64 4.3" stroke="#5c3f33"/><path d="m599.22 680 7.41 5.31" stroke="#9c5950"/><path d="m606.63 685.31q-2.81.74-1.22.09" stroke="#d8a186"/><path d="m797.85 679.36c-46.04 14.16-99.77 18.11-148.08 11.18a.42.42 0 0 0 -.32.74c15.23 12.14 31.17 21.31 51.04 22.94q10.4.85 25.71.18" stroke="#b57269"/><path d="m726.2 714.4c-33 7.89-61.92 5.49-91.29-11.88" stroke="#c89279"/><path d="m634.91 702.52-15.66-13.62q-.56-.48.18-.5c22.65-.64 47.43 1.77 64.64 2.27 27.35.81 54.32-1.7 81.26-6.12q8.77-1.44 17.4-3.95" stroke="#8c4a43"/><path d="m634.91 702.52-28.28-17.21" stroke="#bb7c70"/><path d="m792.57 683.61q-17.9 11.71-38.28 21.16-13.81 6.41-28.09 9.63" stroke="#e4a496"/><path d="m798.25 416.1c26.58-1.82 50.19 5.04 74.09 16.89q7.97 3.96.37-.67-27.79-16.94-63.14-17.99c-18.55-.55-34.35 4.09-47.76 16.82q-1.14 1.09.15.18c11.09-7.82 22.26-14.27 36.29-15.23" stroke="#4c3026"/><g stroke="#777"><path d="m784.5 447.32c-1.96-5.05-1.39-8.11-1.28-13.5a.5.5 0 0 0 -.74-.44q-11.48 6.47-20.2 16.36-.32.38.17.32l21.76-2.27a.35.35 0 0 0 .29-.47"/><path d="m846.4 440.09-14.82-6.94q-.97-.45-.76.6 1.03 5.27-.32 10.44-.17.64.48.53 7.88-1.24 15.39-3.96a.36.36 0 0 0 .03-.67"/><path d="m628.72 467.51q.19.06.46-.07a.22.22 0 0 0 .02-.38q-10.43-6.41-21.79-10.94-.76-.3-.45.45 1.93 4.83 1.43 10.05-.06.61.56.61 9.59.04 19.13.08.02 0 .64.2"/><path d="m551.81 469.01q6.63 2.77 13.86 1.84a.45.45 0 0 0 .37-.59q-1.99-5.74-.74-11.69a.39.38-12.8 0 0 -.61-.38l-13 9.91a.53.53 0 0 0 .12.91"/></g><path d="m447.14 496.46q-7.68 5.6-9.64 13.79-6.82 28.52 1.59 59.15" stroke="#d8a186"/><path d="m439.09 569.4q4.35 14.92 11.36 29.29a.13.13 0 0 0 .25-.07q-.51-5.09-1.56-10.1c-1.65-7.9-6.07-16.81-7.42-24.01-2.95-15.87 6.27-31.08 14.22-44.45a1.44 1.4 59.3 0 0 .2-.83l-1.65-25.21q-.04-.59-.63-.54-4.01.3-6.72 2.98" stroke="#f1bb9d"/><path d="m439.09 569.4q-2-12.09-1.35-23.7 1.04-18.38 6.9-35.76 2.39-7.08 9.05-8.12.59-.09.32-.62l-2.91-5.6a.71.71 0 0 0 -.88-.34l-3.08 1.2" stroke="#d1987d"/><path d="m1005.23 503.57q-6.21 6.42-10.63 15.56" stroke="#c89279"/><path d="m994.6 519.13-2.78 4.65a.25.25 0 0 0 .41.28q3.39-4.38 8.48-3.96c11.62.95 19.66 20.2 21.47 29.21 2.35 11.72 4.56 42.54-3.66 53.16-5.02 6.48-14.53-1.91-19.65 8.75q-.18.38.24.45c28.09 5.03 28.68-29.96 30.14-48.92q.95-12.36.67-18.02" stroke="#e3ad90"/><path d="m1029.92 544.73q2.01-16.16 1.34-32.16" stroke="#c89279"/><path d="m1031.26 512.57c1.23-17.36-16.65-23.58-26.03-9" stroke="#e3ad90"/><path d="m1031.26 512.57c-1.14-3.68-1.96-8.37-3.89-11.22-5.8-8.53-15.12-2.66-22.14 2.22" stroke="#b37b63"/><path d="m1029.92 544.73-3.26 22.38q-.02.14-.16.14-.13 0-.27 0a.28.28 0 0 1 -.28-.3q1.09-18.48 2.18-36.95.51-8.62-.92-15.73c-1.71-8.44-12.11-8.1-18.04-4.25q-6.95 4.51-14.57 9.11" stroke="#b37b63"/><path d="m663.49 588.71-.67.95q-.45.62.08 1.17c7.12 7.45 26.27 7.84 35.36 6.14 10-1.87 16.35-8.13 23.42-15.93q.36-.39.89-.34c6.67.66 22.4.5 27.97-3.67a1.19 1.18 35.2 0 0 -.36-2.08q-14.36-4.47-26.66 2.56c-6.06 3.47-12.89 12.03-19.19 15.37-9.94 5.26-18.99 2.86-28.37-2.2-5.61-3.03-12.23-7.42-17.6-8.6-5.52-1.21-14.28-.89-16.49 5.69a.98.98 0 0 0 .2.98c3.93 4.41 16.48.82 21.21-.35a.2.2 0 0 1 .21.31" stroke="#5c3f33"/><path d="m625.39 677.31-1.45 2.92q-.27.56.33.72l2.98.81" stroke="#401a1d"/><path d="m627.25 681.76q27.77 3.14 55.77 4.97c28.81 1.88 57.47-2.75 85.98-6.22q15.38-1.87 20.07-2.47a.83.82 87.9 0 0 .71-.77l.88-14.24q.03-.44-.4-.48-19.34-1.83-38.76-2.06c-14.33-.18-31.37 4.56-43.25 5.28-27.53 1.67-54.72 2.93-81.56 9.91q-.92.24-1.3 1.63" stroke="#777"/><path d="m627.25 681.76q-.42-2.57-1.86-4.45" stroke="#b79194"/><path d="m975.42 805.32q-6.6 19.96-12.01 31.85-17.94 39.39-43.7 85.59-6.66 11.94-14.16 23.64" stroke="#ababb1"/><path d="m814.41 1078.69c11.43 29.72 15.36 59.97 14.06 90.5-1.28 30.22-4.74 75.62-6.62 113.49q-4.13 83.11 8.62 165.32" stroke="#ababb1"/><path d="m759.47 1448q-1.34-.92-1.56-2.03-.09-.45-.47-.7c-18.13-12.38-33.6-28.7-41.49-49.5q-6.61-17.41-9.27-35.85-6.49-44.98-14.61-89.68c-6.53-35.96-17.14-68.54-30.8-102.98q-19.18-48.37-41.29-95.54a.26.26 0 0 1 .38-.32l69.07 50.44a.33.32 88.2 0 0 .44-.47l-13.56-16.51q-.29-.35-.13-.78l.36-.93" stroke="#ababb1"/><path d="m545.31 932.63q.2-2.44-1.55-5.39-7.23-12.13-16.06-28.25-28.12-51.29-35.23-109.95" stroke="#ababb1"/><path d="m395.9 1092.17 55.53 9.76a.94.94 0 0 0 .85-.28c16.11-16.62 35.43-37.85 60.97-32.17q14.17 3.15 31.19 14.27" stroke="#363636"/><path d="m393.47 1448q-2.76-40.24 1.42-80.34a.19.18 24.6 0 1 .31-.11l64.77 56.96a.14.14 0 0 0 .22-.18l-76.05-124.99a7.35 7.18-66.8 0 1 -.91-2.35q-7.99-40.29-16.03-80.42-.96-4.81-.93-9.72c.24-37.53.93-69.51-8.37-102.07-1.88-6.6-4.31-13.85-9.02-18.96q-.38-.41-.92-.38c-2.55.1-3.21 4.8-3.37 6.32-1.71 16.65-.68 33.07.82 56.3q1.54 23.95 3.4 47.66a.29.29 0 0 1 -.56.11c-9.92-29.23-21.21-57.25-37.44-83.64q-12.82-20.85-26.77-40.89a.09.09 0 0 0 -.16.09q20.4 55.84 34.71 113.65c8.33 33.64 14.6 68.56 15.82 103.02q1.65 46.66-4.17 94.19-4.89 39.97-9.62 65.75" stroke="#363636"/><path d="m154.13 1444.79q44.5-60.2 94.12-116.41.4-.46-.19-.33-17.3 3.7-30.38 9.63c-17.72 8.02-32.21 22.46-45 36.78a.21.2-19 0 1 -.36-.17c8.78-44.81 24.52-77.92 46.36-127.82 6.49-14.84 12.6-31.47 13.96-47.69q.55-6.52-.43-19.42c-1.05-13.92-2.11-27.62-.89-41.55 1.99-22.73 7.17-46.74 11.95-69.96a.96.96 0 0 0 -.23-.86l-4.71-5.22" stroke="#363636"/><path d="m502.28 1032.56c18.17-1.28 30 14.09 40.89 23.24a.1.1 0 0 0 .14-.14c-9.21-12.43-22.37-27.14-39.04-27.27-12.58-.09-27.5 9.01-37.51 16.66q-17.82 13.61-30.14 23.55a1.78 1.77-64.5 0 1 -1.12.4h-43.99q-.6 0-.36-.54c19.71-43.44 40.22-86.7 58.13-130.91a.74.74 0 0 0 -1.28-.73c-4.75 6.19-8.28 15.2-11.52 22.32q-24.48 53.77-48.69 107.66c-1.48 3.3 2.79 5.75 5.28 5.86q13.99.6 37.88.31c3.77-.05 7.92-.61 10.5-2.77 14.72-12.32 29.93-25.24 47.19-33.86q6.57-3.28 13.64-3.78" stroke="#202020"/><path d="m911.02 1109.08q1.01.31 2.69-.6 12.38-6.73 27.06-10.74c16.87-4.61 30.47-3.76 43.36 8.15q9.82 9.08 17.92 19.73.31.4.82.37 36.04-2.19 71.81-5.72 7.27-.72 14.36-2.53" stroke="#363636"/><path d="m1235.17 1090.19q-.9 3.24-.69 4.31c6.37 33.47 7.38 64.78.17 98.23q-3.81 17.63-8.22 35.12-2.94 11.64-3.69 16.93-3.72 26.11 10.36 48.2.3.46.63.02c3.08-4.18 38.03-53.22 43.69-37.48q2.13 5.93 1.68 14.22-1.65 29.99-2.56 60.01-.87 28.3 2.96 49.75 6.33 35.45 28.94 68.5" stroke="#363636"/><path d="m1152.37 1448q-8.41-24.97-12.16-51.1" stroke="#363636"/><path d="m1140.21 1396.9-.18-7.83" stroke="#202020"/><path d="m1140.03 1389.07c-.14-20.13-.91-40.49.17-60.56 4.1-75.88 20.01-150.14 34.86-224.41q.63-3.12-1.25-.56-.06.09-.6 1.74c-1.67 5.07-3.95 10.33-5.47 15.02q-17.82 55.17-36.71 109.98c-20.14 58.4-38.92 109.75-68.94 160.31a.11.11 0 0 0 .17.14l40.05-36.47q.74-.67.52.31-2.47 10.86-4.97 21.7-8.2 35.5-11.41 71.73" stroke="#363636"/><path d="m869.94 1081.24-1.27 7.75" stroke="#717175"/><path d="m868.67 1088.99-1.56 8.28" stroke="#717175"/><path d="m867.11 1097.27-.78 5.74" stroke="#827674"/><path d="m359.55 1448q3.66-47.29 3.69-94.73c.01-2.49-.63-5.23-.75-7.84a1.11 1.11 0 0 0 -1.39-1.02c-1.89.5-3.35-.53-5.15-.74-3.73-.44-5.08-1.7-8.43-2.81q-.5-.17-.87-.53-1.37-1.35-3.29-1.77-.49-.11-.52.39-2.83 54.62-7.67 109.05" stroke="#161616"/><path d="m867.34 1097.83q-.13-.57-.23-.56" stroke="#51453f"/><path d="m1140.03 1389.07q-1.24-3.53-1.44-10.51-.39-13.3-.17-26.61.01-.41-.3-.69-.53-.47-.38-1.2a.42.41 76.2 0 0 -.67-.41c-1.23 1.02-1.89 2.08-3.34 2.78-6.28 3.08-14.28 7.09-21.05 8.5a1.69 1.68-2.9 0 0 -1.34 1.47q-4.82 43.23-5.59 85.6" stroke="#161616"/><path d="m1140.21 1396.9 2.63 51.1" stroke="#161616"/></g><path d="m1325.35 1448h-5.69q-4.45-18.82-6.68-29.25-.06-.3-.43-.25-17.33-93.66-37.51-186.76c-9.98-46.05-22.85-96.48-39.87-141.55q-6.24-16.65-14.24-32.5-5.64-11.2-6.82-12.96c-4.66-6.96-12.39-12.12-19.78-15.94q-81.94-42.37-163.82-84.44a.3.3 0 0 0 -.41.4q37.13 78.06 74.43 156.23c2.16 4.53 5.85 11.07 1.18 15.87a1.35 1.32 20.5 0 1 -.91.4l-15.76.49q-56.44-2.68-71.29-3.24c-8.09-.31-12.46-2.37-18.84-7.98-10.82-9.53-20.44-18.38-33.6-25.84-14.38-8.14-25.59-2.75-36.27 7.62q-9.04 8.78-18.02 20.78-1.2 2.07-2.91 3.23a.46.46 0 0 1 -.66-.6c7.21-13.39 17.36-28.98 30.13-37.4 24.94-16.45 54.51 14.03 71.01 29.48a6.32 6.29 67.8 0 0 4.05 1.71l85.81 3.97a.29.29 0 0 0 .28-.41l-78.39-165.08a.19.19 0 0 0 -.32-.04l-8.3 10.04a.66.66 0 0 0 -.07.73c23.71 43.73 44.65 89.03 66.15 133.88 2.17 4.53-1.06 6.81-5.33 6.89q-22.42.43-44.84.54c-7.5.04-11.66.93-17.98-4.29-13-10.71-26.22-21.59-41.57-29.04-17.65-8.56-29.86-2.08-45.41 7.24a.1.1 0 0 1 -.12-.16c12.16-11.81 27.48-18.87 44.36-11.83 17.62 7.35 30.27 18.69 47.36 32.33 1.31 1.05 4.17 1.81 5.82 1.79q27.29-.29 54.35-.31a.38.38 0 0 0 .34-.55q-22.94-47.38-45.7-94.69c-6.73-14-12.45-27.19-18.15-41.07a.4.4 0 0 0 -.65-.14c-24.82 23.48-58.08 35.07-89.15 47.47q-.46.19-.59.68c-18.55 73.91-34.44 149.42-44.16 224.48-9.41 72.72-10.17 146.75-4.73 220.07h-3.94q-5.54-72.37-2.6-136.19c4.74-103.23 25.88-206.02 50.76-306.09a.55.55 0 0 0 -.74-.65l-21.83 8.65q-.5.2-.61.73c-16.33 78.32-30.73 157.12-40.06 236.6-7.65 65.15-9.16 131.46-5.6 196.95h-8.67c-2.8-57.85-2.06-115.3 3.34-172.98 5.42-57.83 14.65-114.83 24.63-172.01q1.08-2.42 1.01-5.18 1.51-4.34 1.33-8.84 1.74-3.71 1.27-7.75l13.24-62.92a.29.29 0 0 0 -.39-.33q-13.6 5.28-26.85 11.51-1.81.85-2.98 2.52-17.39 24.85-38.55 46.67-24.09 24.13-50.87 45.47-.07.06-.15.03-.03-.02-.06-.04-.15-.07-.03-.19 27.47-29.91 43.69-48.22c34.61-39.06 62.41-83.29 91.53-126.77q1.3-1.94 2.48-5.08c.73-1.94 2.34-6.46 4.76-6.69q.47-.04.75-.43l10.31-14.29a.25.24-14.1 0 1 .42.25l-11.69 23.67c-13.35 23.35-25.21 45.61-41.26 69.36q-.38.57.25.31 37-15.03 74.16-29.62c25.74-10.11 61.81-25.65 76.5-51.37 14.66-25.67 3.06-54.53-9.53-78.39q-13.66-25.9-30.25-51.37-3.8-12.07-8.12-25.33-8.01-24.55-22.94-45.58-.33-.46-.65.01-23.39 34.39-56.69 59.34a.68.67 62.5 0 0 -.23.76q8.33 23.1 11.19 46.22c5.27 42.59-18.59 74.15-49.08 99.87-23.29 19.63-47.63 38.46-73.59 58.65-20.83 16.21-40.64 34.17-60.66 51.39q-2.69 2.32-7.09.67-.41-.15-.67-.5-43.88-59.5-102.36-131.35-15-18.41-27.83-41.92c-13.77-25.21-17.3-51.38-14.87-79.81q.04-.54-.34-.91-30.94-30.1-55.02-65.92-.4-.6-.68.07-1.13 2.75-1.83 5.76-6.19 26.38-11.49 52.3-18.34 18.74-25.92 27.51c-19.64 22.76-31.9 52.81-25.97 83.2 3.75 19.23 16.59 34.95 33.26 45.96q20.97 13.85 29.16 17.85c30.03 14.67 60.16 29.18 89.77 44.66a.15.15 0 0 0 .19-.22q-26.53-35.83-47.65-75.37c29.89 37.16 57.42 76.01 88.21 112.44 21.74 25.71 43.73 51.28 64.7 77.63a.22.22 0 0 1 -.33.3l-21.35-19.85q-39.42-37.94-72.96-81.2-1.1-1.41-1.78-1.74-7.42-3.59-25.28-11.25-.54-.23-.36.32 34.96 110.49 47.68 225.71c7.73 70.11 12.11 140.69 14.84 213.01h-8.64q-3.15-87.44-10.99-174.56c-8.27-91.85-24.98-181.38-53.43-269.16q-.16-.49-.62-.71l-12.94-6.13q-.58-.28-.41.34c20.52 75.37 38.38 151.32 48.42 228.88 9.51 73.4 14.36 147.41 17.39 221.34h-3.88q-2.02-44.98-4.94-89.94c-4.67-71.98-12.45-143.64-26.21-214.5q-13.88-71.53-35.76-148.41-.13-.49-.59-.71-42.71-20.77-63.4-32.61c-15.67-8.98-30.64-20.79-40.88-35.85q-.56-.82-.97.08l-70.88 156.88q-.4.87.55.85l66.81-1.5a6.09 6.06-65.9 0 0 3.82-1.47c11.55-9.96 22.02-19.31 35.81-28.13 37.87-24.23 57.42 8.73 73.72 36.7q.09.16.05.26-.04.1-.16.19-.29.23-.54-.04l-5.57-6.05c-7.48-10.32-15.08-19.71-25.59-27.07-9.81-6.87-18.38-6.07-28.67-1.52-14.42 6.37-28.83 19.07-40.5 29.62-5.09 4.6-9.26 6.7-15.73 6.69q-18.75-.04-38.05.7-11.58-.21-23.82.11-4.39.12-6.49-.97c-3.05-1.58-5.97-5.6-4.32-9.27q37.29-82.88 74.64-165.65a.13.13 0 0 0 -.18-.16q-75.59 42.68-151.1 85.52c-17.04 9.67-27.69 14.95-34.81 30.8q-3.34 7.42-11.49 29.22-14.28 37.78-22.34 70.98-13.54 55.79-28.52 130.39-17.77 88.53-34.88 177.18-.5 2.57-.61 4.19-.06.75.6.38 1.1-.63 1.55-.1l-2.48 3.21h-9.28c19.05-98.93 38.1-197.96 60.17-296.24q13.57-60.4 37.19-117.53 3.99-9.64 7.63-14.8c8.07-11.46 18.4-16.98 30.84-24.01q77.46-43.77 154.92-87.55.44-.25.31-.74-5.46-21.38-.33-44.59c7.12-32.27 28.12-55.07 51.16-76.7a1.65 1.61 75.2 0 0 .47-.83c4.37-20.49 9.56-40.48 17.47-59.87q.27-.66-.11-1.26-19.9-31.62-29.51-67.75-.13-.52-.64-.7c-8.85-3.1-14.1-10.47-18.07-18.49-14.53-29.34-25.07-62.32-26.48-94.68-.86-19.71 2.13-64.83 27.9-69.97 1.95-.39 4.83-.42 7.18-.59a.63.63 0 0 0 .59-.63c-.04-10.02.03-19.58-.63-29.95q-1.13-17.65-.7-26.12 1.98-38.62 4.11-77.24.03-.52.55-.49l2.7.17a.52.52 0 0 0 .29-.98l-5.15-2.84q-.48-.26-.48-.81v-10.03a1.1 1.09 3.3 0 1 1.22-1.08l3.03.35a.43.43 0 0 0 .22-.82l-3.47-1.58a.6.6 0 0 1 .11-1.13l3.16-.72a.45.45 0 0 0 -.01-.88l-2.52-.52a.61.59-80.4 0 1 -.47-.68l.56-4q.09-.63.72-.69l9.14-.87a.35.35 0 0 0 .1-.67l-7.5-2.91q-.6-.23-.41-.84l1.92-6.22q.15-.52.7-.52h4.53a.43.43 0 0 0 .23-.79l-3.94-2.56q-.52-.33-.31-.91l1.49-4.08q.22-.62.84-.41l7.46 2.48a.28.28 0 0 0 .3-.46l-7.24-7.55a.61.6-47.2 0 1 -.03-.81l9.18-11.14a1.69 1.69 0 0 1 1.74-.56l13.99 3.82a.26.26 0 0 0 .22-.47l-10.72-7.8a.42.42 0 0 1 .25-.76h5.26a.35.35 0 0 0 .17-.66l-4.12-2.23a1.02 1.02 0 0 1 -.43-1.35l3.12-6.23a1.6 1.6 0 0 1 1.55-.88l15.43 1.25 4.55.49q.86.09.17-.44l-3.46-2.68-11.63-9.37a.3.3 0 0 1 .22-.54l12.17 1.22a.31.3-21 0 0 .24-.53l-8.69-7.81a1.26 1.25 38.4 0 1 -.2-1.64l3.78-5.51q.32-.47.89-.37l11.03 1.96a.32.32 0 0 0 .27-.55l-5.64-5a.47.46-24.9 0 1 .3-.81l12.71-.36a.48.48 0 0 0 .3-.85l-8-6.86a.32.32 0 0 1 .29-.55l6.42 1.82a.41.41 0 0 0 .45-.63l-3.98-5.74q-.32-.45.02-.9l5.85-7.57a1.09 1.08-60.3 0 1 1.25-.35l15.34 5.74a.32.32 0 0 0 .36-.5l-12.43-15.34a.59.59 0 0 1 -.04-.69l5.28-8.25a.65.64-57.3 0 1 .89-.2l10.59 6.85a.41.41 0 0 0 .6-.51l-4.29-9.66a.36.36 0 0 1 .52-.45l8.19 5.41a.3.29 37.9 0 0 .39-.04q.12-.13.09-.3-.02-.11-.13-.21-4.59-4.23-9.06-8.35a.28.27-17 0 1 .25-.47l15.47 3.66a.35.35 0 0 0 .36-.55l-10.46-13.95a.81.81 0 0 1 .18-1.14l12.57-8.99a.98.97 45.8 0 1 1.17.02l9.66 7.57a.39.39 0 0 0 .6-.44l-5.11-13.21q-.22-.56.26-.93l14.38-11.03a.53.53 0 0 1 .82.23q3.39 9.23 8.35 17.7a.37.37 0 0 0 .68-.29l-3.39-12.08a.32.32 0 0 1 .51-.33l9.55 8a.33.33 0 0 0 .52-.35l-6.02-18.3a.69.68-17.3 0 1 .46-.87l16.57-4.87q.76-.23 1.04.51l2.43 6.38a.42.42 0 0 0 .82-.15v-12.19a.59.59 0 0 1 .47-.58l11.55-2.43a.62.61-9.5 0 1 .74.52l.9 7.31a.34.34 0 0 0 .67.05l2.99-10.12q.2-.7.79-.26l7.36 5.48a.38.38 0 0 0 .57-.14l4.27-8.94a1.15 1.11-83.9 0 1 .74-.62c1.17-.3 2.5-.83 3.64-1.03q30.87-5.39 61.67-9.46a.75.74-5.3 0 1 .85.7l.39 6.85a.36.36 0 0 0 .67.16l4.12-7.16q.26-.45.78-.43c16.18.91 38.3 4.52 48.78 18.57a.29.29 0 0 0 .5-.3l-3.44-7.66a.27.27 0 0 1 .45-.28l7.2 9.15a.82.82 0 0 0 1.27.01l5.19-6.19a.78.78 0 0 1 .8-.25l14.05 3.8a.45.45 0 0 1 .24.71l-6.4 8.29a.29.28 3.7 0 0 .37.42l10.98-6.44a2.25 2.25 0 0 1 1.9-.17l21.32 7.82q.55.2.5.79l-.97 10.33a.32.32 0 0 0 .57.22l7.02-9.45a.29.28 67.2 0 1 .51.21l-1.26 10.23a.31.31 0 0 0 .48.29l10.16-7.18q.4-.29.8.01l5.85 4.37q.43.32.15.77-2.14 3.39-5.36 7.1-.21.24-.1.56.15.41.47.13c10.34-8.55 24.57.95 33.58 6.69a.3.29 54.9 0 1 -.09.54l-11.75 2.43a.36.36 0 0 0 .04.71c10.23.96 21.86 4.09 29.55 9.05q3.02 1.95 13.45 10 .37.29.11.69l-4.38 6.55a.37.37 0 0 0 .49.53l7.51-4.23q.49-.28.93.09 16.97 14.23 26.07 22.48 18.2 16.52 30.03 39.35.23.44-.05.85l-4.26 6.26a.37.37 0 0 0 .42.56l9.95-3.29q.63-.21.79.44l2.28 8.91a1.29 1.29 0 0 1 -.21 1.08l-4.93 6.83a.45.44 20.8 0 0 .32.7l7.65.82a.42.42 0 0 1 .31.65l-5.69 8.81a.37.37 0 0 0 .38.56l9.07-1.51q.65-.11.85.52l3.87 12.17q.21.68-.49.77l-4.56.56a.65.65 0 0 0 -.39 1.09q7.18 7.61 8 18.12.11 1.39-.57.18l-3.14-5.6q-.11-.2-.32-.13-.14.04-.27.09-.09.03-.06.11c2.32 6.8 4.68 13.2 5.55 20.44q4.58 38.33 6.52 75.11 1.86 35.21-8.43 69.1c-1.47 4.84-1.23 9.35-1.38 14.26a.46.46 0 0 0 .72.4c6.56-4.36 14.15-7.26 21.91-5.98 11.77 1.94 21.56 14.08 25.75 24.67q6.25 15.81 6.12 33.81-.23 32.08-9.73 66.98c-5.01 18.4-20.05 57.5-46.78 35.58-1.8-1.47-3.69-3.82-5.54-5.77q-.49-.51-.62.18-8.24 41.59-23.84 80.95-1.7 4.28-8.35 16.34a.75.74-51.4 0 0 .09.85c17.75 20.57 25.94 43.51 33.45 69.38q.94 3.23 2.72 5.98 18.89 29.2 33.17 57.75c10.91 21.82 17.95 46.85 8.9 71.03q-.19.5.29.74 132.42 67.88 173.24 89.02c10.43 5.4 18.88 13.19 24.56 23.79 13.72 25.59 23.91 53.25 32.68 82.46q14.16 47.18 24.7 95.3 20.39 93.02 36.44 180.12 3.65 19.84 7.02 44.56zm-740.17-1249.92c-36.17 22.99-64.31 59.53-79.14 99.66l-5.81 13.98-2.48 6.9q-1.01-.37-.99.6c-10.68 19.41-22.35 40.46-25.23 62.28-2.48 18.77-4.37 40.12-2.66 60.28q1.35 66.59.07 125.66-.63 29.07 3 55.77c5.47 46.47 24.81 88.03 53.31 125.1 36.92 48.55 87.39 95.85 149.82 106.62 88.63 15.29 169.99-26.04 233.04-85.16 23.39-21.92 40.59-47.85 51.12-78.25 13.84-40.53 21.99-86.99 27.85-128l.31-1.31-.75 19.59-.79 10.18-4.2 30.67q-.06.48.19.89 3.41 5.46 8.39 9.47c20.68 16.67 33.34-14.87 37.61-28.72q10.92-35.42 10.97-72.39c.01-7.42-.95-14.38-2.56-21.39-3.5-15.29-18.2-39.75-37.8-30.29q-5.46 2.64-11.22 5.38-2.95-.72-2.92-2.41.12-5.08.06-10.66c1.64-21.11-.54-43.16-2.22-64.35-1.6-26.81-4.02-56.57-17.08-79.74q-7.21-12.8-17.79-29.61-1.26-2.66-1.97-3.89c-9.04-15.59-17.88-32.51-28.95-46.55q-10.65-13.49-22.59-25.89c-36.04-37.54-81.11-61.91-134.01-63.49-58.67-1.75-123.95 6.97-174.58 39.07zm-120.71 407.59-.46-6.52-.43-62.45-.42-59.55q0-.52-.52-.6c-7.4-1.08-13.07 1.55-17.89 6.95q-3 3.35-4.06 5.78c-19.31 44.23-4.58 98.67 14.15 140.08 3.2 7.08 8.5 17.01 15.68 20.69q.58.3.43-.34-4.89-21.71-6.48-44.04zm122.97 229.68q-.45 19.01-3.63 36.31-.09.48.15.92 12.78 23.72 26.77 40.94 44.89 55.26 70.22 88.49l29.27 40.05q.33.44.74.08 54.69-47.99 112.36-92.35l21.87-17.58q12.03-10.73 22.03-21.69.35-.38.26-.89c-5.84-31.15-7.46-63.13-8.38-94.7a.46.46 0 0 0 -.71-.37c-27.52 18.28-57.84 32.88-89.93 41.16-60.66 15.67-131.13 4.78-179.92-35.76q-1.4-1.16-1.37.66z"/><path d="m893.77 222.5q-.28 3.41.28 7.69 4.54 34.79-4.77 69.07-7.45 27.45-23.26 61.59-.24.5-.69.19-11.38-7.88-24.04-9.21c-20.97-3.13-41.38-.4-61.6 5.32-14.25 4.04-29.1 8.67-38.18 21.15q-1.35 1.85-.47-.27l3.01-7.23q.24-.58-.27-.21-11.2 7.96-15.03 20.71-9.67 7.39-12.64 19.29-4.08 16.32-1.23 32.37 0 8.83 1.67 17.73-.61 4.11-.31 6.82 3.23 29.82 9.01 68.56.08.54.63.52c17.6-.57 33.78.92 45.43 14.12 2.79 3.15 5.66 7.63 4.94 11.93q-.08.5-.53.76-1.55.88-3 .47c-11.62-3.31-31.68-8.88-42.93-3.61q-15.56 7.29-23.3 10.49c-16.03 6.61-33.43 3.15-49.83.12-13.27-2.45-23.19-3.35-33.96 6.02q-.52.45-.83-.17-1.83-3.75-2.57-9.04c2.77-8.1 9.41-14.47 15.44-20.5q1.09.28 1.97-.26 9.73-5.96 21.78-7.56.52-.07.59-.6c3.68-30.81 6.73-61.63 6-93.06-.54-23.6-5.97-49.27-33.15-55.25q-2.15-1.29-3.91-.97-10.76-6.67-22.9-10.35a.02.02 0 0 0 -.02.04l11.73 7.52a.23.23 0 0 1 -.21.4c-20.89-8.18-41.14-8.29-65.39-9.8q-16.51-1.03-28.12 9.56l-.63-.11q-.49-.09-.49-.6 0-.19.03-.38.03-.19.17-.38 11.05-14.47 22.47-28.72a1.65 1.63 66.8 0 0 .35-.89c4.09-52.67 14.14-109.72 40.79-155.87a.85.84-46.7 0 0 -.02-.88l-.6-.94c50.63-32.1 115.91-40.82 174.58-39.07 52.9 1.58 97.97 25.95 134.01 63.49z" fill="#f7c4a5"/><path d="m585.18 198.08.6.94a.85.84-46.7 0 1 .02.88c-26.65 46.15-36.7 103.2-40.79 155.87a1.65 1.63 66.8 0 1 -.35.89q-11.42 14.25-22.47 28.72-.14.19-.17.38-.03.19-.03.38 0 .51.49.6l.63.11-9.84 9.98q-1.22-.07-1.47-1.39c-4.94-26.55-9-53.26-10.87-80.23-.11-1.6.18-2.98.42-4.56q2.78-5.88 5.38-11.94.27-.63-.69-.97c14.83-40.13 42.97-76.67 79.14-99.66z" fill="#eab294"/><path d="m893.77 222.5q11.94 12.4 22.59 25.89c11.07 14.04 19.91 30.96 28.95 46.55q.71 1.23 1.97 3.89 4.23 14.49 5.72 22.42 5.04 26.89 13.47 79.27 7.71 44.5 13.08 89.14l-1.04 7.35q-.11.78-.84.51l-.69-.26q-.57-.21-.97.25c-2.7 3.02-4.22 5.45-8.25 7.5q-3.33 1.69-7.66 7.82-1.16 1.63-1.17 2.67c-.18 22.32-2.44 44.42-8.45 66.24q-36.47 132.42-142.18 217.26c-28.93 23.22-67.14 35.4-104.07 37.23q-10.41.52-28.3.05c-15.46-1.47-36.39-5.48-49.37-14.49q-31.76-22.03-63.49-44.11-19.48-13.54-37.82-29.37c-28.5-37.07-47.84-78.63-53.31-125.1.2-6.9-.46-14.94-.49-20.62q-.35-64.35 10.37-127.83c3.04-17.98 6.51-33.11 12.99-48.91 18.95-7.49 38.11-14.37 58.44-17.09q5-.66 21.5-2.07.71-.06.12-.47l-8.24-5.62q.23-.44.38-.37c3.96 2.03 10.22 6.4 14.56 6.65q3.34.19 5.9.36 12.72 10.42 23.09 21.6l8.66 9.74q.79.89-.33.48c-7.95-2.93-20.38-7.17-27.37-3.88-32.18-2.97-59.83 15.92-77.13 41.71q-1.05 1.57.6.65l26.4-14.63q.89-.49.24.29-12.37 15.02-27.82 26.84-.53.41.12.54 7.98 1.57 15.6-1.95l2.4.51q.49.1.94-.1 10.34-4.46 18.85-11.84.71-.04.64-2.03 5.11.05 8.34-1.82l5.24-.51q.49-.05.92.17c.88.46 1.41.79 2.47.66q17.23-2.03 34.47-3.88c7.56-.81 13.98.59 21.22 2.48l-33.38 14.08q-20.23 7.77-41.98 8.79a.11.11 0 0 0 -.02.22q12.35 2.66 24.18.66c15.29-2.31 28.85-6.26 43.26-11.95q9.7-2.49 19.22-7.07a.67.66 72.8 0 1 .94.5l3.86 24.44q.09.62.5.14l19.14-22.68q.4-.47.48-1.08 3.19-23.11-1.25-48.81c-2.53-14.66-8.77-25.58-20.72-33.76q-3.7-2.53-7.32-5.3c27.18 5.98 32.61 31.65 33.15 55.25.73 31.43-2.32 62.25-6 93.06q-.07.53-.59.6-12.05 1.6-21.78 7.56-.88.54-1.97.26l.78-.88.73-.64q.42-.37.44-.93l.54-14.44q.03-.92-.58-.24l-38.76 43.39c-14.51 17.12-27.69 34.95-50.65 41.3q-4.97 1.38-17.36 3.72-.69.13-.22.65c8.49 9.41 19.59 10.41 31.52 11.19a1.49 1.49 0 0 1 1.38 1.28q.8 5.5 2.22 11.41.09.39.34.46.33.11.24-.23c-1.34-5.03 5.41-15.7 8.71-19.42q10.33-11.65 21.51-22.73 10.61-10.15 20.29-22.27.94 15.38 14.61 22.11 5.82 5.02 14.28 3.32 9.26-1.86 18.53-3.68c16.07-3.17 27.53 9.43 43.8-.44q8.78-5.32 17.47-10.75c9.72-6.06 15.62.49 25.49 1.41 10.09.94 27.1-2 30.98-13.25q1.55-4.46 4.26-6.96.39-.35.8-.03c20.97 16.65 38.82 31.51 55.38 48.29 1.08 1.09 1.41 2.31 2.48 3.36 6.61 6.47 12.64 14.52 18.43 21.78a.15.15 0 0 0 .26-.13c-4.82-18.98-11.19-35.9-23.03-51.72-23.33-31.15-53.46-54.97-86.78-74.52q-.79-.47-.64.44l2.66 15.78q.08.49.5.78l8.46 5.76q7.42 7.63 11.9 14.2c4.36 6.38 6.2 16.82 1.69 23.92q-2.8 1.11-5.36 2.32c-2.6 1.22-4.51.76-6.24-1.34-4.7-5.71-9.44-11.66-17.06-13.19q-13.19-2.64-24.1 3.98c-12.41 7.53-19.92 23.24-37.33 17.97-16.29-4.93-30.2-14.88-48.01-9.89q-14.81 4.15-21.5 5.2-1.2-8.71 1.5-15.84.74 5.29 2.57 9.04.31.62.83.17c10.77-9.37 20.69-8.47 33.96-6.02 16.4 3.03 33.8 6.49 49.83-.12q7.74-3.2 23.3-10.49c11.25-5.27 31.31.3 42.93 3.61q1.45.41 3-.47.45-.26.53-.76c.72-4.3-2.15-8.78-4.94-11.93-11.65-13.2-27.83-14.69-45.43-14.12q-.55.02-.63-.52-5.78-38.74-9.01-68.56-.3-2.71.31-6.82l1.27 6.9a1.35 1.3-78.8 0 0 .56.87l22.18 15.05q.48.33.57-.25l3.34-23.82q.07-.48.53-.31l18.83 7.2q-6.49-.96-12.18-3.41a.5.5 0 0 0 -.69.57l8.61 38a1.61 1.56 13.9 0 0 .55.88q35.61 28.6 69.48 59.26.38.34.88.37.63.05.98.25 19.2 11.2 42.46 21.09c14.91 6.34 38.5 12.1 49.57-3.81q2.9-4.17 4.96-13.16c8.48-36.91 7.95-74.3 1.38-111.49a.48.47 74.8 0 0 -.63-.37c-31.75 11.79-67.5 24.91-101.19 25.01-2.31.01-4.47-.53-6.75-.97-2.23-.43-4.69.35-7.17-1.06q-.42-.24-.91-.23-8.47.06-16.8-2.56l15.84 1.41c16.63 1.6 31.49-2.85 46.18-10.32a.23.23 0 0 0 -.14-.44c-26.58 4.44-49.9.34-77.53-6.1l-9.82-2.28q-.94-.22-.03-.53l21.64-7.33q14.69-.56 30.05-1.1 3.16-.11 8.61-1.56 2.12-.56 8.91-1.41c19.71 8.14 38.05 12.13 59.3 8.35q.95-.17.06-.54-32.11-13.39-63.65-28.1a.1.09 63.7 0 1 .06-.18q27.2 6.73 53.39 16.7a.07.07 0 0 0 .08-.12q-25.86-22.6-60.05-27.23-8.78-1.19-17.08-2.51-11.88-2.19-24.08-1.88-.83.02-.32-.64c12.25-16.14 26.83-26.99 47.33-31.26 17.46-.27 35.79 2.62 53.15 4.76q.87.11.24-.5c-13.23-12.73-28.99-24.9-47.23-30.06q12.66 1.33 24.04 9.21.45.31.69-.19 15.81-34.14 23.26-61.59 9.31-34.28 4.77-69.07-.56-4.28-.28-7.69zm-389.76 352.07c17.15 18.87 40.06 19.82 61.03 6.7 22.39-14 42.73-33.97 60.38-53.51q.36-.39.38-.92l1.97-43.15q.03-.64-.58-.44c-2.46.78-4.36 2.55-6.16 3.73-24.87 16.23-49.86 19.84-79.39 18.71-1.74-.07-7.15-.79-8.85-.13-18.66 7.21-36.13 17.54-36.86 39.87-.26 8.09 2.35 18.48 5.87 25.85q.87 1.81 2.21 3.29zm103.59 96.45-2.2 1.14c-9.94-4.57-19.08-10.3-28.68-15.55a.31.3-88.1 0 0 -.42.4c1.82 4.02 4.4 7.84 4.7 12.34.19 2.89-.97 6.47-1.43 9.5a3.8 3.8 0 0 0 3.4 4.37l22.44 2.18c-22.38 16.33-52.02 36.22-39.19 68.17 10.45 26.02 33.67 47.57 56.37 63.13q.43.3.83-.05l.55-.47q.36-.31.82-.18 28.11 7.76 57.26 6.82c38.96-1.25 83.47-9.03 114.29-35.23 17.23-14.65 31.23-36.49 35.7-58.58 1.86-9.15 1.04-21.92-5.2-29.42-7.38-8.87-23.07-13.5-34.27-15.98l5.28-4.25 10.25-5.97c8.01-1.05 13.72-1.45 17.68-8.63q3.46-6.28 7.44-13.16a.91.91 0 0 0 -.94-1.35c-8.92 1.46-16.77 7.98-26.44 7.45q7.79-13.25 8.54-28.2.59-11.85-.69-18.2c-2.13-10.55-13-20.14-21.3-26.12q-.46-.33-.84.08c-8.54 9.23-14.71 13-27.5 12.58-9.54-.32-21.65-.89-30.25 2.71q-6.79 2.85-24.59 12.44c-6.08 3.28-12.52 2.43-19.69.29-8.98-2.68-18.02-5.62-27.27-5.54q-6.8.06-25.75 1.03c-10.85.55-19.9-3.95-21.2-15.61a.39.39 0 0 0 -.69-.2q-10.7 12.74-17.88 27.92c-4.49 9.49-5.11 18.81-1.17 28.87q4.39 11.23 12.04 21.27z" fill="#eab294"/><path d="m510.48 254.27 3.46 2.68q.69.53-.17.44l-4.55-.49z" fill="#eab294"/><path d="m506.04 297.74q.96.34.69.97-2.6 6.06-5.38 11.94-.55.78-1.12 1.07z" fill="#98604c"/><path d="m947.28 298.83q10.58 16.81 17.79 29.61c13.06 23.17 15.48 52.93 17.08 79.74-3.95-1.34-5.65-5.1-9.52-5.75a1.33 1.27-13 0 1 -.79-.47q-2.06-2.59-5.37-1.44-8.43-52.38-13.47-79.27-1.49-7.93-5.72-22.42z" fill="#624a3e"/><path d="m501.35 310.65c-.24 1.58-.53 2.96-.42 4.56 1.87 26.97 5.93 53.68 10.87 80.23q.25 1.32 1.47 1.39-9.31 11.69-17.24 25.9-1.45-7.25-4.03-13.16c-.92-2.09-1.06-4.5-1.87-6.74-1.8-5.04-3.17-10.31-5.33-15.2-1.1-2.5-.72-5.06-1.92-7.32q-1.77-3.35-3.96-6.87 7.25-27.82 18.83-54.82l2.48-6.9q.57-.29 1.12-1.07z" fill="#ce957a"/><path d="m497.75 318.62q-11.58 27-18.83 54.82c-5.48 22.96-7.54 45.21-10.05 68.34-1.71-20.16.18-41.51 2.66-60.28 2.88-21.82 14.55-42.87 25.23-62.28q-.02-.97.99-.6z" fill="#624a3e"/><path d="m841.29 351.83c18.24 5.16 34 17.33 47.23 30.06q.63.61-.24.5c-17.36-2.14-35.69-5.03-53.15-4.76q-15.9-.13-31.84 2.45l14.01-10.46q.3-.22-.03-.38-.19-.1-.46.07c-7.24 4.39-15.34 10.24-23.47 12.59q-24.32 7.04-48.83 14.07a.31.31 0 0 1 -.32-.49q5.17-6 10.13-12.18 1.42-1.77-.26-.24c-4.36 3.96-9.26 9.77-14.65 12.4q-6.13 2.98-12.5 5.66-.6.25-.46-.38l1.26-5.76 1.04-3.68q3.83-12.75 15.03-20.71.51-.37.27.21l-3.01 7.23q-.88 2.12.47.27c9.08-12.48 23.93-17.11 38.18-21.15 20.22-5.72 40.63-8.45 61.6-5.32z"/><path d="m803.29 380.08-2.12-.33a1.29 1.28 33 0 0 -.87.18c-13.91 8.83-23.47 22.47-30.88 36.56a.49.49 0 0 0 .6.69q10.3-3.62 20.11-3.81-6.12 2-11.68 4.1c-16.67 6.31-25.71 19.22-30.28 35.91q-.18.65.48.56l3.73-.49q14.54-1.82 28.81-3.81c3.46-.48 7.49-.18 11.33-.53l-21.64 7.33q-.91.31.03.53l9.82 2.28q.15.69 1 .91.41.1.72.38 1.36 1.18.43 2.26a.92.91 54.5 0 0 -.15.91l.79 2.06-21.43-3.47a.18.18 0 0 0 -.11.34q14.96 6.75 31.11 11.13c-9.17-.32-22.86-5.27-29.26-7.44l-18.83-7.2q-.46-.17-.53.31l-3.34 23.82q-.09.58-.57.25l-22.18-15.05a1.35 1.3-78.8 0 1 -.56-.87l-1.27-6.9q-1.67-8.9-1.67-17.73c.76-19.47.42-32.85 10.51-46.73q.29-.4.75-.6l1.57-.65-1.26 5.76q-.14.63.46.38 6.37-2.68 12.5-5.66c5.39-2.63 10.29-8.44 14.65-12.4q1.68-1.53.26.24-4.96 6.18-10.13 12.18a.31.31 0 0 0 .32.49q24.51-7.03 48.83-14.07c8.13-2.35 16.23-8.2 23.47-12.59q.27-.17.46-.07.33.16.03.38z" fill="#b87e66"/><path d="m478.92 373.44q2.19 3.52 3.96 6.87c1.2 2.26.82 4.82 1.92 7.32 2.16 4.89 3.53 10.16 5.33 15.2.81 2.24.95 4.65 1.87 6.74q2.58 5.91 4.03 13.16-1.17 1.52-1.22 3.12c-6.48 15.8-9.95 30.93-12.99 48.91q-10.72 63.48-10.37 127.83c.03 5.68.69 13.72.49 20.62q-3.63-26.7-3-55.77 1.28-59.07-.07-125.66c2.51-23.13 4.57-45.38 10.05-68.34z" fill="#b87e66"/><path d="m628.02 389.48q10.02 7.83 15.54 19.31.26.54-.33.5l-12.02-.86q-.48-.04-.82-.38l-9.87-10.02a.16.16 0 0 0 -.25.2l5.65 9.56q.41.7-.4.68l-8.27-.27-29.78-.96q-2.56-.17-5.9-.36c-4.34-.25-10.6-4.62-14.56-6.65q-1-1-1.69-.93-.53.05-.09.35l1.4.95 8.24 5.62q.59.41-.12.47-16.5 1.41-21.5 2.07c-20.33 2.72-39.49 9.6-58.44 17.09q.05-1.6 1.22-3.12 7.93-14.21 17.24-25.9l9.84-9.98q11.61-10.59 28.12-9.56c24.25 1.51 44.5 1.62 65.39 9.8a.23.23 0 0 0 .21-.4l-11.73-7.52a.02.02 0 0 1 .02-.04q12.14 3.68 22.9 10.35z"/><path d="m835.13 377.63c-20.5 4.27-35.08 15.12-47.33 31.26q-.51.66.32.64 12.2-.31 24.08 1.88l-22.07 1.96q-9.81.19-20.11 3.81a.49.49 0 0 1 -.6-.69c7.41-14.09 16.97-27.73 30.88-36.56a1.29 1.28 33 0 1 .87-.18l2.12.33q15.94-2.58 31.84-2.45z" fill="#ce957a"/><path d="m631.93 390.45q3.62 2.77 7.32 5.3c11.95 8.18 18.19 19.1 20.72 33.76q4.44 25.7 1.25 48.81-.08.61-.48 1.08l-19.14 22.68q-.41.48-.5-.14l-3.86-24.44a.67.66 72.8 0 0 -.94-.5q-9.52 4.58-19.22 7.07l-26.38 6.99q1.47-2.2.94-4.71l33.38-14.08q4.62.64 11.24 1.93 1.58.3 3.21-.22a.53.52 65.5 0 0 .29-.78l-1.87-2.98q-8.2-11.99-22.98-18.6-12.56-5.6-25.56-9.75a.24.23 56.5 0 1 .09-.46l22.11 2.31 4.78 1.47 8.2 2.96q.81.29.11-.22-14.63-10.66-33.12-12.75c6.99-3.29 19.42.95 27.37 3.88q1.12.41.33-.48l-8.66-9.74 1.87-9.37q.1-.49.45-.83c1.24-1.24 1.23-3.15 1.74-4.27q1.22-2.73 2.93-5.26.06-.09-.05-.1l-.31-.04a.1.1 0 0 1 0-.2l.49-.07a.04.04 0 0 0 .01-.07q-.39-.17-.44-.43l8.27.27q.81.02.4-.68l-5.65-9.56a.16.16 0 0 1 .25-.2l9.87 10.02q.34.34.82.38l12.02.86q.59.04.33-.5-5.52-11.48-15.54-19.31 1.76-.32 3.91.97z" fill="#b87e66"/><path d="m728.75 391.3-1.04 3.68-1.57.65q-.46.2-.75.6c-10.09 13.88-9.75 27.26-10.51 46.73q-2.85-16.05 1.23-32.37 2.97-11.9 12.64-19.29z" fill="#ce957a"/><path d="m567.01 400.23q-.15-.07-.38.37l-1.4-.95q-.44-.3.09-.35.69-.07 1.69.93z" fill="#624a3e"/><path d="m982.15 408.18c1.68 21.19 3.86 43.24 2.22 64.35l-3.51 20.09a.56.56 0 0 1 -.78.42q-.99-.43-.53-3.38-5.37-44.64-13.08-89.14 3.31-1.15 5.37 1.44a1.33 1.27-13 0 0 .79.47c3.87.65 5.57 4.41 9.52 5.75z" fill="#98604c"/><path d="m587.47 407.24 29.78.96q.05.26.44.43a.04.04 0 0 1 -.01.07l-.49.07a.1.1 0 0 0 0 .2l.31.04q.11.01.05.1-1.71 2.53-2.93 5.26c-.51 1.12-.5 3.03-1.74 4.27q-.35.34-.45.83l-1.87 9.37q-10.37-11.18-23.09-21.6z" fill="#ce957a"/><path d="m812.2 411.41q8.3 1.32 17.08 2.51 34.19 4.63 60.05 27.23a.07.07 0 0 1 -.08.12q-26.19-9.97-53.39-16.7a.1.09 63.7 0 0 -.06.18q31.54 14.71 63.65 28.1.89.37-.06.54c-21.25 3.78-39.59-.21-59.3-8.35l10.21-2.49a1.34 1.32 51.8 0 1 .94.12c12.62 6.76 23.28 10.5 38.04 9.43q2.29-.17.12-.92c-19.91-6.95-39.17-16.59-59.7-22.52-.62-.18-1-.79-1.68-.92-17.8-3.38-38.99-2.59-54.46 7.05q-10.87 6.77-21.18 18.66l-3.73.49q-.66.09-.48-.56c4.57-16.69 13.61-29.6 30.28-35.91q5.56-2.1 11.68-4.1zm-13.95 4.69c26.58-1.82 50.19 5.04 74.09 16.89q7.97 3.96.37-.67-27.79-16.94-63.14-17.99c-18.55-.55-34.35 4.09-47.76 16.82q-1.14 1.09.15.18c11.09-7.82 22.26-14.27 36.29-15.23z" fill="#98604c"/><path d="m872.34 432.99c-23.9-11.85-47.51-18.71-74.09-16.89-14.03.96-25.2 7.41-36.29 15.23q-1.29.91-.15-.18c13.41-12.73 29.21-17.37 47.76-16.82q35.35 1.05 63.14 17.99 7.6 4.63-.37.67z"/><path d="m840.09 445.04q-6.79.85-8.91 1.41-5.45 1.45-8.61 1.56-15.36.54-30.05 1.1c-3.84.35-7.87.05-11.33.53q-14.27 1.99-28.81 3.81 10.31-11.89 21.18-18.66c15.47-9.64 36.66-10.43 54.46-7.05.68.13 1.06.74 1.68.92 20.53 5.93 39.79 15.57 59.7 22.52q2.17.75-.12.92c-14.76 1.07-25.42-2.67-38.04-9.43a1.34 1.32 51.8 0 0 -.94-.12zm-55.59 2.28c-1.96-5.05-1.39-8.11-1.28-13.5a.5.5 0 0 0 -.74-.44q-11.48 6.47-20.2 16.36-.32.38.17.32l21.76-2.27a.35.35 0 0 0 .29-.47zm61.9-7.23-14.82-6.94q-.97-.45-.76.6 1.03 5.27-.32 10.44-.17.64.48.53 7.88-1.24 15.39-3.96a.36.36 0 0 0 .03-.67z"/><path d="m783.22 433.82c-.11 5.39-.68 8.45 1.28 13.5a.35.35 0 0 1 -.29.47l-21.76 2.27q-.49.06-.17-.32 8.72-9.89 20.2-16.36a.5.5 0 0 1 .74.44z" fill="#eee"/><path d="m831.58 433.15 14.82 6.94a.36.36 0 0 1 -.03.67q-7.51 2.72-15.39 3.96-.65.11-.48-.53 1.35-5.17.32-10.44-.21-1.05.76-.6z" fill="#eee"/><path d="m591.52 435.18q18.49 2.09 33.12 12.75.7.51-.11.22l-8.2-2.96c-33.14-19.3-68.14-2.66-92.69 21.47q-.21.2-.05.31a.3.3 0 0 0 .38-.01q13.11-10.6 21.34-16.13c18.8-12.62 44.87-16.77 66.24-7.11l-22.11-2.31a.24.23 56.5 0 0 -.09.46q13 4.15 25.56 9.75 14.78 6.61 22.98 18.6c-20.03-18.73-53.85-30.76-78.36-14.7q-14.4 9.44-28.05 23.97-2.42 2.57-9.32 6.94-.71.44.12.5c9.07.59 18.33-8.69 24.5-14.33q.37-.33.87-.3l13.05 1.05q-3.23 1.87-8.34 1.82-.72.64-1.56 1.19-10.36 6.79-21.27 12.27-7.62 3.52-15.6 1.95-.65-.13-.12-.54 15.45-11.82 27.82-26.84.65-.78-.24-.29l-26.4 14.63q-1.65.92-.6-.65c17.3-25.79 44.95-44.68 77.13-41.71z" fill="#98604c"/><path d="m616.33 445.19-4.78-1.47c-21.37-9.66-47.44-5.51-66.24 7.11q-8.23 5.53-21.34 16.13a.3.3 0 0 1 -.38.01q-.16-.11.05-.31c24.55-24.13 59.55-40.77 92.69-21.47z"/><path d="m637.89 470.22 1.87 2.98a.53.52 65.5 0 1 -.29.78q-1.63.52-3.21.22-6.62-1.29-11.24-1.93c-7.24-1.89-13.66-3.29-21.22-2.48q-17.24 1.85-34.47 3.88c-1.06.13-1.59-.2-2.47-.66q-.43-.22-.92-.17l-5.24.51-13.05-1.05q-.5-.03-.87.3c-6.17 5.64-15.43 14.92-24.5 14.33q-.83-.06-.12-.5 6.9-4.37 9.32-6.94 13.65-14.53 28.05-23.97c24.51-16.06 58.33-4.03 78.36 14.7zm-9.17-2.71q.19.06.46-.07a.22.22 0 0 0 .02-.38q-10.43-6.41-21.79-10.94-.76-.3-.45.45 1.93 4.83 1.43 10.05-.06.61.56.61 9.59.04 19.13.08.02 0 .64.2zm-76.91 1.5q6.63 2.77 13.86 1.84a.45.45 0 0 0 .37-.59q-1.99-5.74-.74-11.69a.39.38-12.8 0 0 -.61-.38l-13 9.91a.53.53 0 0 0 .12.91z"/><path d="m763.83 466.33c6.4 2.17 20.09 7.12 29.26 7.44l3.29.93q8.33 2.62 16.8 2.56.49-.01.91.23c2.48 1.41 4.94.63 7.17 1.06 2.28.44 4.44.98 6.75.97 33.69-.1 69.44-13.22 101.19-25.01a.48.47 74.8 0 1 .63.37c6.57 37.19 7.1 74.58-1.38 111.49q-2.06 8.99-4.96 13.16c-11.07 15.91-34.66 10.15-49.57 3.81q-23.26-9.89-42.46-21.09-.35-.2-.98-.25-.5-.03-.88-.37-33.87-30.66-69.48-59.26a1.61 1.56 13.9 0 1 -.55-.88l-8.61-38a.5.5 0 0 1 .69-.57q5.69 2.45 12.18 3.41z" fill="#f7c4a5"/><path d="m628.08 467.31q-9.54-.04-19.13-.08-.62 0-.56-.61.5-5.22-1.43-10.05-.31-.75.45-.45 11.36 4.53 21.79 10.94a.22.22 0 0 1 -.02.38q-.27.13-.46.07-.62-.2-.64-.2z" fill="#eee"/><path d="m551.81 469.01a.53.53 0 0 1 -.12-.91l13-9.91a.39.38-12.8 0 1 .61.38q-1.25 5.95.74 11.69a.45.45 0 0 1 -.37.59q-7.23.93-13.86-1.84z" fill="#eee"/><path d="m780.73 459.25c27.63 6.44 50.95 10.54 77.53 6.1a.23.23 0 0 1 .14.44c-14.69 7.47-29.55 11.92-46.18 10.32l18.64-2.1a.37.36 46.1 0 0 .01-.72l-47.35-7.52-.79-2.06a.92.91 54.5 0 1 .15-.91q.93-1.08-.43-2.26-.31-.28-.72-.38-.85-.22-1-.91z" fill="#ce957a"/><path d="m783.52 465.77 47.35 7.52a.37.36 46.1 0 1 -.01.72l-18.64 2.1-15.84-1.41-3.29-.93q-16.15-4.38-31.11-11.13a.18.18 0 0 1 .11-.34z" fill="#98604c"/><path d="m984.37 472.53q.06 5.58-.06 10.66-.03 1.69 2.92 2.41.5 27.22.11 55.21-.15 10.91-1.23 21.76-.05.51.39.79.3.18.58.16c-5.86 41.01-14.01 87.47-27.85 128q-.93.21-1.16.55c-39.7 56.56-89.61 102.5-152.67 131.9a.21.2 6.4 0 1 -.25-.31l21.56-26.92a.2.2 0 0 0 -.27-.29c-26.3 18.94-55.02 36.82-86.93 41.51q-30.92 4.55-63.58-1.68 17.89.47 28.3-.05c36.93-1.83 75.14-14.01 104.07-37.23q105.71-84.84 142.18-217.26c6.01-21.82 8.27-43.92 8.45-66.24q.01-1.04 1.17-2.67 4.33-6.13 7.66-7.82c4.03-2.05 5.55-4.48 8.25-7.5q.4-.46.97-.25l.69.26q.73.27.84-.51l1.04-7.35q-.46 2.95.53 3.38a.56.56 0 0 0 .78-.42z" fill="#ce957a"/><path d="m552.36 475.17q.07 1.99-.64 2.03-8.51 7.38-18.85 11.84-.45.2-.94.1l-2.4-.51q10.91-5.48 21.27-12.27.84-.55 1.56-1.19z" fill="#ce957a"/><path d="m463.58 536.7q-10.66 12.25-14.08 25.67-1.88 13 2.42 23.76c2.6 6.52 8.72 13.03 12.55 19.54q1.59 22.33 6.48 44.04.15.64-.43.34c-7.18-3.68-12.48-13.61-15.68-20.69-18.73-41.41-33.46-95.85-14.15-140.08q1.06-2.43 4.06-5.78c4.82-5.4 10.49-8.03 17.89-6.95q.52.08.52.6zm-16.44-40.24q-7.68 5.6-9.64 13.79-6.82 28.52 1.59 59.15 4.35 14.92 11.36 29.29a.13.13 0 0 0 .25-.07q-.51-5.09-1.56-10.1c-1.65-7.9-6.07-16.81-7.42-24.01-2.95-15.87 6.27-31.08 14.22-44.45a1.44 1.4 59.3 0 0 .2-.83l-1.65-25.21q-.04-.59-.63-.54-4.01.3-6.72 2.98z" fill="#f7c4a5"/><path d="m985.85 591.98q6.59 6.89 13.61 4.25 10.36-3.9 11.12-15.74.68-10.69 3.58-20.94c2.11-7.45 2.89-12.68-1.84-18.35-5.55-6.65-13.69-6.75-21.73-5.78a.89.88 9.3 0 0 -.69.49l-.16.34q-.18-.03-.31.01-.24.08-.26.33l-1.78 25.62-.31 1.31q-.28.02-.58-.16-.44-.28-.39-.79 1.08-10.85 1.23-21.76.39-27.99-.11-55.21 5.76-2.74 11.22-5.38c19.6-9.46 34.3 15 37.8 30.29 1.61 7.01 2.57 13.97 2.56 21.39q-.05 36.97-10.97 72.39c-4.27 13.85-16.93 45.39-37.61 28.72q-4.98-4.01-8.39-9.47-.25-.41-.19-.89zm19.38-88.41q-6.21 6.42-10.63 15.56l-2.78 4.65a.25.25 0 0 0 .41.28q3.39-4.38 8.48-3.96c11.62.95 19.66 20.2 21.47 29.21 2.35 11.72 4.56 42.54-3.66 53.16-5.02 6.48-14.53-1.91-19.65 8.75q-.18.38.24.45c28.09 5.03 28.68-29.96 30.14-48.92q.95-12.36.67-18.02 2.01-16.16 1.34-32.16c1.23-17.36-16.65-23.58-26.03-9z" fill="#f7c4a5"/><path d="m504.01 574.57q-1.34-1.48-2.21-3.29c-3.52-7.37-6.13-17.76-5.87-25.85.73-22.33 18.2-32.66 36.86-39.87 1.7-.66 7.11.06 8.85.13 29.53 1.13 54.52-2.48 79.39-18.71 1.8-1.18 3.7-2.95 6.16-3.73q.61-.2.58.44l-1.97 43.15q-.02.53-.38.92c-17.65 19.54-37.99 39.51-60.38 53.51-20.97 13.12-43.88 12.17-61.03-6.7z" fill="#f7c4a5"/><path d="m617.08 484.07c-14.41 5.69-27.97 9.64-43.26 11.95l16.88-4.96z" fill="#98604c"/><path d="m591.64 486.35q.53 2.51-.94 4.71l-16.88 4.96q-11.83 2-24.18-.66a.11.11 0 0 1 .02-.22q21.75-1.02 41.98-8.79z" fill="#ce957a"/><path d="m439.09 569.4q-2-12.09-1.35-23.7 1.04-18.38 6.9-35.76 2.39-7.08 9.05-8.12.59-.09.32-.62l-2.91-5.6a.71.71 0 0 0 -.88-.34l-3.08 1.2q2.71-2.68 6.72-2.98.59-.05.63.54l1.65 25.21a1.44 1.4 59.3 0 1 -.2.83c-7.95 13.37-17.17 28.58-14.22 44.45 1.35 7.2 5.77 16.11 7.42 24.01q1.05 5.01 1.56 10.1a.13.13 0 0 1 -.25.07q-7.01-14.37-11.36-29.29z" fill="#eab294"/><path d="m439.09 569.4q-8.41-30.63-1.59-59.15 1.96-8.19 9.64-13.79l3.08-1.2a.71.71 0 0 1 .88.34l2.91 5.6q.27.53-.32.62-6.66 1.04-9.05 8.12-5.86 17.38-6.9 35.76-.65 11.61 1.35 23.7z" fill="#b87e66"/><path d="m1031.26 512.57c-1.14-3.68-1.96-8.37-3.89-11.22-5.8-8.53-15.12-2.66-22.14 2.22 9.38-14.58 27.26-8.36 26.03 9z" fill="#ce957a"/><path d="m1031.26 512.57q.67 16-1.34 32.16l-3.26 22.38q-.02.14-.16.14-.13 0-.27 0a.28.28 0 0 1 -.28-.3q1.09-18.48 2.18-36.95.51-8.62-.92-15.73c-1.71-8.44-12.11-8.1-18.04-4.25q-6.95 4.51-14.57 9.11 4.42-9.14 10.63-15.56c7.02-4.88 16.34-10.75 22.14-2.22 1.93 2.85 2.75 7.54 3.89 11.22z" fill="#98604c"/><path d="m1029.92 544.73q.28 5.66-.67 18.02c-1.46 18.96-2.05 53.95-30.14 48.92q-.42-.07-.24-.45c5.12-10.66 14.63-2.27 19.65-8.75 8.22-10.62 6.01-41.44 3.66-53.16-1.81-9.01-9.85-28.26-21.47-29.21q-5.09-.42-8.48 3.96a.25.25 0 0 1 -.41-.28l2.78-4.65q7.62-4.6 14.57-9.11c5.93-3.85 16.33-4.19 18.04 4.25q1.43 7.11.92 15.73-1.09 18.47-2.18 36.95a.28.28 0 0 0 .28.3q.14 0 .27 0 .14 0 .16-.14z" fill="#ce957a"/><path d="m630.48 600.91q8.47 2.53 16.73-.11.05-.02.05-.08-.02-.14-.14-.21-.09-.05-.26-.02-22.46 3.81-29.06-16.97 6.69-1.05 21.5-5.2c17.81-4.99 31.72 4.96 48.01 9.89 17.41 5.27 24.92-10.44 37.33-17.97q10.91-6.62 24.1-3.98c7.62 1.53 12.36 7.48 17.06 13.19 1.73 2.1 3.64 2.56 6.24 1.34q2.56-1.21 5.36-2.32-5.45 6.67-15.25 7.65-.31.04-.56.18-.38.22.05.2 4.4-.18 8.62-1.5c14.23-4.47 13.27-22.14 5.82-32.08q-6.25-8.34-12.27-12.57l-8.46-5.76q-.42-.29-.5-.78l-2.66-15.78q-.15-.91.64-.44c33.32 19.55 63.45 43.37 86.78 74.52 11.84 15.82 18.21 32.74 23.03 51.72a.15.15 0 0 1 -.26.13c-5.79-7.26-11.82-15.31-18.43-21.78-1.07-1.05-1.4-2.27-2.48-3.36-16.56-16.78-34.41-31.64-55.38-48.29q-.41-.32-.8.03-2.71 2.5-4.26 6.96c-3.88 11.25-20.89 14.19-30.98 13.25-9.87-.92-15.77-7.47-25.49-1.41q-8.69 5.43-17.47 10.75c-16.27 9.87-27.73-2.73-43.8.44q-9.27 1.82-18.53 3.68-8.46 1.7-14.28-3.32zm33.01-12.2-.67.95q-.45.62.08 1.17c7.12 7.45 26.27 7.84 35.36 6.14 10-1.87 16.35-8.13 23.42-15.93q.36-.39.89-.34c6.67.66 22.4.5 27.97-3.67a1.19 1.18 35.2 0 0 -.36-2.08q-14.36-4.47-26.66 2.56c-6.06 3.47-12.89 12.03-19.19 15.37-9.94 5.26-18.99 2.86-28.37-2.2-5.61-3.03-12.23-7.42-17.6-8.6-5.52-1.21-14.28-.89-16.49 5.69a.98.98 0 0 0 .2.98c3.93 4.41 16.48.82 21.21-.35a.2.2 0 0 1 .21.31z" fill="#b87e66"/><path d="m635.52 546.3q-.27-.06-.51-.06-.22.01-.44.19-5.7 4.66-9.82 9.33-8.78 9.96-8.88 23.04-9.68 12.12-20.29 22.27-.88.2-1.25.71a.76.76 0 0 1 -1.36-.59q1.94-10.12 4.82-19.94.65-2.22-.59-5.98-.15-.48.31-.68.81-.35.38-1.15l38.76-43.39q.61-.68.58.24l-.54 14.44q-.02.56-.44.93z" fill="#b87e66"/><path d="m985.85 591.98.79-10.18c14.14-3.72.72-16.38 5.87-22.52 2.33-2.78 8.31-3.94 6.96-9.27q-2.16-8.56-9.73-13.76l.16-.34a.89.88 9.3 0 1 .69-.49c8.04-.97 16.18-.87 21.73 5.78 4.73 5.67 3.95 10.9 1.84 18.35q-2.9 10.25-3.58 20.94-.76 11.84-11.12 15.74-7.02 2.64-13.61-4.25z" fill="#ce957a"/><path d="m989.74 536.25q7.57 5.2 9.73 13.76c1.35 5.33-4.63 6.49-6.96 9.27-5.15 6.14 8.27 18.8-5.87 22.52l.75-19.59 1.78-25.62q.02-.25.26-.33.13-.04.31-.01z" fill="#98604c"/><path d="m463.58 536.7.43 62.45-6.47-10.41a1.14 1.14 0 0 1 -.13-.94c2.03-6.57 6.26-18.05-1.13-20.83q-3.95-1.49-6.78-4.6 3.42-13.42 14.08-25.67z" fill="#b87e66"/><path d="m777.4 578.47c4.51-7.1 2.67-17.54-1.69-23.92q-4.48-6.57-11.9-14.2 6.02 4.23 12.27 12.57c7.45 9.94 8.41 27.61-5.82 32.08q-4.22 1.32-8.62 1.5-.43.02-.05-.2.25-.14.56-.18 9.8-.98 15.25-7.65z"/><path d="m635.52 546.3-.78.88c-6.03 6.03-12.67 12.4-15.44 20.5q-2.7 7.13-1.5 15.84 6.6 20.78 29.06 16.97.17-.03.26.02.12.07.14.21 0 .06-.05.08-8.26 2.64-16.73.11-13.67-6.73-14.61-22.11.1-13.08 8.88-23.04 4.12-4.67 9.82-9.33.22-.18.44-.19.24 0 .51.06z"/><path d="m449.5 562.37q2.83 3.11 6.78 4.6c7.39 2.78 3.16 14.26 1.13 20.83a1.14 1.14 0 0 0 .13.94l6.47 10.41.46 6.52c-3.83-6.51-9.95-13.02-12.55-19.54q-4.3-10.76-2.42-23.76z" fill="#eab294"/><path d="m663.28 588.4c-4.73 1.17-17.28 4.76-21.21.35a.98.98 0 0 1 -.2-.98c2.21-6.58 10.97-6.9 16.49-5.69 5.37 1.18 11.99 5.57 17.6 8.6 9.38 5.06 18.43 7.46 28.37 2.2 6.3-3.34 13.13-11.9 19.19-15.37q12.3-7.03 26.66-2.56a1.19 1.18 35.2 0 1 .36 2.08c-5.57 4.17-21.3 4.33-27.97 3.67q-.53-.05-.89.34c-7.07 7.8-13.42 14.06-23.42 15.93-9.09 1.7-28.24 1.31-35.36-6.14q-.53-.55-.08-1.17l.67-.95a.2.2 0 0 0 -.21-.31z"/><path d="m597.89 573.44q.43.8-.38 1.15-.46.2-.31.68 1.24 3.76.59 5.98-2.88 9.82-4.82 19.94a.76.76 0 0 0 1.36.59q.37-.51 1.25-.71-11.18 11.08-21.51 22.73c-3.3 3.72-10.05 14.39-8.71 19.42q.09.34-.24.23-.25-.07-.34-.46-1.42-5.91-2.22-11.41a1.49 1.49 0 0 0 -1.38-1.28c-11.93-.78-23.03-1.78-31.52-11.19q-.47-.52.22-.65 12.39-2.34 17.36-3.72c22.96-6.35 36.14-24.18 50.65-41.3z" fill="#ce957a"/><path d="m805.84 657.7-4.72.44-3.49-2.32-11.79-6.9q-22.05-11.06-46.34-14.69c-14.41-2.16-25.37-1.56-38.4 4.7q-.46.22-.97.15c-12.07-1.75-26.59-2.98-38.42.56q-8.05 1.85-14.92 5.83c-13.8 6.29-26.89 17.02-39.19 25.55q-7.65-10.04-12.04-21.27c-3.94-10.06-3.32-19.38 1.17-28.87q7.18-15.18 17.88-27.92a.39.39 0 0 1 .69.2c1.3 11.66 10.35 16.16 21.2 15.61q18.95-.97 25.75-1.03c9.25-.08 18.29 2.86 27.27 5.54 7.17 2.14 13.61 2.99 19.69-.29q17.8-9.59 24.59-12.44c8.6-3.6 20.71-3.03 30.25-2.71 12.79.42 18.96-3.35 27.5-12.58q.38-.41.84-.08c8.3 5.98 19.17 15.57 21.3 26.12q1.28 6.35.69 18.2-.75 14.95-8.54 28.2z" fill="#f7c4a5"/><path d="m785.84 648.92q-10.92-2.1-21.15-4.36c-18.08-4-40.16-.45-60.31 4.18-1.71.39-3.01.26-4.58-.25q-18.38-5.87-38.09-8.85c11.83-3.54 26.35-2.31 38.42-.56q.51.07.97-.15c13.03-6.26 23.99-6.86 38.4-4.7q24.29 3.63 46.34 14.69z" fill="#d18486"/><path d="m661.71 639.64q19.71 2.98 38.09 8.85c1.57.51 2.87.64 4.58.25 20.15-4.63 42.23-8.18 60.31-4.18q10.23 2.26 21.15 4.36l11.79 6.9q-.74.35-1.38.14c-31-10.22-62.47-5.72-93.79-.13-5.41.96-9.75.32-14.97-.47q-13.96-2.13-27.93-.93c-8.88.76-18.69 3.29-27.83 5.65q-.95.25-.23-.41l15.29-14.2q6.87-3.98 14.92-5.83z" fill="#98604c"/><path d="m646.79 645.47-15.29 14.2q-.72.66.23.41c9.14-2.36 18.95-4.89 27.83-5.65q13.97-1.2 27.93.93c5.22.79 9.56 1.43 14.97.47 31.32-5.59 62.79-10.09 93.79.13q.64.21 1.38-.14l3.49 2.32q8.02 4.58 16.9 6.99.72.19.11.62l-4.77 3.4q-6.84 2.94-11.03-.17c-6.96-5.16-11.69-8.57-18.83-9.17-13.48-1.14-26.78-1.8-40.29-.76q-2.41.18-18.35 2.44-11.79 1.67-26.8 2.6-36.74 2.28-79.55 9.94-7.95 1.42-19.09 1.31l5.98-3.18 2.2-1.14c12.3-8.53 25.39-19.26 39.19-25.55z" fill="#7f333a"/><path d="m808.1 673.39q.35-.11.05-1l5.21-3.24 4.77-3.4q.61-.43-.11-.62-8.88-2.41-16.9-6.99l4.72-.44c9.67.53 17.52-5.99 26.44-7.45a.91.91 0 0 1 .94 1.35q-3.98 6.88-7.44 13.16c-3.96 7.18-9.67 7.58-17.68 8.63z" fill="#ce957a"/><path d="m605.4 672.16-5.98 3.18-10.74-.13q-1.35-.01-.1.49l10.64 4.3 7.41 5.31q-2.81.74-1.22.09l-22.44-2.18a3.8 3.8 0 0 1 -3.4-4.37c.46-3.03 1.62-6.61 1.43-9.5-.3-4.5-2.88-8.32-4.7-12.34a.31.3-88.1 0 1 .42-.4c9.6 5.25 18.74 10.98 28.68 15.55z" fill="#b87e66"/><path d="m813.36 669.15-5.21 3.24q-12.15 6.57-25.42 8.21c-35.23 3.56-70.6 9.93-105.29 7.2q-21.55-1.69-43.07-3.8-3.71-.36-11.26-.38-12.18-.03-23.89-3.62l-10.64-4.3q-1.25-.5.1-.49l10.74.13q11.14.11 19.09-1.31 42.81-7.66 79.55-9.94 15.01-.93 26.8-2.6 15.94-2.26 18.35-2.44c13.51-1.04 26.81-.38 40.29.76 7.14.6 11.87 4.01 18.83 9.17q4.19 3.11 11.03.17zm-187.97 8.16-1.45 2.92q-.27.56.33.72l2.98.81q27.77 3.14 55.77 4.97c28.81 1.88 57.47-2.75 85.98-6.22q15.38-1.87 20.07-2.47a.83.82 87.9 0 0 .71-.77l.88-14.24q.03-.44-.4-.48-19.34-1.83-38.76-2.06c-14.33-.18-31.37 4.56-43.25 5.28-27.53 1.67-54.72 2.93-81.56 9.91q-.92.24-1.3 1.63z"/><path d="m627.25 681.76q-.42-2.57-1.86-4.45.38-1.39 1.3-1.63c26.84-6.98 54.03-8.24 81.56-9.91 11.88-.72 28.92-5.46 43.25-5.28q19.42.23 38.76 2.06.43.04.4.48l-.88 14.24a.83.82 87.9 0 1 -.71.77q-4.69.6-20.07 2.47c-28.51 3.47-57.17 8.1-85.98 6.22q-28-1.83-55.77-4.97z" fill="#eee"/><path d="m808.15 672.39q.3.89-.05 1l-10.25 5.97c-46.04 14.16-99.77 18.11-148.08 11.18a.42.42 0 0 0 -.32.74c15.23 12.14 31.17 21.31 51.04 22.94q10.4.85 25.71.18c-33 7.89-61.92 5.49-91.29-11.88l-15.66-13.62q-.56-.48.18-.5c22.65-.64 47.43 1.77 64.64 2.27 27.35.81 54.32-1.7 81.26-6.12q8.77-1.44 17.4-3.95 13.27-1.64 25.42-8.21z" fill="#98604c"/><path d="m625.39 677.31q1.44 1.88 1.86 4.45l-2.98-.81q-.6-.16-.33-.72z" fill="#7f333a"/><path d="m797.85 679.36-5.28 4.25q-17.9 11.71-38.28 21.16-13.81 6.41-28.09 9.63-15.31.67-25.71-.18c-19.87-1.63-35.81-10.8-51.04-22.94a.42.42 0 0 1 .32-.74c48.31 6.93 102.04 2.98 148.08-11.18z" fill="#d18486"/><path d="m599.22 680q11.71 3.59 23.89 3.62 7.55.02 11.26.38 21.52 2.11 43.07 3.8c34.69 2.73 70.06-3.64 105.29-7.2q-8.63 2.51-17.4 3.95c-26.94 4.42-53.91 6.93-81.26 6.12-17.21-.5-41.99-2.91-64.64-2.27q-.74.02-.18.5l15.66 13.62-28.28-17.21z" fill="#7f333a"/><path d="m792.57 683.61c11.2 2.48 26.89 7.11 34.27 15.98 6.24 7.5 7.06 20.27 5.2 29.42-4.47 22.09-18.47 43.93-35.7 58.58-30.82 26.2-75.33 33.98-114.29 35.23q-29.15.94-57.26-6.82-.46-.13-.82.18l-.55.47q-.4.35-.83.05c-22.7-15.56-45.92-37.11-56.37-63.13-12.83-31.95 16.81-51.84 39.19-68.17q-1.59.65 1.22-.09l28.28 17.21c29.37 17.37 58.29 19.77 91.29 11.88q14.28-3.22 28.09-9.63 20.38-9.45 38.28-21.16z" fill="#f7c4a5"/><path d="m959.23 691.52c-10.53 30.4-27.73 56.33-51.12 78.25-63.05 59.12-144.41 100.45-233.04 85.16-62.43-10.77-112.9-58.07-149.82-106.62q18.34 15.83 37.82 29.37 31.73 22.08 63.49 44.11c12.98 9.01 33.91 13.02 49.37 14.49q32.66 6.23 63.58 1.68c31.91-4.69 60.63-22.57 86.93-41.51a.2.2 0 0 1 .27.29l-21.56 26.92a.21.2 6.4 0 0 .25.31c63.06-29.4 112.97-75.34 152.67-131.9q.23-.34 1.16-.55z" fill="#98604c"/><path d="m975.42 805.32q-6.6 19.96-12.01 31.85-17.94 39.39-43.7 85.59-6.66 11.94-14.16 23.64l11.69-23.67a.25.24-14.1 0 0 -.42-.25l-10.31 14.29q-.28.39-.75.43c-2.42.23-4.03 4.75-4.76 6.69q-1.18 3.14-2.48 5.08c-29.12 43.48-56.92 87.71-91.53 126.77q-16.22 18.31-43.69 48.22-.12.12.03.19.03.02.06.04.08.03.15-.03 26.78-21.34 50.87-45.47c11.43 29.72 15.36 59.97 14.06 90.5-1.28 30.22-4.74 75.62-6.62 113.49q-4.13 83.11 8.62 165.32h-71q-1.34-.92-1.56-2.03-.09-.45-.47-.7c-18.13-12.38-33.6-28.7-41.49-49.5q-6.61-17.41-9.27-35.85-6.49-44.98-14.61-89.68c-6.53-35.96-17.14-68.54-30.8-102.98q-19.18-48.37-41.29-95.54a.26.26 0 0 1 .38-.32l69.07 50.44a.33.32 88.2 0 0 .44-.47l-13.56-16.51q-.29-.35-.13-.78l.36-.93 21.35 19.85a.22.22 0 0 0 .33-.3c-20.97-26.35-42.96-51.92-64.7-77.63-30.79-36.43-58.32-75.28-88.21-112.44q.2-2.44-1.55-5.39-7.23-12.13-16.06-28.25-28.12-51.29-35.23-109.95 5.3-25.92 11.49-52.3.7-3.01 1.83-5.76.28-.67.68-.07 24.08 35.82 55.02 65.92.38.37.34.91c-2.43 28.43 1.1 54.6 14.87 79.81q12.83 23.51 27.83 41.92 58.48 71.85 102.36 131.35.26.35.67.5 4.4 1.65 7.09-.67c20.02-17.22 39.83-35.18 60.66-51.39 25.96-20.19 50.3-39.02 73.59-58.65 30.49-25.72 54.35-57.28 49.08-99.87q-2.86-23.12-11.19-46.22a.68.67 62.5 0 1 .23-.76q33.3-24.95 56.69-59.34.32-.47.65-.01 14.93 21.03 22.94 45.58 4.32 13.26 8.12 25.33z" fill="#b4b3b8"/><path d="m492.47 789.04q7.11 58.66 35.23 109.95 8.83 16.12 16.06 28.25 1.75 2.95 1.55 5.39 21.12 39.54 47.65 75.37a.15.15 0 0 1 -.19.22c-29.61-15.48-59.74-29.99-89.77-44.66q-8.19-4-29.16-17.85c-16.67-11.01-29.51-26.73-33.26-45.96-5.93-30.39 6.33-60.44 25.97-83.2q7.58-8.77 25.92-27.51z" fill="#a2a2aa"/><path d="m975.42 805.32q16.59 25.47 30.25 51.37c12.59 23.86 24.19 52.72 9.53 78.39-14.69 25.72-50.76 41.26-76.5 51.37q-37.16 14.59-74.16 29.62-.63.26-.25-.31c16.05-23.75 27.91-46.01 41.26-69.36q7.5-11.7 14.16-23.64 25.76-46.2 43.7-85.59 5.41-11.89 12.01-31.85z" fill="#a2a2aa"/><path d="m845.19 932.21-2.77-82.09a.46.45 71.7 0 0 -.71-.36c-26.57 18.4-56.23 35.89-87.18 45.56-52.52 16.4-108.16-13.7-147.98-44.89q-9.18-7.2-19.11-15.08l-.27-14.73q-.03-1.82 1.37-.66c48.79 40.54 119.26 51.43 179.92 35.76 32.09-8.28 62.41-22.88 89.93-41.16a.46.46 0 0 1 .71.37c.92 31.57 2.54 63.55 8.38 94.7q.09.51-.26.89-10 10.96-22.03 21.69z" fill="#ce957a"/><path d="m587.44 835.35q9.93 7.88 19.11 15.08c39.82 31.19 95.46 61.29 147.98 44.89 30.95-9.67 60.61-27.16 87.18-45.56a.46.45 71.7 0 1 .71.36l2.77 82.09-21.87 17.58c-.32-.95-.67-1.49-.67-2.51q.11-35.12.51-70.12a.61.6-18 0 0 -.97-.49q-18.37 13.8-39.28 24.12-35.62 17.59-74.89 9.95c-33.61-6.55-66.63-18.87-98.15-32a.22.22 0 0 0 -.27.32c25.07 39.46 49.47 79.4 71.28 120.8q.23.42.18.9l-.11 1.25q-25.33-33.23-70.22-88.49-13.99-17.22-26.77-40.94-.24-.44-.15-.92 3.18-17.3 3.63-36.31z" fill="#eab294"/><path d="m823.32 949.79q-57.67 44.36-112.36 92.35-.41.36-.74-.08l-29.27-40.05.11-1.25q.05-.48-.18-.9c-21.81-41.4-46.21-81.34-71.28-120.8a.22.22 0 0 1 .27-.32c31.52 13.13 64.54 25.45 98.15 32q39.27 7.64 74.89-9.95 20.91-10.32 39.28-24.12a.61.6-18 0 1 .97.49q-.4 35-.51 70.12c0 1.02.35 1.56.67 2.51z" fill="#f7c4a5"/><path d="m395.9 1092.17 55.53 9.76a.94.94 0 0 0 .85-.28c16.11-16.62 35.43-37.85 60.97-32.17q14.17 3.15 31.19 14.27l5.57 6.05q.25.27.54.04.12-.09.16-.19.04-.1-.05-.26c-16.3-27.97-35.85-60.93-73.72-36.7-13.79 8.82-24.26 18.17-35.81 28.13a6.09 6.06-65.9 0 1 -3.82 1.47l-66.81 1.5q-.95.02-.55-.85l70.88-156.88q.41-.9.97-.08c10.24 15.06 25.21 26.87 40.88 35.85q20.69 11.84 63.4 32.61.46.22.59.71 21.88 76.88 35.76 148.41c13.76 70.86 21.54 142.52 26.21 214.5q2.92 44.96 4.94 89.94h-220.11q-2.76-40.24 1.42-80.34a.19.18 24.6 0 1 .31-.11l64.77 56.96a.14.14 0 0 0 .22-.18l-76.05-124.99a7.35 7.18-66.8 0 1 -.91-2.35q-7.99-40.29-16.03-80.42-.96-4.81-.93-9.72c.24-37.53.93-69.51-8.37-102.07-1.88-6.6-4.31-13.85-9.02-18.96q-.38-.41-.92-.38c-2.55.1-3.21 4.8-3.37 6.32-1.71 16.65-.68 33.07.82 56.3q1.54 23.95 3.4 47.66a.29.29 0 0 1 -.56.11c-9.92-29.23-21.21-57.25-37.44-83.64q-12.82-20.85-26.77-40.89a.09.09 0 0 0 -.16.09q20.4 55.84 34.71 113.65c8.33 33.64 14.6 68.56 15.82 103.02q1.65 46.66-4.17 94.19-4.89 39.97-9.62 65.75h-168.97l2.48-3.21q44.5-60.2 94.12-116.41.4-.46-.19-.33-17.3 3.7-30.38 9.63c-17.72 8.02-32.21 22.46-45 36.78a.21.2-19 0 1 -.36-.17c8.78-44.81 24.52-77.92 46.36-127.82 6.49-14.84 12.6-31.47 13.96-47.69q.55-6.52-.43-19.42c-1.05-13.92-2.11-27.62-.89-41.55 1.99-22.73 7.17-46.74 11.95-69.96a.96.96 0 0 0 -.23-.86l-4.71-5.22q8.15-21.8 11.49-29.22c7.12-15.85 17.77-21.13 34.81-30.8q75.51-42.84 151.1-85.52a.13.13 0 0 1 .18.16q-37.35 82.77-74.64 165.65c-1.65 3.67 1.27 7.69 4.32 9.27q2.1 1.09 6.49.97 12.24-.32 23.82-.11zm106.38-59.61c18.17-1.28 30 14.09 40.89 23.24a.1.1 0 0 0 .14-.14c-9.21-12.43-22.37-27.14-39.04-27.27-12.58-.09-27.5 9.01-37.51 16.66q-17.82 13.61-30.14 23.55a1.78 1.77-64.5 0 1 -1.12.4h-43.99q-.6 0-.36-.54c19.71-43.44 40.22-86.7 58.13-130.91a.74.74 0 0 0 -1.28-.73c-4.75 6.19-8.28 15.2-11.52 22.32q-24.48 53.77-48.69 107.66c-1.48 3.3 2.79 5.75 5.28 5.86q13.99.6 37.88.31c3.77-.05 7.92-.61 10.5-2.77 14.72-12.32 29.93-25.24 47.19-33.86q6.57-3.28 13.64-3.78z" fill="#404040"/><path d="m543.17 1055.8c-10.89-9.15-22.72-24.52-40.89-23.24q-7.07.5-13.64 3.78c-17.26 8.62-32.47 21.54-47.19 33.86-2.58 2.16-6.73 2.72-10.5 2.77q-23.89.29-37.88-.31c-2.49-.11-6.76-2.56-5.28-5.86q24.21-53.89 48.69-107.66c3.24-7.12 6.77-16.13 11.52-22.32a.74.74 0 0 1 1.28.73c-17.91 44.21-38.42 87.47-58.13 130.91q-.24.54.36.54h43.99a1.78 1.77-64.5 0 0 1.12-.4q12.32-9.94 30.14-23.55c10.01-7.65 24.93-16.75 37.51-16.66 16.67.13 29.83 14.84 39.04 27.27a.1.1 0 0 1 -.14.14z"/><path d="m911.02 1109.08q1.01.31 2.69-.6 12.38-6.73 27.06-10.74c16.87-4.61 30.47-3.76 43.36 8.15q9.82 9.08 17.92 19.73.31.4.82.37 36.04-2.19 71.81-5.72 7.27-.72 14.36-2.53l15.76-.49a1.35 1.32 20.5 0 0 .91-.4c4.67-4.8.98-11.34-1.18-15.87q-37.3-78.17-74.43-156.23a.3.3 0 0 1 .41-.4q81.88 42.07 163.82 84.44c7.39 3.82 15.12 8.98 19.78 15.94q1.18 1.76 6.82 12.96 8 15.85 14.24 32.5-.9 3.24-.69 4.31c6.37 33.47 7.38 64.78.17 98.23q-3.81 17.63-8.22 35.12-2.94 11.64-3.69 16.93-3.72 26.11 10.36 48.2.3.46.63.02c3.08-4.18 38.03-53.22 43.69-37.48q2.13 5.93 1.68 14.22-1.65 29.99-2.56 60.01-.87 28.3 2.96 49.75 6.33 35.45 28.94 68.5h-156.07q-8.41-24.97-12.16-51.1l-.18-7.83c-.14-20.13-.91-40.49.17-60.56 4.1-75.88 20.01-150.14 34.86-224.41q.63-3.12-1.25-.56-.06.09-.6 1.74c-1.67 5.07-3.95 10.33-5.47 15.02q-17.82 55.17-36.71 109.98c-20.14 58.4-38.92 109.75-68.94 160.31a.11.11 0 0 0 .17.14l40.05-36.47q.74-.67.52.31-2.47 10.86-4.97 21.7-8.2 35.5-11.41 71.73h-214.8c-5.44-73.32-4.68-147.35 4.73-220.07 9.72-75.06 25.61-150.57 44.16-224.48q.13-.49.59-.68c31.07-12.4 64.33-23.99 89.15-47.47a.4.4 0 0 1 .65.14c5.7 13.88 11.42 27.07 18.15 41.07q22.76 47.31 45.7 94.69a.38.38 0 0 1 -.34.55q-27.06.02-54.35.31c-1.65.02-4.51-.74-5.82-1.79-17.09-13.64-29.74-24.98-47.36-32.33-16.88-7.04-32.2.02-44.36 11.83a.1.1 0 0 0 .12.16c15.55-9.32 27.76-15.8 45.41-7.24 15.35 7.45 28.57 18.33 41.57 29.04 6.32 5.22 10.48 4.33 17.98 4.29q22.42-.11 44.84-.54c4.27-.08 7.5-2.36 5.33-6.89-21.5-44.85-42.44-90.15-66.15-133.88a.66.66 0 0 1 .07-.73l8.3-10.04a.19.19 0 0 1 .32.04l78.39 165.08a.29.29 0 0 1 -.28.41l-85.81-3.97a6.32 6.29 67.8 0 1 -4.05-1.71c-16.5-15.45-46.07-45.93-71.01-29.48-12.77 8.42-22.92 24.01-30.13 37.4a.46.46 0 0 0 .66.6q1.71-1.16 2.91-3.23z" fill="#404040"/><path d="m630.04 1448h-12.58c-3.03-73.93-7.88-147.94-17.39-221.34-10.04-77.56-27.9-153.51-48.42-228.88q-.17-.62.41-.34l12.94 6.13q.46.22.62.71c28.45 87.78 45.16 177.31 53.43 269.16q7.84 87.12 10.99 174.56z" fill="#404040"/><path d="m867.71 1448h-20.68c-3.56-65.49-2.05-131.8 5.6-196.95 9.33-79.48 23.73-158.28 40.06-236.6q.11-.53.61-.73l21.83-8.65a.55.55 0 0 1 .74.65c-24.88 100.07-46.02 202.86-50.76 306.09q-2.94 63.82 2.6 136.19z" fill="#404040"/><path d="m676.54 1103.15-.36.93q-.16.43.13.78l13.56 16.51a.33.32 88.2 0 1 -.44.47l-69.07-50.44a.26.26 0 0 0 -.38.32q22.11 47.17 41.29 95.54c13.66 34.44 24.27 67.02 30.8 102.98q8.12 44.7 14.61 89.68 2.66 18.44 9.27 35.85c7.89 20.8 23.36 37.12 41.49 49.5q.38.25.47.7.22 1.11 1.56 2.03h-120.79c-2.73-72.32-7.11-142.9-14.84-213.01q-12.72-115.22-47.68-225.71-.18-.55.36-.32 17.86 7.66 25.28 11.25.68.33 1.78 1.74 33.54 43.26 72.96 81.2z" fill="#a2a2aa"/><path d="m869.94 1081.24-1.27 7.75-1.56 8.28-.78 5.74c-9.98 57.18-19.21 114.18-24.63 172.01-5.4 57.68-6.14 115.13-3.34 172.98h-7.89q-12.75-82.21-8.62-165.32c1.88-37.87 5.34-83.27 6.62-113.49 1.3-30.53-2.63-60.78-14.06-90.5q21.16-21.82 38.55-46.67 1.17-1.67 2.98-2.52 13.25-6.23 26.85-11.51a.29.29 0 0 1 .39.33z" fill="#a2a2aa"/><g fill="#2b2b2b"><path d="m544.44 1083.75q-17.02-11.12-31.19-14.27c-25.54-5.68-44.86 15.55-60.97 32.17a.94.94 0 0 1 -.85.28l-55.53-9.76q19.3-.74 38.05-.7c6.47.01 10.64-2.09 15.73-6.69 11.67-10.55 26.08-23.25 40.5-29.62 10.29-4.55 18.86-5.35 28.67 1.52 10.51 7.36 18.11 16.75 25.59 27.07z"/><path d="m238.33 1061.77 4.71 5.22a.96.96 0 0 1 .23.86c-4.78 23.22-9.96 47.23-11.95 69.96-1.22 13.93-.16 27.63.89 41.55q.98 12.9.43 19.42c-1.36 16.22-7.47 32.85-13.96 47.69-21.84 49.9-37.58 83.01-46.36 127.82a.21.2-19 0 0 .36.17c12.79-14.32 27.28-28.76 45-36.78q13.08-5.93 30.38-9.63.59-.13.19.33-49.62 56.21-94.12 116.41-.45-.53-1.55.1-.66.37-.6-.38.11-1.62.61-4.19 17.11-88.65 34.88-177.18 14.98-74.6 28.52-130.39 8.06-33.2 22.34-70.98z"/><path d="m393.47 1448h-33.92q3.66-47.29 3.69-94.73c.01-2.49-.63-5.23-.75-7.84a1.11 1.11 0 0 0 -1.39-1.02c-1.89.5-3.35-.53-5.15-.74-3.73-.44-5.08-1.7-8.43-2.81q-.5-.17-.87-.53-1.37-1.35-3.29-1.77-.49-.11-.52.39-2.83 54.62-7.67 109.05h-14.55q4.73-25.78 9.62-65.75 5.82-47.53 4.17-94.19c-1.22-34.46-7.49-69.38-15.82-103.02q-14.31-57.81-34.71-113.65a.09.09 0 0 1 .16-.09q13.95 20.04 26.77 40.89c16.23 26.39 27.52 54.41 37.44 83.64a.29.29 0 0 0 .56-.11q-1.86-23.71-3.4-47.66c-1.5-23.23-2.53-39.65-.82-56.3.16-1.52.82-6.22 3.37-6.32q.54-.03.92.38c4.71 5.11 7.14 12.36 9.02 18.96 9.3 32.56 8.61 64.54 8.37 102.07q-.03 4.91.93 9.72 8.04 40.13 16.03 80.42a7.35 7.18-66.8 0 0 .91 2.35l76.05 124.99a.14.14 0 0 1 -.22.18l-64.77-56.96a.19.18 24.6 0 0 -.31.11q-4.18 40.1-1.42 80.34z"/><path d="m1089.04 1117.74q-7.09 1.81-14.36 2.53-35.77 3.53-71.81 5.72-.51.03-.82-.37-8.1-10.65-17.92-19.73c-12.89-11.91-26.49-12.76-43.36-8.15q-14.68 4.01-27.06 10.74-1.68.91-2.69.6 8.98-12 18.02-20.78c10.68-10.37 21.89-15.76 36.27-7.62 13.16 7.46 22.78 16.31 33.6 25.84 6.38 5.61 10.75 7.67 18.84 7.98q14.85.56 71.29 3.24z"/></g><path d="m869.94 1081.24q.47 4.04-1.27 7.75z" fill="#404040"/><path d="m868.67 1088.99q.18 4.5-1.33 8.84-.13-.57-.23-.56z" fill="#404040"/><path d="m1235.17 1090.19c17.02 45.07 29.89 95.5 39.87 141.55q20.18 93.1 37.51 186.76l4.59 29.5h-8.7q-22.61-33.05-28.94-68.5-3.83-21.45-2.96-49.75.91-30.02 2.56-60.01.45-8.29-1.68-14.22c-5.66-15.74-40.61 33.3-43.69 37.48q-.33.44-.63-.02-14.08-22.09-10.36-48.2.75-5.29 3.69-16.93 4.41-17.49 8.22-35.12c7.21-33.45 6.2-64.76-.17-98.23q-.21-1.07.69-4.31z" fill="#2b2b2b"/><path d="m867.11 1097.27q.1-.01.23.56.07 2.76-1.01 5.18z" fill="#624a3e"/><path d="m1140.03 1389.07q-1.24-3.53-1.44-10.51-.39-13.3-.17-26.61.01-.41-.3-.69-.53-.47-.38-1.2a.42.41 76.2 0 0 -.67-.41c-1.23 1.02-1.89 2.08-3.34 2.78-6.28 3.08-14.28 7.09-21.05 8.5a1.69 1.68-2.9 0 0 -1.34 1.47q-4.82 43.23-5.59 85.6h-19.3q3.21-36.23 11.41-71.73 2.5-10.84 4.97-21.7.22-.98-.52-.31l-40.05 36.47a.11.11 0 0 1 -.17-.14c30.02-50.56 48.8-101.91 68.94-160.31q18.89-54.81 36.71-109.98c1.52-4.69 3.8-9.95 5.47-15.02q.54-1.65.6-1.74 1.88-2.56 1.25.56c-14.85 74.27-30.76 148.53-34.86 224.41-1.08 20.07-.31 40.43-.17 60.56z" fill="#2b2b2b"/><path d="m359.55 1448h-24.38q4.84-54.43 7.67-109.05.03-.5.52-.39 1.92.42 3.29 1.77.37.36.87.53c3.35 1.11 4.7 2.37 8.43 2.81 1.8.21 3.26 1.24 5.15.74a1.11 1.11 0 0 1 1.39 1.02c.12 2.61.76 5.35.75 7.84q-.03 47.44-3.69 94.73z"/><path d="m1140.03 1389.07.18 7.83 2.63 51.1h-37.09q.77-42.37 5.59-85.6a1.69 1.68-2.9 0 1 1.34-1.47c6.77-1.41 14.77-5.42 21.05-8.5 1.45-.7 2.11-1.76 3.34-2.78a.42.41 76.2 0 1 .67.41q-.15.73.38 1.2.31.28.3.69-.22 13.31.17 26.61.2 6.98 1.44 10.51z"/><path d="m1140.21 1396.9q3.75 26.13 12.16 51.1h-9.53z" fill="#2b2b2b"/></svg>